<svg id="Layer_1" data-name="Layer 1" xmlns="http://www.w3.org/2000/svg" xmlns:xlink="http://www.w3.org/1999/xlink" width="39.73cm" height="20.45cm" viewBox="0 0 1126.09 579.74">
  <defs>
    <clipPath id="clip-path">
      <rect x="229.77" y="474.61" width="692.72" height="100.95" style="fill: none"/>
    </clipPath>
    <clipPath id="clip-path-2">
      <rect x="144.15" y="57.77" width="32.12" height="26.89" style="fill: none"/>
    </clipPath>
    <clipPath id="clip-path-3">
      <rect x="138.73" y="122.49" width="37.17" height="37.23" style="fill: none"/>
    </clipPath>
    <clipPath id="clip-path-4">
      <rect x="108.62" y="128.57" width="22.29" height="30.29" style="fill: none"/>
    </clipPath>
    <clipPath id="clip-path-5">
      <rect x="129.06" y="76.79" width="28.54" height="32.61" style="fill: none"/>
    </clipPath>
    <clipPath id="clip-path-6">
      <rect x="174.2" y="118.6" width="31.93" height="18.72" style="fill: none"/>
    </clipPath>
    <clipPath id="clip-path-7">
      <rect x="136.63" y="76.84" width="20.97" height="18.65" style="fill: none"/>
    </clipPath>
    <clipPath id="clip-path-8">
      <rect x="134.2" y="8.49" width="23.64" height="26.71" style="fill: none"/>
    </clipPath>
    <clipPath id="clip-path-9">
      <rect x="680.57" y="371.84" width="31.76" height="48.86" style="fill: none"/>
    </clipPath>
    <clipPath id="clip-path-10">
      <rect x="900.64" y="168.67" width="157.25" height="323.68" style="fill: none"/>
    </clipPath>
    <clipPath id="clip-path-11">
      <rect x="966.11" y="161.09" width="97.29" height="8.73" style="fill: none"/>
    </clipPath>
    <clipPath id="clip-path-12">
      <rect x="970.19" y="169.82" width="149.62" height="339.5" style="fill: none"/>
    </clipPath>
    <clipPath id="clip-path-13">
      <rect x="1035.28" y="341.04" width="52.07" height="40.04" style="fill: none"/>
    </clipPath>
    <clipPath id="clip-path-14">
      <rect x="303.4" y="272.69" width="49.54" height="78.63" style="fill: none"/>
    </clipPath>
    <clipPath id="clip-path-15">
      <rect x="301.54" y="269.09" width="47.92" height="75.71" style="fill: none"/>
    </clipPath>
    <clipPath id="clip-path-16">
      <rect x="291.2" y="271.8" width="88.73" height="110.9" style="fill: none"/>
    </clipPath>
    <clipPath id="clip-path-17">
      <rect x="364.34" y="287.78" width="74.95" height="77.23" style="fill: none"/>
    </clipPath>
    <clipPath id="clip-path-18">
      <rect x="309.12" y="263.24" width="42.62" height="31.38" style="fill: none"/>
    </clipPath>
  </defs>
  <title>illustration</title>
  <g>
    <polygon points="68.31 470.11 195.89 469.74 323.47 469.6 578.64 469.33 833.8 469.6 961.4 469.74 1088.97 470.11 961.4 470.5 833.8 470.62 578.64 470.88 323.47 470.62 195.89 470.5 68.31 470.11" style="fill: #263238"/>
    <g style="opacity: 0.25">
      <g style="clip-path: url(#clip-path)">
        <path d="M576.13,474.61c191.29,0,346.36,12.84,346.36,28.68S767.42,532,576.13,532s-346.36-12.84-346.36-28.68,155.07-28.68,346.36-28.68" style="fill: #ebebeb"/>
        <path d="M578.64,526.33c139,0,251.72,11,251.72,24.62s-112.7,24.61-251.72,24.61-251.71-11-251.71-24.61,112.7-24.62,251.71-24.62" style="fill: #ebebeb"/>
      </g>
    </g>
    <path d="M155.08,61.83c8.94-1.25,16.07-2.2,21.19-3.06V83.36c-10.28-1.61-19.83-4.57-24.22-6.66-6.53-3.12-12.3-12.73,3-14.87" style="fill: #f7a9a0"/>
    <path d="M157.13,61c9.05-1.43,15.11-2.49,19.14-3.28v27c-2.42-.27-4.91-.67-7.43-1.19A78.06,78.06,0,0,1,154,78.86c-4.37-1.87-10.14-6.4-9.86-10.57a3.13,3.13,0,0,1,.14-.81c.72-2.7,4.29-5.16,12.82-6.52" style="fill: #a6a6a6"/>
    <g style="opacity: 0.10000599920749664;isolation: isolate">
      <g style="clip-path: url(#clip-path-2)">
        <path d="M176.27,57.77V84.66c-2.42-.27-4.91-.67-7.43-1.19A77,77,0,0,1,154,78.86c-4.38-1.88-10.17-6.42-9.82-10.57a3.13,3.13,0,0,1,.14-.81c.76-2.68,4.35-5.11,12.85-6.45,9-1.43,15.08-2.48,19.11-3.26"/>
      </g>
    </g>
    <path d="M234,461.36c-3.24-2.59-35.14-17-35.14-17l.28-9.8V390.12H144.79s-.25,15.33-.14,32.76c0,3.88.14,7.87.14,11.81,0,3.35.12,6.68.2,9.79.4,14.69,1.07,26.86,2.28,27.62,3.17,2,86.59,2.25,89.51,1.29s.42-9.43-2.82-12" style="fill: #f7a9a0"/>
    <path d="M233.93,461.36c-3.25-2.59-35.14-17-35.14-17l.28-9.8V422.88H144.65c0,3.88.14,7.87.14,11.81,0,3.35.12,6.68.2,9.79.4,14.69,1.07,26.86,2.28,27.62,3.17,2,86.6,2.25,89.51,1.29s.39-9.43-2.85-12" style="fill: #fff"/>
    <path d="M234.15,461.46c-3.26-2.61-35.34-17.07-35.34-17.07l.28-9.84h-54.6c.33,18.82.95,36.67,2.5,37.61.7.42,4.78.75,10.86,1,4.43.2,9.89.37,15.88.49,25.87.53,61.41.41,63.3-.21,2.92-1,.37-9.41-2.88-12" style="fill: #3880e1"/>
    <path d="M235.84,470.27c-14.06.45-70.77.68-84.74,0-.1,0-.1-.09,0-.09,13.94-.68,70.68-.47,84.74-.08.29,0,.29.19,0,.17" style="fill: #263238"/>
    <path d="M201.08,441.57a.36.36,0,0,1-.3.41,77.31,77.31,0,0,0-16.28,3.34c-.23,0-.4-.17-.23-.33,4.24-3.94,11-4.76,16.54-3.71a.38.38,0,0,1,.27.29" style="fill: #263238"/>
    <path d="M205.06,444a.37.37,0,0,1-.29.41,78,78,0,0,0-16.28,3.35c-.23,0-.4-.19-.23-.33,4.23-3.94,11-4.76,16.54-3.72a.34.34,0,0,1,.26.29" style="fill: #263238"/>
    <path d="M209,446.38a.36.36,0,0,1-.28.43,78.8,78.8,0,0,0-16.29,3.33c-.23.06-.4-.17-.23-.32,4.23-3.93,11-4.75,16.52-3.71a.35.35,0,0,1,.28.27" style="fill: #263238"/>
    <path d="M213,448.84a.36.36,0,0,1-.28.42,76.55,76.55,0,0,0-16.28,3.34c-.24.06-.41-.18-.24-.33,4.24-3.93,11-4.75,16.53-3.71a.35.35,0,0,1,.27.28" style="fill: #263238"/>
    <path d="M211.07,428.51c-2.17-3-6.22-1.66-8.54.26A29.53,29.53,0,0,0,194,441.42a.06.06,0,0,0,0,0,.15.15,0,0,0,.15.16.5.5,0,0,0,0,.21.67.67,0,0,0,.83.49c4.58-1.67,9.68-2.84,13.59-5.94,2.3-1.79,4.69-4.88,2.52-7.87M210,431.94c-.54,3.34-5.94,5.37-8.6,6.36-2.23.87-4.5,1.65-6.68,2.61a87.75,87.75,0,0,1,5.15-7.28,33.18,33.18,0,0,1,3-3.1c1.64-1.49,8.18-4.66,7.18,1.41" style="fill: #263238"/>
    <path d="M180,440c4.57,1.95,9.81,1.86,14.65,2.36a.64.64,0,0,0,.2,0,.7.7,0,0,0,.47-.87l0,0a.14.14,0,0,0,0-.2,29.5,29.5,0,0,0-11.45-10.12c-2.72-1.23-7-1.57-8.33,1.88-1.28,3.2,1.73,5.85,4.46,7m-2.56-4c-2.48-5.58,4.64-4.14,6.61-3.1a30.79,30.79,0,0,1,3.64,2.33,88.82,88.82,0,0,1,6.81,5.75c-2.36-.38-4.75-.55-7.12-.86-2.84-.35-8.57-1-9.94-4.12" style="fill: #263238"/>
    <path d="M177.52,158.64s18,116.22,20.89,143.69c2.31,21.52,6.2,113.81,6.2,113.81H144.74s-2-77.92-2.74-102.9c-.14-4.57-.3-7.36-.3-7.59-.34-1.85-15-147-15-147Z" style="fill: #455a64"/>
    <path d="M152.47,406.41a.35.35,0,0,1-.26.26.34.34,0,0,1-.41-.26c-.57-17.88-1.11-35.77-1.84-53.66-1.29-31.55-3.25-63.07-6.09-94.56s-6.1-63-10.75-94.32c0-.16.25-.16.25,0,2.48,17.55,5,35.12,7.14,52.76q5.56,47,8.33,94.12c1.88,31.85,2.79,63.74,3.63,95.66" style="fill: #263238"/>
    <path d="M201,406.63a.12.12,0,0,1-.14.11c-.9.08-1.81.08-2.73.08L195,407c-1.93.07-3.85.08-5.78.16-7,.22-14,.31-21,.22-3.47-.05-6.87-.11-10.4-.24s-7.09-.43-10.61-.43c-.16,0-.16-.19,0-.19,2.11,0,4.16-.24,6.21-.24l5.77-.21c7-.15,14-.26,21-.15,3.48.06,6.94.15,10.41.28,1.79.15,3.79.11,5.39.15s3.32,0,4.87.19a.12.12,0,0,1,.11.14" style="fill: #263238"/>
    <path d="M170.22,158.64,142,313.24c-.13-4.57-.29-7.36-.29-7.59-.34-1.85-15-147-15-147Z" style="fill: #263238"/>
    <path d="M83.68,458.63c-1.9-3.69-25-30-25-30L63,419.88l5.69-11.67,13.91-28.4L34.45,358.09s-7.36,12.85-15.36,28.36c-1.87,3.59-3.74,7.34-5.57,11.1-1.48,3-2.63,6.07-3.85,9C4,420.1-.44,431.46.36,432.64c2.06,3.15,77.9,37.79,81,38.11s4.21-8.43,2.32-12.12" style="fill: #f7a9a0"/>
    <path d="M83.66,458.69c-1.89-3.69-25-30-25-30l4.28-8.79,5.7-11.67c-13.33-5.8-34.72-15.17-49.55-21.81-1.87,3.58-3.74,7.33-5.57,11.09-1.48,3-2.63,6.07-3.85,9C4,420.1-.44,431.46.36,432.64c2.06,3.15,77.9,37.79,81,38.11s4.19-8.36,2.3-12.06" style="fill: #fff"/>
    <path d="M83.83,458.83c-1.88-3.74-25.16-30.12-25.16-30.12L63,419.87,13.33,397.35C5.86,414.64-.87,431.18.09,432.64c2.07,3.16,78.34,38,81.44,38.33s4.18-8.4,2.3-12.14" style="fill: #3880e1"/>
    <path d="M81.78,467.62c-13-5.53-64.74-28.65-77.16-35-.14-.1-.1-.1,0-.1,13,5.13,64.58,28.7,77.22,34.91.27.12.18.32-.06.2" style="fill: #263238"/>
    <path d="M62,427.11a.37.37,0,0,1-.45.22,77.79,77.79,0,0,0-16.22-3.68c-.19,0-.28-.32-.08-.4,5.49-1.83,12,.22,16.61,3.44a.37.37,0,0,1,.14.42" style="fill: #263238"/>
    <path d="M64.49,431.05a.37.37,0,0,1-.51.11,78.06,78.06,0,0,0-16.2-3.66c-.11,0-.22-.32,0-.4,5.48-1.83,11.93.22,16.59,3.44a.38.38,0,0,1,.12.51" style="fill: #263238"/>
    <path d="M67.2,434.74a.34.34,0,0,1-.42.27,77.66,77.66,0,0,0-16.21-3.66c-.18,0-.29-.33-.07-.4,5.48-1.84,11.93.2,16.59,3.44a.36.36,0,0,1,.11.35" style="fill: #263238"/>
    <path d="M69.84,438.74a.35.35,0,0,1-.5.12,77.12,77.12,0,0,0-16.22-3.66c-.11,0-.2-.33,0-.41,5.49-1.83,11.95.21,16.6,3.45a.35.35,0,0,1,.12.5" style="fill: #263238"/>
    <path d="M76.48,419.29c-.73-3.61-5-4.08-7.89-3.27a29.72,29.72,0,0,0-13,8h0a.17.17,0,0,0,0,.24.63.63,0,0,0-.07.22.67.67,0,0,0,.57.76c4.86.35,10,1.35,14.83.2,2.78-.67,6.3-2.53,5.58-6.15M74,422c-1.91,2.82-7.64,2.43-10.57,2.29-2.39-.11-4.76-.37-7.17-.37a82,82,0,0,1,7.76-4.5,31.49,31.49,0,0,1,4-1.68c2.13-.68,9.38-.86,6,4.26Z" style="fill: #263238"/>
    <path d="M43.25,416.9c3.38,3.66,8.19,5.76,12.41,8.2l.2,0a.69.69,0,0,0,.77-.58h0a.16.16,0,0,0,.12-.19,29.48,29.48,0,0,0-6.21-14c-2-2.32-5.71-4.34-8.36-1.74-2.5,2.43-.84,6.05,1,8.22m-.47-4.67c.07-6.15,5.95-1.89,7.31-.14a28.43,28.43,0,0,1,2.36,3.62,84.78,84.78,0,0,1,3.84,8.05c-2.08-1.32-4.18-2.47-6.21-3.72-2.44-1.49-7.44-4.41-7.3-7.81" style="fill: #263238"/>
    <path d="M104,158.58S95.33,172.25,94.82,198c0,2.31-24.3,89.76-27.58,93.87-4.93,6.21-50.7,86.64-50.7,86.64l59.92,25.72s38.83-72.26,46-93.58C126.69,298.22,159,190.28,159,190.28c14.68-10.66,18.62-31.64,18.62-31.64Z" style="fill: #455a64"/>
    <path d="M129.53,166.31c-1.42,10.1-11.29,16.31-21.06,16.31a.65.65,0,0,1,0-1.29,24.85,24.85,0,0,0,13.3-4.56,20.13,20.13,0,0,0,7.34-10.53c0-.21.44-.12.42.07" style="fill: #263238"/>
    <path d="M168.5,183.9a63.94,63.94,0,0,1-9.51,6.38c-3.37,2-6.91,3.71-10.29,5.67-.13.07-.25-.13-.13-.22,3.25-2.24,6.34-4.67,9.69-6.74a53.83,53.83,0,0,1,10.09-5.35.15.15,0,0,1,.15.26" style="fill: #263238"/>
    <path d="M170,163.28c-.48,2.51-.81,5.07-1.21,7.6a35,35,0,0,1-1.35,6.4,10.12,10.12,0,0,1-3.45,4.89c-.87.66-1.88,1.3-2.73,1.86s-1.71,1.22-2.61,1.72l-.14.71c-.14.66-.32,1.29-.51,1.93a8.1,8.1,0,0,1-.67,1.92.14.14,0,0,1-.08.09.17.17,0,0,1-.23-.09,7.9,7.9,0,0,1,.1-2c.06-.67.14-1.35.23-2s1.92-9.53,2.41-11.33c1-3.64,2.17-7.23,3.27-10.86.05-.22.23-.14.23,0-.94,3.68-1.64,7.43-2.39,11.14-.37,1.9-.77,3.79-1.18,5.68-.18.84-.35,1.69-.56,2.55-.06.29-.12.6-.2.9.55-.38,1.07-.72,1.55-1.07.92-.66,1.87-1.29,2.72-2a10.94,10.94,0,0,0,3.2-5.17c.57-2,1-4,1.55-6.21s1.24-4.43,1.77-6.67c0-.16.25-.08.28,0" style="fill: #263238"/>
    <path d="M76.74,392.15a.13.13,0,0,1-.08.16c-.88-.27-23.7-9.64-30.06-12.53-3.16-1.44-15.86-7.29-19.1-8.84-.53-.27-.48-.64.2-.39,2.06.76,24,9.76,30.37,12.66,3.1,1.46,17.26,8.06,18.62,8.88a.1.1,0,0,1,0,.06" style="fill: #263238"/>
    <path d="M100.25,187.81a45.14,45.14,0,0,0,.62,7c.11.58.19,1.15.33,1.71l.18.85a2.9,2.9,0,0,1,.14,1,34.62,34.62,0,0,1-.65,3.52c-1,4.61-2.14,9.18-3.29,13.75C93,233.89,88,252,82.93,270.17Q81,277,79,283.74q-1,3.38-2.11,6.75a24.68,24.68,0,0,1-1.19,3.38c-.55,1.09-1.06,2.17-1.65,3.2-4.53,8.28-9.26,16.4-14.06,24.5-9.59,16.2-25,42.85-29.19,48.34-.43.58-.54.3-.32-.12C35.3,360.65,58.92,321,58.92,321c4.63-8.18,9.42-16.3,13.86-24.57a34.45,34.45,0,0,0,1.55-3.1c.42-1,.78-2.18,1.14-3.28.71-2.23,1.39-4.48,2.06-6.73l3.91-13.55c5.2-18.08,10.13-36.25,15-54.43,1.2-4.53,2.41-9.09,3.5-13.65.24-1.13.54-2.31.68-3.4a2,2,0,0,0-.11-.73l-.19-.88c-.12-.58-.2-1.17-.29-1.76a41,41,0,0,1-.51-7.09,49.64,49.64,0,0,1,8.28-26.69,49.79,49.79,0,0,0-7.57,26.7" style="fill: #263238"/>
    <path d="M136.5,62.21c5.81-5.3,18.89-2.31,20.35.37,21.38,39.51,25.59,106.47,25.59,104.83l-83.35-.56c0,1.05,12-81.43,37.41-104.64" style="fill: #a6a6a6"/>
    <g style="opacity: 0.10000599920749664">
      <g style="clip-path: url(#clip-path-3)">
        <path d="M155.2,150a23.65,23.65,0,0,1-4.14,1c-2.89.77-3.7,5.35-.76,6.67a10.86,10.86,0,0,0,9.73-.39c2.85-1.55,5-4.76,3.92-8a3.63,3.63,0,0,0-.87-1.46,3.76,3.76,0,0,0-5.33-.09c-.89.73-1.46,1.76-2.55,2.29"/>
        <path d="M161.09,136.13a3.29,3.29,0,0,0-4.51-1.16,7.29,7.29,0,0,0-2,2.27,4.61,4.61,0,0,1-.82,1.13c-.95,1-1.91,1.28-3,2.38a2.15,2.15,0,0,0-.39.52,2.69,2.69,0,0,0,1,3.68c4.36,2.21,11.66-3.15,9.95-8.1a3.1,3.1,0,0,0-.32-.72"/>
        <path d="M171,135.24c-1.68.88-1.89,3-2.41,4.65a6.46,6.46,0,0,1-1.75,2.87,2.2,2.2,0,0,0,1.55,3.68,6.5,6.5,0,0,0,5.51-3.6c1.16-2.08,2-5.41.11-7.31a2.6,2.6,0,0,0-3-.29"/>
        <path d="M141.17,145.39a1.85,1.85,0,0,0-.32.25,2.34,2.34,0,0,0-2,1.7,2.16,2.16,0,0,0,.14,1.48,2.07,2.07,0,0,0,1,1.08,4.33,4.33,0,0,0,2.79.31,2.9,2.9,0,0,0,2.42-2.82,2.48,2.48,0,0,0-2.46-2.42,2.76,2.76,0,0,0-1.48.42"/>
        <path d="M166.45,122.61a2.92,2.92,0,0,0-3.63,2,12.19,12.19,0,0,0-.29,3.46,9.59,9.59,0,0,0-.21,1.26,10,10,0,0,0-.15,1.55,2.3,2.3,0,0,0,.32,1.11,2.4,2.4,0,0,0,3.28.89c2.7-1.46,4.27-6.53,2.31-9.08a2.88,2.88,0,0,0-1.63-1.19"/>
        <path d="M171.67,149.55c-1.59.85-2,2.56-2.84,3.95-.73,1.07-1.74,2-2.55,3.11-1,1.44.47,3,1.8,3.1,4,.33,9.79-5.32,7.16-9.31a2.66,2.66,0,0,0-3.57-.85"/>
      </g>
    </g>
    <g style="opacity: 0.10000599920749664">
      <g style="clip-path: url(#clip-path-4)">
        <path d="M111.8,140.66a2.63,2.63,0,0,0-3.08,2.07,9.43,9.43,0,0,0,7,10.56,2,2,0,0,0,1-.11,2,2,0,0,0,1.16-2.53A18.49,18.49,0,0,0,115,147a8,8,0,0,1-1.12-4.13,2.63,2.63,0,0,0-2.09-2.18"/>
        <path d="M114.56,130.32c-1.32,2.11-.55,5.74.23,7.94a10.09,10.09,0,0,0,4.81,5.58c1.38.8,2.72-1,2.3-2.21a48.08,48.08,0,0,1-1.37-5.31c-.4-2,0-4-.56-5.89-.77-2.69-4.09-2.22-5.41-.11"/>
        <path d="M123.35,148.54a2.34,2.34,0,0,0-2.13,2.54,10.27,10.27,0,0,0,5,7.14,2.87,2.87,0,1,0,2.93-4.87,12.16,12.16,0,0,1-3.74-3.88,2.34,2.34,0,0,0-2.07-.93"/>
      </g>
    </g>
    <g style="opacity: 0.10000599920749664">
      <g style="clip-path: url(#clip-path-5)">
        <path d="M152,86.12c1.49-1.35,3.33-2.26,4.76-3.66a2.28,2.28,0,0,0,.66-.85,2.35,2.35,0,0,0-1.15-3.11c-2.72-1.27-5.81,0-8,1.55s-5.08,4.19-4.66,7.14a3,3,0,0,0,3.2,2.56c2.36-.11,3.68-2.28,5.17-3.63"/>
        <path d="M137.68,98.49a2.56,2.56,0,0,0,3.6.42,8,8,0,0,0,2-3.37v-.22a12.37,12.37,0,0,0,.59-1.14,3.32,3.32,0,0,0,.13-2.44,2.48,2.48,0,0,0-3.32-1.13,5,5,0,0,0-2.15,1.78c-1,1.46-2.11,3.71-1.19,5.45a2.8,2.8,0,0,0,.37.65"/>
        <path d="M132.63,91.21a2.56,2.56,0,0,0,3.62,0c1.71-2.07,3-4.46,4.66-6.55,1.32-1.66,4.25-3.77,4.25-6a1.56,1.56,0,0,0-.88-1.55c-2.78-1.09-5.92,1.89-7.76,3.75a15.84,15.84,0,0,0-4.66,8.48,2.58,2.58,0,0,0,.77,1.95"/>
        <path d="M139.87,108.65a2.12,2.12,0,0,0,.65-.91l.2-.72a14,14,0,0,0-.18-2.42,2.87,2.87,0,0,0-3.7-2.28l-.63.38-.5.48a4.39,4.39,0,0,0-.85,2.08,4.59,4.59,0,0,0,.24,2.35,3,3,0,0,0,1.56,1.56,3.49,3.49,0,0,0,1.47.23,2.78,2.78,0,0,0,1.74-.75"/>
        <path d="M133.65,102.28a6.39,6.39,0,0,0,.34-1.56,3.84,3.84,0,0,0,.09-1,9.43,9.43,0,0,0,.25-2.36,1.84,1.84,0,0,0-.35-.87,1.91,1.91,0,0,0-2.65-.41,5.17,5.17,0,0,0-1.69,2.38,5.82,5.82,0,0,0-.56,3.1,2.45,2.45,0,0,0,2,2.1,2.42,2.42,0,0,0,2.55-1.38"/>
      </g>
    </g>
    <path d="M151.71,76.25c13.76,10.29,38.47,29,42,28.77s21.34-1.81,30.49-4.92c5.79-2,21.61,27.78,15.52,30.75-10.86,5.29-35.69,9.65-55.23,7.6-16.15-1.71-40-44.09-45.22-55.23-3.06-6.56.09-16.22,12.43-7" style="fill: #f7a9a0"/>
    <path d="M220.64,103.87A101.7,101.7,0,0,1,232,91.3c4.89-4.14,24.8-13.26,27.4-8.5s-11.6,11-14.71,13.3-3.13,3.38-1,3.46c-8.33,1.86-18.82,3.31-23.06,4.31" style="fill: #f7a9a0"/>
    <path d="M220.6,103.78c4.33-1,26.43-4.2,41-9.31,6.34-2.17,12.94-10.26,15.87-6.21,2.62,3.6-2.48,8.8-2.48,8.8s1.29,3.37-1.55,8.69c0,0,.74,3.39-3.67,7.76a6.84,6.84,0,0,1-2,4c-9.64,9.93-24.8,13.38-36.95,16.48Z" style="fill: #f7a9a0"/>
    <path d="M250.1,110.78a52.46,52.46,0,0,0,24.83-13.56c.11-.17-.05-.27-.17-.17a103,103,0,0,1-12.22,8.35,100.58,100.58,0,0,1-12.41,5.18c-.2.08-.14.25,0,.2" style="fill: #263238"/>
    <path d="M252,119.91A47.08,47.08,0,0,0,273.3,105.6h0C263,114.91,256,118,251.94,119.8c-.27.12-.18.29,0,.11" style="fill: #263238"/>
    <path d="M253,124.93c7.37-3.36,10.38-5,16.68-11.42h0A74,74,0,0,1,253,124.75c-.26.12-.17.35,0,.18" style="fill: #263238"/>
    <path d="M193.53,104c-1.56-.32-12.4-7.15-34.84-25s-27-4.45-18.31,11.61,27.16,43.42,41.09,48.65,48.7-2.08,48.7-2.08l-13.31-36.87s-21.76,4-23.33,3.72" style="fill: #a6a6a6"/>
    <g style="opacity: 0.10000599920749664">
      <g style="clip-path: url(#clip-path-6)">
        <path d="M181.73,131.15a2.6,2.6,0,0,0-.1,3.68,9.29,9.29,0,0,0,12.66,0,1.78,1.78,0,0,0,.45-.87,2,2,0,0,0-1.47-2.34,18.69,18.69,0,0,0-4.66.36,8.17,8.17,0,0,1-4.06-1.34,2.62,2.62,0,0,0-2.82.51"/>
        <path d="M174.57,123.18c1.09,2.2,4.5,3.62,6.77,4.19a10,10,0,0,0,7.29-1c1.44-.66.7-2.76-.58-3.1a44.91,44.91,0,0,1-5.16-1.78c-1.87-.75-3.35-2.19-5.23-2.78-2.77-.87-4.18,2.22-3.09,4.42"/>
        <path d="M194.56,125.89a2.35,2.35,0,0,0,.93,3.19,10.27,10.27,0,0,0,8.7-.25,2.63,2.63,0,0,0,.61-.29,2.85,2.85,0,1,0-3-4.83,12.18,12.18,0,0,1-5.29,1,2.35,2.35,0,0,0-1.91,1.2"/>
      </g>
    </g>
    <g style="opacity: 0.10000599920749664">
      <g style="clip-path: url(#clip-path-7)">
        <path d="M152,86.12c1.49-1.35,3.33-2.26,4.76-3.66a2.28,2.28,0,0,0,.66-.85,2.35,2.35,0,0,0-1.15-3.11c-2.72-1.27-5.81,0-8,1.55s-5.08,4.19-4.66,7.14a3,3,0,0,0,3.2,2.56c2.36-.11,3.68-2.28,5.17-3.63"/>
        <path d="M140.54,90.56a2.48,2.48,0,0,1,3.32,1.13,3.32,3.32,0,0,1-.13,2.44c-.17.4-.37.74-.59,1.15v.11a.17.17,0,0,1,0,.1c-1-1.72-1.9-3.27-2.73-4.82a.69.69,0,0,1,.13-.11"/>
        <path d="M144.38,77.1a1.55,1.55,0,0,1,.89,1.56c-.08,2.26-2.93,4.37-4.25,6-.75,1-1.43,2-2.1,3a32.22,32.22,0,0,1-2.29-6.89c1.84-1.91,5-4.81,7.75-3.67"/>
      </g>
    </g>
    <path d="M179,138.26c-1-1.22-10-3-31-32.26l-.86-.73c-.69-.62-1.35-1.29-2-2-1.35-1.38-2.59-2.87-4-4.24-.11-.15,0-.26.14-.15a49.78,49.78,0,0,0,4.36,3.92l.51.44c-2.25-3.45-4.39-7-6.3-10.62,0,0,.1-.07.1,0,4,5,7.1,10.39,11.09,15.72,19.62,26.15,27,28.26,28.11,29.82.09,0-.07.18-.14.07" style="fill: #263238"/>
    <path d="M222.06,137.16a78.47,78.47,0,0,1-3.36-8.1c-1-2.81-2.11-5.65-3.1-8.49-2-5.68-4-11.39-5.56-17.22a.11.11,0,1,1,.22,0c2.38,5.48,4.28,11.17,6.3,16.79,1,2.79,2,5.58,2.93,8.38a86.17,86.17,0,0,1,2.78,8.6c0,.12-.14.23-.21,0" style="fill: #263238"/>
    <path d="M217.73,101.92h-.19c-.08,0-.73-1.55-.82-1.55-4.47.77-17.21,3.23-20.49,3.88a6.57,6.57,0,0,1-4.34-.5,33.69,33.69,0,0,1-4.13-2.65c-3-2.07-22.27-16.72-25.16-18.77-.1-.07,0-.17.14-.17,2.73,2.07,27.56,19.34,29.12,20.18a7,7,0,0,0,4.43.91c3.47-.28,17.21-3,20.68-3.38a7.77,7.77,0,0,1,.76,2" style="fill: #263238"/>
    <path d="M172.2,29c.14-2.61,2.15-5,4.07-7.45V32.16c-2.44.89-4.25,0-4.07-3.17" style="fill: #f7a9a0"/>
    <path d="M158.55,64.3v-.2a6.63,6.63,0,0,1,0-1.26,48.75,48.75,0,0,1,2.38-11.64S142,45.07,142,45.69c-.14,3-.53,6.34-.95,9.32-.7,4.93-1.46,8.92-1.27,9.31,2.79,5.69,11,10.43,15,9.51,4.25-1,4.15-7,3.77-9.53" style="fill: #f7a9a0"/>
    <path d="M158.57,62.81a48.73,48.73,0,0,1,2.37-11.64s-14.88-4.82-18.25-5.47c.38,3.63,2.72,17.86,14,18.62a13,13,0,0,0,2,0v-.2a5.73,5.73,0,0,1-.06-1.31" style="fill: #263238"/>
    <path d="M164.53,13.82c5.34,4.05,10.13,29.59,4.79,37.69-5.49,8.35-16.94,7.59-23.86,1.15-4.78-4.48-8.1-24.1-6-30.86,3.2-10,17.13-14,25-8" style="fill: #f7a9a0"/>
    <path d="M157.7,37.44h0c1.13-.64,1.06-2.19.79-3.51-.09-.14,0-.14,0-.14.47,1.21.54,3.28-.79,3.65" style="fill: #263238"/>
    <path d="M157.47,37c-1.94.17-2.55-4.14-.39-4.33,1.82-.22,2.33,4.16.39,4.33" style="fill: #263238"/>
    <path d="M168.11,36.26h0c-1.25-.25-1.63-1.77-1.75-3.1,0-.11-.12-.11-.12-.11-.1,1.29.37,3.3,1.87,3.21" style="fill: #263238"/>
    <path d="M168.11,35.76c2-.4,1.27-4.68-.85-4.25-1.79.36-1.12,4.66.85,4.25" style="fill: #263238"/>
    <path d="M154.41,30.82a1,1,0,0,1-.5-1.3,3.41,3.41,0,0,1,1.74-1.67,2.26,2.26,0,0,1,2.3,0,.9.9,0,0,1,.29,1.08,2.91,2.91,0,0,1-1.55,1.12,13.29,13.29,0,0,1-1.55.79,1,1,0,0,1-.73,0" style="fill: #263238"/>
    <path d="M169.33,28.9a1,1,0,0,0,.1-1.38,3.36,3.36,0,0,0-2.19-1,2.32,2.32,0,0,0-2.2.71,1,1,0,0,0,.09,1.12,2.87,2.87,0,0,0,1.76.57,17.12,17.12,0,0,0,1.77.24,1,1,0,0,0,.67-.24" style="fill: #263238"/>
    <path d="M161.41,46.46A3.6,3.6,0,0,1,160,47c-.5,0-.87-.38-1.23-.65m0,0a0,0,0,0,0-.06,0,1.45,1.45,0,0,0,1.19,1.06,1.89,1.89,0,0,0,1.56-.93Z" style="fill: #263238"/>
    <path d="M159.87,42a6.3,6.3,0,0,0,4.89.87c0-.46-.76-3.44-.62-3.44a7.67,7.67,0,0,1,2.22.39c-.68-4.29-2.05-8.41-2.67-12.68a.14.14,0,0,1,.07-.08.12.12,0,0,1,.16.08A68.41,68.41,0,0,1,167.4,40.6c.09.55-1.93-.09-2.33-.23,0,0,.3,1.55.4,2.59v.24c0,.15-.07.32-.23.32l-.29.14h-.31a5.73,5.73,0,0,1-1.65.14,4.68,4.68,0,0,1-3.29-1.64c-.09-.1,0-.19.17-.21" style="fill: #263238"/>
    <path d="M159.72,42.13a6,6,0,0,0-.33,1.33c-.09.85.06,1.83,1.17,2a2.42,2.42,0,0,0,1.45-.26,5.52,5.52,0,0,0,2-1.94,7.07,7.07,0,0,1-4.25-1.1" style="fill: #263238"/>
    <path d="M159.39,43.46c-.09.85.06,1.83,1.17,2a2.42,2.42,0,0,0,1.45-.26,2.51,2.51,0,0,0-2.62-1.71" style="fill: #ff9bbc"/>
    <path d="M163.4,12.28c-8.32-4.61-19.36-.65-23.59,5.78s.84,23.63.84,23.63,4.71-1.33,3.87-9.31c-.94-8.94,1.18-14.53,7.52-14.85,4.33-.23,6.2,2.45,9.31,1.85,2.29-.44,2.6-3,3.72-2.8s2.17,1.86,3.11,3.42c0,0-1.77-6-4.78-7.72" style="fill: #263238"/>
    <path d="M145.49,43.55a2.29,2.29,0,0,1-.1.23,3.43,3.43,0,0,1-4.56,1.65c-3.38-1.15-6.8-10.35-3.93-12s7.36,4.66,7.36,4.66Z" style="fill: #f7a9a0"/>
    <path d="M137.94,36c3.26.28,5.58,4.46,5.58,7.58.07.25-.31.35-.42.15A10,10,0,0,0,142,41.82a2.08,2.08,0,0,0-2.32-.73V41a1.07,1.07,0,0,1,.22-.15,1.9,1.9,0,0,1,2.62.65,8.72,8.72,0,0,0-4.54-5.4Z" style="fill: #263238"/>
    <path d="M143.59,18.29c-4.29,4.84-3.67,18.53-6.72,16.76S132.7,25.3,132.68,24s0-10.45,2.18-12.54S146.62,8,149.72,8.14A28.65,28.65,0,0,1,157.84,10s-10,3.48-14.25,8.32" style="fill: #3880e1"/>
    <g style="opacity: 0.10000599920749664;isolation: isolate">
      <g style="clip-path: url(#clip-path-8)">
        <path d="M152.63,8.5c-5.7,1-10.91,3.4-13.77,7.62A33.45,33.45,0,0,0,134.2,31a6.46,6.46,0,0,0,2.74,4.1c3,1.74,2.43-11.9,6.72-16.75S157.84,10,157.84,10a33.91,33.91,0,0,0-5.21-1.47"/>
      </g>
    </g>
    <path d="M137.32,42.33c-.49-1-.9-2.59-1.42-4-.39-1.06-1.43-1.47-1.73-2.22C133,33,137.46,20.24,141,15.57S154.83,9.2,156.5,9A12.57,12.57,0,0,1,162,10c1.09.58,5.25,4.72,4.66,5.11s-1.57-1.38-5.45-1.38c-1.6,0-12.83,4-16.31,9.87s-6.58,15.81-6.58,19.46c0,.32-.45.22-1-.76" style="fill: #3880e1"/>
    <path d="M145.5,21.22a9.14,9.14,0,0,1-2.84-1.55,10.57,10.57,0,0,1-2.12-2.45h.11a12.62,12.62,0,0,0,2.29,2.15,18.27,18.27,0,0,0,2.64,1.7c.11,0,0,.21-.08.15" style="fill: #263238"/>
    <path d="M137.84,39.6a2.77,2.77,0,0,1-1.06-1.46,13.66,13.66,0,0,0-.62-1.87c-.54-.88-1.41-1.61-1.41-2.73h.12a2.36,2.36,0,0,0,.81,1.43,6.65,6.65,0,0,1,.93,1.17,7.38,7.38,0,0,1,.53,1.73,5.69,5.69,0,0,0,.4.87c.14.25.33.47.45.73,0,.08-.15.13-.15.13" style="fill: #263238"/>
    <path d="M139,35.45a3.74,3.74,0,0,1-1.24-1,8.15,8.15,0,0,1-1-1.24,12.53,12.53,0,0,1-.79-1.44c-.26-.58-.45-1.2-.72-1.76h.1c.27.53.69,1.09.93,1.55s.47.94.73,1.37a11.57,11.57,0,0,0,.87,1.32c.34.42.73.77,1.1,1.16,0,0,0,0,0,0" style="fill: #263238"/>
    <path d="M140,31.87a6.66,6.66,0,0,1-1.38-.83,6.41,6.41,0,0,1-1-1.08,11.8,11.8,0,0,1-1.44-2.69h.11c.53.89,1.07,1.65,1.64,2.44a10.86,10.86,0,0,0,2.13,2.1Z" style="fill: #263238"/>
    <path d="M141.33,28.4a.08.08,0,0,1-.1.05,2.41,2.41,0,0,1-1.22-.73,11.24,11.24,0,0,1-1.1-1.19,8.41,8.41,0,0,1-.92-1.37,3.82,3.82,0,0,1-.51-1.39h.12a3.39,3.39,0,0,0,.73,1.28l.93,1.17c.33.4.66.79,1,1.18a3.37,3.37,0,0,0,1,.91.1.1,0,0,1,0,.09" style="fill: #263238"/>
    <path d="M139,20.8c.29.39.65.79,1,1.14s.64.71,1,1,.69.63,1,.94m0,0a7.27,7.27,0,0,1,1,.87.14.14,0,0,1,0,.06.1.1,0,0,1-.11.08,3.73,3.73,0,0,1-1.23-.76,9,9,0,0,1-1.07-1,9.21,9.21,0,0,1-1-1.11,11.05,11.05,0,0,1-.76-1.28Z" style="fill: #263238"/>
    <path d="M148.17,18.89c-1.81-1.36-3.68-2.65-5.51-4-.12-.09,0-.09,0-.09a15.52,15.52,0,0,1,3,1.71c.47.34.93.71,1.37,1.1a15.33,15.33,0,0,1,1.19,1.23Z" style="fill: #263238"/>
    <path d="M145.69,12.93a16.3,16.3,0,0,1,3.23,1.56,6.83,6.83,0,0,1,1.3,1.1m1,1.33c-.42-.37-.76-.8-1.19-1.16a16.4,16.4,0,0,0-1.37-1c-1-.61-1.94-1.17-2.93-1.73m4.53,2.55a4.07,4.07,0,0,1,1,1.33Z" style="fill: #263238"/>
    <path d="M154.19,15.22h0c-.41-.32-.8-.67-1.18-1s-.79-.67-1.21-1a20.33,20.33,0,0,0-2.62-1.66c-.09-.11,0-.11,0-.11a9.55,9.55,0,0,1,2.76,1.39,7.56,7.56,0,0,1,1.23,1.1,9,9,0,0,1,1,1.29" style="fill: #263238"/>
    <path d="M152.69,10.53a4.63,4.63,0,0,1,1.3.64,13.74,13.74,0,0,1,1.24.8m0,0a4.55,4.55,0,0,1,1.62,2.22h0A13,13,0,0,0,155,12.31c-.78-.58-1.56-1.13-2.33-1.67Z" style="fill: #263238"/>
    <path d="M159.58,13.56h0a12.21,12.21,0,0,0-1.88-2.05A8.91,8.91,0,0,0,155.39,10c-.1,0,0-.11,0-.11a7.45,7.45,0,0,1,2.53,1.35,6.15,6.15,0,0,1,1.66,2.36" style="fill: #263238"/>
    <path d="M161.8,13.25a3.16,3.16,0,0,1-.34-.5,5.74,5.74,0,0,0-.36-.5,9.06,9.06,0,0,0-.84-.91,10.09,10.09,0,0,0-2-1.56c-.12-.1,0-.1,0-.1a13.18,13.18,0,0,1,2.17,1.44,6.54,6.54,0,0,1,.87,1,6,6,0,0,1,.36.52m0,0a1.76,1.76,0,0,1,.28.66Z" style="fill: #263238"/>
    <path d="M164.42,13.54a8.5,8.5,0,0,1-.73-.74l-.73-.72-.74-.71a5.49,5.49,0,0,0-.81-.72c-.14-.09,0-.09,0-.09l.87.64a8.7,8.7,0,0,1,.8.68,6.47,6.47,0,0,1,.72.76m0,0a5.57,5.57,0,0,1,.7.9Z" style="fill: #263238"/>
    <path d="M828.65,534.67c.19,3.1-8.5,3.74-12.07,1.7a80.48,80.48,0,0,1-8.21-7c-8.55-7.83-20.35-19.3-20.35-19.3l-9,3.83-36.61,13.35-24.56-47.46s21.2-8.5,41.34-16.09l9.11-3.38.56-.21c13.51-4.91,24.7-8.61,25.82-7.75,3,2.15,33.79,79.25,33.94,82.31" style="fill: #c95f50"/>
    <path d="M828.65,534.67c.19,3.1-8.5,3.74-12.07,1.7a80.48,80.48,0,0,1-8.21-7c9-1-33.69-61.18-39.48-69.26,13.51-4.91,24.7-8.61,25.82-7.75,3,2.15,33.79,79.25,33.94,82.31" style="fill: #263238"/>
    <path d="M771,522.53s-94.88,19.93-129.52,13c-16.57-3.27-28.18-25-19.88-41.18,7.76-15.15,53.64-29.83,66.73-38.58,4.12-2.75,3.9-14,3.9-14l33.85.17s11.7,19.4,6.42,28.63a5,5,0,0,1-.29.45l15.36-5.51Z" style="fill: #37474f"/>
    <path d="M750.54,496.58c-3.61-8.25-7.6-16.32-11.28-24.55,0-.15-.32-.07-.25.1,3.46,8.27,6.65,16.66,10.26,24.83s7.54,16.34,11.35,24.5c.09.22.43.11.34-.11-3.49-8.21-6.82-16.54-10.42-24.77" style="fill: #263238"/>
    <path d="M732.36,471.51c-2.36,1.3-4.66,2.85-6.91,4.26s-4.55,2.8-6.86,4.12q-7,4-14.28,7.48a241,241,0,0,1-30.06,12.32c-5.72,1.89-11.51,3.74-17.41,5.09-.12,0-.08.23,0,.2,4.29-1,8.57-1.88,12.81-3-2.25,1.37-4.49,2.79-6.74,4.17a.11.11,0,0,0,0,.16.11.11,0,0,0,.13,0c2.45-1.43,5-2.79,7.39-4.25a.24.24,0,0,0,.09-.32s0,0,0,0c.73-.19,1.46-.37,2.18-.59,5.26-1.55,10.44-3.23,15.51-5.19a189.52,189.52,0,0,0,29.16-14.07q3.95-2.32,7.76-4.81a73.47,73.47,0,0,0,7.5-5.36c.17-.09-.05-.35-.23-.24" style="fill: #263238"/>
    <path d="M864.7,546.94c.17,3.11-8.5,3.76-12.09,1.73a82,82,0,0,1-8.21-7c-8.53-7.84-20.34-19.3-20.34-19.3l-9,3.83-36.61,13.34-24.57-47.44s21.2-8.5,41.34-16.1l9.13-3.39.54-.2c13.52-4.9,24.71-8.61,25.84-7.76,3,2.17,33.77,79.26,33.94,82.31" style="fill: #c95f50"/>
    <path d="M864.7,546.94c.17,3.11-8.5,3.76-12.09,1.73a82,82,0,0,1-8.21-7c9.05-1-33.68-61.19-39.48-69.26,13.52-4.9,24.71-8.61,25.84-7.76,3,2.17,33.77,79.26,33.94,82.31" style="fill: #263238"/>
    <path d="M703.8,441.85l58.21.2s11.77,31.64,6.47,40.89-59.14,21.59-59.14,21.59L783.49,478,807,534.88S717,552.73,669.58,547c-17.8-2.15-28.55-25.65-17.78-43.35C663.14,485,703.51,460,703.51,460Z" style="fill: #37474f"/>
    <path d="M781.64,477.7c-22.75,9.88-45.68,19.3-69.12,27.47q-4.85,1.69-9.77,3.35c-3.39,1.15-6.75,2.46-10.2,3.38a.12.12,0,0,0-.08.16.13.13,0,0,0,.16.09c3-1.06,6.08-1.78,9.11-2.72s5.91-1.83,8.86-2.79l3.8-1.27-.74.53c-1.18.76-2.36,1.55-3.51,2.29-2.39,1.55-4.66,3.54-7.12,5a.13.13,0,0,0,0,.19.13.13,0,0,0,.19,0c2.38-1.63,5-2.82,7.48-4.34,1.2-.75,2.34-1.56,3.51-2.32a23.77,23.77,0,0,0,3.1-2.28q5.61-1.87,11.16-3.88Q746,494.29,763,486.93c6.36-2.73,12.68-5.59,18.91-8.61.28-.2,0-.78-.31-.62" style="fill: #263238"/>
    <path d="M787.9,508.39c-3.62-8.24-7.61-16.32-11.28-24.53,0-.17-.33-.08-.25.08,3.46,8.28,6.64,16.66,10.26,24.83s7.54,16.34,11.34,24.52c.09.2.43.09.34-.13-3.49-8.21-6.81-16.54-10.41-24.77" style="fill: #263238"/>
    <path d="M702.5,460.52a158.42,158.42,0,0,0-18.62,11.85,215.34,215.34,0,0,0-17.07,13.46c-2.77,2.41-5.45,4.93-8,7.53a57,57,0,0,0-6.84,8A28.31,28.31,0,0,0,646.79,519a30.14,30.14,0,0,0,2.12,9.74,35.46,35.46,0,0,0,5.23,8.43c.08.11.23,0,.14-.14a23,23,0,0,1-4.39-8,30,30,0,0,1,2.75-25.58c3.67-5.86,9-10.67,14.1-15.3a212.27,212.27,0,0,1,16.44-13.49c3.21-2.37,6.45-4.65,9.74-6.92s6.63-4.42,9.84-6.79a.23.23,0,0,0,0-.31.22.22,0,0,0-.31-.05" style="fill: #263238"/>
    <path d="M719.37,463.17a68.12,68.12,0,0,0-14.81-3.1c-4.95-.65-9.92-1-14.9-1.17a.12.12,0,0,0-.14.07.12.12,0,0,0,.06.14h.08c5.05.54,10.08,1.27,15.09,2.11s9.67,2,14.56,2.45c.29,0,.3-.4.06-.5" style="fill: #263238"/>
    <path d="M754.72,466.56a72.8,72.8,0,0,1-9.31-1,15.07,15.07,0,0,1-7.22-2.47c-4.08-3.1-5.65-8.64-6.44-13.52,0-.11-.22-.09-.2,0,.6,5.29.73,11.38,5.31,15a14.07,14.07,0,0,0,7.86,2.62,49.32,49.32,0,0,0,9.94-.43.12.12,0,0,0,.17,0,.13.13,0,0,0,0-.18.11.11,0,0,0-.12,0" style="fill: #263238"/>
    <path d="M765.18,473.1a62.26,62.26,0,0,0-1.46-9.1c-.68-3.11-1.55-6.13-2.41-9.16-1-3.42-2.26-6.8-3.53-10.13,0-.13-.25-.08-.21,0,1.82,5.66,3.46,11.37,4.81,17.16.69,2.87,1.28,5.74,1.79,8.64a18.06,18.06,0,0,1-.09,8.46,14.93,14.93,0,0,1-4.8,7.16,15.25,15.25,0,0,0,5.9-13" style="fill: #263238"/>
    <path d="M774.82,490.55c-4,1-7.76,2.23-11.71,3.41s-7.75,2.36-11.65,3.57c-7.76,2.44-15.52,5-23.28,7.46-4.39,1.43-8.75,2.95-13.11,4.46a.1.1,0,0,0-.06.14.09.09,0,0,0,.06.06q23.41-6.79,46.56-14.48c4.37-1.46,8.83-2.78,13.11-4.48Z" style="fill: #263238"/>
    <path d="M686.06,372.26c-1.1-3.18-2.11-6.41-2.94-9.66a93.42,93.42,0,0,1-3.7-14.05c-1.38-7.87-2.53-17.46,3.73-23.59a28.73,28.73,0,0,1,10.39-6c3.92-1.41,8.21-2.47,12.34-1.32a10.72,10.72,0,0,1,4.39,2.39,26.68,26.68,0,0,1,8.48,2c3.22.8,5.82,3.61,7.76,6.2a44.21,44.21,0,0,1,5,10.34A26.6,26.6,0,0,1,733.64,349a53.49,53.49,0,0,1-1.55,9.32,32.91,32.91,0,0,0-.9,11.31c0,.12-.17.17-.2,0-1-6.07,1.2-12,1.86-18a24.06,24.06,0,0,0-1-10.08,59.78,59.78,0,0,0-4.52-10.87,19.38,19.38,0,0,0-7-7.76l.18.11c3.52,2.36,5.6,6.21,7.24,10.06a47.78,47.78,0,0,1,3.87,13.28,45.62,45.62,0,0,1-.73,12.56,47.35,47.35,0,0,0-1,12.57,36.8,36.8,0,0,0,4.34,12.41,52.35,52.35,0,0,1,4.92,11.83,18.53,18.53,0,0,1-1,11.34c-2.81,6.64-10.58,12.93-18.05,9.78a24.32,24.32,0,0,1-5.12-3.21,61.66,61.66,0,0,1-4.92-4.23,74.89,74.89,0,0,1-8.92-10.47,136.68,136.68,0,0,1-13.07-24c-.91-2.05-1.78-4.11-2.62-6.21A134.93,134.93,0,0,0,691,382.86a92.55,92.55,0,0,0,14.43,23.41,61.33,61.33,0,0,0,5.06,5c1.94,1.71,4,3.18,6.08,4.76a.13.13,0,0,1,0,.18.12.12,0,0,1-.15,0A46.71,46.71,0,0,1,706.29,408,63.78,63.78,0,0,1,698,397.22a124.19,124.19,0,0,1-12-25" style="fill: #263238"/>
    <path d="M709.26,389.86c-10.86,26.38-28.64,52.87-34.77,55.36-8.41,3.4-48.56-17.93-58.8-22.29-4.15-1.77,16.28-32.88,20.37-30.32,10.06,6.47,31.21,16.37,31.71,16.7,1,.66,24.25-21.39,30.8-28.26,14.5-15.26,16.09-4.3,10.69,8.81" style="fill: #c95f50"/>
    <path d="M643.56,399.05A100.06,100.06,0,0,0,634,388c-3.46-3-20.44-9.31-22-5.72-2,4.65,7,10.22,11.85,12.41,0,0-4.65,10.71.94,16.14s18.79-11.73,18.79-11.73" style="fill: #c95f50"/>
    <path d="M618.87,424.34c-3.6-1.45-19.54-9.63-23.45-12.91S580.88,398,583.08,394.69s5.54-.51,5.54-.51-3.78-5-1.29-8.1,7.58,1.36,7.58,1.36-3.51-5.45-.79-8.35,7.06,2.44,7.06,2.44-3.45-4.83-.21-6.21c3.92-1.74,9.32,7.88,13.88,11.17,1,.75,22.25,13.6,22.25,13.6Z" style="fill: #c95f50"/>
    <path d="M600.8,381.08c4,7.06,6.91,9.46,14,13.27.13.07,0,.29-.09.23-7.2-3.1-11.35-5.59-14.19-13.33-.12-.37.13-.51.31-.17" style="fill: #263238"/>
    <path d="M594.61,386.87c4.75,7,7.93,9.62,15,14.13.09,0,0,.25-.11.19-7.28-3.86-11.36-6.42-15.18-14-.14-.4.1-.68.31-.35" style="fill: #263238"/>
    <path d="M589,394.39c5.09,6.43,8.45,9.47,15.85,13a.16.16,0,0,1,.14.17.16.16,0,0,1-.17.14l-.08,0a27.14,27.14,0,0,1-15.92-13.09c-.25-.4-.14-.57.18-.17" style="fill: #263238"/>
    <path d="M611.84,383.69c1.19,5.55,7.68,8,12.2,10.42a.48.48,0,0,1,.21.63.35.35,0,0,1-.11.13c-1.67,4.66-2.7,11.64.3,15.88a.13.13,0,0,1-.05.17.14.14,0,0,1-.14,0c-3.81-4.12-3.38-11.08-1.21-16-4.65-2.43-11.06-5.15-11.25-11.18,0,0,.05-.05.05,0" style="fill: #263238"/>
    <path d="M698.51,420.7,680.57,394a202,202,0,0,1,17.78-17.21c10.6-9.15,16.95-6,12.59,12.41a119.93,119.93,0,0,1-12.43,31.49" style="fill: #3880e1"/>
    <g style="opacity: 0.10000599920749664;isolation: isolate">
      <g style="clip-path: url(#clip-path-9)">
        <path d="M698.51,420.7,680.57,394a202,202,0,0,1,17.78-17.21c10.6-9.15,16.95-6,12.59,12.41a119.93,119.93,0,0,1-12.43,31.49"/>
      </g>
    </g>
    <path d="M684.48,391.37c1.55,1.83,2.84,3.91,4.24,5.85s2.67,3.72,3.92,5.63c2.64,4,5.2,7.95,7.67,12,0,0,0,.14-.12.08q-4.12-5.73-8.09-11.53c-1.32-1.94-2.58-3.9-3.83-5.87s-2.76-4-3.91-6.08a.07.07,0,0,1,0-.11.08.08,0,0,1,.1,0" style="fill: #263238"/>
    <path d="M767.58,454.56c-2.31,1.55-80.27.64-80.27.64l3.1-29.41s-6.44-6.89-6.63-15.19c-.26-11.09,12.63-31.43,13.86-32.84,4.94-5.7,10.12-7.76,15.86-6.47,24,5.3,54.08,83.27,54.08,83.27" style="fill: #3880e1"/>
    <path d="M709.51,420.25a48.3,48.3,0,0,0-8.74,1.66,35.27,35.27,0,0,0-4.22,1.55c-.69.28-1.39.51-2.09.76a7.89,7.89,0,0,1-2.25.5m0,.12a11.13,11.13,0,0,0,2.16,0,12,12,0,0,0,2.06-.45c1.44-.42,2.89-.93,4.33-1.36,2.92-.89,5.82-1.77,8.78-2.39.14-.1.11-.41,0-.39Z" style="fill: #263238"/>
    <path d="M716.76,423.65a50.23,50.23,0,0,0-7.25-.55c-1.21,0-2.42.08-3.63.2l-1.74.22c-.63.1-1.25.3-1.89.37,0,0-.08.14,0,.13h7.25c2.42,0,4.84-.09,7.26,0Z" style="fill: #263238"/>
    <path d="M713.87,373.47c-.17,1.39-5.68,10.87-11.85,11.16-2,.11-3.11-10.86-3.11-10.86l-.26-.78-3.73-11.08,14.24-11.28s4.79,22.25,4.71,22.84" style="fill: #c95f50"/>
    <path d="M694.89,361.91,698.62,373a23.47,23.47,0,0,0,12.13-14.75c-.82-3.86-1.55-7.07-1.55-7.54L707.39,352Z" style="fill: #263238"/>
    <path d="M675.87,347.71c.46,20.52,12.8,22.55,17.22,22.44,4-.09,17.66-.93,19.33-21.38s-8-26.71-17.23-27-19.8,5.41-19.32,25.91" style="fill: #c95f50"/>
    <path d="M678.2,345.11a9.81,9.81,0,0,0,1.32-.61,2.32,2.32,0,0,0,1.22-.82.72.72,0,0,0-.19-.87,1.82,1.82,0,0,0-1.83,0,2.62,2.62,0,0,0-1.44,1.24.77.77,0,0,0,.41,1,.81.81,0,0,0,.51,0" style="fill: #263238"/>
    <path d="M692.5,344.69a11.16,11.16,0,0,1-1.41-.11,2.36,2.36,0,0,1-1.41-.4.74.74,0,0,1-.11-.89,1.83,1.83,0,0,1,1.72-.64,2.69,2.69,0,0,1,1.77.73.78.78,0,0,1,0,1.1.81.81,0,0,1-.52.21" style="fill: #263238"/>
    <path d="M689.42,348a.11.11,0,0,1,.1.12c0,1.4.36,3,1.65,3.35v.08c-1.55-.11-1.93-2.22-1.75-3.55" style="fill: #263238"/>
    <path d="M690.56,346.41c2.22-.33,2.72,4.16.66,4.45s-2.53-4.17-.66-4.45" style="fill: #263238"/>
    <path d="M691.46,346.55c.42.22.86.62,1.34.62s.9-.53,1.21-1h.09c.1.87-.14,1.78-1,2s-1.55-.48-1.81-1.32c-.06-.11,0-.36.21-.28" style="fill: #263238"/>
    <path d="M681.75,348.44s-.09,0-.08.14c.2,1.38.2,3-1,3.6v.08c1.52-.39,1.49-2.54,1.07-3.82" style="fill: #263238"/>
    <path d="M680.35,347.14c-2.25.09-1.91,4.65.17,4.5s1.71-4.58-.17-4.5" style="fill: #263238"/>
    <path d="M679.52,347.51c-.35.27-.66.73-1.09.79s-.89-.39-1.24-.84a1.68,1.68,0,0,0,1.24,1.84c.84.11,1.26-.69,1.4-1.56-.11-.13-.31-.34-.31-.23" style="fill: #263238"/>
    <path d="M691.06,360.11c-.28.37-.54.87-1,1a3.86,3.86,0,0,1-1.55-.13s-.09,0,0,.08a1.84,1.84,0,0,0,1.86.48,1.56,1.56,0,0,0,.9-1.38Z" style="fill: #263238"/>
    <path d="M684.56,355.53s-.08,2.1,0,3.11c0,.09.25.11.59.11a4.66,4.66,0,0,0,4.36-2.18c0-.09-.08-.18-.17-.12a6.9,6.9,0,0,1-4.13,1.63c-.09-.26.26-3.58.11-3.58a7.89,7.89,0,0,0-2.17.71c0-4.39.8-8.74.79-13.1a.14.14,0,0,0-.27,0,70.81,70.81,0,0,0-1.44,14.08c0,.48,1.94-.45,2.33-.66" style="fill: #263238"/>
    <path d="M685.72,358.31a5.24,5.24,0,0,0,2.22,1.55,2.36,2.36,0,0,0,1.44,0c1-.35,1-1.31.73-2.11a5.36,5.36,0,0,0-.55-1.22,6.84,6.84,0,0,1-3.84,1.78" style="fill: #263238"/>
    <path d="M687.91,359.79a2.52,2.52,0,0,0,1.44,0c1-.36,1-1.32.73-2.11a2.43,2.43,0,0,0-2.17,2.11" style="fill: #ff9bbc"/>
    <path d="M711.53,348.18c-2.22.08-8.52-5.48-9.67-16.12,0,0,1.69,9.48,2.55,10.86s-3.54-3.11-4.66-11.7a34.7,34.7,0,0,1-8.41,5.38c-4,1.55-6.46,1.71-6.77,1.45s5.5-2.71,6.94-4.66c0,0-10.35,6-15.3,6.84-.57.11-1-10.67,6.21-16.4s18.62-2.44,22.2.43c0,0,3.9.21,8.6,5.51s.72,18.33-1.69,18.41" style="fill: #263238"/>
    <path d="M709.19,350.43s3.75-6.86,6.81-5.59.73,10.87-2.53,12.42a3.44,3.44,0,0,1-4.72-1.2l-.09-.15Z" style="fill: #c95f50"/>
    <path d="M715.21,347.6s.08,0,0,.1a8.76,8.76,0,0,0-3.9,5.94,1.9,1.9,0,0,1,2.49-1,1.59,1.59,0,0,1,.29.15c.08,0,0,.14,0,.14a2.13,2.13,0,0,0-2.25,1,10.44,10.44,0,0,0-.92,2c-.07.22-.48.16-.41-.1-.36-3.11,1.59-7.61,4.7-8.25" style="fill: #263238"/>
    <path d="M669.85,414.33s-29.23,15.17-64.67,15.17a144.7,144.7,0,0,1-64.11-15.17V389.16H669.88Z" style="fill: #455a64"/>
    <path d="M720.7,394.42c-11.25,26.26-25.59,48.11-31.77,50.49-8.45,3.27-39.43,2.48-49.79,1.15-4.46-.58-.22-35.17,4.56-34.58,12.18,1.55,34.67,1.55,35.15,1.83,1,.68,24.56-21,31.22-27.81,14.78-15.08,16.22-4.11,10.63,8.92" style="fill: #c95f50"/>
    <path d="M691.93,402.37c-3.1,3.1-6.21,6.21-9.51,9a27.84,27.84,0,0,1-2.63,2.07,2.11,2.11,0,0,1-1,.38H676.3l-6.53-.28c-4.35-.26-8.71-.49-13-.82s-8.69-.68-13-1.15c4.36,0,8.72.11,13.08.25s8.71.39,13.07.56l6.52.39,1.55.09h.81a5,5,0,0,0,.48-.22c.85-.56,1.72-1.24,2.59-1.89,3.49-2.76,6.8-5.6,10.15-8.38" style="fill: #263238"/>
    <path d="M618,411.73c2.31-.55,2-1.76-1.79-3.52s-20.44-5.5-18.62-11.19,25.16,0,31.29,3.35a111,111,0,0,1,14.86,11.11c-4.78-.25-16.38.48-25.74.25" style="fill: #c95f50"/>
    <path d="M639.17,446.06c-13.72-.69-30.76-1.26-43.22-9.91a7.41,7.41,0,0,1-3-3.89c-5.65-3.79-5.58-7.59-5.58-7.59-4.19-5.12-3.56-9-3.56-9s-6.6-4.5-4.54-8.94c2.3-5,11.12,2.31,18.41,3.37,16.73,2.4,41.17,1.16,46.06,1.38Z" style="fill: #c95f50"/>
    <path d="M613.39,424.93A107.44,107.44,0,0,1,598.86,422,107.72,107.72,0,0,1,584,415.61a.13.13,0,0,0-.17.09.12.12,0,0,0,0,.14,57.43,57.43,0,0,0,29.49,9.31c.29.05.34-.17.09-.22" style="fill: #263238"/>
    <path d="M613.41,435.25c-4.66-1.05-13-3-26-10.72,0,0-.09,0,0,.08a51.46,51.46,0,0,0,26,10.86c.26,0,.33-.15,0-.22" style="fill: #263238"/>
    <path d="M613.3,440.72c-8-2.08-12.74-4.43-20.35-8.54h0c8.15,5.59,11.75,6.69,20.36,8.75.25.21.3-.06,0-.21" style="fill: #263238"/>
    <path d="M709.5,425.1l-17.57-27a206.18,206.18,0,0,1,18-16.95c10.72-9,17.07-5.75,12.41,12.54A119.87,119.87,0,0,1,709.5,425.1" style="fill: #3880e1"/>
    <path d="M695.89,395.57c1.55,1.87,2.77,3.94,4.14,5.92s2.62,3.77,3.87,5.68q3.86,6,7.47,12.12c0,.07,0,.15-.12.07q-4-5.78-7.91-11.64c-1.29-2-2.53-3.94-3.76-5.91s-2.7-4-3.82-6.21a.07.07,0,0,1,.1,0h0" style="fill: #263238"/>
    <path d="M707,421.27c.11.1,2.43,3.56,2.46,3.6,1.9-3.94,3.91-7.65,5.74-11.64a126.65,126.65,0,0,0,4.87-12.52q1.24-3.63,2.25-7.33c1-3.69.09,0,.08,0-.44,2.16-.95,4.32-1.55,6.45.45-1,.84-2.07,1.19-3.11a.08.08,0,0,1,.16,0,17.17,17.17,0,0,1-1.74,4.44A96.23,96.23,0,0,1,713.36,419a53.05,53.05,0,0,1-3.92,6.72s-2.5-4.21-2.53-4.34.06-.14.1-.1" style="fill: #263238"/>
    <path d="M693.92,395.48c.8-.85,1.63-1.68,2.48-2.5l.51-.51a43,43,0,0,1,2.61-3.54h0a29.86,29.86,0,0,1-1.91,2.79,52.18,52.18,0,0,1,4-3.55h0c-1.55,1.74-3.27,3.38-4.9,5.06-.79.82-4.8,4.75-4.76,4.8s1.55,2.63,1.55,2.8h0c0-.1-2.08-3-2.08-3Z" style="fill: #263238"/>
    <polygon points="970.15 168.68 1057.89 168.68 1016.05 492.35 1007.7 492.35 1048.59 176 977.04 176 909.1 492.35 900.64 492.35 970.15 168.68" style="fill: #3880e1"/>
    <g style="opacity: 0.6000059843063354;isolation: isolate">
      <g style="clip-path: url(#clip-path-10)">
        <polygon points="970.15 168.68 1057.89 168.68 1016.05 492.35 1007.7 492.35 1048.59 176 977.04 176 909.1 492.35 900.64 492.35 970.15 168.68"/>
      </g>
    </g>
    <rect x="966.11" y="161.09" width="97.29" height="8.74" style="fill: #3880e1"/>
    <g style="opacity: 0.39999398589134216;isolation: isolate">
      <g style="clip-path: url(#clip-path-11)">
        <rect x="966.11" y="161.09" width="97.29" height="8.74"/>
      </g>
    </g>
    <polygon points="1057.89 169.82 1119.81 509.33 1111.35 509.33 1050.97 178.14 979.37 178.14 1012.76 509.33 1004.43 509.33 970.19 169.82 1057.89 169.82" style="fill: #3880e1"/>
    <rect x="979.09" y="242.82" width="84.59" height="8.3" style="fill: #3880e1"/>
    <rect x="992.51" y="310.13" width="84.59" height="8.3" style="fill: #3880e1"/>
    <rect x="999.09" y="377.45" width="92.32" height="8.3" style="fill: #3880e1"/>
    <rect x="1004.2" y="444.77" width="98.23" height="8.3" style="fill: #3880e1"/>
    <g style="opacity: 0.39999398589134216">
      <g style="clip-path: url(#clip-path-12)">
        <polygon points="1057.89 169.82 1119.81 509.33 1111.35 509.33 1050.97 178.14 979.37 178.14 1012.76 509.33 1004.43 509.33 970.19 169.82 1057.89 169.82"/>
        <rect x="979.09" y="242.82" width="84.59" height="8.3"/>
        <rect x="992.51" y="310.13" width="84.59" height="8.3"/>
        <rect x="999.09" y="377.45" width="92.32" height="8.3"/>
        <rect x="1004.2" y="444.77" width="98.23" height="8.3"/>
      </g>
    </g>
    <path d="M1040.8,290l28.7,55.07s-28.91,20.27-31.63,23.5-3.58,12-.57,12.41,85.71-15.64,88.45-18.25v-.08a7.23,7.23,0,0,0,.25-3.33.11.11,0,0,0,0-.08c-.23-4.79-1.54-13.93-3.24-24.33l-29.24-55.06Z" style="fill: #ad6359"/>
    <path d="M1063.88,334l5.62,11.11s-28.91,20.27-31.63,23.5-3.58,12-.57,12.41,85.71-15.64,88.45-18.25v-.07a13.86,13.86,0,0,0,.25-3.34.11.11,0,0,0,0-.08c-.23-4.79-1.54-13.93-3.24-24.33l-5.45-11Z" style="fill: #fff"/>
    <path d="M1064.07,346.46a.37.37,0,0,0,.4.31,78.32,78.32,0,0,1,16.75,1c.18,0,.37-.23.18-.37-4.81-3.32-11.7-3.18-17.07-1.35a.36.36,0,0,0-.26.39" style="fill: #263238"/>
    <path d="M1060.43,349.43a.34.34,0,0,0,.38.33,77.58,77.58,0,0,1,16.74,1c.2,0,.39-.23.2-.36-4.81-3.32-11.68-3.19-17.07-1.34a.34.34,0,0,0-.25.36" style="fill: #263238"/>
    <path d="M1056.78,352.41a.34.34,0,0,0,.38.33,80.39,80.39,0,0,1,16.76,1c.19,0,.37-.22.19-.36-4.8-3.32-11.69-3.18-17.07-1.35a.37.37,0,0,0-.26.37" style="fill: #263238"/>
    <path d="M1037.72,368.7c2.73-3.2,31.62-23.5,31.62-23.5l-.2-.9,53.46-9.76.1.45c2.39,14.67,4,26.85,3,27.82-2.68,2.63-85.35,18.67-88.46,18.25s-2.22-9.17.52-12.36" style="fill: #37474f"/>
    <path d="M1087,341l-17.83,3.26.2.9s-28.92,20.28-31.62,23.48-3.68,12-.58,12.41c1.68.16,27-4.5,50.1-9.16,19.33-3.94,37.35-8.13,38.42-9.11s-.57-13.15-3-27.81l-.08-.48Z" style="fill: #3880e1"/>
    <path d="M1037.54,377.87c14-2.28,70.35-12.82,84-16.14.12-.09.11-.09,0-.09-13.95,2-70.19,12.89-84.07,16-.29.11-.24.33,0,.24" style="fill: #263238"/>
    <g style="opacity: 0.10000599920749664;isolation: isolate">
      <g style="clip-path: url(#clip-path-13)">
        <path d="M1069.2,344.28l.2.91s-28.92,20.28-31.62,23.48-3.68,12-.58,12.41c1.68.15,27-4.5,50.1-9.16.15-8.13-.08-21.68-.27-30.88Z"/>
      </g>
    </g>
    <path d="M1060.33,216.44c1.83-5.62,51.63-18.95,60.69-36.42,13.38-25.73-5.25-53.1-5.25-53.1h-45.48L1063.76,140s-64.69,29.85-68.29,48.84C988.94,223.41,1054,323.32,1054,323.32l61.25-7.08s-57.29-92.4-54.87-99.8" style="fill: #37474f"/>
    <path d="M1107.22,308.45a59.63,59.63,0,0,1-5.88,1c-1.95.34-3.92.61-5.89.89-6.86.94-13.77,1.64-20.68,2.34s-13.81,1.41-20.73,2a.12.12,0,0,1-.12-.12.12.12,0,0,1,.12-.13c3.91-.69,7.85-1.33,11.78-1.94,6.84-1.05,13.86-1.94,20.81-2.74,3.45-.41,6.91-.76,10.37-1,1.8-.14,3.58-.22,5.4-.31a46.16,46.16,0,0,1,4.85-.2c.14,0,.13.2,0,.23" style="fill: #263238"/>
    <path d="M1019,238c-2.14-4.44-4.27-8.83-6.21-13.48a120,120,0,0,1-5.17-14c-.35-1.2-.63-2.41-.93-3.63s-.45-2.49-.68-3.71a21.32,21.32,0,0,1,.15-7.64,21.59,21.59,0,0,1,3-7,33.34,33.34,0,0,1,2.19-3.1c.81-1,1.62-1.92,2.5-2.82a74.46,74.46,0,0,1,11.58-9.45,140.92,140.92,0,0,1,12.78-7.64c8.76-4.67,17.81-8.69,26.84-12.73,2.25-1,4.5-2,6.73-3.1,1.1-.54,2.21-1.09,3.26-1.71a6.86,6.86,0,0,0,2.72-2.29,35.08,35.08,0,0,0,4.3-14,35.23,35.23,0,0,1-4,14.22,7.49,7.49,0,0,1-2.79,2.51c-1.07.64-2.17,1.23-3.28,1.8-2.2,1.13-4.43,2.19-6.67,3.26-9,4.17-18,8.21-26.58,13.08s-17.09,10.06-23.93,17.07c-.85.87-1.62,1.82-2.41,2.73s-1.43,2-2.08,3a20.15,20.15,0,0,0-2.76,6.57c-.95,4.65.25,9.59,1.55,14.24a119.26,119.26,0,0,0,5,13.85c1.93,4.54,4,9,6.21,13.43,4.34,8.94,33.47,61.57,38.89,69.84-5.62-8.13-35.68-60.29-40.24-69.34" style="fill: #263238"/>
    <path d="M1007.8,362.77l-1,55.06s-31.89,15.27-35.09,17.95-5.57,11.21-2.61,12.12,87.22-1.27,90.32-3.4a7.27,7.27,0,0,0,.79-3.24.11.11,0,0,0,0-.08c.56-4.78.81-14,.81-24.55,0,0,.47-55.13.47-55.13Z" style="fill: #ad6359"/>
    <path d="M1006.82,406.34v11.49s-31.89,15.27-35.09,17.95-5.57,11.21-2.61,12.12,87.22-1.27,90.32-3.4a13.34,13.34,0,0,0,.79-3.24.11.11,0,0,0,0-.08c.56-4.78.81-14,.81-24.55,0,0,.09-11.31.09-11.31Z" style="fill: #fff"/>
    <path d="M1001.22,418.35a.37.37,0,0,0,.37.35,78.34,78.34,0,0,1,16.35,3.75c.24.06.41-.15.24-.31-4.19-4.08-11-5.07-16.61-4.16a.37.37,0,0,0-.35.37" style="fill: #263238"/>
    <path d="M997.14,420.62a.34.34,0,0,0,.35.36,77.23,77.23,0,0,1,16.36,3.77c.25.05.42-.17.25-.33-4.19-4.16-11-5.07-16.61-4.16a.36.36,0,0,0-.35.36" style="fill: #263238"/>
    <path d="M993.05,423a.36.36,0,0,0,.36.36,78.47,78.47,0,0,1,16.36,3.77c.24.07.4-.17.24-.32-4.19-4.16-11-5.08-16.6-4.16a.36.36,0,0,0-.36.35" style="fill: #263238"/>
    <path d="M971.64,435.85c3.23-2.7,35.07-18,35.07-18V417l54.31-.8v.46c-.1,14.87-.45,27.16-1.66,27.94-3.15,2.12-87.35,4.31-90.32,3.4s-.63-9.42,2.6-12.12" style="fill: #3880e1"/>
    <path d="M969.9,444.91c14.17.06,71.59-1,85.55-2.05.13,0,.13-.09,0-.09-14.07-.36-71.35,1.19-85.54,1.91-.24,0-.24.23,0,.23" style="fill: #263238"/>
    <path d="M1099.79,180c14-22.29,14.62-53.11,14.62-53.11h-68.28c-15.07,58.86-36.15,124.91-38,149-1,12.87-6.33,124.31-6.33,124.31l63.28-.38s-1.58-108.94-1.2-121.27c.46-14.5,25.46-93.29,25.46-93.29,4.06-2.25,10.39-5.18,10.44-5.24" style="fill: #37474f"/>
    <path d="M1061.47,388.73c-4.11.28-8.2.48-12.3.68-7.22.33-14.4.39-21.73.47s-14.65.15-22-.26a.14.14,0,0,1-.07-.08.14.14,0,0,1,.07-.16c4.1-.4,8.2-.54,12.31-.77,7.2-.44,14.42-.55,21.73-.73s14.89,0,22.2.25c.44,0,.2.57-.25.6" style="fill: #263238"/>
    <path d="M1048.08,163.92a.22.22,0,0,1,.23.22c-2,8.54-4.31,17.09-6.51,25.61s-4.43,16.92-6.63,25.37c-3.85,14.84-7.57,29.72-10.21,44.82a284,284,0,0,0-4,46.48c-.12,15.7.07,31.41.13,47.1s.28,13.66-.14,29.34a.14.14,0,0,1-.1.1.15.15,0,0,1-.2-.1c-.07-1.95-.15-3.92-.15-5.88-.26-15.76-.42-13.87-.51-29.56s-.44-31.39-.1-47.08a272.64,272.64,0,0,1,5.06-45.85c2.92-15.05,6.78-29.88,10.68-44.71,2-7.66,4-15.39,6.08-23s4-15.24,6.21-22.76a.23.23,0,0,1,.2-.12" style="fill: #263238"/>
    <path d="M1073.67,186.89a34.74,34.74,0,0,0,9.39.16,77.59,77.59,0,0,0,9.31-2.16c3-.74,6.18-.88,9.17-1.81a54.42,54.42,0,0,0,8.4-3.65c.12-.06,0-.26-.11-.19a31.51,31.51,0,0,1-8.75,2.6,71.1,71.1,0,0,0-8.94,1.55,79.62,79.62,0,0,1-9.09,2.51,54.07,54.07,0,0,1-9.41.85s-.11.19,0,.14" style="fill: #263238"/>
    <path d="M1062.79,297.9c0-6.47,0-12.94.44-19.44a57.31,57.31,0,0,1,1.55-9.67c.71-3.25,1.47-6.35,2.27-9.45q5-18.73,10.63-37.36l5.72-18.54c2-6.16,3.93-12.26,6-18.47l-10.6,37.34c-3.53,12.44-7.09,24.88-10.29,37.4-.78,3.18-1.63,6.28-2.33,9.39a57.08,57.08,0,0,0-1.55,9.46c-.45,6.41-.5,12.88-.65,19.36s-.17,12.93-.17,19.39l-.11,19.4q-.81-19.4-.89-38.81" style="fill: #263238"/>
    <path d="M1018.8,223.92c2-8.35,4-16.62,6.21-24.83s4.39-16.43,6.78-24.59a216.22,216.22,0,0,1,8.1-24.21c-1.52,4-2.56,8.1-3.7,12.19s-2.23,8.2-3.29,12.33l-6.44,24.67-6.54,24.64c-2.22,8.21-4.44,16.42-6.8,24.6,1.83-8.32,3.69-16.45,5.68-24.8" style="fill: #263238"/>
    <path d="M1057.49,46c-.16-.43-.3-.86-.45-1.31l-.47-1.26c-.19-.56-.4-1.1-.62-1.65-.07-.19-.14-.38-.23-.57s-.13-.36-.19-.51c-1.36-3.6-2.5-6.49-2.5-6.49l-1.55,1.55-10.86,10.87,4.78,10.21.35.73s2.25,10.39,4.18,10.07c5.9-1,10.16-10.66,10.16-12a71.44,71.44,0,0,0-2.6-9.64" style="fill: #ad6359"/>
    <path d="M1053,34.19l-1.55,1.55-10.86,10.87,4.78,10.21a22.61,22.61,0,0,0,10.13-16.11c-1.36-3.6-2.5-6.52-2.5-6.52" style="fill: #263238"/>
    <path d="M1044,7c8.74,1.39,17.32,8.53,13.39,27.93s-17.11,18.45-21,18.25c-4.38-.22-15.9-3.79-14-23.5S1035.26,5.59,1044,7" style="fill: #ad6359"/>
    <path d="M1023.35,25.37a.76.76,0,0,1-.16-1.06,2.58,2.58,0,0,1,1.55-.87,1.76,1.76,0,0,1,1.72.45.71.71,0,0,1,0,.87,2.31,2.31,0,0,1-1.31.51,8.11,8.11,0,0,1-1.36.25.89.89,0,0,1-.44-.15" style="fill: #263238"/>
    <path d="M1037,26.43a.75.75,0,0,0,.2-1,2.55,2.55,0,0,0-1.55-1,1.76,1.76,0,0,0-1.74.37.75.75,0,0,0,0,.86,2.43,2.43,0,0,0,1.3.59c.44.12.89.23,1.34.31a.79.79,0,0,0,.45-.13" style="fill: #263238"/>
    <path d="M1034.8,34.89h0c-1.2-.51-1.31-2.07-1.2-3.41,0-.13-.09-.13-.09-.13-.33,1.26-.22,3.32,1.29,3.54" style="fill: #263238"/>
    <path d="M1035,34.38c2-.06,2.07-4.36-.11-4.36-1.87,0-1.91,4.42.11,4.36" style="fill: #263238"/>
    <path d="M1035.34,30.4c.16.9.65,1.68,1.55,1.56s1.23-1,1.23-1.8c-.34.43-.84.86-1.29.82s-.82-.48-1.19-.73c-.16-.11-.3.12-.3.15" style="fill: #263238"/>
    <path d="M1024.8,34h0c1.21-.43,1.37-2,1.37-3.33a.12.12,0,0,1,.11-.13c.25,1.28,0,3.34-1.48,3.46" style="fill: #263238"/>
    <path d="M1024.73,33.43c-2-.15-1.82-4.5.34-4.33,1.81.14,1.66,4.49-.34,4.33" style="fill: #263238"/>
    <path d="M1024.45,29.61c-.27.81-.76,1.51-1.55,1.32s-1-1.07-1-1.89c.3.46.7,1,1.11.95s.76-.42,1.11-.64c.14-.09.25.15.3.26" style="fill: #263238"/>
    <path d="M1033.6,41.73a1.45,1.45,0,0,1-1,1.24,1.82,1.82,0,0,1-1.74-.68,3.35,3.35,0,0,0,1.46.3c.5-.07.79-.5,1.12-.83,0,0,.18,0,.18,0" style="fill: #263238"/>
    <path d="M1025.6,37.19a67.6,67.6,0,0,1,3-13.32c0-.2.24-.14.24,0-.48,4.13-1.7,8.21-2.26,12.42a7.92,7.92,0,0,1,2.16-.45c.15,0-.52,3.16-.52,3.44a6.83,6.83,0,0,0,4.15-1.09c.14-.06.14,0,.14.13a4.48,4.48,0,0,1-4.43,1.55,1.49,1.49,0,0,1-.56-.15c0-.95.36-3,.36-3-.39.16-2.36.82-2.29.44" style="fill: #263238"/>
    <path d="M1032.52,38.09a5.71,5.71,0,0,1,.31,1.36c.07.87-.08,1.86-1.21,2a2.46,2.46,0,0,1-1.48-.31,5.35,5.35,0,0,1-2-2,7.17,7.17,0,0,0,4.33-1" style="fill: #263238"/>
    <path d="M1032.87,39.45c.08.87-.07,1.86-1.21,2a2.37,2.37,0,0,1-1.47-.31,2.56,2.56,0,0,1,2.68-1.69" style="fill: #ff9bbc"/>
    <path d="M1054,28.82,1052.78,33a39.4,39.4,0,0,1-2.74-7.6,49.38,49.38,0,0,1,0-6s-11.91,4.32-17.07,4.5a107.11,107.11,0,0,1-10.87-1.16l3.43-5.39-9.74,6.5s1.22-9.46,3.37-11.4,12.63-6.3,12.63-6.3l-10.87,1.74S1031,.41,1035.68,0c1.87-.15,16.73,5.9,16.73,5.9L1050,1.63s8.15,6.58,8.58,7.76,1.27,6.21,1.27,6.21l4.66-4.11-3.72,6.2,2.51-.68-2.73,1.85s3.3,5.35,3.1,7.32c-.34,3.39-6.69,10-7.63,11.22Z" style="fill: #263238"/>
    <path d="M1051.53,40.09l0,.13a3.37,3.37,0,0,0,4.16,2.29c3.43-.75,8-9.14,5.38-11.07s-7.76,3.57-7.76,3.57Z" style="fill: #ad6359"/>
    <path d="M1053.25,40.43h0c-.11.19.25.39.37.19A10.79,10.79,0,0,1,1055,39a2,2,0,0,1,2.34-.39.08.08,0,0,0,.07,0,.08.08,0,0,0,0-.11l-.19-.18a1.87,1.87,0,0,0-2.62.29,8.46,8.46,0,0,1,5.09-4.66v-.09c-3.1-.16-6,3.58-6.42,6.61" style="fill: #263238"/>
    <path d="M1034.22,98.11c-.87-10.32,9.64-33.57,10.76-35.69,4.47-8.44,14.31-12.07,25.6-5.34,22.63,13.44,45.19,69.84,45.19,69.84h-69.64l-2.21-13.21s-8.92-6.46-9.7-15.6" style="fill: #3880e1"/>
    <path d="M1113.76,122.12c.29.7.57,1.33.82,1.89h-68.93l-.33-1.89Z" style="fill: #fff"/>
    <polygon points="1111.89 117.9 1112.73 119.79 1044.93 119.79 1044.62 117.9 1111.89 117.9" style="fill: #fff"/>
    <path d="M1046.33,59.11c-15.88,9-38.81,21.93-42.26,21.4-5.06-.79-22.41-7.93-30.82-12.85-6.5-3.8-22.74,30.34-19.17,31.9,11.23,5,31.49,14.55,50.8,16.29,12.32,1.1,43.6-33,50.95-43.72,9.31-13.54,3.84-20.39-9.5-13" style="fill: #ad6359"/>
    <path d="M957.06,100.94l-9.14-4a12.81,12.81,0,0,1-10.59-8.64,24.9,24.9,0,0,1-2.94.65,111.41,111.41,0,0,1-4.82-15.24c-1.43-5.93,5.49-13.86,5.49-13.86-2.31-.22-6.91,1.21-13.67,2.45-9.61,1.77-8.09-5.72.59-9a43.46,43.46,0,0,1,46.4,9.86,22.78,22.78,0,0,0,4.84,4.51L979,71.42Z" style="fill: #ad6359"/>
    <path d="M941.3,91.07c-6.46-1.42-13.13,5.83-16.1,1.89-2.48-3.34.94-6.44.94-6.44s-5,1.77-6.83-2c-2-4.13,4.31-8.24,4.31-8.24s-6.58,1.89-7.76-2.94c-1.6-6.59,15.07-13,24-15.1,8.05-1.84,17.55-.85,22-.29,0,0-19.11,33.38-20.61,33.12" style="fill: #ad6359"/>
    <path d="M1046.08,57.86c15.35-6.41,21.1.63,10.86,15s-30.83,35.31-30.83,35.31l-12.84-31.63s17.46-12.3,32.81-18.71" style="fill: #3880e1"/>
    <path d="M1020.23,74.73c.43,1.07.74,2.23,1.13,3.33s.81,2.19,1.26,3.28c.85,2.12,1.75,4.23,2.67,6.33a108.73,108.73,0,0,0,6,12.2c.1.12.1,0,.1,0-1.61-4.3-3.56-8.43-5.41-12.6-.92-2.08-1.82-4.13-2.72-6.21a34,34,0,0,0-1.41-3.18,25.75,25.75,0,0,1-1.55-3.11c0-.09-.19,0-.09,0" style="fill: #263238"/>
    <path d="M1049,83.46c-1.58,2-3.21,4.07-4.92,6s-3.4,3.89-5.2,5.76-3.63,3.69-5.58,5.4q2.61-2.89,5.15-5.81c1.69-1.94,3.38-3.88,5-5.86,3.4-4,6.69-7.86,10.15-11.72-1.47,2.13-3,4.19-4.64,6.22"/>
    <path d="M1051.19,81.82c-.35.23-.69.46-1,.66A7.12,7.12,0,0,1,1049,83c1.31-1,2.59-1.88,3.82-3a5.86,5.86,0,0,1-1.64,1.83"/>
    <path d="M191.65,575.6c.34-3.1,35.69-79.15,38.79-81.16,1.2-.79,12.57,3.69,26.17,9.53l.43.18c2.79,1.2,54.53,15.1,54.53,15.1L288.67,569,234.83,553.5l-.82-.4s-26.54,23-30.23,24.92-12.41.65-12.13-2.42" style="fill: #ad6359"/>
    <path d="M266.88,507l-23.57,48.87-8.49-2.44-.83-.4S207.47,576.13,203.78,578s-12.41.65-12.1-2.4,35.69-79.15,38.79-81.17c1.21-.79,12.59,3.7,26.2,9.53l.4.19c.68.28,4.5,1.38,9.81,2.87" style="fill: #ebebeb"/>
    <path d="M191.37,576c.32-3.1,35.69-80,38.9-82.09,1.21-.79,12.71,3.71,26.46,9.53l-22.67,49.66s-26.71,23.38-30.46,25.29-12.59.72-12.23-2.39" style="fill: #3880e1"/>
    <path d="M194.93,576.3c6.21-12.76,30.23-64.76,35.43-77.84h0c-6.47,12.49-30,64.69-35.57,77.76-.2.25,0,.34.14.08" style="fill: #263238"/>
    <path d="M208.62,574.68a11.48,11.48,0,0,0,.41-9.15,11.14,11.14,0,0,0-5.58-6s-.14.1,0,.17a13.13,13.13,0,0,1,5.06,15,.09.09,0,0,0,.11.06" style="fill: #263238"/>
    <path d="M230.47,557.47c2.44-5.12,3.37-11.94.62-17.07-.1-.2-.38,0-.37.14a79.62,79.62,0,0,1-.93,16.75.36.36,0,0,0,.31.4.35.35,0,0,0,.37-.22" style="fill: #263238"/>
    <path d="M227.06,560.75c2.45-5.12,3.38-12,.64-17.07-.11-.19-.39,0-.38.15a79.62,79.62,0,0,1-.93,16.75.36.36,0,0,0,.36.35.35.35,0,0,0,.31-.18" style="fill: #263238"/>
    <path d="M223.69,564.05c2.45-5.13,3.38-11.95.64-17.07-.11-.2-.39,0-.39.14a79,79,0,0,1-.92,16.76.37.37,0,0,0,.37.36.38.38,0,0,0,.3-.19" style="fill: #263238"/>
    <path d="M220.31,567.28c2.45-5.12,3.38-11.93.63-17.07-.1-.2-.38,0-.38.14a79,79,0,0,1-.92,16.75.35.35,0,0,0,.35.36.34.34,0,0,0,.32-.18" style="fill: #263238"/>
    <path d="M241.1,507.38c2.64-5.8-6.36-9.92-9-4.11s6.36,9.91,9,4.11" style="fill: #263238"/>
    <path d="M241.68,569.39c3.36-1.55,2.76-5.88,1.25-8.53a29.94,29.94,0,0,0-11.05-10.76.15.15,0,0,0-.2.07,0,0,0,0,0,0,0,.68.68,0,0,0-.83.5.65.65,0,0,0,0,.24c.84,4.84,1.15,10.12,3.48,14.56,1.33,2.59,4.17,5.41,7.37,3.89M233.62,558c-.48-2.38-.84-4.75-1.41-7.11,2.21,2,4.32,4.18,6.32,6.42a31.72,31.72,0,0,1,2.6,3.5c1.2,1.89,3.18,8.95-2.67,6.87-3.22-1.13-4.28-6.86-4.84-9.68" style="fill: #263238"/>
    <path d="M235.87,536.4c-2.76,4.17-3.61,9.4-5,14.14-.14.48.33.83.76.82a.14.14,0,0,0,.16.12h0A29.87,29.87,0,0,0,244,541.91c1.77-2.48,2.81-6.66-.37-8.61s-6.11.66-7.73,3.1m4.36-1.75c6-1.46,3.34,5.33,2,7.12a34.3,34.3,0,0,1-2.95,3.2c-2.17,2.11-4.65,3.86-6.94,5.74.81-2.28,1.4-4.66,2.13-6.92.85-2.77,2.48-8.35,5.8-9.14" style="fill: #263238"/>
    <path d="M372.28,356.9s-.94,29.81-5.41,44.47c0,0-4.88,2.58-6.33,3.49,0,0,37,88.68,34.91,122.79-.68,11.19-12.6,25.34-25.39,33.3-22.64,14.09-126.74,6-126.74,6l16.05-66.48s62.68,3.89,64.45.11c2.23-4.8-11.67-42.09-22.78-72.4-1.14-3.1-12.31-14.35-11-34.79a105.91,105.91,0,0,1,9.63-36.49Z" style="fill: #263238"/>
    <path d="M272.06,507.85c15.24-.28,27.67,1,42.91,1h10.09a16.54,16.54,0,0,0,4-.36,4.88,4.88,0,0,0,3.11-1.83c1-1.55.46-3.43.12-5.06q-1.17-5.37-2.58-10.69c-3.85-14.4-8.86-28.48-13.58-42.6l-7.29-21.83c-.59-1.77-1.18-3.54-1.92-5.25a46.29,46.29,0,0,0-2.39-4.58,42.53,42.53,0,0,1-4.15-9c-4.12-13.57-.15-27.58,4.66-40.35q1-2.58,2-5.12c0-.13.23-.08.2,0-4.39,13.5-9.64,27.54-6.69,41.9a35.12,35.12,0,0,0,3.52,9.68c.84,1.55,1.77,3.11,2.59,4.66a36.65,36.65,0,0,1,2.13,4.9c2.58,7.17,4.87,14.43,7.29,21.65,4.81,14.34,9.89,28.65,13.89,43.25q1.56,5.44,2.75,11c.61,2.71,2,6.41-.4,8.64-1.74,1.65-4.46,1.86-6.72,1.88H314.2c-15.52,0-40.2-1.35-42.12-1.38a.3.3,0,0,1-.16-.37.32.32,0,0,1,.14-.14" style="fill: #37474f"/>
    <path d="M255.07,563.82c1.55-7.76,2.92-15.52,4.66-23.28s3.58-15.52,5.58-23.1c.56-2.18,1.15-4.33,1.73-6.51.27-1,.55-2,.85-3.1a27.73,27.73,0,0,1,.95-3.1c0-.11.2,0,.2,0a46.81,46.81,0,0,1-1.06,6c-.39,1.87-.74,3.75-1.13,5.61q-1.19,5.78-2.45,11.53c-1.68,7.76-3.59,15.34-5.56,23-1.12,4.33-2.23,8.68-3.37,13a.2.2,0,0,1-.18.22.21.21,0,0,1-.22-.19" style="fill: #37474f"/>
    <path d="M382.77,465.53l-78.46-28.42L301,428.17c-1.14-3.1-12.31-14.35-11-34.79a105.71,105.71,0,0,1,9.61-36.5h72.64s-.94,29.83-5.41,44.49c0,0-4.89,2.58-6.35,3.49,0,0,12.23,29.27,22.25,60.67" style="fill: #37474f"/>
    <path d="M502,579.17c-3,.88-86.74-1.88-89.86-4-1.22-.79-1.56-13-1.46-27.81v-.47c0-3.1,1.32-54.16,1.32-54.16l58.66,1.77-5.9,53.57V549s31.6,15.4,34.78,18.12S505,578.3,502,579.17" style="fill: #ad6359"/>
    <path d="M502,579.18c-3,.89-86.74-1.89-89.86-4-1.22-.81-1.56-13-1.46-27.83v-.47c0-.83,0-5,.24-11.26l55,2.06L464.79,548v.91s31.61,15.43,34.81,18.13,5.4,11.24,2.43,12.13" style="fill: #ebebeb"/>
    <path d="M502.67,579.57c-3,.89-87.6-1.94-90.75-4.08-1.21-.81-1.56-13.16-1.48-28.09L465,549.06s31.9,15.52,35.12,18.3,5.52,11.28,2.54,12.21" style="fill: #3880e1"/>
    <path d="M501.57,576.11c-14.17-.82-71.39-2.79-85.48-2.53-.12,0-.12.08,0,.1,14,1.11,71.28,2.62,85.48,2.66.29,0,.29-.21,0-.23" style="fill: #263238"/>
    <path d="M494.79,564.05a11.42,11.42,0,0,0-8.6,3.19,11,11,0,0,0-3.42,7.48c0,.07.16.07.18,0a13.16,13.16,0,0,1,11.84-10.48.1.1,0,0,0,.06-.12s0,0-.06-.07" style="fill: #263238"/>
    <path d="M470.47,550.63c-5.68-.26-12.42,1.55-16,6-.14.18.11.39.28.29a79.08,79.08,0,0,1,15.8-5.63.36.36,0,0,0,.25-.44.37.37,0,0,0-.31-.26" style="fill: #263238"/>
    <path d="M474.78,552.49c-5.66-.28-12.32,1.55-16,6-.14.17.11.37.28.29a78.46,78.46,0,0,1,15.8-5.63.35.35,0,0,0,.24-.44.35.35,0,0,0-.32-.26" style="fill: #263238"/>
    <path d="M479.11,554.34c-5.68-.26-12.32,1.55-16,6-.15.18.11.38.28.29a79.08,79.08,0,0,1,15.8-5.63.36.36,0,0,0,.24-.45.35.35,0,0,0-.32-.25" style="fill: #263238"/>
    <path d="M483.44,556.19c-5.68-.27-12.32,1.55-16,6-.14.17.11.37.28.29a77.72,77.72,0,0,1,15.81-5.63.37.37,0,0,0,.21-.48.36.36,0,0,0-.29-.23" style="fill: #263238"/>
    <path d="M420.16,560.24c-6.38-.2-6.69,9.7-.31,9.9s6.69-9.72.31-9.9" style="fill: #263238"/>
    <path d="M477.1,535.69c-2.8-2.49-6.49-.27-8.34,2.14a29.75,29.75,0,0,0-5.65,14.35.15.15,0,0,0,.12.16h0a.7.7,0,0,0,.81.56.48.48,0,0,0,.2-.07c4.13-2.65,8.88-5,12.08-8.84,1.86-2.25,3.38-6,.73-8.3m-7.36,11.84c-2,1.35-4.07,2.6-6,4a89.91,89.91,0,0,1,3.49-8.3,30.69,30.69,0,0,1,2.19-3.76c1.3-1.84,7-6.39,7.39-.2.2,3.42-4.68,6.6-7.05,8.23" style="fill: #263238"/>
    <path d="M449,553.81c4.9.92,10-.31,14.94-.9a.69.69,0,0,0,.52-.84.67.67,0,0,0-.07-.18.16.16,0,0,0,0-.22l0,0a29.79,29.79,0,0,0-13.5-7.43c-3-.67-7.23,0-7.76,3.67s3,5.39,5.87,5.93m-3.32-3.35c-3.68-5,3.63-5.14,5.8-4.56a35.57,35.57,0,0,1,4.1,1.55c2.77,1.18,5.33,2.73,8,4.17-2.4.14-4.79.5-7.2.73-2.9.22-8.69.84-10.71-1.89Z" style="fill: #263238"/>
    <path d="M469.57,544H404s11.7-89.32,7.76-95.16c-1.71-2.56-86.9,6-111.73-21-22.78-24.67.4-70.9.4-70.9h69.93s1.43,19.81,5.18,27.73c1.55,3.4,79.72-1.45,91.95,20.87C483.72,435.33,469.57,544,469.57,544" style="fill: #263238"/>
    <path d="M410.86,531.46c7.4-.21,14.84-.51,22.24-.49s14.87.15,22.3.45c2.1.08,8.29.37,9.31.45a28.13,28.13,0,0,1,3,.25.11.11,0,0,1,.06.14.09.09,0,0,1-.06.06c-1.55.28-18.39.46-22.08.48-7.39,0-14.76-.2-22.13-.47q-6.3-.2-12.59-.46c-.28,0-.31-.41-.08-.41" style="fill: #37474f"/>
    <path d="M367.41,378.3q-.45-3.17-.82-6.31c-.56-4.79-1.06-9.62-1.21-14.44,0-.39.52-.36.57,0,.45,3.72.79,7.46,1.21,11.19s.75,7.46,1.44,11.11c.21,1.1.67,2.95,2.08,3,1.9,0,2.25-2.53,2.42-3.91a62.76,62.76,0,0,0,.19-10.44c-.2-4-.71-7.92-1.15-11.84,0-.16.22-.18.25,0,1.63,7.66,3.2,15.7,1.85,23.54a4.34,4.34,0,0,1-2.55,3.69h-.08v2.53a.28.28,0,1,1-.55,0,.24.24,0,0,1-.21-.19,6.24,6.24,0,0,1,0-2.28,2.78,2.78,0,0,1-2.32-1.25,9.77,9.77,0,0,1-1.12-4.36" style="fill: #37474f"/>
    <path d="M374.36,384a112.3,112.3,0,0,0-15,12.41.2.2,0,0,0,.25.31c5.12-3.95,10.39-7.83,15.29-12.07a.41.41,0,1,0-.5-.65" style="fill: #37474f"/>
    <path d="M316.9,387.78a29.6,29.6,0,0,0,4.51-.36,37.29,37.29,0,0,0,3.91-1c2.44-.72,5.39-1.55,7.14-3.48a25.59,25.59,0,0,0,4.07-7,28.45,28.45,0,0,0,2.37-8.34c0-.12.22-.12.2,0a40.66,40.66,0,0,1-1.55,8.83,26.64,26.64,0,0,1-1.64,4.16,14.55,14.55,0,0,1-2.35,3.74,14.88,14.88,0,0,1-7.88,3.7,24.7,24.7,0,0,1-8.91,0c-.12,0-.06-.28.13-.28" style="fill: #37474f"/>
    <path d="M418.82,444.56a3.81,3.81,0,0,0-3.21-3.1,30.8,30.8,0,0,0-5.68-.13c-4.36,0-8.74.1-13.11.11-17.21,0-34.58-.45-51.51-3.85a120.42,120.42,0,0,1-24.08-7.26c-6.58-2.86-13.15-6.75-17.25-12.79-4.65-7-5.09-16.08-4.91-24.21a92.91,92.91,0,0,1,4.2-25.9c.68-2.14,1.43-4.23,2.27-6.3,0-.14-.13-.25-.19-.11a90,90,0,0,0-6.83,25,86.49,86.49,0,0,0-.59,12.77,50.49,50.49,0,0,0,1.55,12.42c4.47,15.23,21.54,21.54,35.36,25.4,16.6,4.65,33.94,5.94,51.12,6.21,8.62.12,17.27,0,25.91-.13,1.64,0,4.36-.48,5.34,1.24A9.88,9.88,0,0,1,418,447c.18,1.21.32,2.43.41,3.66a102.21,102.21,0,0,1-.18,13.78q-.83,14-1.94,27.93c-.73,9.32-1.79,18.72-2.47,28.08-.15,2.29-.39,4.65-.6,6.87a.23.23,0,0,0,.46,0c2.41-18.5,4.11-37.09,5.34-55.71.29-4.65.63-9.2.76-13.81a49.25,49.25,0,0,0-.95-13.27" style="fill: #37474f"/>
    <path d="M376.81,448a142.86,142.86,0,0,1-17.42-1.27c-5.45-.68-10.87-1.43-16.28-2.34-9.41-1.56-19-3.39-27.94-7a48.67,48.67,0,0,1-13.45-7.76c-.11-.09-.25,0-.16.17,6.74,6.52,15.26,10.35,24.21,12.79a195.58,195.58,0,0,0,31.32,5.5,168.34,168.34,0,0,0,19.71.57.35.35,0,0,0,0-.7" style="fill: #37474f"/>
    <path d="M336.16,276c-16.67,18.22-38.8,45-33.25,51,14.28,15.34,49.45,28.58,57.92,30.37,4.93,1,19.88-33.12,14.8-34.94-5.92-2.12-36.46-9.65-37.64-11.79-.9-1.65,9.31-21.93,11-28.21,4-15.52-5.11-14.76-12.85-6.38" style="fill: #eb9481"/>
    <path d="M367.6,318.58l-14,39.85s-48.81-20.17-52-33.29c-1.86-7.68,18.53-35.69,32.85-49.27,15.63-14.74,18.8-2.54,14.34,9-3.55,9.2-10.39,24.42-9.76,24.83s28.53,8.86,28.53,8.86" style="fill: #3880e1"/>
    <g style="opacity: 0.10000599920749664;isolation: isolate">
      <g style="clip-path: url(#clip-path-14)">
        <path d="M341.29,317.31a12.53,12.53,0,0,0-3.86-.25,15.34,15.34,0,0,0,7.54,1.55,14.15,14.15,0,0,0-3.68-1.3m-37.51-.69-.39.89a11.19,11.19,0,0,0,3.11.14,11.67,11.67,0,0,0-2.72-1.1Zm48.86,13a14.22,14.22,0,0,0,.26-3.85,13.19,13.19,0,0,0-1.24,3.66,12.89,12.89,0,0,0-.25,3.87,14.67,14.67,0,0,0,1.23-3.76Zm-30.92-23.05a13.19,13.19,0,0,0,.27-3.86,12.57,12.57,0,0,0-1.24,3.66,13.91,13.91,0,0,0-.27,3.86,13.08,13.08,0,0,0,1.24-3.66m23.14-31.31a12.94,12.94,0,0,0,2.92-2.55,13.81,13.81,0,0,0-3.46,1.72A13.16,13.16,0,0,0,341.4,277a13.74,13.74,0,0,0,3.45-1.72Zm1.35,74.38a13.94,13.94,0,0,0,2.92-2.55,13.13,13.13,0,0,0-3.46,1.71,13.94,13.94,0,0,0-2.93,2.54,13.58,13.58,0,0,0,3.46-1.7Zm-28.12-21.23a14.55,14.55,0,0,0,2.93-2.55,14,14,0,0,0-3.49,1.71,14.39,14.39,0,0,0-2.91,2.54,13.41,13.41,0,0,0,3.46-1.7Zm15.71,8.81a13.94,13.94,0,0,0-2.55-2.92,13.91,13.91,0,0,0,1.71,3.48,13.7,13.7,0,0,0,2.56,2.92,13.66,13.66,0,0,0-1.74-3.48Zm3.69-43a14.14,14.14,0,0,0-2.55-2.91,14.81,14.81,0,0,0,4.26,6.41,13.13,13.13,0,0,0-1.73-3.5Z"/>
      </g>
    </g>
    <path d="M352.28,335.53c1-2.89,2-5.79,3-8.71.46-1.4.94-2.79,1.36-4.19s1-3.1,1.37-4.66a.08.08,0,0,0-.16,0c-.71,1.42-1.22,3-1.83,4.43s-1.07,2.74-1.55,4.11c-1.07,2.87-2.16,5.73-3.18,8.61-2,5.79-3.91,11.63-5.71,17.48,0,.14.17.21.22.07,2.25-5.68,4.47-11.37,6.53-17.14" style="fill: #263238"/>
    <g style="opacity: 0.10000599920749664;isolation: isolate">
      <g style="clip-path: url(#clip-path-15)">
        <path d="M325.34,344.81c-11.41-6.29-22.24-13.71-23.68-19.67-1.87-7.68,18.53-35.69,32.85-49.27,8.12-7.65,12.86-8,14.94-5Z"/>
      </g>
    </g>
    <path d="M362.8,283.17c-4.65.23-12-8.8-14-14.93-.14-.42,1.19-4.33,2.57-9.16.82-2.93,1.68-6.21,2.25-9.31l18.3,8.19a50,50,0,0,0-4,11.38,7.84,7.84,0,0,0-.1,1.29v.21c-.07,2.52-.45,12.12-5,12.33" style="fill: #eb9481"/>
    <path d="M367.77,270.75V271a11.3,11.3,0,0,1-2-.27c-11.18-2.53-11.81-15.7-11.65-20.56l17.77,7.95a50.27,50.27,0,0,0-4,11.37,9.32,9.32,0,0,0-.09,1.29" style="fill: #263238"/>
    <path d="M350.54,239.31s-12.41,11.51-10.63,13.86,18.89.25,22.8-2.42,11.48-14.19,11.48-14.19Z" style="fill: #37474f"/>
    <path d="M352.62,226.91c-2.9,6.61-1.55,26.86,2.78,31.84,6.31,7.25,17.83,9.21,24.27,1.34,6.21-7.62,4.06-34-.92-38.63-7.37-6.86-21.85-4.33-26.13,5.45" style="fill: #eb9481"/>
    <path d="M371.38,241.27a.11.11,0,0,0-.11.12c.11,1.35,0,2.93-1.21,3.44v.08c1.45-.31,1.55-2.4,1.32-3.64" style="fill: #263238"/>
    <path d="M370,239.85c-2.21,0-2.18,4.35-.13,4.41s2-4.34.13-4.41" style="fill: #263238"/>
    <path d="M379,241.16a.11.11,0,0,1,.11.11c0,1.36.16,2.94,1.4,3.38h0c-1.52-.13-1.76-2.21-1.51-3.49" style="fill: #263238"/>
    <path d="M380.18,239.71c2.21-.18,2.41,4.22.37,4.4s-2.2-4.24-.37-4.4" style="fill: #263238"/>
    <path d="M368.28,237.85c.6-.15,1.13-.4,1.71-.6a3,3,0,0,0,1.55-1,.94.94,0,0,0-.16-1.13,2.32,2.32,0,0,0-2.33-.22,3.4,3.4,0,0,0-1.95,1.56,1,1,0,0,0,.49,1.31,1,1,0,0,0,.69,0" style="fill: #263238"/>
    <path d="M381.87,237.48a17.91,17.91,0,0,1-1.75-.44,3,3,0,0,1-1.71-.79,1,1,0,0,1,0-1.15,2.4,2.4,0,0,1,2.3-.45,3.45,3.45,0,0,1,2.09,1.29,1,1,0,0,1-.93,1.54" style="fill: #263238"/>
    <path d="M369.94,253.68c.34.33.67.76,1.16.79a3.33,3.33,0,0,0,1.46-.34,1.82,1.82,0,0,1-1.72.76,1.45,1.45,0,0,1-1.09-1.21Z" style="fill: #263238"/>
    <path d="M371.38,249.55a4.64,4.64,0,0,0,3.11,2,5.2,5.2,0,0,0,1.67,0h.62a.32.32,0,0,0,.27-.29v-.25c0-1.06-.1-2.66-.1-2.66.39.19,2.36,1.06,2.33.52a70.37,70.37,0,0,0-1.91-14.08.12.12,0,0,0-.12-.12.12.12,0,0,0-.13.12c.11,4.39,1,8.72,1.2,13.13a8,8,0,0,0-2.21-.65c-.13,0,.28,3.1.24,3.55a6.47,6.47,0,0,1-4.83-1.46c-.14-.06-.25,0-.14.14" style="fill: #263238"/>
    <path d="M375.53,251.13a5.58,5.58,0,0,1-2.21,1.73,2.36,2.36,0,0,1-1.55.11c-1.09-.28-1.13-1.28-.93-2.14a6,6,0,0,1,.48-1.31,7.13,7.13,0,0,0,4.21,1.61" style="fill: #263238"/>
    <path d="M373.32,252.86a2.36,2.36,0,0,1-1.55.11c-1.09-.28-1.13-1.28-.93-2.15a2.57,2.57,0,0,1,2.48,2" style="fill: #ff9bbc"/>
    <path d="M352.33,245.08c3.67-1.16,5.18-13.65,5.18-13.65s.12,5.27,1.12,5.12,4.82-7.45,5.12-12.59a40.67,40.67,0,0,0,9.53,4.3c4.65,1.26,9.2,2.17,9.17,1.38,0-2.37-2.53-9-5.82-11.09A15.71,15.71,0,0,0,360.47,217c-7.59,3.11-9.22,7.16-10.22,11s.72,17.49,2.08,17.07" style="fill: #263238"/>
    <path d="M375.06,216.68c-6.47-3.58-20.84-2.54-24.22,8.79a33.58,33.58,0,0,0-.58,15s8.83-7.85,12.25-9.31c8.64-3.74,20.17-2.44,20.17-2.44s-1.8-8.84-7.62-12.06M364,228.12c0-2,.74-4.81,5-5.52a5,5,0,0,1,6,3.74A33.56,33.56,0,0,0,364,228.12" style="fill: #455a64"/>
    <path d="M355,243.56S351.1,236.7,348,238s-.59,11,2.71,12.57a3.5,3.5,0,0,0,4.78-1.32.39.39,0,0,0,.06-.11Z" style="fill: #eb9481"/>
    <path d="M348.8,240.77v.09a8.82,8.82,0,0,1,4,5.95,1.94,1.94,0,0,0-2.55-1L350,246v.14a2.15,2.15,0,0,1,2.28,1,10.94,10.94,0,0,1,.95,2c.09.23.48.15.43-.11.39-3.09-1.58-7.62-4.84-8.24" style="fill: #263238"/>
    <path d="M290.36,371.2c.17.27,88.32,15.41,89.28,14.64,1.33-1.09,3.1-90.34-11.25-109.75-3.54-4.78-16.89-11.25-21.65-8.83-12.42,6.28-20.92,22.1-26.38,31.25a286.65,286.65,0,0,0-14.54,30.75c-8.38,20-16,41-15.46,41.94" style="fill: #3880e1"/>
    <g style="opacity: 0.10000599920749664;isolation: isolate">
      <g style="clip-path: url(#clip-path-16)">
        <path d="M349.08,301.79a13.87,13.87,0,0,0-1,3.74,12.68,12.68,0,0,0,1.94-3.34,13.18,13.18,0,0,0,1-3.74,13.94,13.94,0,0,0-1.94,3.34M311.53,322a13.5,13.5,0,0,0-1,3.74,13.55,13.55,0,0,0,1.94-3.33,14.05,14.05,0,0,0,1-3.74,13.07,13.07,0,0,0-1.94,3.33m47.65,56.38a14.13,14.13,0,0,0-1,3.73,13.5,13.5,0,0,0,2-3.34,14.2,14.2,0,0,0,1-3.74,14.36,14.36,0,0,0-2,3.34Zm-44.33-2.95v.16l1,.17a14.07,14.07,0,0,0,1-3.66,12.22,12.22,0,0,0-2,3.32Zm-22.61-9.07a14.68,14.68,0,0,0-1,3.73,14.53,14.53,0,0,0,3-7.09,15,15,0,0,0-1.94,3.36m47.17-18.84a15.49,15.49,0,0,0-1,3.74,12.25,12.25,0,0,0,2-3.34,12.84,12.84,0,0,0,1-3.74,14.53,14.53,0,0,0-1.91,3.34Zm-8.38-63a12.82,12.82,0,0,0-1,3.74,14.06,14.06,0,0,0,1.94-3.36,13.66,13.66,0,0,0,1-3.71,12.69,12.69,0,0,0-2,3.33m45.75,19.67h0a13,13,0,0,0-3.72-1,13.11,13.11,0,0,0,3.33,1.95l.63.23a8,8,0,0,0-.18-1.14Zm-62.18,45.2a14.13,14.13,0,0,0-3.73-1,12.71,12.71,0,0,0,3.36,1.95,13.36,13.36,0,0,0,3.72,1,13.21,13.21,0,0,0-3.29-2Zm65.18,32.25a12.82,12.82,0,0,0-3.74-1,14.35,14.35,0,0,0,3.35,1.94l.54.21v-1a.23.23,0,0,0,0-.11ZM348,365.88a13.79,13.79,0,0,0-3.72-1,15,15,0,0,0,7.09,3,14.2,14.2,0,0,0-3.37-2m26.23-24.83a13.72,13.72,0,0,0-3.71-1,13.11,13.11,0,0,0,3.33,2,13.85,13.85,0,0,0,3.74,1,13.73,13.73,0,0,0-3.36-2Zm-34.3-22.92a13.48,13.48,0,0,0-3.74-1,12.82,12.82,0,0,0,3.37,1.93,12.35,12.35,0,0,0,3.72,1,14,14,0,0,0-3.35-2Zm-34.14,46.4a13.38,13.38,0,0,0-1.91-3.37,13.07,13.07,0,0,0,1,3.74,14,14,0,0,0,1.91,3.37,13.22,13.22,0,0,0-.9-3.77Zm44.89-89.36a13.11,13.11,0,0,0-1.9-3.36,13.61,13.61,0,0,0,1,3.74,13.15,13.15,0,0,0,1.91,3.36,14.05,14.05,0,0,0-.92-3.77ZM366,318.35a13.51,13.51,0,0,0-1.91-3.37,13.85,13.85,0,0,0,1,3.75,13.15,13.15,0,0,0,1.91,3.36,13.5,13.5,0,0,0-.91-3.77Zm-29.77,59a12.91,12.91,0,0,0-1.91-3.37,13.79,13.79,0,0,0,1,3.74c.21.51.43,1,.7,1.55l.9.14a15.15,15.15,0,0,0-.61-2.09Zm23.67-24.83a14,14,0,0,0-1.91-3.37,13.07,13.07,0,0,0,1,3.74,13.75,13.75,0,0,0,1.91,3.38,14,14,0,0,0-.9-3.72Zm-33.06-18.63a13.78,13.78,0,0,0-1.9-3.36,13.12,13.12,0,0,0,1,3.75,14.09,14.09,0,0,0,1.93,3.37,13.39,13.39,0,0,0-.92-3.79ZM301.7,339.2c-.15.42-.34.83-.49,1.25l.35-.13a14,14,0,0,0,3.37-1.91,11.79,11.79,0,0,0-3.15.76Zm25.41,21.73a14.34,14.34,0,0,0-3.39,1.91,14.54,14.54,0,0,0,7.11-2.89,13.54,13.54,0,0,0-3.65.89Zm-2.53-55.11a13.9,13.9,0,0,0-3.35,1.91,13.22,13.22,0,0,0,3.75-1,14.25,14.25,0,0,0,3.37-1.92,14.54,14.54,0,0,0-3.69.9Zm46.55,61a14.28,14.28,0,0,0-3.38,1.91,14,14,0,0,0,3.76-1,13.26,13.26,0,0,0,3.35-1.91,13.09,13.09,0,0,0-3.6.88Zm-16-34a13.6,13.6,0,0,0-3.36,1.9,13.61,13.61,0,0,0,3.74-1,12.58,12.58,0,0,0,3.36-1.91,14,14,0,0,0-3.74,1m12.7-46.65a13.69,13.69,0,0,0-3.37,1.91,14.89,14.89,0,0,0,3.76-1,13.21,13.21,0,0,0,3.36-1.93,13.92,13.92,0,0,0-3.75,1Z"/>
      </g>
    </g>
    <path d="M359.46,293.1c6.69,22.5,21.17,63.9,36.74,69.93,16.51,6.39,38.48-1.56,49.78-4.26,4.8-1.16-1.4-35-6.67-35s-26.38,5.33-30.19,4.57-20.95-28.78-33.84-44.75c-15.15-18.76-21.25-8.71-15.82,9.56" style="fill: #eb9481"/>
    <path d="M491,332.38a5.44,5.44,0,0,1-2.53,5.68,8.09,8.09,0,0,1,2.33,5c.14,3.32-5,5-5,5a9.92,9.92,0,0,1,1.55,5.63c-.17,3.2-5.14,5.64-5.14,5.64a8.72,8.72,0,0,1-1.71,5.85c-3.52,4.37-12,3.33-17.44,2.73s-22.3-10.69-23.53-12.84l-7.34-30.41s27-7.36,42.6-2.52c5.23,1.62,15.26,6,16.22,10.25" style="fill: #eb9481"/>
    <path d="M488.29,337.48c-5.27-2.79-11.07-3.88-16.8-5.29-.12,0-.17.17,0,.2,5.71,1.34,11.1,3.79,16.75,5.36.11,0,.2-.27.05-.27" style="fill: #263238"/>
    <path d="M485.72,347.58a15.56,15.56,0,0,0-3.92-1.05c-1.41-.27-2.83-.51-4.25-.75-2.85-.45-5.7-.83-8.57-1.14-.12,0-.17.17,0,.2,2.84.45,5.66.94,8.47,1.55,1.42.28,2.83.59,4.22.9a18.79,18.79,0,0,0,4,.68.2.2,0,0,0,.17-.23.21.21,0,0,0-.13-.16" style="fill: #263238"/>
    <path d="M482.16,359.3a11.08,11.08,0,0,0-3.59-.76l-3.91-.56c-2.59-.39-5.18-.77-7.76-1.26-.12,0-.17.18,0,.21,2.62.49,5.25,1,7.87,1.55l3.86.68a10.25,10.25,0,0,0,3.57.31Z" style="fill: #263238"/>
    <path d="M428.4,322l12.3,41.28s-35.61,9.61-50.18-1.32-29.39-53.74-32.93-72.3S363.06,267,375,282.09s32.59,43.58,33.58,44.3S428.4,322,428.4,322" style="fill: #3880e1"/>
    <g style="opacity: 0.10000599920749664;isolation: isolate">
      <g style="clip-path: url(#clip-path-17)">
        <path d="M368.05,288a14.54,14.54,0,0,0-3.71,1.1,14.27,14.27,0,0,0,3.86-.1,14,14,0,0,0,3.74-1.1,13.71,13.71,0,0,0-3.89.1m35.35,62.55a13.54,13.54,0,0,0-3.73,1.09,14.44,14.44,0,0,0,7.61-1.21,13.27,13.27,0,0,0-3.88.12m26.22-24.42a9.43,9.43,0,0,0-1.55.17,13.07,13.07,0,0,0-3.72,1.1,14.41,14.41,0,0,0,3.88-.11c.56-.1,1.12-.22,1.67-.37ZM391,319.9a13.88,13.88,0,0,0-1.08-3.73,15.26,15.26,0,0,0,1.19,7.61,12.51,12.51,0,0,0-.11-3.91Zm-1.55,39.77a14.66,14.66,0,0,0-1.1-3.71,13.94,13.94,0,0,0,.11,3.87,1.06,1.06,0,0,0,.11.57c.35.33.71.64,1.05.92,0-.56-.09-1.13-.15-1.68ZM421.12,343a13.68,13.68,0,0,0-1.1-3.71,13.16,13.16,0,0,0,.11,3.86,14.5,14.5,0,0,0,1.08,3.71,13.42,13.42,0,0,0-.07-3.9Zm-35.32-2.84a13.76,13.76,0,0,0-3.41-1.85,13.49,13.49,0,0,0,2.84,2.65,13.68,13.68,0,0,0,3.39,1.87,13.89,13.89,0,0,0-2.81-2.71ZM439,357.55a14.68,14.68,0,0,0-1.43-1.18,13.35,13.35,0,0,0-3.41-1.83,15.19,15.19,0,0,0,2.84,2.65,16,16,0,0,0,2.31,1.4ZM372.7,307.5a13.19,13.19,0,0,0-3.4-1.85,13.13,13.13,0,0,0,2.81,2.66,13.94,13.94,0,0,0,3.42,1.84,13.73,13.73,0,0,0-2.81-2.68Zm1,21.26a13.67,13.67,0,0,0-1.85,3.4,14.58,14.58,0,0,0,4.5-6.21,13.6,13.6,0,0,0-2.63,2.78Zm32.9,5.15a13.39,13.39,0,0,0-1.86,3.4,14.61,14.61,0,0,0,4.5-6.21,12.57,12.57,0,0,0-2.62,2.78Zm8.49,27.7a14.79,14.79,0,0,0-1.86,3.4,14.72,14.72,0,0,0,4.51-6.21,14.8,14.8,0,0,0-2.64,2.78Z"/>
      </g>
    </g>
    <path d="M425.7,343.78c-.79-3-1.65-5.9-2.5-8.84-.4-1.4-.81-2.83-1.26-4.23s-.88-3.1-1.47-4.54c0-.11-.19,0-.17,0,.21,1.55.68,3.1,1,4.65s.66,2.86,1,4.29c.73,3,1.48,5.94,2.27,8.9,1.55,5.92,3.37,11.78,5.22,17.63a.1.1,0,0,0,.1.11.11.11,0,0,0,.11-.11c-1.35-6-2.76-11.93-4.31-17.86" style="fill: #263238"/>
    <path d="M380.69,350.25c-1.25-3.47-13.23-29-17.07-41.11-1.64-5.2-3.1-10.44-4.76-15.64m-.09,0c.55,3.23,1.27,6.43,2.08,9.61l-.27-.64c-.6-1.26-1.26-2.51-1.89-3.75h-.13c.53,1.33,1.06,2.66,1.63,4,.38.82.8,1.63,1.2,2.43.37,1.39.73,2.77,1.18,4.12,6.83,20.56,15.75,37.69,17.92,41,0,.2.2.14.2,0Z" style="fill: #263238"/>
    <path d="M363.53,272c-6.21-5.33-25.36-11.19-34.33-7.62-11.33,4.5-28.74,41-25.2,44.16,6.33,5.62,36.1-11.36,43.45-19.37S363.53,272,363.53,272" style="fill: #3880e1"/>
    <g style="opacity: 0.10000599920749664;isolation: isolate">
      <g style="clip-path: url(#clip-path-18)">
        <path d="M335.29,263.24a11.17,11.17,0,0,0-1.63,1.07,13,13,0,0,0,3.72-1h.16a21.16,21.16,0,0,0-2.25-.09m-13.5,9.23c-.21-.43-.39-.87-.61-1.28l-.65.79.32.87a14,14,0,0,0,1.91,3.36,13.18,13.18,0,0,0-1-3.74Zm28.95,2.67a13.38,13.38,0,0,0-1.91-3.37,13.79,13.79,0,0,0,1,3.74,13,13,0,0,0,1.91,3.37,14,14,0,0,0-1-3.74Zm-37.89,17.52a13.76,13.76,0,0,0-3.73-1,13,13,0,0,0,3.34,1.95,13.85,13.85,0,0,0,3.74,1,13.75,13.75,0,0,0-3.35-2M331,284.45a12.82,12.82,0,0,0-1,3.74,14.06,14.06,0,0,0,1.94-3.36,13.66,13.66,0,0,0,1-3.71,12.69,12.69,0,0,0-2,3.33"/>
      </g>
    </g>
    <path d="M356,282.37c-1.55,1.06-3.1,2.08-4.66,3.11,2.25-2.31,4.52-4.66,6.69-7a.11.11,0,0,0,0-.14.1.1,0,0,0-.14,0q-4.2,3.44-8,7.28c-2.69,2.53-5.39,5.06-8.19,7.45a76.45,76.45,0,0,1-8.83,6.59A77.51,77.51,0,0,1,322.51,305c-2,.87-4.05,1.7-6.08,2.47a45,45,0,0,1-6.75,2c-.42.08-.19.27,0,.23a32,32,0,0,0,5.71-1.34l5.77-1.87a69.19,69.19,0,0,0,10.71-4.47c6.71-3.58,12.15-8.75,17.35-14.23l.31-.31q1.38-1,2.73-2c1.29-1,2.61-2,4-2.89,0,0-.1-.22-.22-.13" style="fill: #263238"/>
  </g>
</svg>
