<svg id="Layer_1" data-name="Layer 1" xmlns="http://www.w3.org/2000/svg" xmlns:xlink="http://www.w3.org/1999/xlink" width="21.96cm" height="23.52cm" viewBox="0 0 622.39 666.61">
  <defs>
    <clipPath id="clip-path">
      <rect x="215.42" y="66.48" width="191.61" height="496.42" style="fill: none"/>
    </clipPath>
    <clipPath id="clip-path-2">
      <rect x="228.6" y="96.54" width="174.7" height="466.36" style="fill: none"/>
    </clipPath>
    <clipPath id="clip-path-3">
      <rect x="198.45" y="30.44" width="24.04" height="28.66" style="fill: none"/>
    </clipPath>
    <clipPath id="clip-path-4">
      <rect x="260.47" y="460.61" width="42.99" height="46.03" style="fill: none"/>
    </clipPath>
    <clipPath id="clip-path-5">
      <rect x="311.75" y="409.48" width="6.62" height="24.74" style="fill: none"/>
    </clipPath>
  </defs>
  <title>illustration</title>
  <g>
    <path d="M622.39,219.74H451.53s16.94-46.27,43-46.27,34.24,32,34.24,32,17.59-17.34,32-17.34,27,22.85,27,22.85,20.5-12.32,34.6,8.76" style="fill: #ebebeb"/>
    <path d="M526.75,59.89H446.91S464.76,34,478.8,34s18.27,17.29,18.27,17.29,9.92-8.05,19.12-6.61,10.56,15.22,10.56,15.22" style="fill: #ebebeb"/>
    <path d="M158.51,390.19H78.66s17.84-25.9,31.91-25.9,18.28,17.23,18.28,17.23,9.92-8,19.11-6.61,10.55,15.28,10.55,15.28" style="fill: #ebebeb"/>
    <path d="M155.53,206H0s21.33-47.55,44.09-50.52,33.67,35.33,33.67,35.33S92.47,177.23,104,177.23s20.47,17.83,20.47,17.83,23.12-12.2,31,10.91" style="fill: #ebebeb"/>
    <path d="M264.85,88.33H159.72s18.05-34.44,37.63-34.95,29.86,26.09,29.86,26.09S257.73,55,264.85,88.33" style="fill: #ebebeb"/>
    <path d="M514.94,417.73H409.82s18.11-34.49,37.69-35,29.86,26.07,29.86,26.07,30.46-24.44,37.57,8.88" style="fill: #ebebeb"/>
    <path d="M311.19,624.41c108.69,0,196.79,9.45,196.79,21.1s-88.1,21.1-196.79,21.1-196.78-9.44-196.78-21.1,88.1-21.1,196.78-21.1" style="fill: #ebebeb"/>
    <path d="M200.12,510.35c-7.61.28-16.13.7-22.45-4.25-5.84-4.57-11-11.36-10.27-19.18.22-2.22.73-3.61,3-2.65,3.65,1.45,6.45,5.45,9,8.27a77.36,77.36,0,0,0,10.59,10c2.71,2.09,5.64,3.89,8.41,5.9.35.24.7.5,1,.78l.39.28h.22a.46.46,0,0,1,.32.17v.14a.39.39,0,0,1-.25.5" style="fill: #37474f"/>
    <path d="M200.49,509.85c-6.7-.12-13.94.18-19.3-4.37a31.14,31.14,0,0,1-6.24-7.62c-.76-1.27-3-5-2.13-6.52,1.75-2.71,9.74,8.33,10.85,9.38a32.64,32.64,0,0,0,14.78,7.76,12.66,12.66,0,0,1,1,.78A36.56,36.56,0,0,1,188.36,505c-4.75-2.83-7.4-7-11.14-11-.79-.85-3.23-3.7-4.14-1.92-.59,1.17,1.65,4.85,2.13,5.64a31.28,31.28,0,0,0,5.88,7.19c5.35,4.68,12.56,4.57,19.32,4.78a.39.39,0,0,1,.08.14" style="fill: #fff"/>
    <path d="M204.33,515l-.18.88a.21.21,0,0,1-.14.16.33.33,0,0,1-.4-.16.19.19,0,0,1,0-.18v-.12l.09-.26v-.09c-1.35-5-1.87-10.3-3.3-15.34s-3.05-9.56-4-14.48c-.63-3.05-2.78-18.66,4.08-16.76,3,.87,5.12,5.27,6.28,7.89a32.9,32.9,0,0,1,2.53,11.19c.45,9.54-3,18.17-4.94,27.27" style="fill: #37474f"/>
    <path d="M206.52,495.62a38.32,38.32,0,0,0-1.09-10.56c-.31-1.19-1.8-6.92-3.74-6.78-1.26.09-1.52,2.56-1.52,3.38-.43,3.46.68,7,1.37,10.36a144.21,144.21,0,0,1,2.51,20.8,12.82,12.82,0,0,1-.18,1.33c0,.44-.09.73-.14,1.09v.67a.33.33,0,0,0,.4.16,6.58,6.58,0,0,1,.12-.86v.7l.14-.73v-1.32a153,153,0,0,0,2.13-18.24m-2.31,15.72q-.3-6.09-1.18-12.19c-.45-3.26-1.08-6.49-1.76-9.7a32.13,32.13,0,0,1-.87-5.5c0-1.43.13-6.67,2.85-3.43,1.95,2.38,2.42,7.39,2.66,10.3a52,52,0,0,1-.2,9.66c-.36,3.63-1,7.24-1.5,10.86" style="fill: #fff"/>
    <path d="M208.43,535.93h0a.66.66,0,0,1-.28,0c-7-.35-16.27.31-22.07-4.31-4.29-3.4-8.49-10.13-7.15-15.86,1.52-6.43,10.25,1.3,12.56,3.15a213.63,213.63,0,0,1,17.09,16.69.15.15,0,0,0,.09.12c.06.12-.08.18-.24.21" style="fill: #37474f"/>
    <path d="M208.67,535.74l-1.2-.77c-4.57-2.88-9.05-6-13.35-9.26-1.1-.84-8.94-7.82-10.13-5.33-.7,1.52,1.89,4.57,2.71,5.64a21.7,21.7,0,0,0,5.3,4.72c4.57,2.91,10.29,3.53,15.56,4.92a6.05,6.05,0,0,1,.73.2l.14.07c.16,0,.3-.09.24-.19m-13.79-4a21.58,21.58,0,0,1-6.09-4.07c-1.16-1.11-5.29-5.29-4.19-7,.58-.92,1.06-.43,2.18.1.5.26,1,.55,1.52.86,1.17.77,2.24,1.67,3.34,2.53,1.9,1.52,3.85,3,5.83,4.46,3.25,2.36,6.58,4.57,10,6.7-4.17-1.28-8.59-1.79-12.57-3.59" style="fill: #fff"/>
    <path d="M221.18,521.57a41.21,41.21,0,0,1-12,20.87.25.25,0,0,1-.12.08.31.31,0,0,1-.37-.13.32.32,0,0,1,0-.41l.38-.29c1.15-9.47,2.42-18.9,3.4-28.41.23-2.24,2-16.52,6.37-14.19,2.7,1.44,2.88,7.29,3.12,9.91a41.83,41.83,0,0,1-.82,12.57" style="fill: #37474f"/>
    <path d="M218.65,508.86c-.24-.79-.65-1.62-1.52-1.05-1.71,1.05-2.38,7.77-2.67,9.61-1.17,7.62-3.05,15-4.83,22.51l-.46,1.9-.42.56a.29.29,0,0,0,.35.13.61.61,0,0,0,0-.19c.2-.24.39-.5.58-.76a49.09,49.09,0,0,0,6.9-13.45,45.7,45.7,0,0,0,2-9.39c.39-2.94.93-7,.05-9.87m-9,32.18c0,.14-.18.26-.26.38a3.67,3.67,0,0,1,.23-.76,135.39,135.39,0,0,0,4.28-17.42c.51-3,.83-6,1.44-9,.25-1.25.88-4.83,1.92-5.41s1,.81,1.12,1.62a14.18,14.18,0,0,1,0,2.17A47.94,47.94,0,0,1,209.69,541" style="fill: #fff"/>
    <path d="M210.38,562.9H209v-3.69c-.17-5-.37-9.9-.66-14.85-.17-2.83-.37-5.64-.67-8.41a1.41,1.41,0,0,1,0-.29,1.93,1.93,0,0,0-.09-.69c-.09-.24,0-.48-.09-.73a60.46,60.46,0,0,0-4.79-18.2c-.9-1.94-1.86-3.81-2.88-5.69l-.29-.53-.09-.14c-.09-.18-.2-.36-.3-.55s-.15-.27-.25-.42c-3.21-5.67-6.91-11.09-10.4-16.56-1-1.53-2-3.14-3.05-4.71a2.75,2.75,0,0,1-.17-.29,4,4,0,0,1-.23-.34c-4.4-6.94-8.73-13.94-13.3-20.75-.16-.24.25-.47.42-.23,3,4.57,6.27,9,9.44,13.44l1.27,1.78c.83,1.19,1.67,2.35,2.49,3.54,1.65,2.36,3.3,4.72,4.88,7.13A201.16,201.16,0,0,1,203,512.5c.27.53.53,1.08.79,1.65a10.38,10.38,0,0,1,.47,1c.14.33.37.79.55,1.2a64,64,0,0,1,4.69,22,8.34,8.34,0,0,0,.09,1.52v3.37c.2,4.95.34,9.9.45,14.84.2,1.66.26,3.25.32,4.83" style="fill: #37474f"/>
    <path d="M168.74,473.13c-3.81-5.13-8.72-15.72-3.05-21.24a6,6,0,0,1,8-.58c3.05,2.15,4.31,6.22,5.27,9.57,2.59,9,4.3,18.15,7.51,26.95a8.34,8.34,0,0,1,.35.95c0,.18-.23.26-.29.07l-.32-.85c-6.11-4.42-12.92-8.77-17.44-14.87" style="fill: #37474f"/>
    <path d="M186.47,487.85a.17.17,0,0,0-.1-.15,64.36,64.36,0,0,1-3.57-6.65,128.65,128.65,0,0,1-5.48-14.71c-.61-1.92-3.36-11.35-6.74-7.62-1.42,1.52-1.22,4.39-1,6.34a23.82,23.82,0,0,0,2.94,8.83c3.05,5.46,7.73,9.59,12.68,13.24.21.19.44.35.67.52l.14.23.09.15a.21.21,0,0,0,.28.1.24.24,0,0,0,.1-.1.17.17,0,0,0,0-.18m-1.52-1A50.45,50.45,0,0,1,174.19,476a27.26,27.26,0,0,1-3.49-7.15,20.55,20.55,0,0,1-.76-3.46,14.68,14.68,0,0,1-.15-2.65c0-1.93.87-4,2-4.25,1.42-.26,1.89.56,2.82,2.19a15.05,15.05,0,0,1,.84,1.71,44.19,44.19,0,0,1,1.52,4.46c.79,2.5,1.6,5,2.5,7.44.61,1.68,1.25,3.32,2,4.95a65.91,65.91,0,0,0,4.2,8.14Z" style="fill: #fff"/>
    <path d="M422.92,487.5c-.63,5.09-1.6,10.12-2.64,15.14-.58,2.85-1.19,5.69-1.76,8.55-.64,3.14-1.53,6.34-.72,9.51a3.23,3.23,0,0,1,0,.44.39.39,0,0,1-.54.06.43.43,0,0,1-.12-.17v-.21a11.3,11.3,0,0,1-1.09-2.64,68.11,68.11,0,0,1-5-23A54,54,0,0,1,412.56,481c.91-3.69,2.19-9.14,4.95-12,2.5-2.56,4.57,1.53,5.3,3.61,1.48,4.7.7,10.12.11,14.95" style="fill: #37474f"/>
    <path d="M418.36,476.7c-1.86,0-3.2,6-3.87,8.57a51.66,51.66,0,0,0-1.52,12.5A66.5,66.5,0,0,0,416.81,520c.11.28.2.58.3.85v.2a.39.39,0,0,0,.49.24.38.38,0,0,0,.17-.12c-.12-.62-.21-1.23-.27-1.87s-.14-1.11-.17-1.68a88.22,88.22,0,0,1,1.12-18.36c.92-7,2.44-22.51-.09-22.51M417,518.84c.09.82.23,1.63.38,2.44-.18-.6-.38-1.18-.55-1.77a73.26,73.26,0,0,1-3.5-19.58,52.4,52.4,0,0,1,.81-11.18,47.15,47.15,0,0,1,1.45-5.85c.25-.81,1.61-5.82,2.75-5.58.81.18,1,4.69,1,4.8v2.71c0,1.88-.15,3.74-.31,5.59-.35,4-.93,8.06-1.41,12.09a69.74,69.74,0,0,0-.63,16.33" style="fill: #fff"/>
    <path d="M452.16,501.55c-3.42,6.65-9.15,11.74-15.09,16.1-3.18,2.33-6.46,4.57-9.69,6.78a51.75,51.75,0,0,0-8.36,6.45,2.66,2.66,0,0,0-.32.35,12.82,12.82,0,0,0-1.74,2.39.22.22,0,0,1-.17.09c0,.1-.06.2-.1.3m-.14,0v-.33a.18.18,0,0,1,0-.24.2.2,0,0,1,0-.11,1.93,1.93,0,0,1,0-.34c1-7.77,6.4-15.61,11-21.6s10.25-11.28,17.35-14c1.79-.69,5.84-2.58,7.62-1.13s.37,3.88-.36,5.29Z" style="fill: #37474f"/>
    <path d="M446.88,501.58c-1.61-1.62-6.38,2.37-7.61,3.32a79,79,0,0,0-9.86,9.58,71.09,71.09,0,0,0-12.59,18.28l-.16.22a.92.92,0,0,0,0,.33.11.11,0,0,0,0,.11.21.21,0,0,0,0,.26c.09-.09.15-.2.24-.28.6-.73,1.22-1.44,1.86-2.14l.32-.34a155.7,155.7,0,0,1,14.73-13,73.19,73.19,0,0,0,9.83-9.53c.69-.95,4.68-5.41,3.24-6.78m-1.52,3.56c-4,6.68-11,11.55-16.89,16.41a80.4,80.4,0,0,0-11.23,10.67,75.32,75.32,0,0,1,11.68-16.43,102,102,0,0,1,8-8.24,43.36,43.36,0,0,1,4.86-3.89,17.14,17.14,0,0,1,3.29-1.78c2.26-.64,1,2.12.32,3.25Z" style="fill: #fff"/>
    <path d="M415.88,549.45a.44.44,0,0,1-.35.18l.09.12a.14.14,0,0,1,0,.17.11.11,0,0,1-.13,0l0,0c-6.31-6.4-12.37-14.2-15.51-22.69a35.06,35.06,0,0,1-2.26-11.18c-.07-2.6-.21-7.88,2-9.78,4.57-3.82,8.61,12.42,9.22,14.87,1.11,4.46,1.86,9,2.88,13.5,1.12,4.91,2.62,9.73,4.08,14.55a.3.3,0,0,1,0,.26" style="fill: #37474f"/>
    <path d="M415.88,549.43c-.24-.41-.49-.82-.72-1.25a76,76,0,0,1-8.1-21.83A68.66,68.66,0,0,0,404,515c-.36-.9-1.52-4.37-3-2.62-.78.91-.14,7.48.18,9.14a48,48,0,0,0,3.64,11.15,79.51,79.51,0,0,0,10.33,16.76c.13.15.23.31.36.44a.12.12,0,0,0,0-.16l-.1-.11a.42.42,0,0,0,.43-.17m-9.14-13.95a55.49,55.49,0,0,1-4.33-10.84,35.27,35.27,0,0,1-.94-4.57,23.17,23.17,0,0,1-.31-3.62c0-3,.26-3.74.75-3.84s.73.26,1.61,2a19.92,19.92,0,0,1,1.27,3.62c.46,1.75.85,3.5,1.23,5.28.78,3.54,1.53,7.09,2.53,10.56a59,59,0,0,0,6.25,14.2,90.09,90.09,0,0,1-8.06-12.81" style="fill: #fff"/>
    <path d="M436.13,533.86a22.64,22.64,0,0,1-4.13,8.6c-3.75,5.16-8.52,9.44-12.6,14.33-.61.73-1.22,1.53-1.78,2.23a6,6,0,0,1-.54,1.08,3.7,3.7,0,0,1,.22-1.13c.65-3.43,2.8-13.71,5.48-19a45.74,45.74,0,0,1,6-9.34c1.16-1.31,3.87-4.14,5.92-3.52s1.73,5.14,1.46,6.78" style="fill: #37474f"/>
    <path d="M432.75,531.77c-2.18-1.35-7.82,8.72-8.58,10a63.65,63.65,0,0,0-6.43,15.38c-.18.59-.34,1.2-.49,1.81a9,9,0,0,0-.21,1.13s.47-1,.53-1.08l.29-.38c.49-.64,1-1.25,1.52-1.85,2.46-3.66,5-7.3,7.35-11a58.64,58.64,0,0,0,4.57-8.38c.26-.66,2.41-5,1.45-5.63m-.63,2.84c-3.05,8.76-9.46,15.68-14.31,23.45l-.22.38a2.54,2.54,0,0,1,.19-.69,74.89,74.89,0,0,1,5.14-12.8,70.15,70.15,0,0,1,4.34-7.2,35.46,35.46,0,0,1,2.68-3.75c.46-.5,1.75-1.81,2.18-1.52s.2,1.6,0,2.13" style="fill: #fff"/>
    <path d="M458,461.54c-6.49,14.93-23.56,21.89-31,36.29v.08c-.23.42-.44.88-.65,1.32a.29.29,0,0,1-.38.16l-.11-.08a.2.2,0,0,1,0-.25c0-.11.1-.21.15-.32a78.4,78.4,0,0,1,9.14-26.14c3.74-6.89,8.86-13.32,15.94-16.94,1.75-.9,5.15-2.79,7.1-1.31s.57,5.34-.24,7.19" style="fill: #37474f"/>
    <path d="M452.19,462.18c-.83-.61-2.07.13-2.79.5a24.65,24.65,0,0,0-4.92,3.37,41.29,41.29,0,0,0-7.88,9.35,85.05,85.05,0,0,0-9.26,18.79c-.51,1.52-.93,3-1.3,4.57a2.07,2.07,0,0,1-.12.56.28.28,0,0,0,.4.09.26.26,0,0,0,.09-.09c.2-.46.41-.87.62-1.31v-.1a48.8,48.8,0,0,1,4.57-8.52,115.87,115.87,0,0,1,9.86-11.69c1.33-1.4,13.59-13.42,10.73-15.52m-1,3.45c-2,3.51-5,6.37-7.71,9.36s-5.42,6-8.07,9.05a57.59,57.59,0,0,0-5.69,7.75,45,45,0,0,0-3.56,7.2,63.15,63.15,0,0,1,2.54-7.47v-.09A113.39,113.39,0,0,1,435,478.87l.08-.15a51.51,51.51,0,0,1,7.19-10,30.44,30.44,0,0,1,5.12-4.36c2.15-1.37,4-2.27,4.57-1.52s-.18,1.8-.78,2.83" style="fill: #fff"/>
    <path d="M435.34,479c-1.95,4.21-3.81,8.49-5.66,12.75-.88,2-1.73,4-2.59,6.1V498c-.3.73-.62,1.52-.94,2.17-2.8,6.56-5.91,13.26-7.62,20.21A60.46,60.46,0,0,0,417,531.59v1.81a2,2,0,0,0,0,.35c-.12,3.28-.08,6.57,0,9.77.09,4.45.45,8.87.88,13.29a2.54,2.54,0,0,0,0,.39v1.48c.15,1.42.27,2.83.4,4.27h-1.36a88.19,88.19,0,0,1-1.65-13.15v-.28a8,8,0,0,0-.07-1.29,9.64,9.64,0,0,1,0-1.52c0-1.28-.09-2.55-.11-3.8a93.36,93.36,0,0,1,1.53-22l.13-.6v-.24a3,3,0,0,1,.11-.43L417,519c.1-.41.23-.81.35-1.2a3.57,3.57,0,0,1,.1-.35,142.62,142.62,0,0,1,7.5-18.13c.5-1.09,1-2.14,1.52-3.2l.86-1.79,1.32-2.66v-.09c2.09-4.19,4.25-8.35,6.31-12.56.11-.29.44-.14.34.06" style="fill: #37474f"/>
    <path d="M176.52,562.49H81.13s.21-14.2,9.6-18a12.78,12.78,0,0,1,15,3.58S109.52,522,127,522s25.9,22.53,25.9,22.53,3.92-6.81,13.62-5.54,10,23.52,10,23.52" style="fill: #37474f"/>
    <path d="M612.22,562.49s-2.92-13.71-8.76-15.75-9.4,4-9.4,4-1.38-13-9.67-17-14.51,4.1-14.51,4.1-6.35-16.56-17.7-16.56-17,24.22-17,24.22-6.7-7.22-13.57-3.13-6.88,20.06-6.88,20.06Z" style="fill: #37474f"/>
    <path d="M98.18,562.49h-88s2.9-12.4,8.73-13.29,8.55,4.88,8.55,4.88-.26-17.31,10.66-20.26,20.06,12.35,20.06,12.35S65,537.44,74.31,538,86,553,86,553s8.45-5,12.2,9.52" style="fill: #455a64"/>
    <path d="M521,562.49H466.87s.13-8,5.44-10.18a7.22,7.22,0,0,1,8.48,2s2.16-14.79,12.08-14.79,14.64,12.76,14.64,12.76a7.61,7.61,0,0,1,7.72-3.15c5.5.73,5.72,13.33,5.72,13.33" style="fill: #455a64"/>
    <polygon points="0 562.9 77.81 562.52 155.6 562.4 311.19 562.14 466.78 562.38 544.59 562.52 622.39 562.9 544.59 563.27 466.78 563.4 311.19 563.66 155.6 563.4 77.81 563.27 0 562.9" style="fill: #263238"/>
    <path d="M215.42,173.5c0,14.6,0,84.27,65.51,95.62,0,0,1.07,7.36,3.16,18.86,2.5,14,6.49,34,11.78,54.41a.33.33,0,0,0,0,.14c1.82,7,3.8,14.08,5.94,20.93a.43.43,0,0,0,0,.16c.21.65.41,1.29.61,1.93a355.55,355.55,0,0,1,10.21,39.86c20.14,104.21-22.78,157.49-22.78,157.49h90.21S402.41,465.39,355,367.53c-8.73-18.11,26.2-32.85,41.54-66.56,12.94-28.56,12.56-169,6.28-178s-16.3-6.79-16.3,5.67,0,129.07-8.79,151.71-46.29,49.82-46.29,49.82-19.27-31.54-30.07-100.56c-5.06-32.48-8.26-73.24-6.71-122.92q.5-15.78,1.66-32.73c.9-13-12.57-7.28-17.05,4.07s-10.78,77-1.81,165.29c0,0-44.9-6.32-44.9-77-.06-13.12-17.11-7.39-17.11,7.2" style="fill: #ffc727"/>
    <g style="opacity: 0.5;isolation: isolate">
      <g style="clip-path: url(#clip-path)">
        <path d="M215.42,173.5c0,14.6,0,84.27,65.51,95.62,0,0,1.07,7.36,3.16,18.86,2.5,14,6.49,34,11.78,54.41a.33.33,0,0,0,0,.14c1.82,7,3.8,14.08,5.94,20.93a.43.43,0,0,0,0,.16c.21.65.41,1.29.61,1.93a355.55,355.55,0,0,1,10.21,39.86c20.14,104.21-22.78,157.49-22.78,157.49h90.21S402.41,465.39,355,367.53c-8.73-18.11,26.2-32.85,41.54-66.56,12.94-28.56,12.56-169,6.28-178s-16.3-6.79-16.3,5.67,0,129.07-8.79,151.71-46.29,49.82-46.29,49.82-19.27-31.54-30.07-100.56c-5.06-32.48-8.26-73.24-6.71-122.92q.5-15.78,1.66-32.73c.9-13-12.57-7.28-17.05,4.07s-10.78,77-1.81,165.29c0,0-44.9-6.32-44.9-77-.06-13.12-17.11-7.39-17.11,7.2"/>
      </g>
    </g>
    <g style="opacity: 0.10000599920749664">
      <g style="clip-path: url(#clip-path-2)">
        <path d="M335.42,366.57c5.18,17.65,12.26,34.83,17.4,52.53a358.86,358.86,0,0,1,11.61,54.35,278.81,278.81,0,0,1,1.76,53.33c-.79,12.19-3.58,24.12-5.69,36.12h8.21c9.75-27.94,8.44-59.42,3.41-87.62a399.89,399.89,0,0,0-14.44-54.56c-6.1-18.28-11.82-37-19.53-54.85-.66-1.48-3.2-.91-2.73.7"/>
        <path d="M299.13,261.35c3.61,37.24,20.09,73.39,31.9,108.94a293.31,293.31,0,0,1,14.19,111c0,.88-1.53.9-1.53,0-.36-20.34-.71-40.82-4.9-60.87C335,402.31,329,384.53,323,366.94c-5.91-17.27-12.46-34.39-17.32-51.93a240.62,240.62,0,0,1-8.29-53.66c-.05-1.06,1.61-1,1.74,0"/>
        <path d="M299.29,562.9h9.15c2.52-5.09,4.79-10.25,6.94-15.23a218.05,218.05,0,0,0,14.1-46.11c5.86-31.06,4.57-61.87-2.53-92.66-.22-.89-1.6-.49-1.53.35,5.35,30.58,3.77,62.8-3.29,93a259,259,0,0,1-14.27,43.54,189.13,189.13,0,0,1-8.57,17.08"/>
        <path d="M333.09,522.72c2.08-6.85,3.35-15.23,6.88-21.65a8,8,0,0,1,6.45-4.35,1.46,1.46,0,0,1,.62-.08,7.47,7.47,0,0,1,.95.12,9,9,0,0,1,1.69.38c1.11.38,2.36,1.15,2.56,2.32v.18c4,5.72,2.53,17.93,2,22.43-.85,7-2.95,25.38-15.14,23.74-11.81-1.6-8-16.44-6-23.09"/>
        <path d="M284.12,288c2.5,14,6.49,34,11.78,54.41a.33.33,0,0,0,0,.14c.67,2.33,1.37,4.57,2.05,7,1.41,4.66,2.72,9.31,3.89,14a.43.43,0,0,0,0,.16c.21.65.41,1.29.61,1.93a355.55,355.55,0,0,1,10.21,39.86c2.07-17.49-1.27-34.86-6.42-52.29-6.44-22.05-13.77-43.67-22.12-65.14"/>
        <path d="M394.31,243a7.38,7.38,0,0,1,.86-3.69,3,3,0,0,1,2.91-1.26,2.94,2.94,0,0,1,2.43,1.88,2.52,2.52,0,0,1,.12.39,1.78,1.78,0,0,1,.41.85,5.32,5.32,0,0,1,0,1.69,3.64,3.64,0,0,1-1,4.31,3.34,3.34,0,0,1-4.72-.39l-.15-.19a4.52,4.52,0,0,1-.82-3.59"/>
        <path d="M343.19,334.15c21.33-22.7,46.26-49.32,46.18-80.75,0-.79,1.22-.73,1.32,0C395.51,288,371,313.6,345,335.81c-1.16,1-2.81-.53-1.8-1.66"/>
        <path d="M346.48,349.37c1-5.65,5.94-10.5,10.07-14.63,5.58-5.56,11.61-10.66,16.35-16.85.62-.8,2-.09,1.52.79a98.14,98.14,0,0,1-12.35,15.42c-4.83,5.2-8.76,11.25-13.84,16.18a1,1,0,0,1-1.75-.91"/>
        <path d="M399,143c0-.62,1-.57,1.06,0,4.08,27.61,4.75,57.09-.89,84.59-.17.89-1.69.66-1.69-.21,0-28.08,1.49-56.25,1.52-84.38"/>
        <path d="M392.39,185.77c0-.22.38-.22.38,0,.15,18.28.16,38-4.3,55.81-.26,1-2.09.82-2.07-.25.15-18.37,3.76-37.3,6-55.56"/>
        <path d="M231,214.65c4.57,12.1,9.71,23,20.51,31.73a80.25,80.25,0,0,0,16.3,10.31c5.67,2.65,12,3.87,17.57,6.64.82.41.35,1.37-.44,1.53-13.27,1.41-28.46-8.31-37.09-16.58-9.34-9-17.72-20.78-18.63-33.35-.06-1,1.46-1.11,1.78-.28"/>
        <path d="M229,187.31c2.7,22.56,15.94,41.62,33.25,57.42.48.44-.16,1.23-.77.88-21.55-12.92-32.11-35.65-32.89-58.3,0-.25.32-.23.41,0"/>
        <path d="M279.91,137.94c.08-.84,1.53-.87,1.53,0-1,50.14,9.81,99.42,14,149.31,0,.84-1.52,1-1.63.2-4.88-24.38-8.62-49.24-11.67-73.94-3.14-25.18-4.82-50.4-2.26-75.57"/>
        <path d="M286.71,167.06a200,200,0,0,0,14.56,62.46c-5-32.48-8.25-73.23-6.7-122.92a171.76,171.76,0,0,0-5.67,21.15,155.51,155.51,0,0,0-2.19,39.31"/>
        <path d="M280.49,110.23c.75-4.47,2.87-8.57,3.81-13,.2-.93,1.94-1,2.1,0,.69,3.85-.65,7.08-1.75,10.8-1.52,5.22-1.87,10.56-2.62,15.89a.9.9,0,0,1-1.78,0,53.78,53.78,0,0,1,.24-13.71"/>
        <path d="M340.22,354.44c12.49,19.38,20.2,40.29,24.91,62.2.2.88-1.16,1.23-1.52.38-7.76-20.85-16.6-41.37-24.78-62.07-.21-.66,1-1.15,1.39-.51"/>
        <path d="M317.82,371.93c4,7.48,8.55,18.48,6.72,26.91,0,.17-.32.2-.41,0-2.18-3.75-2.74-8.12-3.83-12.19-1.26-4.74-2.89-9.4-4.12-14.14a.9.9,0,0,1,1.64-.58"/>
        <path d="M345.41,559.87a54.51,54.51,0,0,0,11.06-24.65c2.09-10.67,4.35-22.22,2.18-33-1.78-8.87-5.19-17.27-6.5-26.26a124.56,124.56,0,0,1-.43-32.22c0-.68,1.24-.71,1.21,0a123.33,123.33,0,0,0,4,37c2.71,10,7.09,19.73,7,30.18-.08,16-2.78,38.82-16.92,50-.77.65-2.3-.2-1.6-1.1"/>
        <path d="M326.26,562.9h5.35a18.74,18.74,0,0,0-.72-8c-1.78-6.22-5.33-13.08-4.26-19.66,0-.36-.54-.67-.73-.27-4.42,9.23-.87,18.56.36,27.94"/>
        <path d="M327.65,529.31h0a4.18,4.18,0,0,0-.66,2.6,4.18,4.18,0,0,1,.66-2.6"/>
      </g>
    </g>
    <path d="M496.79,303.68a34.3,34.3,0,1,1-11.36,47.16,34.3,34.3,0,0,1,11.36-47.16" style="fill: #37474f"/>
    <path d="M531.37,323.7c-.78-8.35-6.58-16.64-16.69-16.64s-15.84,8.3-16.68,16.65c-1.26,12.88,7.42,24.55,16.68,35.2,9.28-10.71,18-22.34,16.69-35.21M514.68,333a9.14,9.14,0,1,1,9.15-9.14,9.14,9.14,0,0,1-9.15,9.14" style="fill: #fff"/>
    <path d="M236.33,56.09a72.37,72.37,0,1,1,54.22,86.81,72.38,72.38,0,0,1-54.22-86.81" style="fill: #455a64"/>
    <path d="M305.1,52.35c-.17,4.57,0,9.26,0,14.24h18c-.76,5.93-1.42,11.4-2.3,16.76,0,.55-1.42,1.2-2.2,1.25-4.32.11-8.65,0-13.37,0v60a70.55,70.55,0,0,1-19.08-3V84.84H270.35V66.76h15.4c0-1.37.17-2.47.17-3.51.1-4.76,0-9.53.38-14.26,1-10.36,7.34-17.64,17.6-19.07,6.35-.87,13-.17,19.67-.17V46.2h-7.14a30.87,30.87,0,0,0-6.29.43,5.93,5.93,0,0,0-5,5.72" style="fill: #fff"/>
    <path d="M123.78,218.83a72.37,72.37,0,1,1,0,102.35,72.38,72.38,0,0,1,0-102.35" style="fill: #455a64"/>
    <path d="M135.43,304a40.45,40.45,0,0,0,26.09-8c-10.79-3.27-15.09-6.56-16.66-12.7l7.22-.35c-8.5-3.28-13.51-9-14.17-18.29l7.46,2c-7.8-9.83-9.39-17.45-4.73-24.56a53.76,53.76,0,0,0,38.24,19.13c0-1.21-.13-2.13-.16-3-.31-8.06,3-14.16,10.25-17.71s14.11-2.57,20.31,2.46a3.75,3.75,0,0,0,4.1.85c2.91-1.1,5.83-2.15,9-3.32a18.61,18.61,0,0,1-7.1,9.14,5.55,5.55,0,0,1,.2.52l8.94-2.3.37.36c-2.32,2.32-4.57,4.76-7,6.93a4.76,4.76,0,0,0-1.93,4,52.35,52.35,0,0,1-47.63,52.44,53.1,53.1,0,0,1-31.07-6.34,16.71,16.71,0,0,0-1.78-1.16" style="fill: #fff"/>
    <path d="M275.4,340.38A50.75,50.75,0,1,1,319.45,397a50.75,50.75,0,0,1-44.05-56.66" style="fill: #455a64"/>
    <path d="M305.86,320.09a.74.74,0,0,0,.21,0,6.21,6.21,0,0,1,4,1.81,6.08,6.08,0,0,1,1.79,3.56,6.24,6.24,0,0,1-2.14,5.9,6.16,6.16,0,0,1-3.05,1.43,5.84,5.84,0,0,1-1.77.09,6.36,6.36,0,0,1-5.54-4.57,5.37,5.37,0,0,1-.23-1.32c0-.09,0-.2-.11-.23v-.56c.11,0,.09-.14.11-.23s0-.37,0-.55a6.16,6.16,0,0,1,5.8-5.35h.22Z" style="fill: #fff"/>
    <path d="M328.68,342.47l.17-.22a11.72,11.72,0,0,1,7-5,16.37,16.37,0,0,1,2.88-.4,16,16,0,0,1,2,0,14.26,14.26,0,0,1,5.44,1.36,9.33,9.33,0,0,1,4.08,3.88,13.71,13.71,0,0,1,1.36,3.43,16,16,0,0,1,.5,2.48,5,5,0,0,0,.11,1.27c0,.78.09,1.52.12,2.35v21.07c0,.42,0,.44-.46.44h-10.1c-.53,0-.53-.15-.53-.55V354.11a11.75,11.75,0,0,0-.46-3.49,6.51,6.51,0,0,0-.85-1.88,4.29,4.29,0,0,0-2.81-1.85,5.3,5.3,0,0,0-1.32-.16h-1.43a5.26,5.26,0,0,0-4.5,3.25,9.81,9.81,0,0,0-.71,2.65,21.77,21.77,0,0,0-.19,2.91v17a2.67,2.67,0,0,1,0,.4c0,.18-.09.24-.26.26H318.43c-.46,0-.49-.17-.49-.5V338.14c0-.26.09-.35.35-.36h9.94c.24,0,.33.09.33.35v4.32Z" style="fill: #fff"/>
    <path d="M300,355.51V338.28a1.4,1.4,0,0,1,0-.29.19.19,0,0,1,.19-.2h10.43c.39,0,.48.11.48.5v34.38a2.16,2.16,0,0,1,0,.36.24.24,0,0,1-.26.25H300.53c-.38,0-.49-.1-.49-.52V355.51Z" style="fill: #fff"/>
    <path d="M402.09,213.17a72.31,72.31,0,1,1,54,86.87,72.3,72.3,0,0,1-54-86.87" style="fill: #ffc727"/>
    <path d="M515.6,205.77c0-11.73-7.38-19.32-19-19.44q-24.15-.22-48.3,0c-11.38.12-18.75,7.62-18.94,19-.1,8,0,16.07,0,24.1v23.59c.1,12,7.42,19.67,19.29,19.81q23.88.25,47.78,0c11.64-.14,19.11-7.79,19.17-19.39q.14-23.83,0-47.7m-7.7,47.83c-.07,7.42-4.08,11.52-11.5,11.58q-23.89.13-47.76,0c-7.47,0-11.51-4.15-11.54-11.54q-.12-24.09,0-48.19c0-7.36,4.15-11.58,11.49-11.62q23.9-.2,47.77,0c7.37,0,11.47,4.25,11.54,11.59.1,8,0,16.06,0,24.09s.1,16.06,0,24.09" style="fill: #fff"/>
    <path d="M472.54,207a22.26,22.26,0,1,0,.26,0h-.26m-.29,37.54a15.24,15.24,0,0,1-14.78-14.84,15,15,0,0,1,30,0,15.24,15.24,0,0,1-15.27,14.84" style="fill: #fff"/>
    <path d="M501.78,206.5a4.68,4.68,0,0,1-4.64,4.72,4.62,4.62,0,0,1-.74-.06,4.72,4.72,0,0,1-5-4.44,4.27,4.27,0,0,1,.08-1.18c.22-3.15,2.28-4.57,5.43-4.78,3.19.46,5.09,2.28,4.85,5.74" style="fill: #fff"/>
    <path d="M379.94,337.3a48.89,48.89,0,1,1,36.15,58.93,48.89,48.89,0,0,1-36.15-58.93" style="fill: #ffc727"/>
    <polygon points="409.24 367.45 409.24 329.93 454 348.7 409.24 367.45" style="fill: #fff"/>
    <path d="M224.83,328.28a34.68,34.68,0,1,1-19,45.2,34.66,34.66,0,0,1,19-45.2" style="fill: #37474f"/>
    <path d="M257.26,364.77c-5.73,11.54-19.34,18.39-19.34,18.39s-13.6-6.85-19.32-18.39c-4.76-9.63-1.75-20,5.78-22.3,10.77-3.26,13.54,15.52,13.54,15.52s2.76-18.78,13.56-15.52c7.51,2.27,10.55,12.67,5.78,22.3" style="fill: #fff"/>
    <path d="M397,63.67a50.75,50.75,0,1,1,0,71.78,50.75,50.75,0,0,1,0-71.78" style="fill: #37474f"/>
    <path d="M447.62,78.8a11.1,11.1,0,0,0,.88,1.38h.08a10.66,10.66,0,0,1-1-1.38m1,1.52h0l.53.38Zm8.61,9.14V85.51a13.41,13.41,0,0,1-1.52-.36,14.73,14.73,0,0,1-2.58-1,12.38,12.38,0,0,1-2.27-1.53,8.92,8.92,0,0,1-1.07-1l-.15-.17-.14-.14a6.73,6.73,0,0,1-.83-1.08,1.31,1.31,0,0,1-.37-.24,15.3,15.3,0,0,1-1.6-1.62,13.75,13.75,0,0,1-1.9-2.91,15.15,15.15,0,0,1-1.16-3.27c-.11-.41-.18-.82-.28-1.24v-.1h-7.74c-.18,0-.21,0-.21.21V111a9.38,9.38,0,0,1-.12,1.83,13.79,13.79,0,0,1-.43,2.29,4.52,4.52,0,0,1-.45.94,9,9,0,0,1-1.65,2.07,8.34,8.34,0,0,1-4.05,2l-.95.12h-.93a8.74,8.74,0,0,1-3.15-.65,8.1,8.1,0,0,1-2-1.18,6.42,6.42,0,0,1-1.63-2,18.54,18.54,0,0,1-.67-1.75,8.23,8.23,0,0,0,.64,1.67,3.47,3.47,0,0,1-.64-.44,6.57,6.57,0,0,1-.68-.61,6.72,6.72,0,0,1-1.44-2.3,11.83,11.83,0,0,1-.42-1.52,8.57,8.57,0,0,1-.15-1.24v-.74a10,10,0,0,1,.41-2.61,8,8,0,0,1,1.2-2.44,7.64,7.64,0,0,1,2.21-2,8.47,8.47,0,0,1,2.56-1,9.51,9.51,0,0,1,1.19-.19,11.68,11.68,0,0,1,1.87,0,8.07,8.07,0,0,1,1.3.13c.18,0,.21,0,.21-.19V92.77h-1.93a21,21,0,0,0-2.24.26,19.21,19.21,0,0,0-2.46.61,15.22,15.22,0,0,0-1.69.67,15.94,15.94,0,0,0-2.45,1.37,10.54,10.54,0,0,0-1.52,1.22,15.68,15.68,0,0,0-1.53,1.41,16.3,16.3,0,0,0-1.61,2,23.33,23.33,0,0,0-1.53,2.65c-.33.69-.62,1.4-.88,2.12a25.05,25.05,0,0,0-.84,3c-.09.5-.15,1-.21,1.52a20.7,20.7,0,0,0-.14,3,17,17,0,0,0,.14,1.74,17.46,17.46,0,0,0,.5,2.69,18.36,18.36,0,0,0,.95,2.73,17.68,17.68,0,0,0,1.52,2.85,7.31,7.31,0,0,1,.41.66,14.94,14.94,0,0,0,1.25,1.43c-.34-.37-.64-.75-1-1.11a.09.09,0,0,1,0-.1l.14.1a2.6,2.6,0,0,1,.36.3c.53.41,1.07.8,1.63,1.16a18.09,18.09,0,0,0,2.24,1.23,22.5,22.5,0,0,0,3,1.16c.5.13,1,.24,1.52.32l1.4.23q.33,0,.66,0c.7.07,1.41.11,2.12.11a7.9,7.9,0,0,0,1.81-.14,17,17,0,0,0,2.12-.35,15.59,15.59,0,0,0,3-1,16.4,16.4,0,0,0,5.47-3.94,15.59,15.59,0,0,0,1.52-1.82,17.39,17.39,0,0,0,1.61-2.77,19.61,19.61,0,0,0,1.25-3.38,19,19,0,0,0,.46-2c.12-.66.15-.95.23-1.43a7.4,7.4,0,0,0,.08-.81c.21-3.67,0-7.35.09-11s0-7.36,0-11v-.13l.38.32a14.15,14.15,0,0,0,1.89,1.36,17.92,17.92,0,0,0,1.83,1,26.36,26.36,0,0,0,3.38,1.27c.82.24,1.67.45,2.53.62s1.31.24,2,.32c.4,0,.8.09,1.21.12h.79c.15,0,.17,0,.17-.17Zm-45,34.07h0s0,0,0,0Zm1,1.22v0Zm30.09-54v0Z" style="fill: #fefefe"/>
    <path d="M459.64,95.87c0,.14,0,.19-.19.19a16.61,16.61,0,0,1-1.72-.14c-.58-.06-.91-.11-1.37-.18s-1-.2-1.52-.31a25.45,25.45,0,0,1-3-.82,20.43,20.43,0,0,1-2.28-.91,19.61,19.61,0,0,1-2.67-1.53,15.71,15.71,0,0,1-1.39-1.08V111.9a15.26,15.26,0,0,1-.12,1.66,6.77,6.77,0,0,1-.15,1.1c-.06.37-.18,1-.29,1.52s-.37,1.42-.59,2.12a24.13,24.13,0,0,1-1,2.47,20,20,0,0,1-1.64,2.79,13.55,13.55,0,0,1-.93,1.19c-.28.33-.58.67-.9,1s-.91.85-1.39,1.25-.91.68-1.39,1a18.3,18.3,0,0,1-2.56,1.34,19.82,19.82,0,0,1-2.4.79c-.51.12-1,.21-1.53.29s-1,.14-1.52.2h-2.58a13.34,13.34,0,0,1-1.66-.17l-1.31-.2a12.7,12.7,0,0,1-2.82-.78,15.75,15.75,0,0,1-1.59-.67,20.87,20.87,0,0,1-2.63-1.52,17.36,17.36,0,0,1-1.4-1,22.21,22.21,0,0,1-1.69-1.53v-.09c-.45-.49-1.26-1.4-1.25-1.43a2.67,2.67,0,0,1,.43.32l.37.3a17.15,17.15,0,0,0,1.63,1.16,16.15,16.15,0,0,0,2.23,1.23,22.5,22.5,0,0,0,3,1.16,13,13,0,0,0,1.53.32l1.4.23a3.53,3.53,0,0,0,.65,0,18.82,18.82,0,0,0,2.12.11,7.9,7.9,0,0,0,1.81-.14,16.73,16.73,0,0,0,2.12-.35,16.45,16.45,0,0,0,6.28-2.91,16.05,16.05,0,0,0,2.24-2,16.37,16.37,0,0,0,1.52-1.81,18.84,18.84,0,0,0,1.62-2.78,21.42,21.42,0,0,0,1.25-3.38q.27-1,.45-1.95c.12-.66.16-.94.23-1.43a7.4,7.4,0,0,0,.08-.81c.21-3.67,0-7.35.09-11s0-7.36,0-11.05v.07l.38.32a14.83,14.83,0,0,0,1.89,1.36,17.92,17.92,0,0,0,1.83,1,27.53,27.53,0,0,0,3.38,1.27c.82.24,1.68.45,2.53.62s1.31.24,2,.32c.4,0,.8.09,1.21.12h.79c.15,0,.17,0,.17-.17V85.48a3.43,3.43,0,0,0,.71.14c.37,0,.75.11,1.12.14a2.19,2.19,0,0,0,.47,0c.15,0,.1,0,.1.12h0c-.19,3.4-.21,6.7-.19,10" style="fill: #455a64"/>
    <path d="M427.54,92.77H425.6a21,21,0,0,0-2.24.26,20.36,20.36,0,0,0-2.45.6,16.56,16.56,0,0,0-1.69.68,15.58,15.58,0,0,0-2.46,1.37,11.11,11.11,0,0,0-1.52,1.22,14.5,14.5,0,0,0-1.52,1.41,15.49,15.49,0,0,0-1.62,2,21.84,21.84,0,0,0-1.52,2.65c-.33.69-.63,1.4-.89,2.12a25,25,0,0,0-.83,3c-.1.5-.16,1-.22,1.52a22.17,22.17,0,0,0-.13,3,17,17,0,0,0,.13,1.74,17.48,17.48,0,0,0,.51,2.69,18.32,18.32,0,0,0,.94,2.73,17.68,17.68,0,0,0,1.52,2.85c.14.21.29.43.42.65l-.4-.34a15.82,15.82,0,0,1-1.84-2.08,18.69,18.69,0,0,1-1.53-2.33,17.92,17.92,0,0,1-1.35-3.23,17,17,0,0,1-.61-2.53c-.07-.49-.14-1-.19-1.52a2.08,2.08,0,0,0,0-.61v-2.51a13.38,13.38,0,0,1,.14-1.42,21.52,21.52,0,0,1,1.4-5.29,20.13,20.13,0,0,1,2.06-3.75c.36-.52.75-1,1.16-1.52a12.84,12.84,0,0,1,1.52-1.52,17.76,17.76,0,0,1,2.87-2.15A16.87,16.87,0,0,1,418.71,91a15.1,15.1,0,0,1,2.58-.6l1.45-.19a18.11,18.11,0,0,1,2.33,0,13.83,13.83,0,0,1,1.81.16c.2,0,.41,0,.61,0s.17,0,.17.18a13.41,13.41,0,0,0-.12,2.18" style="fill: #ffc727"/>
    <path d="M443.33,70.81h-7.74c-.18,0-.21,0-.21.21V111a9.38,9.38,0,0,1-.12,1.83,13.68,13.68,0,0,1-.43,2.28,4.85,4.85,0,0,1-.45,1,9.39,9.39,0,0,1-1.65,2.07,8.34,8.34,0,0,1-4.05,2l-.95.12h-.93a8.54,8.54,0,0,1-3.15-.66,8.06,8.06,0,0,1-2-1.17,6.58,6.58,0,0,1-1.63-2l.38.22a9.13,9.13,0,0,0,4.89,1,8.41,8.41,0,0,0,6.6-4.1,4.94,4.94,0,0,0,.79-2.08l.23-1.53V68.39s0-.12.11-.11h9.77c.25,0,.25,0,.25.25a13.2,13.2,0,0,0,.2,2.08.82.82,0,0,1,.12.2" style="fill: #ffc727"/>
    <path d="M430,95.1v8.71c0,.22,0,.22-.21.17a3.86,3.86,0,0,0-.68,0h-1a11,11,0,0,0-2.62.24,8.18,8.18,0,0,0-3.73,1.83,7.5,7.5,0,0,0-1.71,2.17,8.1,8.1,0,0,0-.82,2.3c-.06.33-.11.67-.14,1a9.4,9.4,0,0,0,0,1.3,7.83,7.83,0,0,0,.21,1.52l.09.4a16.22,16.22,0,0,0,.68,1.75,4.78,4.78,0,0,1-.69-.44,7.92,7.92,0,0,1-.69-.61,7,7,0,0,1-1.43-2.3,11.58,11.58,0,0,1-.43-1.53,8.43,8.43,0,0,1-.15-1.23v-.75a9.94,9.94,0,0,1,.41-2.6,8,8,0,0,1,1.21-2.44,7.29,7.29,0,0,1,2.21-2,8.63,8.63,0,0,1,2.56-1c.39-.08.79-.14,1.18-.18a11.8,11.8,0,0,1,1.88,0,7,7,0,0,1,1.29.12c.19,0,.22,0,.22-.18V92.77a1.13,1.13,0,0,0,.26,0,12.5,12.5,0,0,1,1.73.16H430c.11,0,.13,0,.13.14Z" style="fill: #455a64"/>
    <path d="M448.59,80.27h0a1.26,1.26,0,0,1-.36-.24,14.39,14.39,0,0,1-1.6-1.62,13.41,13.41,0,0,1-1.86-2.94,15.15,15.15,0,0,1-1.16-3.27c-.11-.41-.18-.82-.28-1.24v-.12h2.08c.09,0,.12,0,.12.12a9.79,9.79,0,0,0,.14,1.8,18.69,18.69,0,0,0,.62,2.88,16.2,16.2,0,0,0,.95,2.42,5.28,5.28,0,0,0,.38.75,10.71,10.71,0,0,0,1,1.45Z" style="fill: #263238"/>
    <path d="M457.23,83.37V85.5a15.77,15.77,0,0,1-4.1-1.39,12.33,12.33,0,0,1-2.27-1.52,9.86,9.86,0,0,1-1.07-1l-.15-.16a9.44,9.44,0,0,1-1-1.22l.53.38h.08a13.64,13.64,0,0,0,2,1.13,13.18,13.18,0,0,0,1.4.56,16.22,16.22,0,0,0,2.67.64c.61.1,1.22.16,1.84.2a1.81,1.81,0,0,1,0,.23" style="fill: #ffc727"/>
    <path d="M251.28,202.66a72.37,72.37,0,1,1,53.27,87.39,72.38,72.38,0,0,1-53.27-87.39" style="fill: #37474f"/>
    <path d="M275.43,265.92c2-7.22,3.78-13.92,5.76-20.57a7.43,7.43,0,0,0-.54-5.94c-14-28.15,4.57-62.18,35.85-66,28.78-3.52,53.12,18.18,52.5,46.79-.5,23.46-20.4,43.68-43.94,44.73a49.9,49.9,0,0,1-23-4.38,7.34,7.34,0,0,0-4.42-.34c-7.22,1.72-14.38,3.66-22.2,5.71M286.69,255c4.57-1.19,8.46-2.32,12.41-3.14a6.67,6.67,0,0,1,4.08.53,41.33,41.33,0,0,0,18.68,4.85c23.9.41,43.16-21.79,38.61-45.07-3.16-16.1-13.05-26.66-29-30.32-16.39-3.75-30.35,1.52-40.27,15.07-9.69,13.26-9.95,27.52-2,42a7.2,7.2,0,0,1,.58,4.57c-.73,3.69-1.89,7.33-3,11.52Z" style="fill: #fff"/>
    <path d="M302.05,200.41c3.16-4.25,7.38-3.41,9.59,1.28.86,1.84,1.06,2.45,1.91,4.57,1.28,3.17,1,5.29-1.27,7.33-1.67,1.52-1.53,2.79-.37,4.49A32.59,32.59,0,0,0,326,230a3,3,0,0,0,4.21-.88.35.35,0,0,0,.05-.08c4.09-4.86,4.15-4.81,9.91-2.1l2,.94c4.42,2.12,5.09,6.1,1.52,9.6a13,13,0,0,1-13,3.16c-12.41-3.16-21.33-11-28.17-21.41A17.79,17.79,0,0,1,299,208.7a15.48,15.48,0,0,1,3.09-8.29" style="fill: #fff"/>
    <path d="M89.65,150.71a34.3,34.3,0,1,1-18.81,44.71,34.3,34.3,0,0,1,18.81-44.71" style="fill: #455a64"/>
    <path d="M97.37,197.68c-1-.64-1.92-1.52-3.27-1.43-.54,0-.42-.38-.43-.66V180.14a.84.84,0,0,1,.43-.88c3.93-2,5.62-5.9,8-9.23a15.44,15.44,0,0,0,2.82-11.69,1.53,1.53,0,0,1,1.07-1.87,1.88,1.88,0,0,1,.33-.05,2.56,2.56,0,0,1,2.94.92,20.3,20.3,0,0,1,2.27,6.73,23.31,23.31,0,0,1-.7,5.77c-.17,1.42-.49,2.82-.76,4.26.35.24.75.12,1.13.12h13c1.83,0,2.73.52,3,1.73a3.5,3.5,0,0,1-2,3.74c-.32.16-.89,0-.94.53s.56.46.87.67c1.52,1.07,1.29,3.29-.52,4.57-.44.31-1.29.17-1.31.81s.79.52,1.14.87a2.94,2.94,0,0,1-.47,4.13,3.2,3.2,0,0,1-.76.44,7.31,7.31,0,0,0-.78.29c-.21.15-.42.32,0,.61a2.56,2.56,0,0,1,0,4.57l-.58.41a3.64,3.64,0,0,1-2.28.5H99.23a2.37,2.37,0,0,1-1.86-.41" style="fill: #fff;fill-rule: evenodd"/>
    <path d="M78,188.68v-9.82c0-.65,0-1,.89-1h12c.77,0,.89.26.89,1v19.81c0,.83-.21,1.08-1,1.06H79c-1,0-1.09-.32-1.08-1.16.12-3.35,0-6.61,0-9.88" style="fill: #fff;fill-rule: evenodd"/>
    <path d="M265.68,286.31a17.17,17.17,0,1,1-17.17,17.17,17.17,17.17,0,0,1,17.17-17.17" style="fill: #ffc727"/>
    <path d="M265.39,291.55a7.21,7.21,0,0,1,4.44,1.25,6.25,6.25,0,0,1,2.28,3.18,6,6,0,0,1,.22,1.39,18.39,18.39,0,0,1,0,2.1c0,.58-.08,1.16-.11,1.74,0,.24,0,.27.23.38a1.49,1.49,0,0,0,1,0,4.71,4.71,0,0,0,.52-.21,1.19,1.19,0,0,1,1.29.27.58.58,0,0,1,0,.81,2.36,2.36,0,0,1-1,.61,7.78,7.78,0,0,0-.88.32,3.2,3.2,0,0,0-.52.27,1.12,1.12,0,0,0-.41,1.31,6.42,6.42,0,0,0,.84,1.65,8,8,0,0,0,2.43,2.45,6.06,6.06,0,0,0,2.09.81.28.28,0,0,1,.28.27.25.25,0,0,1-.05.15,1,1,0,0,1-.49.48,6.16,6.16,0,0,1-1.61.56l-1,.17a.4.4,0,0,0-.33.29c-.11.32-.15.67-.25,1s-.19.43-.56.38-.88-.15-1.32-.19a4.2,4.2,0,0,0-3.05.83,13.78,13.78,0,0,1-1.42,1,4.78,4.78,0,0,1-2.59.62,5,5,0,0,1-2.76-1c-.47-.33-.91-.68-1.41-1a3.33,3.33,0,0,0-1.53-.49,7.49,7.49,0,0,0-2.16.18c-.5,0-.56,0-.67-.41s-.14-.58-.2-.87a.45.45,0,0,0-.44-.39,8.75,8.75,0,0,1-2.35-.66,1.52,1.52,0,0,1-.38-.24.71.71,0,0,1-.26-.35.26.26,0,0,1,.11-.35.27.27,0,0,1,.12,0,5.86,5.86,0,0,0,1.52-.54,7.05,7.05,0,0,0,2.49-2.08,9,9,0,0,0,1.2-2,1.68,1.68,0,0,0,.15-.53,1.12,1.12,0,0,0-.54-1.13,3.55,3.55,0,0,0-.95-.43,3.25,3.25,0,0,1-1.13-.53,1,1,0,0,1-.24-.23.56.56,0,0,1,0-.79l.07-.06a1.07,1.07,0,0,1,1.17-.15,2.14,2.14,0,0,0,1.1.27,1,1,0,0,0,.61-.17.15.15,0,0,0,.09-.18c0-.79-.09-1.6-.12-2.39a13.22,13.22,0,0,1,0-1.78,5.43,5.43,0,0,1,.26-1.38,6.22,6.22,0,0,1,3.84-3.82,6.57,6.57,0,0,1,2.28-.41" style="fill: #fff"/>
    <path d="M396,144.43A17.17,17.17,0,1,1,378.8,161.6,17.17,17.17,0,0,1,396,144.43" style="fill: #455a64"/>
    <path d="M396,149.4a5.72,5.72,0,1,1-5.71,5.71A5.72,5.72,0,0,1,396,149.4" style="fill: #fff"/>
    <path d="M405.87,170.88V173H386.06V170.9a9.91,9.91,0,1,1,19.81,0Z" style="fill: #fff"/>
    <path d="M138.17,144.51A53.06,53.06,0,0,0,226.86,178l26.56,3.9-13.29-23a53.08,53.08,0,1,0-102-14.51Z" style="fill: #455a64"/>
    <path d="M154.07,100.66A53.66,53.66,0,0,1,221.2,94.4,54.33,54.33,0,0,1,237.82,112a53.64,53.64,0,0,1,3.29,47.37v-.92l13.21,23,1,1.69-1.92-.29-26.52-4.07.62-.19a53.46,53.46,0,0,1-26.26,13,45.35,45.35,0,0,1-7.35.76A53.16,53.16,0,0,1,159.4,181.7a57.61,57.61,0,0,1-5.61-4.74,61.65,61.65,0,0,1-4.81-5.53,53.33,53.33,0,0,1,5.18-70.76Z" style="fill: #ffc727"/>
    <path d="M161.38,140.59a6.43,6.43,0,1,0,6.43-6.43,6.43,6.43,0,0,0-6.43,6.43" style="fill: #263238"/>
    <path d="M184.4,140.59a6.43,6.43,0,1,0,6.43-6.43,6.43,6.43,0,0,0-6.43,6.43" style="fill: #263238"/>
    <path d="M207.44,140.59a6.43,6.43,0,1,0,6.43-6.43,6.43,6.43,0,0,0-6.43,6.43" style="fill: #263238"/>
    <path d="M553.92,126.83a34.12,34.12,0,0,1-57,21.58l-17.06,2.5,8.55-14.75A33.7,33.7,0,0,1,486,119.73a34.13,34.13,0,0,1,68,5.91c0,.4-.07.8-.12,1.19" style="fill: #455a64"/>
    <path d="M553.92,126.83a34.61,34.61,0,0,1-6.89,17.3,41.08,41.08,0,0,1-3,3.55,37.45,37.45,0,0,1-3.61,3,33.31,33.31,0,0,1-8.22,4.58,32.83,32.83,0,0,1-13.88,2.28,30,30,0,0,1-4.73-.49,34.38,34.38,0,0,1-16.88-8.33l.41.12L480,151.5l-1.23.18.62-1.08,8.49-14.79v.58a34.47,34.47,0,1,1,66.15-9.57Z" style="fill: #455a64"/>
    <path d="M539,124.32a4.13,4.13,0,1,1-4.13-4.13,4.13,4.13,0,0,1,4.13,4.13" style="fill: #fff"/>
    <path d="M524.19,124.32a4.13,4.13,0,1,1-4.13-4.13,4.13,4.13,0,0,1,4.13,4.13" style="fill: #fff"/>
    <path d="M509.4,124.32a4.13,4.13,0,1,1-4.13-4.13,4.13,4.13,0,0,1,4.13,4.13" style="fill: #fff"/>
    <path d="M201.48,12.56a34.3,34.3,0,1,1-34.3,34.3,34.3,34.3,0,0,1,34.3-34.3" style="fill: #ffc727"/>
    <g style="opacity: 0.5">
      <g style="clip-path: url(#clip-path-3)">
        <path d="M217.36,37.38a7,7,0,1,1-7-6.94h0a7,7,0,0,1,7,6.94"/>
        <path d="M222.41,56.55v2.54h-24V56.55a12,12,0,0,1,24,0Z"/>
      </g>
    </g>
    <path d="M199.54,41.57a7,7,0,1,1-7-6.94h0a7,7,0,0,1,7,6.94" style="fill: #fff"/>
    <path d="M204.54,60.74v2.55h-24V60.74a12,12,0,0,1,24,0Z" style="fill: #fff"/>
    <path d="M364.85,284.08a17.17,17.17,0,1,1,12.74,20.67,17.18,17.18,0,0,1-12.74-20.67" style="fill: #455a64"/>
    <path d="M374.91,293.77h-1.39a1.58,1.58,0,0,1,0-3.15h2l.9-5.3h-1.76a1.58,1.58,0,0,1,0-3.16h2.33l.59-3.62a1.52,1.52,0,0,1,1.52-1.31,1.63,1.63,0,0,1,1.54,1.72s0,.09,0,.14l-.55,3h4.77l.61-3.62A1.51,1.51,0,0,1,387,277.2a1.6,1.6,0,0,1,1.55,1.65c0,.07,0,.14,0,.21l-.52,3h1.4a1.58,1.58,0,0,1,0,3.16h-1.95l-.91,5.3h1.73a1.53,1.53,0,1,1,0,3.05H386l-.64,3.73a1.52,1.52,0,0,1-1.53,1.31,1.6,1.6,0,0,1-1.54-1.66,1.1,1.1,0,0,1,0-.18l.58-3.2h-4.68l-.64,3.73a1.59,1.59,0,0,1-3.16-.18,1.34,1.34,0,0,1,0-.35Zm8.56-3.15.92-5.3h-4.76l-.91,5.3Z" style="fill: #fff"/>
    <path d="M145.57,54.21a17.17,17.17,0,1,1-13.11,20.44,17.17,17.17,0,0,1,13.11-20.44" style="fill: #37474f"/>
    <path d="M147.91,59.69a11.35,11.35,0,0,0,2.67,22.55,10.58,10.58,0,0,0,2.71-.69.92.92,0,0,0,.63-1.13s0-.09,0-.13a.75.75,0,0,0-.38-.52,1.1,1.1,0,0,0-.87,0,8.42,8.42,0,0,1-2.27.52,9.34,9.34,0,1,1,8.16-10.39,8.73,8.73,0,0,1-.53,4.35,3.06,3.06,0,0,1-1.52,1.7h-.61a4.11,4.11,0,0,1-.28-.6c-.26-1.1-.53-4.57-.53-4.57v-.41A5.88,5.88,0,1,0,150,77.24a5.51,5.51,0,0,0,3.65-2v.52a2.87,2.87,0,0,0,.75,1.53,2.4,2.4,0,0,0,2.09.71,3.82,3.82,0,0,0,.67-.15,5.27,5.27,0,0,0,2.63-2.73,11,11,0,0,0,.58-5.28,11.35,11.35,0,0,0-12.43-10.12m1.78,15.36a3.93,3.93,0,0,1-4.24-3.59s0,0,0-.07a4,4,0,0,1,3.29-4.57,4.07,4.07,0,0,1,4.3,3.67,4,4,0,0,1-3.34,4.56" style="fill: #fff"/>
    <path d="M158.73,650.34c1.11-3.17,59.14-76.62,63-78,.46-.18,25.32,18.29,25.32,18.29,1,1.4,49.23-7.74,49.23-7.74l-.73,57.89-87.4-3.69s-11.94,6.71-22.85,12.19A131,131,0,0,1,171,655.9c-4.45,1-13.4-2.42-12.25-5.56" style="fill: #ad6359"/>
    <path d="M170.92,656a126.59,126.59,0,0,0,14.35-6.61c10.91-5.44,22.85-12.19,22.85-12.19l19.46.82,31.48-48.51c-6.71,1-11.72,1.65-12,1.19,0,0-24.87-18.48-25.31-18.28-3.9,1.35-61.93,74.81-63,78s7.86,6.6,12.25,5.62" style="fill: #fff"/>
    <path d="M158.21,650.42c1.17-3.25,59.42-76.65,63.46-78,1.52-.54,13.71,7.34,25.41,18.28l-37.63,47.23s-34.18,17.2-38.72,18.29-13.71-2.52-12.52-5.76" style="fill: #ffc727"/>
    <path d="M162,651.7C172,639.64,211.54,590,220.59,577.33c0-.11,0-.15-.08,0-10.25,11.75-49.33,61.68-58.74,74.28-.19.19,0,.35.2.09" style="fill: #263238"/>
    <path d="M177.12,653.59a12.69,12.69,0,0,0,2.85-9.76,12.25,12.25,0,0,0-4.39-8c-.08,0-.18.09-.12.15A14.56,14.56,0,0,1,177,653.46c-.08.11.14.22.14.13" style="fill: #263238"/>
    <path d="M205.15,640.83c4-4.87,6.78-12,5.18-18.28,0-.24-.41-.15-.45,0a86.65,86.65,0,0,1-5.34,17.89.39.39,0,0,0,.33.45.35.35,0,0,0,.28-.06" style="fill: #263238"/>
    <path d="M200.64,643.45c4-4.87,6.78-12,5.18-18.28,0-.24-.39-.15-.44,0A87.27,87.27,0,0,1,200,643.06a.4.4,0,0,0,.24.51.4.4,0,0,0,.43-.12" style="fill: #263238"/>
    <path d="M196.15,646.07c4-4.86,6.78-12,5.18-18.2,0-.25-.41-.15-.46,0a86.06,86.06,0,0,1-5.39,17.76.4.4,0,1,0,.67.44" style="fill: #263238"/>
    <path d="M191.64,648.71c4-4.88,6.78-12,5.18-18.28,0-.25-.4-.16-.44,0A87.45,87.45,0,0,1,191,648.34a.4.4,0,0,0,.29.48.41.41,0,0,0,.38-.11" style="fill: #263238"/>
    <path d="M229.77,589.75c4.38-5.55-4.22-12.34-8.61-6.8s4.24,12.34,8.61,6.8" style="fill: #263238"/>
    <path d="M214.06,656.59c4.06-.86,4.58-5.59,3.6-8.84a32.92,32.92,0,0,0-9-14.47.17.17,0,0,0-.24,0l0,0a.76.76,0,0,0-1,.33.9.9,0,0,0-.08.23c-.35,5.44-1.41,11.2-.09,16.58.76,3.18,3.08,7,6.9,6.17m-5.66-14.34c.1-2.68.35-5.33.36-8a98.58,98.58,0,0,1,5.09,8.57,36.2,36.2,0,0,1,1.91,4.44c.77,2.36,1.05,10.47-4.7,6.7-3.17-2.09-2.8-8.53-2.66-11.7" style="fill: #263238"/>
    <path d="M216.5,619.59c-4.05,3.77-6.35,9.15-9,13.88a.77.77,0,0,0,.36,1,.88.88,0,0,0,.23.07.17.17,0,0,0,.15.18h0a33,33,0,0,0,15.52-7.1c2.56-2.19,4.77-6.42,1.86-9.36s-6.76-.9-9.14,1.31m5.17-.74c6.87,0,2.18,6.63.23,8.16a36,36,0,0,1-4,2.67,96.17,96.17,0,0,1-9,4.34c1.52-2.24,2.73-4.57,4.11-6.88,1.65-2.73,4.88-8.31,8.66-8.29" style="fill: #263238"/>
    <path d="M299.14,569.12l39.48-3s56.92-16.5,89.89-7.86c37.72,9.9,43,54,4.69,71.61-37.93,17.47-204.94,11-204.94,11l35.81-53s55-12.91,103.12-10.29L299,585.39Z" style="fill: #37474f"/>
    <path d="M299.54,580.38c5.86-1,11.79-1.45,17.72-2s11.94-1,17.92-1.36c11.92-.74,23.9-1,35.85-.54l3.35.18a6.11,6.11,0,0,1,.74-.17c.57-.12,1.15-.26,1.73-.36,1.08-.19,2.17-.31,3.25-.46,2.28-.31,4.58-.49,6.8-.87a.11.11,0,0,1,.11.11.1.1,0,0,1-.11.1c-2.27.46-4.57,1.07-6.78,1.53l-2,.38c4.37.32,8.74.75,13.1,1.23.14,0,.14.23,0,.22-5.94-.48-11.93-.64-17.89-.66s-11.84,0-17.75.2c-12,.43-23.93,1.25-35.86,2.25-6.69.57-13.41,1.25-20.13,1.39-.62,0-.75-1.07-.09-1.17" style="fill: #263238"/>
    <path d="M245.24,639.63c2.19-3.37,4.1-7,6.09-10.47l6.1-10.48c4.06-7,18.66-30.38,20.09-32a.14.14,0,0,1,.23.14c-.72,1.83-9.84,17.34-11.93,20.8-4.2,6.92-8.61,13.71-12.95,20.51-1.23,2-2.51,3.87-3.78,5.82s-2.57,3.84-3.75,5.82c0,.1-.19,0-.1-.14" style="fill: #263238"/>
    <path d="M441.29,661c-1-3.21-55.46-79.33-59.28-80.89-.43-.19-26.16,17.11-26.16,17.11-1.07,1.36-48.76-10-48.76-10l-2,57.89,87.47.48s11.62,7.25,22.27,13.19a126.84,126.84,0,0,0,14,7.27c4.34,1.22,13.37-1.8,12.44-5" style="fill: #ad6359"/>
    <path d="M428.85,666a124,124,0,0,1-14-7.27c-10.67-5.94-22.28-13.21-22.28-13.21l-19.45-.09-29.16-50c6.65,1.37,11.62,2.21,12,1.77,0,0,25.7-17.29,26.15-17.08,3.82,1.52,58.3,77.7,59.28,80.87s-8.15,6.22-12.49,5" style="fill: #fff"/>
    <path d="M441.81,661.13c-1-3.29-55.78-79.38-59.69-81-1.53-.61-14,6.69-26.27,17.08l35.36,49s33.32,18.86,37.8,20.08,13.82-1.89,12.8-5.19" style="fill: #ffc727"/>
    <path d="M438,662.22c-9.49-12.52-46.59-64-55-77.06,0-.11,0-.15.09,0,9.67,12.19,46.34,64,55.14,77,.18.23,0,.38-.2.1" style="fill: #263238"/>
    <path d="M422.77,663.4a12.58,12.58,0,0,1-2.38-9.88,12.17,12.17,0,0,1,4.75-7.75s.19.09.11.15a14.59,14.59,0,0,0-2.33,17.36c.06.1-.08.21-.15.12" style="fill: #263238"/>
    <path d="M395.37,649.32c-3.75-5-6.2-12.27-4.31-18.44.08-.24.41-.13.44,0a87.22,87.22,0,0,0,4.57,18,.4.4,0,0,1-.13.57.42.42,0,0,1-.57-.13" style="fill: #263238"/>
    <path d="M399.75,652.15c-3.75-5-6.21-12.26-4.32-18.43,0-.25.42-.14.45.07a87.31,87.31,0,0,0,4.57,18,.41.41,0,0,1-.26.5.37.37,0,0,1-.44-.15" style="fill: #263238"/>
    <path d="M404.13,655c-3.75-5.06-6.2-12.28-4.31-18.45,0-.24.41-.14.44.08a88.11,88.11,0,0,0,4.57,18,.39.39,0,0,1-.2.52.4.4,0,0,1-.5-.16" style="fill: #263238"/>
    <path d="M408.49,657.84c-3.75-5.06-6.2-12.28-4.31-18.45.08-.25.41-.14.44.07a87.31,87.31,0,0,0,4.57,18,.4.4,0,0,1-.7.37" style="fill: #263238"/>
    <path d="M373.19,597.14c-4.11-5.75,4.8-12.19,8.91-6.39s-4.8,12.13-8.91,6.39" style="fill: #263238"/>
    <path d="M392.9,658.86c1.53-5.32.8-11.12.69-16.56a.76.76,0,0,0-.83-.69l-.24.06a.16.16,0,0,0-.23,0l0,0a33.18,33.18,0,0,0-9.72,14c-1.08,3.2-.82,8,3.17,9s6.23-2.76,7.19-5.85m-4,3.27c-5.93,3.49-5.26-4.57-4.38-6.91a33.54,33.54,0,0,1,2.11-4.35c1.61-2.92,3.61-5.57,5.48-8.32-.11,2.69,0,5.35,0,8-.07,3.2,0,9.64-3.21,11.56" style="fill: #263238"/>
    <path d="M376,625.83c-3,2.8-1,7.13,1.42,9.43a32.9,32.9,0,0,0,15.23,7.83.17.17,0,0,0,.2-.1s0,0,0-.07a.76.76,0,0,0,.71-.81.69.69,0,0,0,0-.24c-2.47-4.85-4.5-10.35-8.38-14.31-2.29-2.3-6.25-4.37-9.13-1.73m12.19,9.44c1.27,2.36,2.42,4.77,3.78,7.09a97.61,97.61,0,0,1-8.76-4.77,38.93,38.93,0,0,1-3.9-2.85c-1.88-1.65-6.25-8.46.62-8.17,3.8.17,6.77,5.9,8.28,8.7Z" style="fill: #263238"/>
    <path d="M304.89,569.36l-39.24-1s-40.51-20.83-73.78-13.72c-38.09,8.11-44.19,55.58-16.37,73.14,35.32,22.26,195.11,22.38,195.11,22.38l-33-59.42s-52.82-12.59-101-12.19l67.71,11.06Z" style="fill: #37474f"/>
    <path d="M339.87,594.53a.76.76,0,0,1,0-.3V594l-.14-.58a11.77,11.77,0,0,0-.36-1.15c-.14-.38-.29-.75-.46-1.13a7,7,0,0,0-.63-1H338c-5.81-1.24-45.34-8-51.22-8.81s-11.89-1.52-17.85-2.21c-11.86-1.31-23.82-2.12-35.78-2.24H229.8l-.73-.2-1.7-.44c-1.09-.23-2.17-.41-3.25-.61-2.24-.41-4.57-.7-6.75-1.19a.11.11,0,1,0,0,.22c2.24.56,4.45,1.28,6.69,1.83l1.95.45c-4.39.12-8.76.35-13.15.63a.11.11,0,0,0-.11.1.11.11,0,0,0,.11.11c6-.18,11.95,0,17.9.18s11.83.55,17.72,1c11.93,1,23.85,2.39,35.72,4,6.65.87,47,7.85,53.67,8.32H338a1.33,1.33,0,0,0,.18.46c.08.15.35.73.53,1.09s.37.71.57,1l.32.49.17.24a2.26,2.26,0,0,1,.16.26c-.16,0,.06-.12,0-.26" style="fill: #263238"/>
    <path d="M358.27,646.24c-2-3.49-3.76-7.17-5.62-10.75L347,624.71c-3.73-7.14-17.22-31.23-18.56-32.92-.09-.11-.27,0-.23.14.61,1.84,9,17.78,10.93,21.33,3.87,7.11,7.95,14.07,12,21.1,1.14,2,2.33,4,3.5,6s2.39,4,3.46,6c.06.12.33,0,.18-.11" style="fill: #263238"/>
    <path d="M229.51,406.55l6.1,45.08c.32,1.34-.46,2.3-1.71,2.17l-22.61-2.59a3.73,3.73,0,0,1-2.88-2.7l-6-45.08c-.32-1.34.44-2.3,1.71-2.17l22.61,2.59a3.69,3.69,0,0,1,2.78,2.7" style="fill: #37474f"/>
    <path d="M226.83,406.21l6.1,45.09c.32,1.34-.45,2.31-1.71,2.16l-22.61-2.59a3.7,3.7,0,0,1-2.88-2.7l-6.08-45.12c-.32-1.35.44-2.31,1.71-2.17L224,403.49a3.66,3.66,0,0,1,2.86,2.72" style="fill: #455a64"/>
    <path d="M220.4,407.51a1.94,1.94,0,1,0,2.11-1.75,1.94,1.94,0,0,0-2.11,1.75" style="fill: #263238"/>
    <path d="M295,478.24c-15.7,25.9-48.57,58-60.38,59.19-5.67.55-15.86.77-22.61-6.51-14.71-15.91-25.37-44.49-26.5-60.32-.39-5.64,27.76-14.76,31.25-9.84,8.18,11.53,16.76,33.35,18.47,33.4,6.09.18,29-15.76,47.75-27,22.12-13.32,18.28.78,12,11.11" style="fill: #ad6359"/>
    <path d="M187.87,442c4-10.92,6.75-13.1,5.26-24.13-1-7.24,3.21-10.95,7.62-4.77,7.19,10.12,4.95,25.29,2.65,30.34Z" style="fill: #ad6359"/>
    <path d="M186.26,475.55s-3.35-16.16-.21-28.23c2.17-8.33,8.94-25.9,33.68-33,5.87-1.68,15.41.1,6.83,6.32-6.1,4.42-11.32,5.36-14.4,8.58,0,0,11.88,3.7,13.33,9.64a114.45,114.45,0,0,1,2.67,15.81,25,25,0,0,1-2.91.77s1.19,5.6-3.66,12.87Z" style="fill: #ad6359"/>
    <path d="M189.46,439.7c3.73-2.54,11.73-7.81,19.81-9.82,8.94-2.26,26.75-4.18,28.35,2.43,1.16,4.85-5.58,6.19-5.58,6.19s7.53.75,7.62,5.36c.08,4.21-5.19,4.92-5.19,4.92s4.57,1.25,3.79,5.31c-.84,4.89-10.1,1.52-15.24,5.69-1.16,1-33.56-20.08-33.56-20.08" style="fill: #ad6359"/>
    <path d="M210,439.7a36.84,36.84,0,0,1,21.83-1.35c.19,0,.25.23.08.21a90.21,90.21,0,0,0-21.89,1.24s-.06-.07,0-.1" style="fill: #263238"/>
    <path d="M212.57,448.66c3.54-1.22,13.85-2.66,21.88,0,.18,0,.23.23,0,.2a96.79,96.79,0,0,0-21.92,0Z" style="fill: #263238"/>
    <path d="M275.21,506.65,242,490.27s31.71-20.78,46.47-27c15.37-6.44,20.52-2.92,7.94,15.24s-21.19,28.11-21.19,28.11" style="fill: #ffc727"/>
    <path d="M280.87,499.66l-.13.18a68.16,68.16,0,0,0-6.1-3.35,32.64,32.64,0,0,0-6.28-2.39l-.48-.13-.67-.15a19.86,19.86,0,0,0-7.83-.18,22.82,22.82,0,0,0-6.1,2.19l-.44-.23a24,24,0,0,1,6.54-2.31,20,20,0,0,1,8,.23l.89.21.49.12a35.08,35.08,0,0,1,6.09,2.41,66.59,66.59,0,0,1,6.06,3.4m20.33-30.47a27.33,27.33,0,0,0-6.43,4.72,28.2,28.2,0,0,0-4.78,6.4,48.19,48.19,0,0,0-3.33,7.62,1.57,1.57,0,0,0-.1.28c-.8,2.28-1.53,4.58-2.23,6.88.26-.35.54-.7.79-1.07.61-1.92,1.21-3.84,1.88-5.73a1.61,1.61,0,0,1,.09-.29,47.4,47.4,0,0,1,3.26-7.49,27.31,27.31,0,0,1,11-11l.54-.28.23-.52ZM287.09,488h-.43a20.09,20.09,0,0,0-7.61.15,25.53,25.53,0,0,0-7.35,3.12,29.23,29.23,0,0,0-3.43,2.44L268,494a30.5,30.5,0,0,0-2.49,2.33,35.52,35.52,0,0,0-3.2,3.94l.33.16a36,36,0,0,1,3.16-3.82,31.48,31.48,0,0,1,2.69-2.48l.29-.25a29.8,29.8,0,0,1,3.15-2.22,25,25,0,0,1,7.23-3.05,19.71,19.71,0,0,1,7.46-.21H287c.69.12,1.38.26,2.06.44l.2-.26c-.76-.18-1.48-.34-2.21-.46Z" style="fill: #fff"/>
    <path d="M275.79,499.81a26.62,26.62,0,0,0-2.35-1.27L271,497.28c-1.63-.87-3.28-1.69-4.92-2.51-3.31-1.65-6.6-3.29-9.94-4.88-.91-.44-1.83-.87-2.76-1.28s-2-.79-2.94-1.23c0,0-.09,0,0,.09.81.44,1.53.93,2.4,1.37s1.64.88,2.48,1.31l5,2.45c3.26,1.6,6.52,3.2,9.81,4.73l2.76,1.26c1,.44,1.92,1,2.93,1.31,0,0,0-.06,0-.09" style="fill: #263238"/>
    <g style="opacity: 0.10000599920749664;isolation: isolate">
      <g style="clip-path: url(#clip-path-4)">
        <path d="M296.4,478.51c-12.65,18.28-21.19,28.12-21.19,28.12l-14.74-7.26,40.94-38.76c3.69,1.28,2.62,6.9-5,17.9"/>
      </g>
    </g>
    <path d="M257.87,569c1.35,1.61,92.33.55,92.83,0,1.34-1.52-14.56-80-30.55-103.9-5.39-8.08-22.55-9.72-28.53-1.89C274.44,485.65,256.69,567.59,257.87,569" style="fill: #ffc727"/>
    <path d="M338,510.7h0a28.87,28.87,0,0,1-5.79,4.15,31.11,31.11,0,0,1-7.44,2.86,24.17,24.17,0,0,1-8,.57,31.35,31.35,0,0,1-7.77-1.74,51.91,51.91,0,0,1-7.25-3.28c-2.58-1.4-5.06-2.95-7.51-4.57l-.4-.26c-1.86-1.22-3.69-2.47-5.53-3.7s-3.64-2.47-5.5-3.67l-.37-.23c-2.07-1.33-4.17-2.59-6.37-3.72a2.25,2.25,0,0,1,.08-.24c2.19,1.14,4.3,2.41,6.37,3.75l.37.24c1.87,1.2,3.7,2.47,5.53,3.72s3.67,2.53,5.54,3.75a3.34,3.34,0,0,0,.4.25l.65.45c2.23,1.43,4.57,2.8,6.81,4.06a49.55,49.55,0,0,0,7.26,3.23,28.76,28.76,0,0,0,7.72,1.7,24.13,24.13,0,0,0,7.85-.6,30.32,30.32,0,0,0,7.34-2.89,27.57,27.57,0,0,0,5.38-3.84,1.66,1.66,0,0,0,.27-.26.93.93,0,0,0,.23-.21v.21a1.38,1.38,0,0,0,.08.27m-16.84-44.18a32,32,0,0,0-4.57-.75h-1.38a22.61,22.61,0,0,0-6.56.63,29.73,29.73,0,0,0-7.43,2.88,27.33,27.33,0,0,0-6.43,4.72,28.54,28.54,0,0,0-4.79,6.4,49.08,49.08,0,0,0-3.32,7.62,1.42,1.42,0,0,0-.1.29c-.81,2.3-1.53,4.64-2.26,7-.56,1.8-1.16,3.61-1.83,5.39a.81.81,0,0,0-.07.22,36.89,36.89,0,0,1-4.57,8.73,24.79,24.79,0,0,1-4.41,4.57l-.38.3-.85.63c-.69.47-1.4.91-2.13,1.31l-.19.65a27.86,27.86,0,0,0,2.59-1.52c.41-.29.81-.58,1.19-.9l.4-.32a25.14,25.14,0,0,0,4.14-4.36,35.9,35.9,0,0,0,4.57-8.77V501c.7-1.82,1.3-3.67,1.89-5.5.75-2.35,1.53-4.71,2.27-7l.09-.29a49.76,49.76,0,0,1,3.26-7.49,27.34,27.34,0,0,1,11-11,29.5,29.5,0,0,1,7.34-2.88,22.4,22.4,0,0,1,6.2-.69h1.65a30.45,30.45,0,0,1,4.74.79Zm-2.57-3.41a24,24,0,0,0-3.35,2.59l-.28.24c-.48.45-.93.9-1.37,1.37a28.31,28.31,0,0,0-4.57,6.6,80.48,80.48,0,0,0-5,15.11c-.5,1.83-1,3.66-1.63,5.46a.74.74,0,0,1,0,.21,35.19,35.19,0,0,1-4.24,8.93,25,25,0,0,1-4.15,4.69.69.69,0,0,1-.13.11c-.36.32-.73.62-1.11.91a30.45,30.45,0,0,1-6.87,3.84,20.74,20.74,0,0,1-7.71,1.37,31.37,31.37,0,0,1-4.11-.36,1.53,1.53,0,0,1-.63-.09c-.85-.15-1.7-.31-2.56-.51l-.09.34c.75.17,1.53.33,2.27.47l.61.11a33.35,33.35,0,0,0,4.57.44,21.07,21.07,0,0,0,7.86-1.36,29.77,29.77,0,0,0,6.89-3.88c.43-.32.84-.67,1.23-1l.13-.11a25.63,25.63,0,0,0,4.13-4.69,35.72,35.72,0,0,0,4.26-8.95v-.21c.63-1.84,1.14-3.72,1.66-5.58a78.85,78.85,0,0,1,5-15,28.42,28.42,0,0,1,4.44-6.53,19.41,19.41,0,0,1,1.64-1.63,1.51,1.51,0,0,1,.28-.22,24,24,0,0,1,3-2.38.93.93,0,0,0-.16-.18ZM338,510.64v-.23h-.5a29.81,29.81,0,0,1-7.79-1.35,54.38,54.38,0,0,1-7.38-2.91q-3.55-1.75-7-3.78c-2.28-1.36-4.57-2.76-6.78-4.18-1.87-1.17-3.76-2.34-5.68-3.47a3.26,3.26,0,0,0-.4-.24,74,74,0,0,0-7.8-4.07,32.75,32.75,0,0,0-7.48-2.38h-.43a20.23,20.23,0,0,0-7.4.11c0,.14-.11.26-.15.39a19.86,19.86,0,0,1,7.45-.21h.44a33.2,33.2,0,0,1,7.47,2.33,76.33,76.33,0,0,1,7.84,4l.4.24q2.85,1.68,5.65,3.42c4.57,2.77,9,5.6,13.79,7.95a51.37,51.37,0,0,0,7.39,3,29.87,29.87,0,0,0,7.78,1.4H338Zm6,22.86A27.78,27.78,0,0,0,337,537a79.27,79.27,0,0,0-11.7,10.8c-1.31,1.35-2.65,2.71-4.05,4l-.17.16a36,36,0,0,1-8,5.77,24.47,24.47,0,0,1-7.46,2.39h-.19a30.92,30.92,0,0,1-7.69,0,20,20,0,0,1-6-1.78l-.52-.24-.92-.49a36.14,36.14,0,0,1-6.34-4.72c-3.39-3-6.46-6.43-9.95-9.39l-.25-.21c-.48-.41-1-.81-1.52-1.21a30.27,30.27,0,0,0-6.84-4.06l-1-.38-.2-.08v.12l1.1.44a31,31,0,0,1,6.76,4.12l1.44,1.15.24.22c3.46,3,6.53,6.4,9.92,9.5a35.93,35.93,0,0,0,6.37,4.8l.68.37.52.26a20.2,20.2,0,0,0,6.34,2,29.76,29.76,0,0,0,8,0h.16a25.14,25.14,0,0,0,7.42-2.42,35.87,35.87,0,0,0,8.05-5.77l.17-.15c1.43-1.33,2.8-2.72,4.13-4.1a80,80,0,0,1,11.62-10.76,28.72,28.72,0,0,1,6.75-3.46c0-.13,0-.26,0-.39m-15.24,31.43c-1.36-2.29-2.64-4.57-3.93-6.92-1.08-1.93-2.17-3.88-3.29-5.79l-.23-.4a76.69,76.69,0,0,0-4.89-7.34,32,32,0,0,0-4.57-5,2.15,2.15,0,0,0-.32-.29l-.55-.47a20.07,20.07,0,0,0-7-3.75,25.23,25.23,0,0,0-7.93-.81,29.5,29.5,0,0,0-7.86,1.4c-.88.28-1.75.6-2.59,1a1.61,1.61,0,0,0-.43.17,56.74,56.74,0,0,0-11,6.46l-.29.21-.2.14A117.48,117.48,0,0,1,260.93,552h-.08a.67.67,0,0,1,0,.2.17.17,0,0,1,0,.1h.08l.18-.09a117.8,117.8,0,0,0,12.8-8.55l.2-.13.23-.17a56.38,56.38,0,0,1,11.26-6.51l.41-.16c.73-.29,1.52-.57,2.24-.8a30.63,30.63,0,0,1,7.77-1.38,24.76,24.76,0,0,1,7.81.74,19.88,19.88,0,0,1,6.94,3.66c.18.14.35.29.51.44a1.93,1.93,0,0,1,.34.29,31.64,31.64,0,0,1,4.57,5,75.59,75.59,0,0,1,4.92,7.33l.23.39c1.13,1.89,2.23,3.81,3.31,5.72,2.17,3.84,4.32,7.71,6.73,11.41h.21c-1-1.51-1.95-3-2.86-4.57Zm-20.58-.76c-.78-1.19-1.53-2.4-2.27-3.6a2.73,2.73,0,0,1-.26-.43c-.58-.91-1.13-1.81-1.7-2.72-1.17-1.89-2.33-3.78-3.53-5.64l-.26-.38a75.79,75.79,0,0,0-5.18-7.13,31.32,31.32,0,0,0-5.74-5.53,21.49,21.49,0,0,0-3.26-2l-.46-.22a19.21,19.21,0,0,0-3.46-1.22,25.69,25.69,0,0,0-8-.47,28.83,28.83,0,0,0-7.78,1.72q-1,.38-1.92.78v.43a.35.35,0,0,1,.16-.08c.64-.29,1.28-.55,1.94-.78a30.05,30.05,0,0,1,7.62-1.7,24.29,24.29,0,0,1,7.84.41,18,18,0,0,1,3.05,1l.47.21a21.93,21.93,0,0,1,3.49,2.09,32.5,32.5,0,0,1,5.72,5.46,77.56,77.56,0,0,1,5.25,7.11c0,.12.15.26.25.38,1.2,1.84,2.37,3.72,3.53,5.58l1.66,2.66.28.43c1.93,3,3.91,6.19,6.09,9.14h.21c-1.25-1.8-2.49-3.64-3.71-5.54Zm35.59-31.62a23.41,23.41,0,0,0-5.7-1.83,30.86,30.86,0,0,0-8-.38,27.44,27.44,0,0,0-7.8,1.71,28.18,28.18,0,0,0-7,3.9,42.13,42.13,0,0,0-3.8,3.26l-.23.21c-2.56,2.47-4.86,5.18-7.2,7.83-1.27,1.42-2.55,2.84-3.89,4.18l-.14.15a36.2,36.2,0,0,1-7.78,6.1l-.95.5-.44.21a24.54,24.54,0,0,1-6,2,30.45,30.45,0,0,1-7.86.38,20.41,20.41,0,0,1-7.51-2.2,35.87,35.87,0,0,1-6.54-4.44c-.7-.58-1.39-1.18-2.07-1.77a.17.17,0,0,1,0,.1,1.13,1.13,0,0,1,0,.26l2,1.73a36.76,36.76,0,0,0,6.57,4.57,21,21,0,0,0,7.62,2.28,30,30,0,0,0,8-.36,25.14,25.14,0,0,0,6.42-2.2l.44-.23a6.71,6.71,0,0,0,.65-.35,36,36,0,0,0,7.81-6.09l.15-.15c1.37-1.39,2.68-2.82,3.94-4.27,2.37-2.67,4.68-5.39,7.23-7.83a1,1,0,0,1,.21-.21,42,42,0,0,1,3.73-3.2,27.79,27.79,0,0,1,6.86-3.87,27.31,27.31,0,0,1,7.62-1.74,30.53,30.53,0,0,1,7.87.33A23,23,0,0,1,343.8,533a3.6,3.6,0,0,0-.12-.44" style="fill: #fff"/>
    <path d="M329.77,469.49c37.71,32,71,74.66,66.93,87.47-4.28,13.57-32.5,27.42-56.79,29.09-5,.35-18.08-36.77-12.93-38.09,4-1.07,22.24-5.09,24.53-7.41,1.52-1.63-25.05-38.76-32.88-59.72-8.18-22,1-19.89,11.14-11.34" style="fill: #ad6359"/>
    <path d="M337.22,547.44s-15.15.61-25.05,1.52c-5.52.49-14.9,2.16-18.79,4.37-5.82,3.31-28.06,20.86-23.92,26.33,3.75,5,10.27-2.15,10.27-2.15s-7.86,7.12-2.63,10.9S290,582.13,290,582.13s-8.87,7-2.9,10.45c5.18,3,15.24-7.62,15.24-7.62s-10.12,6.28-5.12,9.92c5.53,4,22.55-10.1,22.55-10.1,12.81,2.22,20.81,1.81,30.05-.2,1.64-.41-12.57-37.14-12.57-37.14" style="fill: #ad6359"/>
    <path d="M287.56,584.46l1.91-2.28a48,48,0,0,1,3.88-4.3c1.36-1.31,2.78-2.55,4.24-3.73s3.21-2.38,4.72-3.68c.12-.1.26,0,.14.17a49.7,49.7,0,0,0-4.28,4.05q-2.06,2-4.07,4.1c-1.34,1.37-2.73,2.59-4.08,3.9-.69.64-1.33,1.33-2,2a17.75,17.75,0,0,1-1.89,1.89c-.08,0-.16,0-.13-.1a12.19,12.19,0,0,1,1.54-2" style="fill: #263238"/>
    <path d="M278.13,579a77.86,77.86,0,0,1,7-8.17,53.92,53.92,0,0,1,8.38-6.76c.11,0,.23.08.14.17-2.55,2.54-5.15,5-7.74,7.54-1.27,1.22-6.86,7-7.51,7.48-.17.12-.37-.11-.28-.26" style="fill: #263238"/>
    <path d="M296.29,589.85a74.82,74.82,0,0,1,6.74-7.61,68.06,68.06,0,0,1,8.47-5.93c.11,0,.24.09.14.17-2.67,2.18-5.35,4.31-7.91,6.62-1.25,1.13-6,5.9-7.24,6.88a.14.14,0,0,1-.18-.07.11.11,0,0,1,0-.06" style="fill: #263238"/>
    <path d="M332.52,512.62l35.85-9.32s-26.86-26.77-40.05-35.81c-13.71-9.43-19.52-7-10.86,13.31s15.06,31.82,15.06,31.82" style="fill: #ffc727"/>
    <path d="M336,473.45q-2.18-1.36-4.43-2.6a50.89,50.89,0,0,0-7.25-3.3,30.6,30.6,0,0,0-7.79-1.72h-3.18a1.4,1.4,0,0,0,0,.29h3.17a31,31,0,0,1,7.72,1.69,54.51,54.51,0,0,1,7.24,3.23c1.81,1,3.59,2,5.35,3Zm-16.76-10.8a26.77,26.77,0,0,0-4.14,3.05l-.27.24c-.48.45-.94.9-1.38,1.37l-.13.15V468a3.23,3.23,0,0,1,.38-.45,16.82,16.82,0,0,1,1.64-1.63,1.23,1.23,0,0,1,.28-.23,26.33,26.33,0,0,1,4-3.05Zm42.5,34.25a26.81,26.81,0,0,1-9.42,9.45,28.75,28.75,0,0,1-4.57,2.3l2.09-.54a20.86,20.86,0,0,0,2.72-1.52,27.88,27.88,0,0,0,6.24-5,26.18,26.18,0,0,0,3.3-4.45Z" style="fill: #fff"/>
    <path d="M350,485.76c-.37,1-.7,2.07-1,3.05a79.34,79.34,0,0,1-5.66,14.87,28.24,28.24,0,0,1-4.79,6.4,2.82,2.82,0,0,1-.36.33,23.28,23.28,0,0,0,3.12-.15l-1.52.4h-1.86a8.93,8.93,0,0,1-.73.65l-.9.25a10.17,10.17,0,0,0,1-.92,30.82,30.82,0,0,1-6.34-.94,1.47,1.47,0,0,0-.14-.28,29.85,29.85,0,0,0,6.57,1h.21c.23-.19.45-.4.66-.61a28.13,28.13,0,0,0,4.69-6.31,79.14,79.14,0,0,0,5.64-14.81c.35-1.09.7-2.21,1.1-3.3Z" style="fill: #fff"/>
    <path d="M333.33,505.83c.82-.32,1.69-.54,2.55-.78l2.63-.75c1.77-.51,3.55-1,5.33-1.52,3.57-.93,7.12-1.89,10.67-2.77l2.95-.69c1.06-.23,2.11-.38,3.14-.61m0,.09c-.88.26-1.73.6-2.6.87l-2.62.89c-1.77.48-3.55,1-5.35,1.41-3.5.9-7,1.82-10.56,2.64l-3,.68c-1,.25-2.08.54-3.13.69-.09-.06-.12-.14-.06-.15Z" style="fill: #263238"/>
    <path d="M320.11,490.77s0-.13.1-.07a24.77,24.77,0,0,1,2.59,3.44c-.26-.61-.55-1.2-.82-1.8-.85-1.95-1.69-3.91-2.56-5.85,0,0,0-.12.11,0,1.75,3.29,3.62,6.51,5.27,9.85s3.29,6.65,4.87,10c.89,1.84,1.83,4.21,2.7,6.1,1.08-.13,2.39-.51,3.55-.66.11,0,.11.15,0,.17-1.19.32-2.53.91-3.81,1.12-.15,0-6.09-11.83-8.73-17.56-1.13-1.63-2.24-3.17-3.27-4.76" style="fill: #263238"/>
    <path d="M296.9,477.61c5.14,1.52,14.51-5.94,18.39-12.19.26-.42-.15-5.12-.39-10.85-.14-3.47-.2-7.34,0-10.87,0-.74-22.49,4.15-22.49,4.15a56.53,56.53,0,0,1,1.38,13.72,7,7,0,0,1-.22,1.43v.24c-.66,2.73-1.62,12.94,3.33,14.37" style="fill: #ad6359"/>
    <path d="M313.52,443.71c-1.35,5.93-5.88,20.17-17.73,19.81a13.37,13.37,0,0,1-2.27-.25,1,1,0,0,1,0-.24,9.93,9.93,0,0,0,.24-1.43,56.91,56.91,0,0,0-1.4-13.71s16.3-3.57,21.16-4.18" style="fill: #263238"/>
    <path d="M317.84,417.57c2,8-3.19,30.47-9,35.33-8.47,7-21.79,7.05-27.58-3-5.61-9.73,1.72-39,8.2-43.31,9.56-6.31,25.39-.77,28.4,11" style="fill: #ad6359"/>
    <path d="M317.84,417.57c2,8-3.19,30.47-9,35.33-8.47,7-21.79,7.05-27.58-3-5.61-9.73,1.72-39,8.2-43.31,9.56-6.31,25.39-.77,28.4,11" style="fill: #ad6359"/>
    <path d="M294.57,430.68s.11.11.09.17c-.39,1.52-.59,3.29.67,4.12V435c-1.66-.61-1.37-3.05-.76-4.36" style="fill: #263238"/>
    <path d="M296.29,429.4c2.49.37,1.53,5.32-.74,5s-1.35-5.29.74-5" style="fill: #263238"/>
    <path d="M286,429.13a.15.15,0,0,0-.15.12c-.23,1.53-.76,3.26-2.24,3.52v.08c1.69.09,2.41-2.21,2.39-3.72" style="fill: #263238"/>
    <path d="M284.91,427.29c-2.42-.66-3.53,4.25-1.28,4.86s3.32-4.33,1.28-4.86" style="fill: #263238"/>
    <path d="M299.28,425.5a18.66,18.66,0,0,1-1.94-.7,3.32,3.32,0,0,1-1.85-1.09,1.06,1.06,0,0,1,.18-1.28,2.6,2.6,0,0,1,2.66-.26,3.86,3.86,0,0,1,2.23,1.69,1.14,1.14,0,0,1-1.28,1.64" style="fill: #263238"/>
    <path d="M283.37,424.68a14.3,14.3,0,0,0,2.07-.14,3.32,3.32,0,0,0,2.08-.55,1,1,0,0,0,.16-1.27,2.58,2.58,0,0,0-2.48-1,3.91,3.91,0,0,0-2.6,1,1.13,1.13,0,0,0,0,1.6,1.16,1.16,0,0,0,.77.32" style="fill: #263238"/>
    <path d="M294.43,445.4c-.42.29-.88.72-1.44.66a4.15,4.15,0,0,1-1.53-.69h0a2.13,2.13,0,0,0,1.79,1.21,1.71,1.71,0,0,0,1.52-1.15c-.11,0-.23-.07-.34,0" style="fill: #263238"/>
    <path d="M293.73,440.51a5.35,5.35,0,0,1-3.91,1.68,7.21,7.21,0,0,1-1.91-.26l-.35-.11-.32-.12a.58.58,0,0,1-.24-.55V441c.18-1.17.64-2.95.64-2.95-.47.14-2.87.71-2.71.1a79.36,79.36,0,0,1,5-15.41c0-.16.32,0,.28.09-1,4.9-2.88,9.58-4,14.49a9.08,9.08,0,0,1,2.59-.29c.17.09-.91,3.41-1,4a7.38,7.38,0,0,0,5.72-.67c.19-.05.3.07.19.18" style="fill: #263238"/>
    <path d="M288.72,441.46a6.39,6.39,0,0,0,2.13,2.37,2.87,2.87,0,0,0,1.66.43c1.3-.09,1.53-1.22,1.53-2.21a6.47,6.47,0,0,0-.28-1.52,8.16,8.16,0,0,1-5,.93" style="fill: #263238"/>
    <path d="M290.85,443.83a2.8,2.8,0,0,0,1.66.43c1.3-.09,1.53-1.22,1.53-2.21a2.91,2.91,0,0,0-3.19,1.78" style="fill: #ff97b8"/>
    <g style="opacity: 0.19999699294567108;isolation: isolate">
      <g style="clip-path: url(#clip-path-5)">
        <path d="M316.92,434.22c-1.45-.6-3.81-6.52-4.84-8.9s.65-13.38,1.11-15.84a16.8,16.8,0,0,1,4.74,7.93c.88,3.63.39,10.2-1,16.81" style="fill: #263238"/>
      </g>
    </g>
    <path d="M292.48,413.93a7.94,7.94,0,0,0,6.57,4.09,8.07,8.07,0,0,0,7.09-3.47m.1.07a8,8,0,0,1-7.2,4.06,8.21,8.21,0,0,1-6.72-4.66c-.05-.11.1-.2.16-.09Z" style="fill: #263238"/>
    <path d="M304.5,396.37a12.58,12.58,0,0,1,9.15,7.8,9,9,0,0,1-.32,5.85c0,.08-.2,0-.17,0a9.8,9.8,0,0,0-2.74-9.58,12.57,12.57,0,0,0-10.67-3.56,8,8,0,0,0-4.89,2.49c-.12.14-.43,0-.32-.18,1.8-2.6,5.9-3.76,10-2.82" style="fill: #263238"/>
    <path d="M276.3,400.76a10.23,10.23,0,0,1,5.34-4.48c3.12-1.14,6.2-.24,9.23.72.09,0,0,.15,0,.12a14,14,0,0,0-7.95-.72,9.86,9.86,0,0,0-5.5,3.83,9.7,9.7,0,0,0,1.52,12.63,9.91,9.91,0,0,0,7.46,2.36c.11,0,.16.14,0,.15a9.92,9.92,0,0,1-10.1-14.61" style="fill: #263238"/>
    <path d="M318.49,422.2s5.91-7.21,3.28-12.6c-1.53-3.05-8.31-4.07-8.31-4.07a12.3,12.3,0,0,0-6.7-6.7c-5.38-2.43-12.75-.49-12.75-.49s-4.74-4.15-10.33-2.29c-7.8,2.59-9.07,13.43-2.71,18.29,4.44,3.41,12,.38,12,.38.62.21,6.43,5.53,12.61.64,0,0,3.34,4.43,7.48,2.63a6,6,0,0,0,5.38,4.21" style="fill: #263238"/>
    <path d="M312.11,435.86s5.64-7,8.83-4.93-1.35,12.45-5.37,13.63a4,4,0,0,1-5.12-2.32,1.77,1.77,0,0,1-.06-.17Z" style="fill: #ad6359"/>
    <path d="M319.56,434c-2.82.93-4.44,3.39-5.62,5.95a2.21,2.21,0,0,1,3.1-.51,2.43,2.43,0,0,1,.25.2s0,.17-.09.15a2.46,2.46,0,0,0-2.75.67,12.33,12.33,0,0,0-1.44,2.09c-.14.25-.58.08-.46-.2.17-3.64,3.21-8.35,7-8.45Z" style="fill: #263238"/>
    <path d="M317.94,467.13a98.83,98.83,0,0,1-7.92,8.45,17,17,0,0,1-9.55,4.91c-3.52.29-7-.47-8.29-4.78A25.85,25.85,0,0,1,292,464.4a.14.14,0,0,0-.09-.17.13.13,0,0,0-.17.08.14.14,0,0,0,0,.09c-.85,5.62-1.78,14.35,3.32,16.35,5.71,2.22,11.35-.67,15.42-4.57a53.9,53.9,0,0,0,7.54-8.91s-.05-.23-.11-.14" style="fill: #263238"/>
  </g>
</svg>
