<svg id="Layer_1" data-name="Layer 1" xmlns="http://www.w3.org/2000/svg" xmlns:xlink="http://www.w3.org/1999/xlink" width="39.75cm" height="17.91cm" viewBox="0 0 1126.7 507.73">
  <defs>
    <clipPath id="clip-path">
      <rect x="82.16" y="464.64" width="848.54" height="43.09" style="fill: none"/>
    </clipPath>
    <clipPath id="clip-path-2">
      <rect x="82.91" y="220.64" width="94.23" height="28.28" style="fill: none"/>
    </clipPath>
    <clipPath id="clip-path-3">
      <rect x="144.25" y="91.31" width="40.37" height="39.38" style="fill: none"/>
    </clipPath>
    <clipPath id="clip-path-4">
      <rect x="626.88" y="403.73" width="58.78" height="78.43" style="fill: none"/>
    </clipPath>
    <clipPath id="clip-path-5">
      <rect x="537.59" y="259.83" width="55.58" height="32.09" style="fill: none"/>
    </clipPath>
    <clipPath id="clip-path-6">
      <rect x="532.23" y="271.03" width="89.8" height="113.73" style="fill: none"/>
    </clipPath>
    <clipPath id="clip-path-7">
      <rect x="539.71" y="279.07" width="48.56" height="33.67" style="fill: none"/>
    </clipPath>
    <clipPath id="clip-path-8">
      <rect x="950.97" y="62.89" width="43.93" height="25.17" style="fill: none"/>
    </clipPath>
  </defs>
  <title>illustration</title>
  <g>
    <path d="M1105.52,199.57V215H1103V209.2a4.27,4.27,0,0,1-3.48,1.61c-3.08,0-5.31-2.35-5.31-5.69s2.23-5.71,5.31-5.71A4.26,4.26,0,0,1,1103,201v-1.44Zm-2.57,5.55a3.14,3.14,0,1,0-3.12,3.26,3.06,3.06,0,0,0,3.12-3.26" style="fill: #fff"/>
    <g style="opacity: 0.19999699294567108">
      <g style="clip-path: url(#clip-path)">
        <path d="M506.43,464.64c234.31,0,424.27,9.65,424.27,21.55s-190,21.54-424.27,21.54S82.16,498.08,82.16,486.19s190-21.55,424.27-21.55" style="fill: #fff"/>
      </g>
    </g>
    <rect x="125.41" y="405.54" width="65.47" height="4.81" style="fill: #c7c7c7"/>
    <polygon points="119.96 246.77 120.31 272.88 122.51 395.62 122.58 401.13 123.56 473.76 127.27 473.76 128.23 401.13 128.32 395.62 130.52 272.88 130.87 246.77 119.96 246.77" style="fill: #c7c7c7"/>
    <polygon points="120.31 272.88 130.52 272.88 130.87 246.77 119.96 246.77 120.31 272.88" style="fill: #a6a6a6"/>
    <polygon points="185.42 246.77 185.77 272.88 187.99 395.62 188.06 401.13 189.03 473.76 192.73 473.76 196 272.88 196.34 246.77 185.42 246.77" style="fill: #c7c7c7"/>
    <polygon points="185.42 246.77 185.77 272.88 196 272.88 196.34 246.77 185.42 246.77" style="fill: #a6a6a6"/>
    <rect x="92.72" y="405.54" width="64.27" height="4.81" style="fill: #c7c7c7"/>
    <polygon points="87.25 246.77 87.6 272.88 90.85 473.76 94.56 473.76 95.54 401.13 95.61 395.62 97.81 272.88 98.16 246.77 87.25 246.77" style="fill: #c7c7c7"/>
    <polygon points="87.6 272.88 97.81 272.88 98.16 246.77 87.25 246.77 87.6 272.88" style="fill: #a6a6a6"/>
    <polygon points="151.52 246.77 151.87 272.88 154.09 395.62 154.16 401.13 155.14 473.76 158.84 473.76 159.81 401.13 159.88 395.62 162.1 272.88 162.45 246.77 151.52 246.77" style="fill: #c7c7c7"/>
    <polygon points="151.87 272.88 162.1 272.88 162.45 246.77 151.52 246.77 151.87 272.88" style="fill: #a6a6a6"/>
    <rect x="82.91" y="220.65" width="119.11" height="28.27" style="fill: #e8bc2c"/>
    <g style="opacity: 0.10000599920749664;isolation: isolate">
      <g style="clip-path: url(#clip-path-2)">
        <rect x="82.91" y="220.65" width="94.23" height="28.27" style="fill: #263238"/>
      </g>
    </g>
    <path d="M245.77,475.38c-1.87-3.81-25.12-31.71-25.12-31.71L229.89,388l-52.65-19.86s-5.39,48.2-6.78,51.2c-6.28,13.88-11.14,25.52-10.36,26.78,2,3.32,79.73,41.26,82.88,41.68s4.66-8.63,2.79-12.44" style="fill: #ad6359"/>
    <path d="M170.44,419.36a66.32,66.32,0,0,0,1.6-8.93l50.48,21.68-1.88,11.56s23.34,27.85,25.12,31.71.36,12.86-2.79,12.44-80.84-38.36-82.88-41.69c-.84-1.25,4.08-12.89,10.35-26.77" style="fill: #ebebeb"/>
    <path d="M245.77,475.38c-1.87-3.81-25.12-31.71-25.12-31.71l-50.19-24.31c-6.28,13.88-11.14,25.52-10.36,26.78,2,3.32,79.73,41.26,82.88,41.68s4.66-8.63,2.79-12.44" style="fill: #e8bc2c"/>
    <path d="M243.31,484.37c-13.21-6-66-31.26-78.54-38.16-.14-.09-.12-.09,0-.09,13.22,5.64,65.73,31.36,78.6,38,.28.14.18.34-.06.21" style="fill: #263238"/>
    <path d="M242.1,470.33a.13.13,0,0,1-.18,0,13.48,13.48,0,0,0-15.35,4.83c0,.07-.15,0-.15-.09a11.3,11.3,0,0,1,6.3-5.58,11.64,11.64,0,0,1,9.35.63.13.13,0,0,1,0,.18" style="fill: #263238"/>
    <path d="M225.28,447.94a.38.38,0,0,1-.48.26,80.91,80.91,0,0,0-17.08-1.4c-.14,0-.35-.29-.14-.39,5.33-2.68,12.26-1.57,17.44,1a.39.39,0,0,1,.26.48" style="fill: #263238"/>
    <path d="M228.53,451.44a.38.38,0,0,1-.48.26A80.76,80.76,0,0,0,211,450.31c-.14,0-.35-.3-.14-.39,5.32-2.68,12.26-1.57,17.43,1a.38.38,0,0,1,.26.48" style="fill: #263238"/>
    <path d="M231.54,454.44a.39.39,0,0,1,.26.48.4.4,0,0,1-.49.26,79.51,79.51,0,0,0-17.08-1.4c-.14,0-.34-.28-.14-.39,5.32-2.68,12.27-1.56,17.45,1.05" style="fill: #263238"/>
    <path d="M234.79,458a.38.38,0,0,1,.25.47.37.37,0,0,1-.47.25,80.25,80.25,0,0,0-17.08-1.39c-.14,0-.34-.28-.14-.39,5.33-2.68,12.26-1.56,17.44,1.06" style="fill: #263238"/>
    <path d="M169.71,444.47c-5.87-2.84-1.44-11.88,4.42-9.09s1.44,11.94-4.42,9.09" style="fill: #263238"/>
    <path d="M237.44,436.27c-1.56-3.47-5.87-3-8.67-1.48a30.44,30.44,0,0,0-11.24,11v0a.17.17,0,0,0,.09.22,1.1,1.1,0,0,0,0,.18.74.74,0,0,0,.76.7c5-.76,10.37-.95,15-3.21,2.7-1.31,5.7-4,4.14-7.44m-1.79,3.24c-1.24,3.26-7.11,4.21-10,4.73-2.42.43-4.87.74-7.28,1.27,2.21-2.11,4.3-4.37,6.71-6.3a34,34,0,0,1,3.62-2.58c2-1.17,9.22-3,7,2.89Z" style="fill: #263238"/>
    <path d="M203.63,441.49c4.2,2.9,9.52,3.91,14.3,5.39a.81.81,0,0,0,.22,0,.72.72,0,0,0,.65-.77h0a.16.16,0,0,0,.09-.21,30.42,30.42,0,0,0-9.49-12.56c-2.48-1.87-6.72-3-8.79.17-1.95,2.95.48,6.21,3,8m7.49,1.58c-2.79-.94-8.44-2.75-9.22-6.09-1.36-6.19,5.54-3.22,7.31-1.83a34.68,34.68,0,0,1,3.2,3.1q3,3.47,5.69,7.21c-2.26-.93-4.63-1.53-7-2.33Z" style="fill: #263238"/>
    <path d="M181.36,291c-.48-14.23-54-62.62-55.19-86.35l-.81-39.07H177.3s3.22,17.95,4.32,19.54c18.9,27.43,58.08,68.53,60.87,99.07,4.08,45-13.23,155.74-13.23,155.74l-63-27.36S181.9,307.07,181.36,291" style="fill: #263238"/>
    <path d="M228.25,424.2a.1.1,0,0,1-.13.08c-17.11-5.76-54-23.33-55.53-24.39-.11-.07,0-.24.13-.24,2.09.51,41.12,17,55.5,24.44a.09.09,0,0,1,0,.11" style="fill: #37474f"/>
    <path d="M138.38,214a34.88,34.88,0,0,1-2.79-7.52,58.15,58.15,0,0,1-1.4-11.53c-.32-8-.39-15.93-.77-23.9a.12.12,0,0,0-.12-.13.13.13,0,0,0-.13.13c0,2-.14,4-.14,6-.15,7.83-.58,15.79.23,23.6a41.52,41.52,0,0,0,2.27,10.45,43.62,43.62,0,0,0,5.16,9.73c4.54,6.45,9.52,12.61,14.31,18.88q7.5,9.76,15,19.54c2.51,3.22,5,6.51,7.51,9.76,2.41,3,4.84,6.06,7,9.24a30.61,30.61,0,0,1,4.61,10,41.12,41.12,0,0,1,.73,11.4c-.44,7.9-1.69,15.79-2.7,23.64q-1.54,12-3.32,24.14-3.28,24.16-7,48.28c0,.08.19.11.19,0,.39-2,.75-4.06,1.2-6.08,1.71-7.82,2.8-15.83,4.07-23.73s2.54-16.1,3.7-24.17,2.24-16.14,3.25-24.22c1-7.65,2.41-15.52,2-23.25a31.75,31.75,0,0,0-2.23-10.62,44.31,44.31,0,0,0-5.44-9.25c-4.76-6.45-9.64-12.7-14.53-19-5-6.51-10-13.09-15-19.62L146.54,226q-3.56-4.44-6.64-9.2c-.56-.92-1.09-1.84-1.58-2.79" style="fill: #37474f"/>
    <path d="M163.15,309.33c-3.27-2.82-24-32.56-24-32.56L83,271.1l-5.33-56s47.92,7.5,51.17,7c15.05-2.42,27.56-4.06,28.56-3,2.67,2.84,18.87,87.77,18.45,90.92s-9.45,2.12-12.71-.69" style="fill: #ad6359"/>
    <path d="M128.85,222.06a63.83,63.83,0,0,1-9-.83l7.68,54.42,11.65,1.19s20.77,29.75,24,32.54,12.29,3.78,12.71.63-15.77-88.11-18.45-90.9c-.95-1.09-13.51.55-28.56,2.95" style="fill: #ebebeb"/>
    <path d="M163.15,309.4c-3.27-2.82-24-32.56-24-32.56l-10.3-54.77c15.05-2.42,27.56-4.06,28.56-3,2.67,2.84,18.87,87.77,18.45,90.92s-9.45,2.19-12.71-.62" style="fill: #e8bc2c"/>
    <path d="M172.47,309.44c-2.25-14.32-12.85-71.87-16.2-85.82-.09-.14-.09-.13-.09,0,2,14.23,13,71.67,16,85.83.06.29.28.27.24,0" style="fill: #263238"/>
    <path d="M159.05,304.52a.1.1,0,0,0,.13,0,13.49,13.49,0,0,1,8.7-13.61.08.08,0,0,0,0-.16,11.26,11.26,0,0,0-7,4.63,11.65,11.65,0,0,0-1.86,9.18h0" style="fill: #263238"/>
    <path d="M141.91,282.36a.36.36,0,0,0,.42-.3,80.28,80.28,0,0,1,3.19-16.83c.06-.24-.19-.4-.35-.24-4,4.43-4.73,11.42-3.55,17.1a.35.35,0,0,0,.29.27" style="fill: #263238"/>
    <path d="M144.47,286.44a.37.37,0,0,0,.41-.31,79.78,79.78,0,0,1,3.2-16.83c0-.23-.2-.41-.35-.23-4,4.42-4.73,11.41-3.56,17.09a.38.38,0,0,0,.3.28" style="fill: #263238"/>
    <path d="M147,290.51a.38.38,0,0,0,.41-.31,80.28,80.28,0,0,1,3.19-16.83c.06-.24-.19-.41-.35-.24-4,4.44-4.73,11.43-3.56,17.11a.38.38,0,0,0,.31.27" style="fill: #263238"/>
    <path d="M149.58,294.58a.36.36,0,0,0,.41-.31,80.28,80.28,0,0,1,3.19-16.83c.06-.24-.19-.4-.35-.24-4,4.44-4.73,11.42-3.55,17.11a.34.34,0,0,0,.3.27" style="fill: #263238"/>
    <path d="M153.29,227.9c-1.21-6.4-11.14-4.52-9.95,1.87s11.17,4.54,9.95-1.87" style="fill: #263238"/>
    <path d="M135.88,289.12c3.35-3.82,5-9,7-13.59a.76.76,0,0,0,0-.21.71.71,0,0,0-.69-.73.2.2,0,0,0,0-.07.14.14,0,0,0-.18-.07,30.52,30.52,0,0,0-13.58,8c-2.15,2.24-3.78,6.33-.85,8.76,2.79,2.28,6.29.17,8.3-2.05m-4.74,1.12c-6.31.61-2.61-5.88-1-7.48a32.87,32.87,0,0,1,3.45-2.79,90.81,90.81,0,0,1,7.83-4.82c-1.15,2.19-2.08,4.47-3.13,6.7-1.23,2.66-3.67,8.08-7.18,8.39" style="fill: #263238"/>
    <path d="M134.46,254.83c-3.63,1.16-3.63,5.56-2.49,8.45a30.47,30.47,0,0,0,9.65,12.44.1.1,0,0,0,0,0,.13.13,0,0,0,.19,0,.58.58,0,0,0,.18,0,.74.74,0,0,0,.79-.66c-.13-5,.3-10.41-1.4-15.23-1-2.8-3.34-6.19-7-5m3.07,2.22c3.09,1.62,3.35,7.61,3.51,10.52.16,2.46.17,4.93.41,7.39a91.69,91.69,0,0,1-5.47-7.4,34.27,34.27,0,0,1-2.15-3.89c-.92-2.1-1.89-9.51,3.7-6.59Z" style="fill: #263238"/>
    <path d="M141.22,206.76c-8.23,3-17.41,7.22-25.78,8.61-36.38,6.21-69.19-2.79-69.19-2.79,32.21-.81,74.68,4,74.68,4l3.44,63.13S66.25,276.9,23.2,260.37c-31.4-12-28.61-40.91-5.47-53.13,26.86-14.27,72.56-20.42,83.18-25.43,3.57-1.69,5.75-16.16,5.75-16.16h37.86Z" style="fill: #263238"/>
    <path d="M112.7,273.27c-.07-2-.33-4.06-.5-6.1s-.38-4.08-.53-6.11c-.56-7.13-1.19-14.25-1.59-21.39-.21-3.58-.9-19.5-.69-21.2a.12.12,0,0,1,.11-.11.11.11,0,0,1,.12.11c.44,1.87,2.12,26.22,2.41,33.35l.42,10.73c.14,3.57.13,7.17.45,10.73,0,.13-.18.14-.2,0" style="fill: #37474f"/>
    <path d="M30.73,212.4q9.9-.26,19.79,0c11.78.28,23.53,1,35.26,2q17.37,1.56,34.76,2.95c0,1.58.23,3.14.23,4.72a.33.33,0,0,0,.27.27.34.34,0,0,0,.41-.27c.07-1.74.21-3.49.21-5.23a.59.59,0,0,0-.56-.59q-10-1-20-2c-11.74-1.16-23.47-2.28-35.25-2.88-4.49-.23-9-.39-13.51-.39a50.52,50.52,0,0,0-9.12-1.69c-.17,0-.16.26,0,.26,2.61.36,5.26.82,7.87,1.39A183.17,183.17,0,0,0,30.7,212.1c-.13,0-.09.26,0,.3" style="fill: #37474f"/>
    <path d="M28.15,216.61c5.75.21,11.49.59,17.22.92,10.15.6,20.28,1.43,30.39,2.42,5,.5,9.91,1.07,15,1.66s10.19,1.1,15.25,1.8c.09,0,.11-.2,0-.2-2.79-.49-5.58-1.07-8.37-1.53s-5.58-.86-8.37-1.23c-10.06-1.4-20.15-2.34-30.32-3.07s-20.43-1-30.7-1c-.16,0-.16.21-.09.22" style="fill: #37474f"/>
    <path d="M149.74,203.06a.35.35,0,0,1-.2.45c-5.33,2.33-10.88,4.26-16.34,6.29-.21.09-.33-.23-.13-.33a100.18,100.18,0,0,1,16.22-6.62.35.35,0,0,1,.45.21" style="fill: #37474f"/>
    <path d="M150.71,189.71c-.64,2.72-4,12.63-8.06,11.79s-1.8-6.73-1-10.69a168.73,168.73,0,0,0,2.79-25h0a.15.15,0,0,1,.15-.15.16.16,0,0,1,.16.16A89.51,89.51,0,0,1,144,184c-.44,3.24-1,6.43-1.72,9.61a19.64,19.64,0,0,0-.88,4.68c.06,1.21.43,2,1.21,2.26,4.71,1.36,7.71-13.83,8.1-16.62.83-5.95,1.53-11.56,1.83-17.95,0-.24.33-.18.33,0a93.34,93.34,0,0,1-2.18,23.74" style="fill: #37474f"/>
    <path d="M143.44,200.64a.52.52,0,0,1,.28.69c-.39,1-.82,1.94-1.23,2.91a9.29,9.29,0,0,1-1.24,2.48.18.18,0,0,1-.32-.1,7.38,7.38,0,0,1,.57-2.58,27.15,27.15,0,0,1,1.24-3.13.53.53,0,0,1,.7-.27" style="fill: #37474f"/>
    <path d="M117.61,76.47c.58-5.49,4.69-6.16,5.35-16.93.67-11.13,5.22-16,8.5-18.54,6.35-4.92,12.16-3.76,12.16-3.76a18.38,18.38,0,0,1,12.48,4.19c3.28,2.51,7.51,7,8.18,18.14.65,10.77,4.77,11.44,5.34,16.93.77,7.34-2.48,7.7-2.48,12.56,0,4.2,2.19,5.62,2.31,7.88,0,0-9.57,4.52-25.83,4.52s-25.84-4.52-25.84-4.52c.13-2.3,2.32-3.7,2.32-7.88,0-4.86-3.25-5.22-2.49-12.59" style="fill: #263238"/>
    <path d="M169.31,72.16a10.78,10.78,0,0,1,1.76,8.63,12.4,12.4,0,0,1-1.87,4.08,6.41,6.41,0,0,0-1.07,3.85c.15,2.87,1.88,5.22,3.49,7.34-2-2.82-4.36-6.61-2.38-10.17a24.82,24.82,0,0,0,2-3.48,11.15,11.15,0,0,0,.71-3.83,11.48,11.48,0,0,0-2.32-7c-1.59-2.21-3.65-4-4.77-6.63-1.27-3-1.17-6.29-1.17-9.5a.14.14,0,0,0,0-.09.12.12,0,0,0-.16-.07.12.12,0,0,0-.08.16c-.3,3.35-.3,7,1.09,10.09,1.16,2.56,3.21,4.42,4.81,6.6" style="fill: #263238"/>
    <path d="M116.58,84.9c1.29,2.79,4.31,5.28,3.15,8.77,0,0,.17.1.17,0,1.38-3-1.16-5.86-2.55-8.27-1.63-3-1.27-7.13-.59-10.16s2.61-5.28,4.19-7.8a20.83,20.83,0,0,0,2.65-8.65A37.59,37.59,0,0,1,126,48.71s-.1-.08-.1,0a34,34,0,0,0-1.86,5.21c-.44,1.78-.68,3.63-1,5.45A23.91,23.91,0,0,1,122,64.31a17.78,17.78,0,0,1-2.11,3.88,21,21,0,0,0-3.87,8,15.11,15.11,0,0,0,.58,8.75" style="fill: #263238"/>
    <path d="M159.13,95.13c24.1,14.8,41.19,26.06,43.8,25.77,4.87-.55,29.43-20.61,37-24,6.08-2.72,34.91,24.39,30.85,28.09-7.16,6.5-54.49,30-64.69,30.94-14.36,1.25-48.16-39.23-55.82-50.62-6.62-9.81-3.55-17.83,8.89-10.22" style="fill: #ad6359"/>
    <path d="M248.14,99.79s22.37-16.33,23.46-17.27c4.8-4.08,9.84-15.29,14.35-13.74,3.75,1.27.37,7,.37,7s4.34-6.34,7.64-3.38-.1,9.35-.1,9.35,5.19-5.43,8.29-2.25-.66,9.14-.66,9.14,3.48-3.42,6.22,0-8.07,15.76-12.12,19.8-21,14.64-24.84,16.61Z" style="fill: #ad6359"/>
    <path d="M287.1,75.34c-2.41,8.89-6.78,12-14.48,16.17l-.07,0a.14.14,0,0,1-.16-.11.14.14,0,0,1,.1-.17c7.43-4.94,10.48-7.87,14.21-16.1.18-.39.53-.29.4.17" style="fill: #263238"/>
    <path d="M294.49,81.32c-3.55,8.82-7.83,12.07-15.56,17.06a.12.12,0,0,1-.14-.2c7.45-5.71,10.74-8.94,15.35-17.16.22-.37.47-.1.35.3" style="fill: #263238"/>
    <path d="M301.32,89c-3.6,7.55-7.94,12.16-16.45,16.08a.17.17,0,1,1-.15-.31c7.9-4.6,11.34-8.31,16.39-16,.33-.44.48-.3.21.18" style="fill: #263238"/>
    <path d="M262.08,107.82c5.67-6.65-.78-18-.78-18,5.1-2.94,14.56-10.17,11.77-15.09-2.15-3.81-20.29,5.21-23.81,8.84s-9.36,13.4-9.36,13.4,16.52,17.54,22.18,10.88" style="fill: #ad6359"/>
    <path d="M273.5,76.27C274,83,267.16,86.74,262.25,90c3,5.26,4.24,13,.45,18a.14.14,0,0,1-.18,0,.13.13,0,0,1,0-.17c2.84-5,.92-12.73-1.47-17.68a.58.58,0,0,1-.13-.14.51.51,0,0,1,.13-.71c4.73-3.2,11.67-6.65,12.37-13Z" style="fill: #263238"/>
    <path d="M153,91.54c-6.3-2.44-11.25.5-7.26,9.85,5.22,12.24,18.73,29.3,18.73,29.3L194.75,115S174,99.62,153,91.54" style="fill: #e8bc2c"/>
    <path d="M164,108.19a2.1,2.1,0,1,0,2.09-2.1,2.1,2.1,0,0,0-2.09,2.1m.41,0a1.69,1.69,0,0,1,1.68-1.69h0a1.69,1.69,0,1,1-1.69,1.69m21.48.75a2.1,2.1,0,0,0,2.08,1.94,1.8,1.8,0,0,0,.69-.13l-.46-.3h-.23a1.65,1.65,0,0,1-1.6-1.23Zm-41-16c-.05.12-.09.24-.13.36a2.07,2.07,0,0,0,1,.26,2.1,2.1,0,0,0,2-2.67l-.38.1a3.53,3.53,0,0,1,0,.46,1.69,1.69,0,0,1-1.69,1.69,1.65,1.65,0,0,1-.78-.2m20.23,30.55a2,2,0,1,0,2.1,2.11A2.12,2.12,0,0,0,165.07,123.44Zm0,3.78a1.7,1.7,0,0,1-1.69-1.67v0a1.69,1.69,0,1,1,1.69,1.69Zm-11.9-12.32.26.42A1.66,1.66,0,0,1,155,117a1.54,1.54,0,0,1-.09.52c.09.14.18.26.28.4a1.84,1.84,0,0,0,.22-.92,2.11,2.11,0,0,0-2.09-2.11Zm3.1-16.51a2.11,2.11,0,0,0-2.1,2.11h0a2.11,2.11,0,1,0,2.1-2.12m0,3.78a1.7,1.7,0,0,1-1.69-1.67v0a1.69,1.69,0,1,1,1.69,1.69m20.85,13.65a2.11,2.11,0,1,0,2.1,2.11,2.1,2.1,0,0,0-2.1-2.11m0,3.78a1.69,1.69,0,1,1,1.7-1.67,1.67,1.67,0,0,1-1.67,1.67Z" style="fill: #fff"/>
    <path d="M163.12,125.52c4.72-2.35,18.78-9.46,25.55-13.51.05,0-.11-.19-.11-.19a224.73,224.73,0,0,0-25.64,13.42c-.09,0,.06.32.2.28" style="fill: #263238"/>
    <g style="opacity: 0.10000599920749664;isolation: isolate">
      <g style="clip-path: url(#clip-path-3)">
        <path d="M146.35,91.32l38.27,28.91-20.2,10.46s-13.51-17-18.74-29.3c-2.33-5.48-1.6-8.76.67-10.07"/>
      </g>
    </g>
    <path d="M177.69,124.68c-2.7-10-21.42-29.21-23.21-30.81-7-6.35-17.41-6.46-25.79,3.68C116.41,112.55,109,167,109,167l70.58.4L174,144.11s6-10.62,3.67-19.43" style="fill: #e8bc2c"/>
    <path d="M162.24,102.42c2.86,3.44,5.65,7,8.26,10.6,1.3,1.85,2.53,3.69,3.71,5.58a43.44,43.44,0,0,1,3.17,5.65c0,.11.18,0,.18-.07a49.9,49.9,0,0,0-2.61-6,43.79,43.79,0,0,0-3.64-5.58,25.49,25.49,0,0,0-1.94-2.43c-.36-.63-.74-1.37-1.17-2a28.37,28.37,0,0,0-2.19-2.91h0a37.94,37.94,0,0,1,2.68,4c-2-2.36-4.19-4.61-6.33-6.89,0,0-.08,0-.12.09" style="fill: #263238"/>
    <path d="M165.67,106.09a2.1,2.1,0,0,0,.39,4.19A2.08,2.08,0,0,0,168,109l-.29-.38a1.71,1.71,0,0,1-1.65,1.27,1.69,1.69,0,1,1-.08-3.37l-.31-.37Zm-39.19,43v0a2.11,2.11,0,1,0,2.07-2.13,2.1,2.1,0,0,0-2.07,2.13m.4,0a1.68,1.68,0,0,1,1.68-1.68,1.69,1.69,0,1,1-1.68,1.68m25.31,14.57h0a2.11,2.11,0,0,0-2.12,2.09,2.05,2.05,0,0,0,.57,1.4h.63a1.69,1.69,0,1,1,2.58-1.4,1.64,1.64,0,0,1-.78,1.4h.63a2,2,0,0,0,.57-1.4,2.09,2.09,0,0,0-2.09-2.09Zm-.5-15.8a2.11,2.11,0,1,0,.49,0h-.49m.5,3.79h0a1.69,1.69,0,1,1,1.72-1.69,1.68,1.68,0,0,1-1.72,1.69ZM133.84,97.61a2.11,2.11,0,0,0-2.11,2.09v0a2.11,2.11,0,1,0,2.1-2.12Zm0,3.78h0a1.69,1.69,0,1,1,1.69-1.69,1.69,1.69,0,0,1-1.69,1.69ZM133.1,114h0a2.11,2.11,0,1,0,2.11,2.11,2.11,2.11,0,0,0-2.11-2.11Zm0,3.77a1.68,1.68,0,1,1,1.68-1.66,1.7,1.7,0,0,1-1.68,1.66Zm11.63-28.2a2.05,2.05,0,0,0-1.22,1.91,1.93,1.93,0,0,0,0,.48,2.11,2.11,0,0,0,4.19-.48,2.05,2.05,0,0,0-.66-1.51,13,13,0,0,0-2.33-.38Zm.89,3.57a1.68,1.68,0,1,1,1.67-1.66,1.68,1.68,0,0,1-1.67,1.66ZM163,125.55a2.1,2.1,0,1,0,2.09-2.11,2.11,2.11,0,0,0-2.09,2.11m2.09,1.67a1.7,1.7,0,0,1-1.69-1.67v0a1.69,1.69,0,1,1,1.69,1.69M152,134.62a2.09,2.09,0,1,0,2.09-2.1,2.09,2.09,0,0,0-2.09,2.1m2.09,1.66h0a1.68,1.68,0,1,1,1.68-1.68,1.7,1.7,0,0,1-1.68,1.68Zm-13.59,5.78a2.12,2.12,0,0,0,1.86,2.34,1.93,1.93,0,0,0,.48,0,2.11,2.11,0,1,0-2.34-2.34m1.86,1.95a1.69,1.69,0,0,1-1.68-1.69v0a1.69,1.69,0,1,1,1.68,1.71m23.7,11.3a2.1,2.1,0,0,0,0,4.19,2.1,2.1,0,0,0,0-4.19Zm-1.67,2.1a1.7,1.7,0,0,1,1.69-1.7h0a1.7,1.7,0,0,1,1.69,1.7,1.69,1.69,0,0,1-3.38,0m-20.14-51.32a2.08,2.08,0,1,0,2.1,2.08,2.11,2.11,0,0,0-2.1-2.08Zm0,3.78h0a1.69,1.69,0,0,1-1.66-1.71v0a1.69,1.69,0,1,1,1.68,1.71Zm9,5A2.1,2.1,0,1,0,155.4,117a2.11,2.11,0,0,0-2.12-2.08Zm0,3.77A1.69,1.69,0,1,1,155,117a1.68,1.68,0,0,1-1.69,1.69Zm12.12,21.56a2.1,2.1,0,1,0,2.12,2.08,2.1,2.1,0,0,0-2.12-2.08Zm0,3.8a1.71,1.71,0,0,1,0-3.41,1.69,1.69,0,1,1,0,3.38Zm12.1,18.85a2,2,0,0,0-.49,0,2.11,2.11,0,1,0,.49,4.19,2.07,2.07,0,0,0,1.77-1l-.17-.65a1.67,1.67,0,0,1-1.6,1.22h-.31a1.69,1.69,0,1,1,.31-3.37,1.62,1.62,0,0,1,1.22.55l-.15-.66a1.93,1.93,0,0,0-1.07-.3Zm-47-30.77a2.11,2.11,0,0,0-2.08,2v0a2.11,2.11,0,1,0,2.09-2.12Zm0,3.74h0a1.63,1.63,0,0,1-.12-3.26,1.62,1.62,0,1,1,.15,3.23Zm-13.16,1.93a2.11,2.11,0,1,0,.49,0,2,2,0,0,0-.49,0m.47,3.82h0a1.71,1.71,0,0,1,0-3.41h0a1.66,1.66,0,0,1,1.65,1.68,1.69,1.69,0,0,1-1.67,1.7Zm17.75,16.33v0a2.11,2.11,0,1,0,2.09-2.12,2.12,2.12,0,0,0-2.09,2.12m.41,0a1.69,1.69,0,0,1,1.68-1.69h0a1.69,1.69,0,1,1,0,3.37,1.68,1.68,0,0,1-1.68-1.68M114.43,154a2.11,2.11,0,0,0-2.09,2v0a2.11,2.11,0,1,0,2.09-2.12ZM112.74,156a1.69,1.69,0,1,1,1.69,1.67,1.7,1.7,0,0,1-1.69-1.67m43.53-57.65a2.11,2.11,0,0,0-2.07,2v0a2.11,2.11,0,1,0,2.1-2.13Zm0,3.78a1.69,1.69,0,0,1-1.66-1.73h0a1.69,1.69,0,1,1,1.69,1.69Zm20.89,30.12a2.1,2.1,0,0,0,0,4.18l.12-.42h-.1a1.69,1.69,0,1,1,0-3.37,1.42,1.42,0,0,1,.75.19v-.42a1.68,1.68,0,0,0-.82-.19Zm-54.43-23.92a4.73,4.73,0,0,1-.51,1,2.06,2.06,0,0,0,1-1.77,2.26,2.26,0,0,0,0-.52c-.14.34-.29.66-.41,1a1.18,1.18,0,0,1-.12.28Zm19.63,15.07a2.09,2.09,0,0,0-2.08,2.11v0a2.05,2.05,0,0,0,2.08,2.05,2.09,2.09,0,0,0,2.1-2.07,2.11,2.11,0,0,0-2.1-2.11m0,3.78a1.69,1.69,0,0,1-1.68-1.67v0a1.69,1.69,0,1,1,1.68,1.7m-21.1-5.68a2.11,2.11,0,1,0,2.1,2.11,2.1,2.1,0,0,0-2.1-2.11m0,3.85h0a1.69,1.69,0,1,1,1.7-1.67,1.67,1.67,0,0,1-1.71,1.6Zm5,39.09a2.08,2.08,0,0,0-2.06,2.09,1.21,1.21,0,0,0,.07.5h.42a1.43,1.43,0,0,1-.09-.5h0a1.69,1.69,0,0,1,3.38,0,1.89,1.89,0,0,1-.08.53h.41a2,2,0,0,0,.07-.54,2.08,2.08,0,0,0-2.1-2.08Z" style="fill: #fff"/>
    <path d="M162.45,139.65c-3.22.42-6.39,1.06-9.56,1.72-1.58.32-3.14.7-4.72,1a17,17,0,0,1-2.24.3,18.11,18.11,0,0,1-2.33,0v-.12a9.23,9.23,0,0,0,2.45-.34c.77-.17,1.52-.36,2.29-.57,1.52-.42,3-.8,4.61-1.12a65.36,65.36,0,0,1,9.47-1.07c.15,0,.17.25,0,.19" style="fill: #263238"/>
    <path d="M170.1,142.79c-2.63-.14-5.24-.25-7.86-.25-1.31,0-2.61-.1-3.92-.1h-2a16,16,0,0,0-1.95-.08v-.12c.67-.05,1.36-.24,2.06-.24l1.87-.11h3.94a71.23,71.23,0,0,1,7.84.76c.13,0,.13.23,0,.14" style="fill: #263238"/>
    <path d="M197.35,190.36v0a5.93,5.93,0,1,1-8.38,0,5.93,5.93,0,0,1,8.38,0" style="fill: #263238"/>
    <path d="M187.45,193a5.92,5.92,0,1,1,4.18,7.28,5.91,5.91,0,0,1-4.18-7.28.06.06,0,0,0,0,0" style="fill: #263238"/>
    <path d="M136.93,110.11c-6.67,18.88-19,42.07-19.23,43.85s32.33,24,37.12,28.87c4,4-21.93,35.86-26.52,33.24-10.66-6.06-36.86-28.86-47.85-49.62-6.68-12.63,27.79-51.89,46.71-68.56,7.84-7,18-11.19,9.77,12.22" style="fill: #ad6359"/>
    <path d="M128.25,216c7.34,2.81,17.77,3.57,32.09-5.44,0,0,18.91,16.17,24.32,11.34,4.89-4.32-13.85-18.14-13.85-18.14s19.31,18.73,24.25,14.7c6.57-5.33-15.35-21.27-15.35-21.27s20.08,21.84,25.47,15.8S188.89,192,188.89,192s20,16.59,23.43,11c3.78-6.22-21.54-22.4-28-25.27-4.34-1.91-14.43-2.7-20.3-2.61-10.54.12-26.6,1.09-26.6,1.09s-10.85,39.22-9.12,39.85" style="fill: #ad6359"/>
    <path d="M182.66,187.09c2.44,1.89,3.78,3.2,6.23,5.06S200,201,204.56,206.57c.2.27-5.09-9.69-21.83-19.54-.06,0-.13,0-.07.06" style="fill: #263238"/>
    <path d="M174.66,195.1C177.81,197.43,190,207,193,209.52c.2.19.38.17.2-.07A66.59,66.59,0,0,0,174.72,195Z" style="fill: #263238"/>
    <path d="M167.19,201.54C172.9,206,176.46,209.08,181,213c.26.25.46.22.26,0a49.17,49.17,0,0,0-14-11.6c-.11-.07-.21.1-.16.11" style="fill: #263238"/>
    <path d="M132.82,92.66c5.79-3.48,11.18-1.43,8.84,8.48-3.06,13-13.46,32.09-13.46,32.09L95.62,122.91s17.89-18.73,37.2-30.25" style="fill: #e8bc2c"/>
    <path d="M97.32,121.25a2.11,2.11,0,1,0,3-3c-.1.11-.21.19-.29.29a1.79,1.79,0,0,1,.27.28,1.69,1.69,0,1,1-2.67,2.07Zm36.52-23.64a2.1,2.1,0,0,0-2,2.12v0a2.11,2.11,0,1,0,2.09-2.12Zm0,3.78a1.27,1.27,0,1,1,.06,0ZM133.1,114a4.84,4.84,0,1,0,.06,0Zm0,3.77a1.2,1.2,0,1,1,.06,0Zm-24.5-3.52a2.11,2.11,0,1,0,2.11-2.11,2.11,2.11,0,0,0-2.11,2.11m2.05,1.62A1.68,1.68,0,0,1,109,114.2h0a1.69,1.69,0,1,1,1.69,1.68Zm10.61-10.34h0a2.09,2.09,0,0,0-2,2.15h0a2.11,2.11,0,1,0,2.11-2.1Zm0,3.78a1.2,1.2,0,1,1,0,.06Zm0,12.28h0a644.51,644.51,0,1,1,.06.06Zm0,3.85h0a1.69,1.69,0,1,1,1.7-1.67,1.69,1.69,0,0,1-1.7,1.67Z" style="fill: #fff"/>
    <path d="M128.64,127.89c-5-1.51-20.12-6.18-27.49-9,0,0,.08-.21.08-.21a227.18,227.18,0,0,1,27.51,8.87c.09,0,0,.33-.1.31" style="fill: #263238"/>
    <path d="M135.67,117.35c-.95,2.57-2,5.1-3.13,7.58.3-.42.56-.85.83-1.28l.78-1.27c.25-.43.47-.88.74-1.3.07-.08.07,0,.07,0a16.93,16.93,0,0,1-1.4,2.79c-.46.67-.93,1.31-1.39,1.95-1.16,2.54-2.22,5.13-3.62,7.58m0,0a.27.27,0,0,1-.36.14c-.5-.21-1-.4-1.51-.65-.11-.06,0-.21.09-.21.47.08.92.21,1.39.32,1-2.67,2.28-5.25,3.46-7.83s2.53-5.26,3.94-7.82Z" style="fill: #263238"/>
    <path d="M140.16,71.78l15.74,7.76L154.63,90.7l-.09.8s.76,10.83-2.29,11.16c-6,.68-11.26-7.84-11.77-9.77-.13-.56-.32-21.11-.32-21.11" style="fill: #ad6359"/>
    <path d="M140.16,71.86l15.74,7.78L154.63,90.8a22.76,22.76,0,0,1-14.4-11.33c0-4.15-.07-7.61-.07-7.61" style="fill: #263238"/>
    <path d="M147.13,40.28c-8.72,1.92-16.75,9.61-11.51,28.71S154,86.45,157.79,85.82c4.21-.67,15.56-4.86,12.33-24.39s-14.27-23.06-23-21.15" style="fill: #ad6359"/>
    <path d="M166.85,57.23a.77.77,0,0,0,.05-1.07,2.64,2.64,0,0,0-1.7-.74,1.81,1.81,0,0,0-1.68.59.73.73,0,0,0,.09.87,2.3,2.3,0,0,0,1.39.4,10.88,10.88,0,0,0,1.4.14.79.79,0,0,0,.45-.19" style="fill: #263238"/>
    <path d="M152.63,58.79a.75.75,0,0,1-.27-1,2.63,2.63,0,0,1,1.51-1.08,1.78,1.78,0,0,1,1.76.24.72.72,0,0,1,.09.85,2.18,2.18,0,0,1-1.25.68,10.35,10.35,0,0,1-1.3.42.78.78,0,0,1-.54-.08" style="fill: #263238"/>
    <path d="M155.32,67.27v-.08c1.16-.6,1.13-2.16.91-3.49,0-.06.09-.14.09-.14.42,1.23.46,3.31-1,3.71" style="fill: #263238"/>
    <path d="M155.18,66.67c-2,.11-2.42-4.23-.24-4.35,1.83-.1,2.26,4.24.24,4.35" style="fill: #263238"/>
    <path d="M154.37,62.83c0,.86-.46,1.65-1.4,1.61a1.55,1.55,0,0,1-1.39-1.7c.43.4.95.81,1.39.72s.79-.56,1.15-.83c.14-.12.29.11.25.2" style="fill: #263238"/>
    <path d="M166.05,66V66c-1.26-.35-1.62-1.83-1.62-3.23a.11.11,0,0,0-.11-.11c-.15,1.28.22,3.32,1.73,3.41" style="fill: #263238"/>
    <path d="M166.08,65.4c2-.32,1.46-4.63-.69-4.3-1.8.3-1.31,4.62.69,4.3" style="fill: #263238"/>
    <path d="M166.15,61.55c.23.81.82,1.47,1.63,1.22s.94-1.15.81-2h-.07c-.25.49-.61,1-1,1s-.79-.35-1.17-.53c-.1-.09-.24.16-.18.26" style="fill: #263238"/>
    <path d="M157.14,74A.13.13,0,0,0,157,74a1.4,1.4,0,0,0,.9,1.4,1.83,1.83,0,0,0,1.8-.5h0a3.54,3.54,0,0,1-1.48.13c-.48-.11-.74-.58-1-.93a.12.12,0,0,0-.05-.15" style="fill: #263238"/>
    <path d="M165.06,68.85a68.27,68.27,0,0,0-4.05-13,.12.12,0,0,0-.16-.07.12.12,0,0,0-.08.15C161.58,60,163.13,64,164,68.15a8.2,8.2,0,0,0-2.2-.28c-.14,0,.79,3.13.79,3.39a6.81,6.81,0,0,1-4.18-.76c-.13,0-.21.07-.13.15a5.11,5.11,0,0,0,5.11,1c-.1-.94-.57-2.92-.57-2.92.39.13,2.41.63,2.23.1" style="fill: #263238"/>
    <path d="M158.19,70.55a5.09,5.09,0,0,0-.33,1.2c-.13.77,0,1.65,1,1.83a2.27,2.27,0,0,0,1.4-.2A5,5,0,0,0,162,71.71a6.4,6.4,0,0,1-3.85-1.16" style="fill: #263238"/>
    <path d="M157.91,71.75c-.12.77,0,1.65,1,1.83a2.23,2.23,0,0,0,1.39-.2,2.28,2.28,0,0,0-2.36-1.63" style="fill: #ff9abb"/>
    <path d="M134.72,45.89c7.12-11.4,21.24-7.21,21.24-7.21,11.29,2.12,12.68,16.07,12.68,16.07A21.67,21.67,0,0,1,157,43.59c-.58,12.88-16.15,16.49-16.15,16.49s-.46,8.52-4.18,8.27c-2.54-.16-9.08-11.06-2-22.46" style="fill: #263238"/>
    <path d="M157,42.63a18.18,18.18,0,0,1-3.72,10.7,12,12,0,0,1-.93,1.08l-.48.53-.53.47c-.36.31-.71.64-1.07.94l-1.17.83-.59.42-.64.35-1.26.71c-.86.46-1.77.81-2.65,1.26.91-.25,1.86-.53,2.79-.85l1.4-.62.68-.3.64-.38c.42-.27.87-.5,1.27-.8s.78-.62,1.18-.93l.57-.49L153,55a13.25,13.25,0,0,0,1-1.13,14.39,14.39,0,0,0,2.66-5.35,13.84,13.84,0,0,0,.35-5.9Z" style="fill: #263238"/>
    <path d="M153.66,71.51a6.51,6.51,0,1,1,1.62-.22,6.87,6.87,0,0,1-1.62.22m-.34-12.29a6.49,6.49,0,0,0-1.39.21,5.73,5.73,0,1,0,1.39-.21" style="fill: #e8bc2c"/>
    <path d="M168.59,69.39c-2.58.07-4.88-2.45-5.37-5.86a7.93,7.93,0,0,1,.72-4.77,4.16,4.16,0,0,1,7-1.08,7.84,7.84,0,0,1,2,4.37c.52,3.6-1.24,6.85-3.92,7.24Zm1.73-11.12a3.64,3.64,0,0,0-2.71-1.13h-.33a3.53,3.53,0,0,0-2.56,2,7,7,0,0,0-.62,4.18c.44,3.13,2.59,5.42,4.8,5.1s3.62-3.12,3.18-6.24a7,7,0,0,0-1.8-3.88Z" style="fill: #e8bc2c"/>
    <path d="M163.36,63.09l.55-.7c-1.84-1.47-4,0-4.84,1l.66.58c.08-.08,2-2.16,3.63-.83" style="fill: #e8bc2c"/>
    <path d="M133.49,65.93c1.4-.43,10.55-1,14-1.13v-.88c-.5,0-12.27.59-14.15,1.18s-3.14,4-3.28,4.4l.84.3c.33-1,1.24-3.44,2.63-3.87" style="fill: #e8bc2c"/>
    <path d="M140.47,72.66s0,.08,0,.13a3.36,3.36,0,0,1-4.29,2c-3.39-1-7.32-9.66-4.64-11.42S139,67.47,139,67.47Z" style="fill: #ad6359"/>
    <path d="M138.73,72.84h0c.09.17-.27.36-.39.17a10.15,10.15,0,0,0-1.22-1.75,2.06,2.06,0,0,0-2.31-.54c-.09,0-.09-.11-.09-.11a1.73,1.73,0,0,1,.21-.17,1.85,1.85,0,0,1,2.58.45A8.42,8.42,0,0,0,132.74,66c-.07,0,0-.09,0-.09,3.13,0,5.74,4,6,7" style="fill: #263238"/>
    <path d="M137,73a.87.87,0,0,1,1.09.52.85.85,0,1,1-1.61.57A.89.89,0,0,1,137,73" style="fill: #455a64"/>
    <path d="M137.13,73.45a.4.4,0,0,1,.55.17h0a.41.41,0,0,1-.25.52h0a.37.37,0,0,1-.29-.69" style="fill: #263238"/>
    <path d="M134.89,73.12a.6.6,0,1,1,.77.36.6.6,0,0,1-.77-.36Z" style="fill: #455a64"/>
    <path d="M684.9,478.16c0,3.34-9.51,3.63-13.32,1.21a91.55,91.55,0,0,1-8.61-8.1c-8.92-9.06-21.21-22.25-21.21-22.25l-10,3.72-48.61,12.55L566.6,412s23.72-8.17,46.13-15.35c3.45-1.12,6.85-2.18,10.16-3.23l.61-.19c15.06-4.64,27.52-8.08,28.71-7.12,3.19,2.54,32.67,88.61,32.69,92" style="fill: #f7a9a0"/>
    <path d="M684.9,478.08c0,3.35-9.51,3.64-13.32,1.24a90.58,90.58,0,0,1-8.6-8.14c-8.94-9-21.24-22.23-21.24-22.23l-10,3.72-1.62.41L612,396.86l.72-.23,10.17-3.2a6.21,6.21,0,0,1,.61-.2c15.06-4.64,27.52-8.1,28.71-7.13,3.23,2.57,32.71,88.64,32.73,92" style="fill: #ebebeb"/>
    <path d="M685.67,479.36c0-3.4-28.9-91.41-32.09-94.05-1.2-1-14.28,2.43-30,7.07l-.49.16,18,57,1-.33s26.14,28.73,30,31.27,13.54,2.33,13.55-1.09" style="fill: #e8bc2c"/>
    <path d="M681.93,479.56c-5.26-14.78-25-74.63-29-89.58,0-.11,0-.14.1,0,5.58,14.47,24.76,74.48,29.19,89.47,0,.27-.2.36-.31.11" style="fill: #263238"/>
    <path d="M643.36,455.83c-3-5.47-4.45-12.9-1.76-18.74.1-.22.42,0,.42.14a87,87,0,0,0,2.08,18.34.39.39,0,0,1-.74.26" style="fill: #263238"/>
    <path d="M647.28,459.15c-3-5.47-4.45-12.9-1.76-18.74.1-.22.42-.07.44.14A85.08,85.08,0,0,0,648,458.89a.39.39,0,0,1-.24.5.39.39,0,0,1-.5-.24" style="fill: #263238"/>
    <path d="M651.22,462.55c-3-5.49-4.47-12.93-1.77-18.74.11-.24.43-.09.43.12a85.17,85.17,0,0,0,2.06,18.35.38.38,0,0,1-.3.46.39.39,0,0,1-.42-.19" style="fill: #263238"/>
    <path d="M640.58,462.21c1.86-5.19,1.4-11,1.6-16.4a.76.76,0,0,0-.78-.73.93.93,0,0,0-.24.05.17.17,0,0,0-.24,0l0,0a32.64,32.64,0,0,0-10.41,13.38c-1.25,3.11-1.27,7.84,2.65,9.1,3.7,1.13,6.37-2.37,7.45-5.4m-4.18,3c-6.07,3.14-5-4.84-3.95-7.1a31.72,31.72,0,0,1,2.33-4.19,95.6,95.6,0,0,1,5.9-7.95c-.26,2.65-.29,5.28-.46,7.95-.22,3.17-.5,9.56-3.85,11.29Z" style="fill: #263238"/>
    <path d="M625.6,428.5c-3.18,2.61-1.4,7,.89,9.44a32.63,32.63,0,0,0,14.61,8.61.16.16,0,0,0,.2-.12,0,0,0,0,0,0,0,.78.78,0,0,0,.75-.81,1.55,1.55,0,0,0,0-.21c-2.18-4.94-3.89-10.51-7.52-14.65-2.12-2.41-5.9-4.69-8.9-2.23m11.58,10.06c1.13,2.4,2.13,4.85,3.35,7.23-2.79-1.69-5.75-3.25-8.37-5.22a37.61,37.61,0,0,1-3.72-3c-1.77-1.73-5.73-8.74,1.06-8.07,3.72.38,6.34,6.22,7.68,9.1" style="fill: #263238"/>
    <g style="opacity: 0.10000599920749664;isolation: isolate">
      <g style="clip-path: url(#clip-path-4)">
        <path d="M685.66,479.36c0,3.42-9.77,3.61-13.58,1.09s-30-31.27-30-31.27l-1,.33-14.25-45,34.16-.75c9.6,26.71,24.65,73.17,24.62,75.63"/>
      </g>
    </g>
    <path d="M622.42,461.67s-104.94,16.67-142.49,7.24c-18-4.52-29.5-28.83-19.54-46.16,9.31-16.18,60.34-29.75,75.1-38.63,4.65-2.79,5-15,5-15l37.09,2S589.32,393,583,402.81a4.2,4.2,0,0,1-.37.49l17.14-5.22Z" style="fill: #455a64"/>
    <path d="M601.46,432.11c-3.52-9.22-7.44-18.28-11-27.49-.07-.17-.35-.1-.28.08,3.34,9.26,6.38,18.62,9.88,27.82s7.37,18.35,11.06,27.5c.08.24.47.14.37-.11-3.33-9.24-6.51-18.55-10-27.8" style="fill: #263238"/>
    <path d="M582.9,403.73c-2.65,1.3-5.21,2.79-7.8,4.3s-5.11,2.79-7.72,4.11c-5.25,2.67-10.62,5.12-16,7.44a268,268,0,0,1-33.58,11.82c-6.38,1.76-12.82,3.46-19.34,4.62-.14,0-.08.25,0,.22,4.74-.79,9.48-1.58,14.19-2.57L505,437.86a.11.11,0,0,0,0,.15.11.11,0,0,0,.15.05l8.38-4.19a.26.26,0,0,0,.11-.34v0L516,433c5.82-1.4,11.61-3,17.3-4.85A210.32,210.32,0,0,0,566,414.32c2.95-1.58,5.88-3.18,8.77-4.86a75.67,75.67,0,0,0,8.37-5.36c.22-.18.06-.48-.22-.37" style="fill: #263238"/>
    <path d="M723.7,493.51c0,3.34-9.52,3.64-13.33,1.23a92.39,92.39,0,0,1-8.58-8.21c-8.92-9-21.23-22.23-21.23-22.23l-10,3.72-47.2,12.63-17.93-53.28s23.72-8.17,46.13-15.35l10.16-3.21.62-.2c15-4.64,27.51-8.08,28.7-7.11,3.17,2.56,32.64,88.63,32.67,92" style="fill: #f7a9a0"/>
    <path d="M723.7,493.51c0,3.34-9.52,3.64-13.33,1.23a93.66,93.66,0,0,1-8.58-8.21c-8.92-9-21.23-22.24-21.23-22.24l-10,3.73-1.33.36-19-56,1.28-.41,10.16-3.21c.21-.07.42-.13.62-.21,15.07-4.64,27.5-8.07,28.7-7.11,3.17,2.61,32.64,88.68,32.67,92.06" style="fill: #ebebeb"/>
    <path d="M724.51,494.29c0-3.42-30.15-91-33.42-93.6-1.22-1-14.24,2.63-29.85,7.49l-.48.15,18.8,56.73,1-.35s26.52,28.37,30.42,30.85,13.61,2.14,13.57-1.27" style="fill: #e8bc2c"/>
    <path d="M720.77,494.47c-5.45-14.63-26-74.21-30.27-89.1,0-.12,0-.15.1,0,5.7,14.39,25.78,74.13,30.42,89.05.1.28-.13.36-.25.05" style="fill: #263238"/>
    <path d="M681.89,471.3c-3.08-5.45-4.63-12.86-2-18.72.09-.22.41-.08.43.13A84.94,84.94,0,0,0,682.62,471a.39.39,0,0,1-.73.28" style="fill: #263238"/>
    <path d="M685.85,474.62c-3.08-5.43-4.63-12.86-2-18.72.11-.22.43-.08.43.13a86.94,86.94,0,0,0,2.32,18.31.39.39,0,0,1-.28.48.4.4,0,0,1-.45-.2" style="fill: #263238"/>
    <path d="M689.83,478c-3.08-5.44-4.63-12.85-2-18.73.09-.22.42-.07.43.14a85.55,85.55,0,0,0,2.38,18.31.42.42,0,0,1-.25.54.42.42,0,0,1-.54-.26" style="fill: #263238"/>
    <path d="M679.2,477.76c1.78-5.21,1.24-11,1.39-16.41a.76.76,0,0,0-.81-.72.54.54,0,0,0-.22.05.16.16,0,0,0-.24,0s0,0,0,0a32.73,32.73,0,0,0-10.22,13.52c-1.2,3.12-1.16,7.87,2.79,9.07,3.67,1.07,6.29-2.47,7.34-5.51M675,480.85c-6,3.21-5-4.78-4-7.06a38.22,38.22,0,0,1,2.26-4.18c1.73-2.79,3.83-5.39,5.81-8-.22,2.65-.22,5.3-.35,8-.13,3.14-.33,9.53-3.66,11.31Z" style="fill: #263238"/>
    <path d="M663.75,444.26c-3.14,2.66-1.33,7,1,9.42a32.76,32.76,0,0,0,14.72,8.38.16.16,0,0,0,.2-.09.19.19,0,0,0,0-.08.76.76,0,0,0,.74-.77.85.85,0,0,0,0-.23c-2.25-4.93-4-10.47-7.72-14.56-2.16-2.34-6-4.58-8.93-2.07m11.72,9.9c1.16,2.39,2.21,4.83,3.45,7.17a95.77,95.77,0,0,1-8.49-5.09,35.88,35.88,0,0,1-3.75-3c-1.79-1.7-5.85-8.66,1-8.08,3.75.32,6.46,6.13,7.84,9" style="fill: #263238"/>
    <path d="M553.24,369.71,617,373.08s11.16,35.28,4.87,45.12-65.91,20.44-65.91,20.44l82.68-25.12,22.61,63.59s-99.44,14.68-151,5.84c-19.39-3.32-29.88-29.63-17.13-48.44,13.43-19.77,59-45,59-45Z" style="fill: #455a64"/>
    <path d="M636.52,413.18c-25.43,9.58-51.06,18.67-77.15,26.33l-10.88,3.14c-3.77,1.06-7.53,2.33-11.36,3.14-.19,0-.12.33.07.28,3.32-1,6.75-1.64,10.11-2.49s6.59-1.69,9.87-2.58l4.19-1.19-.88.52c-1.33.77-2.65,1.52-4,2.32-2.69,1.63-5.23,3.63-8,5.05-.17.08,0,.36.14.26,2.69-1.64,5.68-2.79,8.44-4.35,1.4-.75,2.66-1.54,4-2.34a25.64,25.64,0,0,0,3.5-2.33c4.19-1.18,8.29-2.38,12.42-3.63q19.55-6,38.63-13.06,10.68-4,21.17-8.38c.42-.19.18-.83-.2-.69" style="fill: #263238"/>
    <path d="M641.7,447.13c-3.5-9.24-7.42-18.3-11-27.49-.07-.17-.35-.1-.28.08,3.34,9.25,6.36,18.61,9.87,27.8s7.38,18.3,11.09,27.46c.1.22.48.13.39-.11-3.37-9.27-6.57-18.55-10.06-27.74" style="fill: #263238"/>
    <path d="M550.82,390.08a172.94,172.94,0,0,0-21,12q-10.06,6.45-19.54,13.81-4.72,3.73-9.19,7.8a65.28,65.28,0,0,0-7.91,8.38,31,31,0,0,0-6.6,19.05,32.19,32.19,0,0,0,1.8,10.78,38.85,38.85,0,0,0,5.27,9.52c.08.11.25,0,.17-.15a25,25,0,0,1-4.38-9.06,32.84,32.84,0,0,1,4.45-27.87c4.35-6.22,10.45-11.16,16.27-16a232.15,232.15,0,0,1,18.73-13.86c3.62-2.41,7.32-4.76,11-7.05s7.5-4.49,11.17-6.91a.23.23,0,0,0,.07-.32.23.23,0,0,0-.32-.08" style="fill: #263238"/>
    <path d="M569.14,393.9a74.79,74.79,0,0,0-16-4.18c-5.39-1-10.8-1.64-16.24-2.08-.16,0-.16.19,0,.22,5.48.87,11,1.94,16.39,3.14s10.5,2.67,15.81,3.46a.3.3,0,0,0,.09-.56" style="fill: #263238"/>
    <path d="M612.37,397.62A81.68,81.68,0,0,1,602.29,396a16.8,16.8,0,0,1-7.77-3.09c-4.28-3.69-5.72-9.77-6.31-15.15,0-.13-.23-.11-.22,0,.36,5.85.18,12.56,5,16.74a15.29,15.29,0,0,0,8.45,3.28,52.35,52.35,0,0,0,10.91.07c.13,0,.13-.23,0-.23" style="fill: #263238"/>
    <path d="M618.75,407.26a67.92,67.92,0,0,0-1.12-10.06q-.84-5.11-2.14-10.15c-.94-3.81-2.09-7.56-3.32-11.3,0-.13-.25-.08-.21,0,1.68,6.29,3.17,12.64,4.34,19.05.58,3.16,1.08,6.36,1.48,9.56a19.47,19.47,0,0,1-.57,9.25,16.22,16.22,0,0,1-5.58,7.58h0a16.77,16.77,0,0,0,7.12-13.93" style="fill: #263238"/>
    <path d="M628.35,426.88c-4.37.82-8.68,2-13,3.1s-8.65,2.16-13,3.28c-8.62,2.23-17.22,4.57-25.81,6.9q-7.33,2.1-14.61,4.19c-.14,0-.09.26,0,.22q26-6.18,51.75-13.32c4.89-1.4,9.77-2.57,14.6-4.19.15-.07.12-.21,0-.18" style="fill: #263238"/>
    <path d="M577.23,288.38c-19.94-2-49.76-10.45-63.41-19.79-5.89-4-21.52-30-27.61-45.5-2.28-5.78,32.09-14.82,35.29-8.82,2.15,4.07,9.53,29.83,12.11,32.39,4.74,4.71,31,17.82,46.2,28.25,8.47,5.75,9.81,14.64-2.58,13.47" style="fill: #f7a9a0"/>
    <path d="M558.25,259.83l-20.66,26.28s36.15,6.74,47.34,5.7c12.56-1.14,9.26-7.34.07-15.1s-26.75-16.88-26.75-16.88" style="fill: #e8bc2c"/>
    <g style="opacity: 0.10000599920749664;isolation: isolate">
      <g style="clip-path: url(#clip-path-5)">
        <path d="M558.25,259.83l-20.66,26.28s36.15,6.74,47.34,5.7c12.56-1.14,9.26-7.34.07-15.1s-26.75-16.88-26.75-16.88"/>
      </g>
    </g>
    <path d="M562.24,264.49c-2.17,3.71-10.28,13.89-11.61,15.59-.69.89-3.62,4.34-4.31,5.24-.1.12-.25,0-.16-.16,1.31-1.71,2.45-3.56,3.75-5.29s9.17-12.39,12.19-15.48a.09.09,0,1,1,.14.1" style="fill: #263238"/>
    <path d="M414.54,193.09c-3.84-1.65-7.3-3.8-6.6-5.59v-.07c.83-1.75,4.78-.72,8.62.93Z" style="fill: #263238"/>
    <path d="M431.57,223.55c-4-1.72-15.35-22.72-18.26-31a4.3,4.3,0,0,1,2-4.76c7.92-3.51,31.1-9.77,35.12-8.07,2.79,1.17,11.26,8.37,20.47,14.9,12,8.66,179.16,85.57,180.56,87.39s-.14,6.84-1.29,9.49-3.74,7.28-6,7.52S471,230.89,456.47,228.14c-11.11-2.16-22.17-3.42-24.9-4.59" style="fill: #37474f"/>
    <path d="M431.55,223.53a2.85,2.85,0,0,1-1.11-.83,114.36,114.36,0,0,1,7.34-25.12,74.89,74.89,0,0,1,10.72-18.14,3.75,3.75,0,0,1,1.88.22,13.68,13.68,0,0,1,1.72,1c-4.28,4.95-14.05,18.46-18.47,43.58a10.5,10.5,0,0,1-2.08-.66" style="fill: #a6a6a6"/>
    <path d="M516.45,229.86,513.37,237a1,1,0,0,1-1.33.53l-53.37-22.94a1,1,0,0,1-.54-1.34l3.08-7.15a1,1,0,0,1,1.34-.54l53.37,22.94a1,1,0,0,1,.53,1.34" style="fill: #263238"/>
    <path d="M498,223.67l-1.79,4.17a.6.6,0,0,1-.79.31l-34-14.6a.59.59,0,0,1-.31-.79L463,208.6a.59.59,0,0,1,.78-.32l34,14.6a.61.61,0,0,1,.31.79" style="fill: #a6a6a6"/>
    <rect x="471.58" y="215.19" width="5.72" height="1.69" transform="translate(88.5 566.5) rotate(-66.72)" style="fill: #263238"/>
    <path d="M622.54,388.64l-90.84-3.17c0,1.79,7.56-71,32.64-113,1.7-2.87,16.09-5.51,22.18.51,26.7,26.37,36,116.85,36,115.69" style="fill: #e8bc2c"/>
    <g style="opacity: 0.10000599920749664;isolation: isolate">
      <g style="clip-path: url(#clip-path-6)">
        <path d="M622,384.76l-89.79-3.12a9.21,9.21,0,0,1,.12-1.1l89.55,3.14q.06.57.12,1.08m-1-7.63-87.69-3.07a5.61,5.61,0,0,1-.17,1.1l88,3.07c-.06-.36-.1-.72-.16-1.1m-1-6.54-85.68-3-.17,1.1,86,3ZM618.94,364l-83.47-2.92c-.07.37-.13.73-.2,1.08l83.85,2.93c0-.35-.11-.73-.18-1.09m-1.13-6.54-81.12-2.79c-.07.37-.15.74-.23,1.1L618,358.6c0-.36-.12-.73-.18-1.1m-1.26-6.56L538,348.15c-.08.37-.15.72-.22,1.1l79,2.79c-.11-.36-.11-.73-.23-1.1m-1.39-6.56-75.8-2.64c-.1.36-.17.71-.25,1.08l76.3,2.66Zm-1.4-6.57-72.85-2.54c-.1.37-.2.74-.28,1.1L614,338.92c0-.3-.13-.72-.23-1.11Zm-1.56-6.55-69.66-2.41c-.1.36-.2.72-.28,1.09l70.22,2.41a4.57,4.57,0,0,0-.27-1.09Zm-1.67-6.6-66.25-2.3-.29,1.09,66.83,2.33c-.1-.36-.21-.73-.29-1.12m-1.87-6.57-62.49-2.18c-.11.37-.24.74-.34,1.09L609,319.21c-.1-.37-.21-.73-.33-1.11Zm-2-6.57-58.44-2c-.11.36-.24.72-.36,1.08L607,312.63a10.68,10.68,0,0,0-.35-1.1Zm-2.24-6.58-54-1.91c-.12.36-.25.73-.36,1.09l54.76,1.93c-.13-.37-.27-.73-.39-1.09Zm-2.56-6.61-49-1.72c-.16.38-.3.73-.42,1.09l49.91,1.75c-.14-.37-.3-.73-.46-1.11Zm-2.9-6.61-43.52-1.53c-.17.35-.31.73-.48,1.09l44.5,1.55Zm-3.45-6.63-37.18-1.3-.51,1.07,38.31,1.4a8,8,0,0,0-.62-1.16Zm-4.27-6.66-29.68-1c-.19.35-.39.7-.57,1.06l31,1.09ZM585,271.7,566.14,271a5.31,5.31,0,0,0-1.55,1.05l21.86.78a7.68,7.68,0,0,0-1.45-1.14Z"/>
      </g>
    </g>
    <path d="M568,283.85c4.19,1.39,13.66-2.8,17.32-8.71.24-.41-.15-4.82-.39-10.2-.13-3.27-.2-6.9,0-10.23,0-.68-21.13,3.93-21.13,3.93a53.17,53.17,0,0,1,1.31,12.88,6.67,6.67,0,0,1-.21,1.4.81.81,0,0,0,0,.22c-.62,2.54-1.41,9.18,3.1,10.71" style="fill: #f7a9a0"/>
    <path d="M564.83,272.88v.23a15.08,15.08,0,0,0,2.13.23c12.28.39,16.36-14.81,17.19-18.66-3.72.32-20.39,4-20.39,4a52.8,52.8,0,0,1,1.33,12.9,6.9,6.9,0,0,1-.26,1.34" style="fill: #263238"/>
    <path d="M594.19,235.06c-.58,7.72-11.93,26.28-18.56,28.82-9.63,3.71-21.53-.19-23.73-10.87-2.1-10.36,13.14-34.26,20.18-36.19,10.41-2.83,22.93,6.83,22.11,18.24" style="fill: #f7a9a0"/>
    <path d="M570.09,239.54s.07.11,0,.17c-.8,1.23-1.51,2.79-.62,3.88h0c-1.3-1-.33-3.07.62-4.05" style="fill: #263238"/>
    <path d="M572,238.86c2.11,1.06-.18,5.2-2.13,4.18s.36-5.09,2.13-4.18" style="fill: #263238"/>
    <path d="M562.55,235.58h-.15c-.67,1.29-1.66,2.68-3.06,2.47h0c1.51.72,2.79-1.12,3.21-2.47" style="fill: #263238"/>
    <path d="M562.15,233.61c-2-1.3-4.43,2.79-2.6,3.95s4.26-2.86,2.6-3.95" style="fill: #263238"/>
    <path d="M574.68,237.87c-.48-.47-.85-1-1.29-1.4a3.22,3.22,0,0,1-1-1.73,1,1,0,0,1,.73-1,2.51,2.51,0,0,1,2.31,1,3.63,3.63,0,0,1,1.06,2.4,1.06,1.06,0,0,1-1.78.73" style="fill: #263238"/>
    <path d="M561.7,230.64a18.53,18.53,0,0,0,1.94.53,3.08,3.08,0,0,0,2,.12,1,1,0,0,0,.54-1.09,2.46,2.46,0,0,0-1.94-1.6,3.55,3.55,0,0,0-2.62.14,1.06,1.06,0,0,0-.42,1.44,1.09,1.09,0,0,0,.49.46" style="fill: #263238"/>
    <path d="M564.69,252.1a2.28,2.28,0,0,1-1.5.17,4.16,4.16,0,0,1-1.2-1.09m-.09,0a2,2,0,0,0,1.24,1.6,1.59,1.59,0,0,0,1.64-.58s0-.18-.09-.1Z" style="fill: #263238"/>
    <path d="M565.47,247.45a5.05,5.05,0,0,1-4,.34,5.94,5.94,0,0,1-1.61-.81,1.31,1.31,0,0,1-.28-.2l-.26-.19a.37.37,0,0,1-.1-.44l.1-.12v-.11c.51-1,1.39-2.46,1.39-2.46-.46,0-2.79-.21-2.44-.71a75.09,75.09,0,0,1,9-12.27c.09-.12.3,0,.2.17-2.35,4.06-5.41,7.69-7.85,11.74a8.3,8.3,0,0,1,2.41.51c.11.11-1.84,2.79-2,3.23a7,7,0,0,0,5.3,1.1c.22,0,.26.17.14.22" style="fill: #263238"/>
    <path d="M560.72,246.81a6,6,0,0,0,1.19,2.79,2.68,2.68,0,0,0,1.4.87c1.17.3,1.71-.63,2-1.54a6.15,6.15,0,0,0,.21-1.48,7.72,7.72,0,0,1-4.78-.64" style="fill: #263238"/>
    <path d="M561.91,249.56a2.6,2.6,0,0,0,1.4.86c1.17.31,1.71-.62,2-1.53a2.79,2.79,0,0,0-3.38.67" style="fill: #ff99ba"/>
    <path d="M584.18,242.92c-.14-4.64,4.44-10.93,2.92-13.47-3.28-5.47-15-.5-21.4-2.44s-7-6.48-4.36-11.16,7.95-6.75,15.22-5.59a27.32,27.32,0,0,1,16,9.42s-.78-3,0-3.58,3.11,2.79,3.71,4.06a9.41,9.41,0,0,1,.6,3.44,10.38,10.38,0,0,1,3,.59,6.14,6.14,0,0,1,3.17,2.79c0,.41-2.35,0-4-.4,0,0,1.74,4.81.64,8.13s-11.16,17.61-12.56,17.4c-1.67-.35-3-7.3-3-9.19" style="fill: #263238"/>
    <path d="M598.53,225.91h-.1a11.08,11.08,0,0,1,1.88,5.76,13.75,13.75,0,0,1-2,6.91c-2.33,4.1-5.71,7.42-8.82,10.89-.1.12.07.27.17.17a48.48,48.48,0,0,0,9.52-11.73c2-3.71,2.51-8.61-.6-12" style="fill: #263238"/>
    <path d="M587.84,227.9a15.8,15.8,0,0,0-5.73-1.39,22.49,22.49,0,0,0-5.58.89,22.26,22.26,0,0,1-12.4-.38s-.07,0,0,.09a19.72,19.72,0,0,0,11.34,1,51.86,51.86,0,0,1,5.79-1.11,21.15,21.15,0,0,1,6.45,1.2.17.17,0,0,0,.16-.19.17.17,0,0,0,0-.1" style="fill: #263238"/>
    <path d="M589.32,216.71a30.83,30.83,0,0,0-7.14-5.06,24.33,24.33,0,0,0-7.92-2.8c-4.8-.67-9.92,1-12.45,5.34a10.6,10.6,0,0,0-1.27,7.43.14.14,0,0,0,.28,0,10.82,10.82,0,0,1,6.08-11.43c4.76-2.1,10.12-.72,14.59,1.4a45,45,0,0,1,7.8,5.08l0,0" style="fill: #263238"/>
    <path d="M582.76,249.6s7.1-4.56,9.35-1.78-4.92,10.68-8.85,10.56a3.76,3.76,0,0,1-3.88-3.6v-.17Z" style="fill: #f7a9a0"/>
    <path d="M590,250v.1c-2.79,0-5,1.69-6.77,3.63a2,2,0,0,1,2.88.36,1.53,1.53,0,0,1,.19.3s0,.13-.11.09a2.33,2.33,0,0,0-2.65-.22,11,11,0,0,0-1.91,1.39c-.2.17-.53-.09-.35-.3,1.2-3.09,5.31-6.38,8.72-5.35" style="fill: #263238"/>
    <path d="M573.11,297.37c-20.55,7.52-62.79,24.38-77.75,18.14-19.68-8.11-35.47-33.12-41.05-42.59-2.45-4.19,24.07-21.92,28.95-20.36s27.42,28.83,30.55,31,36.82-3.71,55.4-3.81c23.43,0,21.31,11.22,3.9,17.59" style="fill: #f7a9a0"/>
    <path d="M470.45,242.61c2.12,1.21,2.79.11,1.16-3.92s-11.44-18.63-6.06-21.62,18.94,17.79,21.12,24.72S490,260.67,490,260.67c-3.45-3.52-12.63-11.25-19.5-18.06" style="fill: #f7a9a0"/>
    <path d="M461.42,283.08c-9.36-10.26-21.63-22.47-24.85-37.79a7.77,7.77,0,0,1,.5-5.07c-1.56-6.83,1.2-9.64,1.2-9.64.49-6.82,3.72-9.29,3.72-9.29s-1.76-8,2.94-9.92c5.25-2.11,6.68,9.61,11.41,15.58C467.19,240.63,486.43,257,490,260.67Z" style="fill: #f7a9a0"/>
    <path d="M457.59,249.31a111.58,111.58,0,0,1-8.82-12.56,110.41,110.41,0,0,1-6.67-15.35.14.14,0,0,0-.26.08,59.38,59.38,0,0,0,15.55,27.91c.2.2.4.09.2-.08" style="fill: #263238"/>
    <path d="M450.33,257c-2.79-4.19-7.69-11.46-11.9-26.51h-.09a53.33,53.33,0,0,0,11.79,26.59c.2.3.39.2.2-.08" style="fill: #263238"/>
    <path d="M446.32,261.1c-4.49-7.23-6.41-12.36-9.21-20.85H437c2.15,10,4.06,13.36,9.07,21,.18.29.41.11.22-.17" style="fill: #263238"/>
    <path d="M543.7,279.55l-4,33.19s34.38-13,43.41-19.73c10.16-7.53,4.09-11.08-7.79-12.95s-31.63-.51-31.63-.51" style="fill: #e8bc2c"/>
    <g style="opacity: 0.10000599920749664;isolation: isolate">
      <g style="clip-path: url(#clip-path-7)">
        <path d="M543.7,279.55l-4,33.19s34.38-13,43.41-19.73c10.16-7.53,4.09-11.08-7.79-12.95s-31.63-.51-31.63-.51"/>
      </g>
    </g>
    <path d="M549.56,281.4c0,4.3-1.55,17.21-1.8,19.34-.14,1.13-.85,5.59-1,6.73,0,.14-.22.08-.21,0,.23-2.15.24-4.31.45-6.47s1.4-15.36,2.37-19.54a.09.09,0,0,1,.06-.11.09.09,0,0,1,.11,0" style="fill: #263238"/>
    <path d="M558.06,278.53c1.76-.24,3.5-.46,5.26-.64-1.28.22-2.55.41-3.85.6,2.59,0,5.19.14,7.76.33v.07c-3.92.27-7.85.31-11.77.48s-7.69.26-11.52.36c-.21.74-.41,1.48-.59,2.23a.11.11,0,0,1-.22,0c0-.84.12-1.67.14-2.52a.39.39,0,0,1,.35-.41c4.67-.35,9.57-.53,14.44-.5" style="fill: #263238"/>
    <path d="M524.57,217.1c-3.57-5.16-6.28-14.57-10-17.36a5.37,5.37,0,0,0-6.39-.25s.32-5.16-3.49-7.14c-2-1-5.32,1.21-5.32,1.21s0-4.19-3.42-5.69c-2.79-1.25-5.72,1.18-5.72,1.18s-1.78-4-5-4.36c-6.57-.72-19.66,21.94-13.32,30.26,2.94,3.88,5.84-1.83,5.84-1.83s-2.19,9.21,2.42,12,7.91-4.82,7.91-4.82-2,8.95,3,11.38,7.27-5.66,7.27-5.66.52,7,4.82,8c7.11,1.62,5-12.3,9.1-16.59l9.76,2Z" style="fill: #f7a9a0"/>
    <path d="M520.1,208.45c3.81,4.59,13.26,2.05,17.53,5.93,5.78,5.23-5,8.93-15.53,5.05L514.44,215Z" style="fill: #f7a9a0"/>
    <path d="M489.68,189.3h0a45.29,45.29,0,0,0-12.08,24.15c0,.29.4.48.51.16a93.45,93.45,0,0,1,11.57-24.31" style="fill: #263238"/>
    <path d="M499.45,193.49c0-.08-.07-.18-.15-.1-6.27,6.63-11.36,16.82-11.54,27.16,0,.36.33.68.37.28.63-6.94,6.46-20.47,11.32-27.34" style="fill: #263238"/>
    <path d="M498.61,226.8c.57-9.91,4.26-18.63,9.34-27.06.07-.11-.1-.19-.18-.11-3.6,3.45-6.28,9.14-8,13.76a26.39,26.39,0,0,0-1.52,13.4c0,.19.34.19.35,0" style="fill: #263238"/>
    <path d="M898.42,470.08c3.42-2.79,37.07-18.36,37.07-18.36v-1l-.37-9.4v-1.8l-1.77-45.45,59.15-.59s.35,23.36.24,45.87v1.4c0,3.36-.1,6.67-.1,9.88v.48c-.25,15.61-.83,28.5-2.12,29.31-3.36,2.19-91.79,3.33-94.89,2.33s-.63-9.91,2.79-12.7" style="fill: #eb9481"/>
    <path d="M922.56,457.58c0,.07-.12.19-.36.19Z" style="fill: #e8bc2c"/>
    <path d="M898.56,470.1c1.83-1.48,12.09-6.55,21.37-11-3.39,2.06-8.77,5.7-8.08,7.83,1.71,5.35,64.51-7.34,80.71-10.72-.29,13.23-.89,23.5-2,24.21-3.36,2.19-91.79,3.32-94.89,2.33s-.47-9.91,2.93-12.68" style="fill: #e8bc2c"/>
    <path d="M956.7,138.86S939,276.3,936.29,299s-4.6,146.52-4.6,146.52H994s-.27-71.44.19-111c.21-18.14.51-32.29,1-34.88,2.17-11.4,15.44-160.83,15.44-160.83Z" style="fill: #37474f"/>
    <path d="M934.41,434.78a.15.15,0,0,0,.1.19c9.68.2,6.89.28,16.66.38,4.75,0,36,.31,40.47-.42a.11.11,0,0,0,.06-.07.1.1,0,0,0-.06-.14c-4.42-.73-35.71-.42-40.47-.42-9.68.1-6.89.18-16.66.38a.13.13,0,0,0-.1.1" style="fill: #263238"/>
    <path d="M981.7,428.48a.3.3,0,0,0,.6,0c.2-20.08.39-51,.59-71q.14-13.54.26-27.11c.1-8.72.19-17.25.88-26.16s2.21-17.73,3.6-26.52,2.76-17.39,4-26.12c4.94-35.07,8.22-70.34,11.16-105.63a.11.11,0,0,0-.22,0c-2,19.76-3.93,39.53-6.1,59.27-1.94,17.6-4.09,35.2-6.63,52.71s-6.12,34.93-7,52.65c-.46,8.75-.46,17.51-.46,26.26l-.21,27.13c-.14,17.95-.27,46.62-.48,64.55" style="fill: #263238"/>
    <path d="M964.51,138.76l29.7,195.75c.21-18.14.51-32.29,1-34.88,2.16-11.4,28.57-160.83,28.57-160.83Z" style="fill: #263238"/>
    <path d="M1039.89,475.17c1.8-4,24.79-33.12,24.79-33.12l-.48-.84-26.72-47.65,48.2-28.3s28,47.19,29.39,50.08l.22.44c6.81,14,12.11,25.81,11.33,27.1-2,3.47-80.36,44.42-83.59,44.92s-4.94-8.59-3.14-12.63" style="fill: #eb9481"/>
    <path d="M1039.85,475.17c.77-1.64,5-7.4,9.77-13.68-1.1,2.26-1.73,4.36-.89,5.27,4,4.23,58.2-36.5,69.43-45,5.36,11.26,9.13,20,8.46,21.12-2,3.47-80.35,44.42-83.57,44.92s-4.92-8.61-3.2-12.63" style="fill: #e8bc2c"/>
    <path d="M993,303.73c-.27-11.62-7.38-104.66-7.38-104.66a95.8,95.8,0,0,0-16-7.24c-8.21-20.56-13-53-13-53h71.57c17.91,34.12,8.38,56.71,8.38,56.71,5,41.73,11,93.26,11.48,105.75.32,8.4,66.4,102.94,66.4,102.94l-57.12,35.26S993.48,326.66,993,303.73" style="fill: #37474f"/>
    <path d="M1053.74,426.36a.12.12,0,0,0,.12.15c8.44-4.81,6.11-3.3,14.49-8.23,4.1-2.4,31.09-18.22,34.52-21.14.08-.07,0-.17-.1-.17-4.18,1.65-30.82,17.95-34.89,20.43-8.3,5.08-5.86,3.71-14.1,8.88a.12.12,0,0,0,0,.08" style="fill: #263238"/>
    <path d="M966.54,190.56a.42.42,0,0,0,.06.59c6.12,3,12.52,5.6,18.79,8.3a.21.21,0,0,0,.26-.09.21.21,0,0,0-.08-.29,118.44,118.44,0,0,0-18.63-8.66.41.41,0,0,0-.4.15" style="fill: #263238"/>
    <path d="M975.74,180a23.21,23.21,0,0,1,.76,5.49c-.17,1.41-.63,2.34-1.57,2.55-5.6,1.3-8.2-16.56-8.49-19.79-.63-7-1.06-13.48-1.06-20.93,0-.26-.39-.22-.39,0A106.27,106.27,0,0,0,966,175c.6,3.19,3.9,14.9,8.75,14.19s2.53-7.72,1.82-12.35a195.05,195.05,0,0,1-1.71-29.18.18.18,0,1,0-.36,0,102.92,102.92,0,0,0-.22,21.13c.28,3.78.78,7.52,1.39,11.26Z" style="fill: #263238"/>
    <path d="M974.05,188.24a.62.62,0,0,0-.48.74c.39,1.16.84,2.31,1.27,3.45a10.43,10.43,0,0,0,1.3,3c.09.12.39.11.39-.09a8.54,8.54,0,0,0-.53-3,30.42,30.42,0,0,0-1.26-3.7.62.62,0,0,0-.69-.32" style="fill: #263238"/>
    <path d="M1025.42,155a71.9,71.9,0,0,1,3.46,12.56,39.42,39.42,0,0,1,.92,6.46c.1,2.16.32,4.34.23,6.52a68.09,68.09,0,0,1-1.4,13v-.18q2.82,27,5.58,54t5.33,54.08l.17,1.69.09.85a1.91,1.91,0,0,0,.14.74c.36.85,1,1.91,1.5,2.86,1.13,1.95,2.3,3.89,3.48,5.82q3.55,5.79,7.17,11.54l14.5,23,29.18,45.85c-10.06-15.07-20.11-30.16-30-45.35Q1058.32,337,1051,325.57q-3.64-5.73-7.21-11.53c-1.19-1.92-2.37-3.86-3.52-5.83a30.24,30.24,0,0,1-1.65-3.14,2.92,2.92,0,0,1-.16-.92l-.1-.84-.17-1.69q-2.65-27.06-5.33-54.11t-5.13-54.12v-.14a67.07,67.07,0,0,0,1.5-12.79,38.69,38.69,0,0,0-.14-6.46c-.23-2.14-.37-4.29-.78-6.41a71.57,71.57,0,0,0-3.18-12.56,66.21,66.21,0,0,0-5.37-11.78,65.57,65.57,0,0,1,5.62,11.74" style="fill: #263238"/>
    <path d="M1006.82,6c-9.27-8.59-18.88-5.64-21.07-4.8a4.94,4.94,0,0,0-.46.19h-.21a19.13,19.13,0,0,0-9.25,3.49,21.22,21.22,0,0,0-7.74,10.47,19.11,19.11,0,0,0-.89,5.59c0,.49,0,1,0,1.53s0,1.36.05,2.08.09,1.71.16,2.62c.12,1.35.27,2.78.46,4.26v0l.06.37c0,.11,0,.23,0,.35l0,.21c.13.94.27,1.9.43,2.88l.12.77c.85,5.18,2,10.83,3.4,16.59.54,2.24,1.1,4.5,1.68,6.76.13.5.26,1,.4,1.52.37,1.45.76,2.89,1.14,4.32s.72,2.62,1.08,3.92c.76,2.72,1.52,5.38,2.27,7.93.2.67.39,1.33.59,2a0,0,0,0,0,0,0c.66,2.24,1.31,4.38,1.93,6.39a1.42,1.42,0,0,0,.05.16c0,.18.11.37.17.56q.32,1,.63,2s0,0,0,.06l.21.68.53,1.67.09.31c2.09,6.59,3.53,10.8,3.53,10.8l4.14-3.41.54-.44L993.25,96l.57-.47,3.94-3.24.1-.09.06-.05.11-.08,3.64-3,.05,0,.85-.7,1-.84,10-8.26,8.17-6.72.08-.07c1.88,7.31,3.92,14.58,5.58,22,2-1.9,3.16-3.28,3.16-3.28s-11-73.4-23.8-85.12m14.54,74.74c1,3.92,2.09,7.84,3.14,11.76l1,3.69,1.27-1.19c-1.61-7.5-3.07-15-5-22.48,0,0,0,0,0-.07l-9.16,4.91L1004,82l-.67.37-11.2,6c.59,2.39,1.18,4.77,1.74,7.17.06.24.11.48.17.72l1.43,6.36c.15.67.32,1.39.47,2,1.23.28,2.51.52,3.83.71l.92.13c-.07-.33-.16-.67-.23-1s-.2-.81-.29-1.22c-.32-1.32-.62-2.63-.93-3.94-.53-2.32-1-4.67-1.43-7a1.55,1.55,0,0,0,0-.21s0-.07,0-.11c-.18-1-.37-1.91-.56-2.86a1.24,1.24,0,0,1,.1-.2c.27,1.06.53,2.11.79,3.16a1.8,1.8,0,0,1,.05.19.52.52,0,0,1,0,.11c.57,2.27,1.12,4.53,1.67,6.79.2.86.41,1.72.62,2.58s.41,1.72.62,2.58c.09.37.19.75.29,1.12l0,.11.23,0,.68.08a28.35,28.35,0,0,0,4.32.11,27.84,27.84,0,0,0,4-.5h.16l.8-.25a26.92,26.92,0,0,0,7.16-3.51c-.85-3.35-1.59-6.74-2.34-10.1l-.3-1.3c-.3-1.32-.6-2.64-.92-4,0-.16.18-.21.21,0,.27,1.07.55,2.15.84,3.22l.72,2.71c.82,3,1.64,6.07,2.39,9.12.78-.54,1.56-1.11,2.31-1.7,1.12-.86,2.21-1.77,3.27-2.72-.31-1.4-.61-2.79-.91-4.19-.89-4-1.76-7.92-2.66-11.87,0-.07.09-.1.11,0M990.93,97.89c.16.76.32,1.52.47,2.28.22,1.16.46,2.33.67,3.51.93.25,1.94.51,3,.76l-.29-1.39c-.5-2.25-1-4.48-1.47-6.71,0-.12-.05-.24-.07-.36-.53-2.48-1-5-1.5-7.46l-2.64,1.41q1,4,1.82,8M990.73,83c-.05,0-.08,0-.08.08.38,1.8.74,3.61,1.1,5.41l.33-.18q-.66-2.61-1.27-5.23a.07.07,0,0,0-.08-.08m.51,19.94s0,0,0-.07c-.17-.94-.35-1.88-.53-2.82-.1-.58-.21-1.17-.31-1.75-.49-2.8-1-5.6-1.41-8.4l-2.73,11.81s1,.39,2.65.93c.7.22,1.51.48,2.42.74,0-.15-.05-.29-.08-.44" style="fill: #263238"/>
    <path d="M985.29,74.08a64.81,64.81,0,0,1-6.8,3c-4.26,1.67-9.78,3.59-15.9,5.53l-2.27.71-.3.09q-2.79.87-5.69,1.71c-5.34,1.57-10.89,3.09-16.3,4.42V60.84l3.06,0h0l3.46,0,3,0h.33c3.61,0,7.23-.05,10.73-.05l5,0c3.75,0,7.27.08,10.38.18l.89,0c1,0,2,.08,2.93.14q1.06.06,2.07.15h.2c.93.08,1.82.18,2.67.29a26.61,26.61,0,0,1,7.87,2,4.4,4.4,0,0,1,2.53,2.41c.64,2.11-1.75,4.85-7.87,8.15" style="fill: #eb9481"/>
    <path d="M985,75.92c10.32-6.09,14.63-11.62,2.45-14.86-10.79-2.87-47.45-2.3-47.45-2.3l15.92,29.3S974.71,82,985,75.92" style="fill: #e8bc2c"/>
    <path d="M951.63,73.21a2.52,2.52,0,0,0-2.5,2.31,1.48,1.48,0,0,0,0,.21A2.53,2.53,0,0,0,950.45,78a2.57,2.57,0,0,0,1.18.29,2.52,2.52,0,0,0,0-5m19.12,0h-.07a2.12,2.12,0,0,0-.44.05,3.68,3.68,0,0,0-.47.15l-.22.11-.21.12A3.57,3.57,0,0,0,969,74a2.51,2.51,0,1,0,4,3,1.8,1.8,0,0,0,.16-.38,2.42,2.42,0,0,0,.14-.81,2.52,2.52,0,0,0-2.51-2.52m18.2.2a2.13,2.13,0,0,0-.88.6.52.52,0,0,0-.1.11l.19-.12c.33-.21.65-.43,1-.65a.58.58,0,0,0-.17.06M944.59,60.77a2.51,2.51,0,0,0-1.14-1.93h-2.79v-.07a1.64,1.64,0,0,0-.4.43l0,0,.85,1.58,1.41,2.61h0a2.53,2.53,0,0,0,2.05-2.48.86.86,0,0,0,0-.16M962.79,59l-3.18-.09a2.43,2.43,0,0,0-1,1.77,1.77,1.77,0,0,0,0,.23A2.51,2.51,0,1,0,962.79,59m20,1.57a1.37,1.37,0,0,0-.07-.29l-.62-.08H982c-.7-.09-1.44-.17-2.2-.25l-1.72-.16a2.26,2.26,0,0,0-.28,1.13.66.66,0,0,0,0,.14,2.41,2.41,0,0,0,.44,1.29.13.13,0,0,0,0,.06,2.38,2.38,0,0,0,.4.44l0,0a2.42,2.42,0,0,0,1.14.51,2,2,0,0,0,.43,0,2.5,2.5,0,0,0,2.44-1.91,2.35,2.35,0,0,0,.07-.6,2,2,0,0,0,0-.34" style="fill: #fff"/>
    <path d="M947.29,60.14c.39,1.06,5.22,10.15,6.38,12.14s5.66,10.16,7,12.09c.05.08.14,0,.14-.09C959.85,82.13,955.4,74,954.34,72s-6.17-11-6.88-12a.1.1,0,0,0-.17.07" style="fill: #263238"/>
    <g style="opacity: 0.10000599920749664;isolation: isolate">
      <g style="clip-path: url(#clip-path-8)">
        <path d="M992.27,62.89c5.82,3.29,1.39,8-7.2,13.06-10.32,6.1-29.13,12.11-29.13,12.11l-5-9.12Z"/>
      </g>
    </g>
    <path d="M950.88,105.86c1.69-11.45,22.42-38.53,24.18-40.56,7-7.95,18.55-9.44,29.1.72,21.07,20.33,24.75,74.23,24.75,74.23l-73.08,2.31L958,125.69s-8.52-9.74-7.11-19.83" style="fill: #e8bc2c"/>
    <path d="M970.72,131.81l0-.07h-.07a6.89,6.89,0,1,1,0,.07m19.13,0v-.07h0a6.89,6.89,0,1,1,0,.07m19.12,0,0-.07h-.08a11.05,11.05,0,1,1,.05.07m19.09,0,0-.07H1028a2.52,2.52,0,0,0,.06,5,2.09,2.09,0,0,0,.5,0h0c-.14-1.34-.32-3-.57-5m-76.29-29.25a19.52,19.52,0,0,0-.87,3.36l0-.07a11.1,11.1,0,0,0-.17,1.57,2.4,2.4,0,0,0,.84.15,2.51,2.51,0,0,0,.17-5m19,0,0-.07h-.07a2.56,2.56,0,1,0,2.51,3,2.32,2.32,0,0,0,0-.46,2.51,2.51,0,0,0-2.51-2.51m21.62,2.19,0-.18a2.49,2.49,0,0,0-1.07-1.59,2.45,2.45,0,0,0-1.39-.42v-.07h-.06l-.23,0-.24,0a2.8,2.8,0,0,0-.41.13l-.06,0-.4.22s0,0,0,0a2.53,2.53,0,0,0-1,1.54,2.32,2.32,0,0,0-.06.59,1.34,1.34,0,0,0,0,.2c0,.1,0,.2,0,.3a1.46,1.46,0,0,0,.05.2,2.5,2.5,0,0,0,2.41,1.81,2.61,2.61,0,0,0,.48,0,2.4,2.4,0,0,0,.75-.27,2.52,2.52,0,0,0,1.28-2.19c0-.11,0-.21,0-.32m16.63-2.19,0-.07h-.08a2.51,2.51,0,0,0-2.46,2.58,2.26,2.26,0,0,0,.1.69,2.51,2.51,0,0,0,4.92-.69V105a2.51,2.51,0,0,0-2.51-2.45m-47.81,14.38,0-.07h-.1a2.51,2.51,0,0,0-2.44,2.59v0a2.53,2.53,0,1,0,2.51-2.54m19.13,0,0-.07h-.07a2.53,2.53,0,0,0-2.47,2.59v0a2.53,2.53,0,0,0,5.05,0,2.53,2.53,0,0,0-2.54-2.52m20.15.22a2.09,2.09,0,0,0-.5-.16h0l-.28,0h-.24l0-.07h-.1a2.51,2.51,0,0,0-2.44,2.52v.09a2.53,2.53,0,1,0,3.54-2.32m18.1-.22,0-.07h-.07a2.53,2.53,0,0,0-2.47,2.59v0a2.53,2.53,0,1,0,2.51-2.54M970.72,73.28l0-.07h-.07a2.12,2.12,0,0,0-.44.05,3.68,3.68,0,0,0-.47.15l-.22.11-.21.12A3.57,3.57,0,0,0,969,74a2.46,2.46,0,0,0-.76,1.85A2.51,2.51,0,0,0,973,76.92a1.8,1.8,0,0,0,.16-.38,2.55,2.55,0,0,0,.11-.74,2.51,2.51,0,0,0-2.51-2.52m20.18.23a2.45,2.45,0,0,0-1-.23v-.07h0l-.25,0h0a2.33,2.33,0,0,0-.38.08l-.15,0a2.6,2.6,0,0,0-1.06.72,1.13,1.13,0,0,0-.1.13,2.51,2.51,0,0,0-.52,1.59,1.93,1.93,0,0,0,0,.24,2.47,2.47,0,0,0,.87,1.66,2.42,2.42,0,0,0,1.63.61,2.5,2.5,0,0,0,2.08-1.11v0a2.42,2.42,0,0,0,.42-1.38,2.53,2.53,0,0,0-1.46-2.29m19.48.21a2.42,2.42,0,0,0-1.4-.44l-.08,0a2.51,2.51,0,1,0,2.51,2.51,2.94,2.94,0,0,0,0-.42c-.34-.56-.67-1.07-1-1.6m-49.22,14,0-.07h-.1a2.51,2.51,0,0,0-2.44,2.58v0a2.53,2.53,0,1,0,2.51-2.54m21.12,1h0a2,2,0,0,0-.41-.41,3,3,0,0,0-.48-.31,2.68,2.68,0,0,0-1-.24h-.08l0-.07h-.07a1.47,1.47,0,0,0-.36,0h0a1.31,1.31,0,0,0-.27.06,2.52,2.52,0,0,0-1.83,2.48v0a2.12,2.12,0,0,0,0,.44,2.75,2.75,0,0,0,.11.41,2.58,2.58,0,0,0,.22.44,2.5,2.5,0,0,0,1.93,1.21h.24a2.54,2.54,0,0,0,2.4-1.78,2.74,2.74,0,0,0,.11-.76,2.45,2.45,0,0,0-.55-1.54m19.39.41a2.52,2.52,0,0,0-2.26-1.38l0-.07a2.94,2.94,0,0,0-.51.05l-.24.06a3,3,0,0,0-.45.19,2.37,2.37,0,0,0-1,1,1.28,1.28,0,0,0-.11.2,2.47,2.47,0,0,0-.23,1.12v0a2.48,2.48,0,0,0,.82,1.85l.14.12a2.07,2.07,0,0,0,.24.17,2.54,2.54,0,0,0,1.34.37,2.52,2.52,0,0,0,2.24-1.4,2.54,2.54,0,0,0,.16-.38,2.74,2.74,0,0,0,.11-.76,2.39,2.39,0,0,0-.28-1.13m15.88-1.18,0,0,0,0,0,0a2.42,2.42,0,0,0-1.44,1.54,2,2,0,0,0-.13.73v.11a2.5,2.5,0,0,0,.3,1.19,2.42,2.42,0,0,0,.55.68,2.44,2.44,0,0,0,2.46.5c-.55-1.58-1.13-3.15-1.76-4.7M982.8,60.58a1.8,1.8,0,0,0-.08-.39l-.06-.15V60l-.38.16a.65.65,0,0,0-.17.08,14.16,14.16,0,0,0-2,1,1.06,1.06,0,0,0-.2.12,16.14,16.14,0,0,0-1.58,1.06,2.79,2.79,0,0,0,.4.44l0,0a2.35,2.35,0,0,0,1.14.53,2.09,2.09,0,0,0,.43,0,2.48,2.48,0,0,0,1.6-.59,2.53,2.53,0,0,0,.84-1.34,2.35,2.35,0,0,0,.07-.6,2,2,0,0,0,0-.34m14.12.34a2.54,2.54,0,0,0,2.52,2.53,2.42,2.42,0,0,0,1.2-.32,23.23,23.23,0,0,0-3.72-2.21" style="fill: #fff"/>
    <path d="M969.9,120.06a.18.18,0,0,0,.09.23c3.94.62,7.8,1.54,11.68,2.45,1.93.43,3.84,1,5.77,1.4a23.86,23.86,0,0,0,2.79.46,27.47,27.47,0,0,0,2.87,0,.07.07,0,0,0,0-.14,13.34,13.34,0,0,1-3-.5c-.93-.26-1.87-.51-2.79-.79-1.83-.57-3.68-1.1-5.58-1.55A81,81,0,0,0,970.12,120a.17.17,0,0,0-.22.1" style="fill: #263238"/>
    <path d="M960.47,123.68a.14.14,0,0,0,.06.19h19.33a.07.07,0,1,0,0-.14c-.85-.08-1.67-.29-2.52-.38s-1.54-.15-2.31-.2c-1.62-.13-3.22-.2-4.83-.2a84.6,84.6,0,0,0-9.67.67.17.17,0,0,0-.06.06" style="fill: #263238"/>
    <path d="M995.53,51.36c0-.51-.1-1-.14-1.53s-.07-.84-.14-1.48-.14-1.28-.22-1.91a5.74,5.74,0,0,1-.1-.69v-.6c-.47-4.22-.89-7.6-.89-7.6L992,38.69,977.4,47.4l2.35,12.21.17.88s-.41,11.72,1.74,11.89c6.57.52,13.73-8.67,14.11-10.06a80.23,80.23,0,0,0-.24-11" style="fill: #eb9481"/>
    <path d="M991.88,38.67,994,37.54s.42,3.4.91,7.59l.14,1.2a26.74,26.74,0,0,1-15.35,12.79L977.4,47.39Z" style="fill: #263238"/>
    <path d="M987.27,3.71c9.55,1.81,18.7,10.05,13.45,31.24s-19.79,19.74-24,19.14c-4.66-.65-17.26-4.9-14.24-26.52S977.73,1.9,987.27,3.71" style="fill: #eb9481"/>
    <path d="M965.55,24.44a.84.84,0,0,1-.08-1.17,2.85,2.85,0,0,1,1.86-.85,1.93,1.93,0,0,1,1.86.62.75.75,0,0,1-.09.93,2.44,2.44,0,0,1-1.48.49,12.78,12.78,0,0,1-1.5.18.83.83,0,0,1-.57-.2" style="fill: #263238"/>
    <path d="M981.58,25.39a.84.84,0,0,0,.25-1.14,2.75,2.75,0,0,0-1.68-1.14,1.92,1.92,0,0,0-1.94.29.77.77,0,0,0-.07.93,2.34,2.34,0,0,0,1.4.73,13.92,13.92,0,0,0,1.39.43.82.82,0,0,0,.65-.1" style="fill: #263238"/>
    <path d="M978.66,33.6v-.08c-1.28-.63-1.3-2.43-1.09-3.83,0-.07-.1-.15-.1-.15-.43,1.37-.44,3.66,1.19,4.06" style="fill: #263238"/>
    <path d="M978.8,32.93c2.22.07,2.55-4.72.15-4.79-2-.06-2.37,4.72-.15,4.79" style="fill: #263238"/>
    <path d="M979.65,28.7c.17.94.74,1.8,1.66,1.73a1.73,1.73,0,0,0,1.4-1.91h-.09c-.41.46-1,.94-1.46.84s-.88-.6-1.29-.89c-.15-.13-.32.11-.22.23" style="fill: #263238"/>
    <path d="M969.19,29.11a2.46,2.46,0,0,0,0-.28l-.14.27a5.55,5.55,0,0,1-.36,2s0,0,0,0a2.7,2.7,0,0,1-.72,1,1.89,1.89,0,0,1-.63.33l0,.1a1.65,1.65,0,0,0,.71-.22,3.55,3.55,0,0,0,1.23-3.08,1.09,1.09,0,0,0,0-.18M969,29a.66.66,0,0,1,0,.14l.14-.26s-.13,0-.13.12m-1.45,2.93-.33.63,0,0,.31-.62.22-.43L969,29.1l-1.19,2.3Z" style="fill: #263238"/>
    <path d="M967.23,31.87c-2.19-.35-1.62-5.11.74-4.74,2,.3,1.45,5.09-.74,4.74" style="fill: #263238"/>
    <path d="M967.15,27.64c-.39.88-.88,1.61-1.79,1.33s-1-1.26-.9-2.17h.08c.26.53.65,1.09,1.12,1.12s.87-.39,1.28-.6c.17-.08.26.2.21.32" style="fill: #263238"/>
    <path d="M975.53,41.65a2.27,2.27,0,0,1-1.39.68,3.51,3.51,0,0,1-1.43-.54h-.18a2,2,0,0,0,1.75,1.06,1.57,1.57,0,0,0,1.39-1.13c0-.08-.08-.12-.14-.08m-2.93.08a.6.6,0,0,0,.11.06l2.82-.14Z" style="fill: #263238"/>
    <path d="M976.34,37.49a6.8,6.8,0,0,1-5.3.78c0-.5.94-3.71.8-3.71a8.71,8.71,0,0,0-2.43.35c.89-4.6,2.51-9,3.32-13.62a.12.12,0,0,0-.12-.12.12.12,0,0,0-.13.12,74,74,0,0,0-4.19,14.5c-.12.57,2.08,0,2.53-.17,0,0-.38,1.68-.52,2.79v.27a.4.4,0,0,0,.24.36l.31.1.33.08a5.91,5.91,0,0,0,1.77.2,5,5,0,0,0,3.6-1.66c.12-.1,0-.21-.21-.27" style="fill: #263238"/>
    <path d="M1005.7,18.11a11.89,11.89,0,0,0-5.84-9.61c-5.77-6.59-14.5-9.59-24.56-5.59s-12.62,17.14-11.74,17.35C976,23.23,983,17.47,983,17.47s-5.88,4.07-4.19,3.91A14.37,14.37,0,0,0,990,15.05c0,9.48,5.77,10.3,5.77,10.3s-.44,8.17,4.72,8.38c2,.08,5.69-8.78,5.2-15.62" style="fill: #263238"/>
    <path d="M995.53,41.89l.06.15a3.69,3.69,0,0,0,4.78,2.1c3.7-1.16,7.8-10.85,4.8-12.7s-8.12,4.7-8.12,4.7Z" style="fill: #eb9481"/>
    <path d="M1003.92,34.19c-3.49.14-6.25,4.55-6.39,7.84-.1.26.3.4.43.18a10.68,10.68,0,0,1,1.3-2,2.27,2.27,0,0,1,2.54-.66c.08,0,.08-.14.08-.14l-.24-.19a2.05,2.05,0,0,0-2.84.6c1.07-2.41,2.52-4.69,5.12-5.59Z" style="fill: #263238"/>
    <path d="M999.06,42h0a1.07,1.07,0,0,1,1,1.13h0a1.07,1.07,0,0,1-1.13,1,1.08,1.08,0,1,1,.12-2.15" style="fill: #fff"/>
    <polygon points="994.47 27.31 1003.5 26.2 1003.71 28.63 994.55 28.66 994.47 27.31" style="fill: #e8bc2c"/>
    <polygon points="993.86 25.03 1002.54 22.35 1003.18 24.7 994.18 26.36 993.86 25.03" style="fill: #e8bc2c"/>
    <path d="M987.1,79.69l-26.51,49.23c-3.66,1.65-47.05,1.79-51,5.36s-2,36.88,3,36.88c11.56,0,58.22-2.48,67-11,14.33-13.93,22.77-66.7,23.72-78.29,1.77-21.61-7.47-18.29-16.22-2.16" style="fill: #eb9481"/>
    <path d="M892.05,137c1.89-.83,1.5-1.85-2-2.68s-17.92-1.37-17.32-6.42,21-4,26.67-2.12,16.23,6.9,16.23,6.9L914.88,171c-3.31.7-25.25,4.89-31.22,4.82s-16.77-2.76-18.88-7.45c-1.47-3.28.71-4.09.71-4.09s-5.78-3.13-5.78-7.76,6.49-3,6.49-3-7.21-2.35-6.88-7,8.21-3,8.21-3-5.88-3.34-4.48-7.24c1.59-4.39,9.57,1.21,15.82,1.53,2.78.14,11.89-.28,13.18-.82" style="fill: #eb9481"/>
    <path d="M867.67,144c7.94,5.48,13.56,5.05,22.53,3.14.26-.05.18-.28,0-.28-9.32,1.1-13.77.81-22.32-3.27-.41-.19-.6.14-.21.41" style="fill: #263238"/>
    <path d="M865.77,153.78c8.79,4.66,14.41,4.35,24,3.11a.12.12,0,0,0,0-.24c-9.78.45-14.61.07-23.86-3.38-.42-.15-.49.3-.11.51" style="fill: #263238"/>
    <path d="M865.59,164.55c8,3.6,14.57,4.34,24,1.73a.18.18,0,0,0,.11-.18.18.18,0,0,0-.19-.17c-9.45,1.65-14.71,1-23.91-1.67-.61-.17-.62,0,0,.29" style="fill: #263238"/>
    <path d="M988.83,74.12c7.54-9.32,13.66-12.82,15.06-.26,1.27,11.13-4.62,47.32-4.62,47.32l-26.67-20s8.7-17.72,16.23-27" style="fill: #e8bc2c"/>
    <path d="M992.34,104.74l0-.18a2.5,2.5,0,0,0-2.47-2.08h-.06l-.23,0-.24,0a2,2,0,0,0-.41.13l-.06,0a1.94,1.94,0,0,0-.4.22s0,0,0,0a2.43,2.43,0,0,0-1,1.53,1.88,1.88,0,0,0-.07.53,2.26,2.26,0,0,0,0,.26,1.7,1.7,0,0,0,.06.31,1.46,1.46,0,0,0,.05.2,2.53,2.53,0,0,0,2.4,1.74,1.84,1.84,0,0,0,.41,0,2.43,2.43,0,0,0,.76-.25,2.51,2.51,0,0,0,1.34-2.22,2.09,2.09,0,0,0,0-.25m7.61,12.07-.28,0-.21,0,0,0a2.54,2.54,0,0,0-2.49,2.45l.93.69,1.2.9.2.14,0,0v0a.3.3,0,0,0,0-.1c.07-.42.29-1.83.62-3.94l0-.18Zm-9-43.38a2.48,2.48,0,0,0-1.05-.23.91.91,0,0,0-.33,0s0,0,0,0h0c-.24.27-.46.55-.69.84l0,.05c-.24.29-.47.59-.71.9s-.47.62-.7.94a2.5,2.5,0,0,0,2.49,2.26,2.5,2.5,0,0,0,2-1v0a2.42,2.42,0,0,0,.48-1.47A2.52,2.52,0,0,0,991,73.43M982.25,88.7a2.36,2.36,0,0,0-.36-.42,2.59,2.59,0,0,0-.5-.37,2.44,2.44,0,0,0-1-.3h-.16a1,1,0,0,0-.34,0h0l0,0v0c-.16.29-.32.58-.49.86-.3.54-.6,1-.89,1.56a.31.31,0,0,1,0,.1c-.15.27-.3.54-.44.81a2,2,0,0,0,.2.41,2.41,2.41,0,0,0,1.93,1.22.78.78,0,0,0,.22,0,2.52,2.52,0,0,0,2.28-2,1.64,1.64,0,0,0,0-.32,2.56,2.56,0,0,0-.43-1.61m19.47.31a2.52,2.52,0,0,0-2.28-1.41,2.94,2.94,0,0,0-.51.05l-.24.06a3,3,0,0,0-.45.19,2.51,2.51,0,0,0-1,1,1.24,1.24,0,0,0-.1.2,2.49,2.49,0,0,0-.22,1v0A2.54,2.54,0,0,0,997.7,92a1.24,1.24,0,0,0,.22.18.57.57,0,0,0,.16.11,2.43,2.43,0,0,0,1.38.41,2.52,2.52,0,0,0,2.26-3.64" style="fill: #fff"/>
    <path d="M999,113.77c-1-.56-9.28-6.67-11.09-8.08s-9.23-7-10.94-8.62c-.09-.13,0-.13.11-.13,2,1.17,9.35,6.81,11.16,8.15s10,7.7,10.85,8.54c0,.06,0,.18-.09.14" style="fill: #263238"/>
    <path d="M974.64,103a18.79,18.79,0,0,1-2.79-2c2.11-4.23,4.77-8.36,7.19-12.42.79-1.33,1.62-2.61,2.44-3.91.27-.82.53-1.63.85-2.43A28.46,28.46,0,0,1,984,79c0-.09.12,0,.12.08-.48,1.1-.92,2.22-1.39,3.33-.13.33-.25.63-.39.94q2.17-3.36,4.39-6.74c.1-.11.1,0,.1,0-2.34,4.12-12.39,21-14.06,24.49,0,0,1.22,1,2,1.65.11,0,0,.21-.09.25" style="fill: #263238"/>
    <path d="M999.41,121l-.36.14,1.87-13,.93-6.52c.32-2.18.62-4.37,1-6.54,0,2.22-.12,4.41-.25,6.61s-.37,4.4-.65,6.59a106.32,106.32,0,0,1-2.45,13l-.09.35-.27-.22c-.81-.71-1.64-1.38-2.44-2.11.92.56,1.81,1.16,2.72,1.75" style="fill: #263238"/>
    <path d="M1002.73,100.75a14.72,14.72,0,0,1,1-2.47,5.39,5.39,0,0,1,0,1.39,6.6,6.6,0,0,1-.31,1.33,5.9,5.9,0,0,1-1.39,2.33,25.83,25.83,0,0,1,.69-2.58" style="fill: #263238"/>
  </g>
</svg>
