<svg id="Layer_1" data-name="Layer 1" xmlns="http://www.w3.org/2000/svg" xmlns:xlink="http://www.w3.org/1999/xlink" width="15.44cm" height="11.99cm" viewBox="0 0 437.56 339.84">
  <defs>
    <clipPath id="clip-path">
      <rect x="3.92" y="299.38" width="429.72" height="40.46" style="fill: none"/>
    </clipPath>
    <clipPath id="clip-path-2">
      <rect x="122.47" width="127.07" height="98.7" style="fill: none"/>
    </clipPath>
    <clipPath id="clip-path-3">
      <rect x="194.45" y="95.92" width="119.62" height="156.06" style="fill: none"/>
    </clipPath>
  </defs>
  <title>illustration</title>
  <g>
    <polygon points="0 280.64 54.69 280.4 109.39 280.31 218.78 280.14 328.17 280.31 382.87 280.39 437.56 280.64 382.87 280.88 328.17 280.97 218.78 281.14 109.39 280.97 54.69 280.88 0 280.64" style="fill: #263238"/>
    <g style="opacity: 0.19999699294567108">
      <g style="clip-path: url(#clip-path)">
        <path d="M218.78,299.38c118.66,0,214.86,9.06,214.86,20.23s-96.2,20.23-214.86,20.23S3.92,330.78,3.92,319.61s96.2-20.23,214.86-20.23" style="fill: #287dc0"/>
      </g>
    </g>
    <path d="M270,104.89c0,3.7,5.89,6.81,5.89,13.84,0,3.6-2.73,10.61-10.91,10.61s-10.91-7-10.91-10.61c0-7,5.89-10.14,5.89-13.84,0-3.22-4.05-6.15-4.05-6.15H219V58.1s2.93-4,6.15-4c3.7,0,6.81,5.89,13.84,5.89,3.6,0,10.61-2.73,10.61-10.91s-7-10.91-10.61-10.91c-7,0-10.14,5.89-13.84,5.89-3.22,0-6.15-4-6.15-4V.09c54.18,0,96.47,43.68,96.47,90.7,0,2.71-.12,5.37-.36,8h-41s-4,2.88-4,6.1" style="fill: #287dc0"/>
    <path d="M188.34,138.9c0,8.18,7,10.91,10.62,10.91,7,0,10.14-5.89,13.84-5.89,3.22,0,6.14,4,6.14,4v94.24h-37s4.29-33.34-12.48-58c-9.75-14.36-42.85-42.77-46.61-85.37h43.89s4-2.92,4-6.14c0-3.7-5.89-6.81-5.89-13.84,0-3.6,2.73-10.62,10.91-10.62s10.91,7,10.91,10.62c0,7-5.89,10.14-5.89,13.84,0,3.22,4,6.14,4,6.14h34.1v31.1s-2.92,4-6.14,4c-3.7,0-6.81-5.89-13.84-5.89a10.67,10.67,0,0,0-10.56,10.9" style="fill: #287dc0"/>
    <path d="M249.54,49c0,8.18-7,10.91-10.61,10.91-7,0-10.14-5.89-13.84-5.89-3.22,0-6.15,4-6.15,4V98.7h-34.1s-4-2.92-4-6.14c0-3.7,5.89-6.81,5.89-13.84,0-3.6-2.73-10.62-10.91-10.62s-10.91,7-10.91,10.62c0,7,5.89,10.14,5.89,13.84,0,3.22-4,6.14-4,6.14h-44q-.36-3.89-.36-8c0-47,42.29-90.7,96.47-90.7V39.89s2.93,4,6.15,4c3.7,0,6.81-5.89,13.84-5.89,3.6.16,10.61,2.86,10.61,11" style="fill: #287dc0"/>
    <g style="opacity: 0.10000599920749664;isolation: isolate">
      <g style="clip-path: url(#clip-path-2)">
        <path d="M249.54,49c0,8.18-7,10.91-10.61,10.91-7,0-10.14-5.89-13.84-5.89-3.22,0-6.15,4-6.15,4V98.7h-34.1s-4-2.92-4-6.14c0-3.7,5.89-6.81,5.89-13.84,0-3.6-2.73-10.62-10.91-10.62s-10.91,7-10.91,10.62c0,7,5.89,10.14,5.89,13.84,0,3.22-4,6.14-4,6.14h-44q-.36-3.89-.36-8c0-47,42.29-90.7,96.47-90.7V39.89s2.93,4,6.15,4c3.7,0,6.81-5.89,13.84-5.89,3.6.16,10.61,2.86,10.61,11"/>
      </g>
    </g>
    <rect x="173.19" y="242.15" width="91.5" height="14.21" style="fill: #455a64"/>
    <rect x="173.19" y="258.88" width="91.5" height="14.21" style="fill: #455a64"/>
    <rect x="187.47" y="275.62" width="62.95" height="14.21" style="fill: #455a64"/>
    <path d="M293.78,322c1.77.59,52.21.44,54.14-.78.72-.45,1.13-7.81,1.37-16.7,0-1.92.09-3.9.12-5.92,0-2.39.07-4.8.09-7.15.06-10.53-.09-19.81-.09-19.81h-32.8v27l.17,5.92s-19.29,8.7-21.25,10.27-3.47,6.63-1.75,7.21" style="fill: #ad6359"/>
    <path d="M293.78,322c1.77.59,52.21.44,54.14-.78.72-.45,1.13-7.81,1.37-16.7,0-1.92.09-3.9.12-5.92,0-2.39.07-4.8.09-7.15H316.63v7.15l.17,5.92s-19.29,8.7-21.25,10.27-3.49,6.63-1.77,7.21" style="fill: #fff"/>
    <path d="M293.67,322.16c1.15.38,22.63.45,38.28.13,3.62-.08,6.93-.18,9.6-.29,3.68-.17,6.15-.37,6.56-.63.88-.57,1.31-11.36,1.51-22.75h-33l.17,5.95s-19.39,8.75-21.37,10.32-3.52,6.62-1.75,7.27" style="fill: #287dc0"/>
    <path d="M294.39,320.08c8.5-.24,42.82-.38,51.24,0,.07,0,.07.05,0,.05-8.42.42-42.74.28-51.24.05-.18,0-.18-.1,0-.1" style="fill: #263238"/>
    <path d="M315.58,302.64c3.34-.63,7.43-.13,10,2.24.1.1,0,.24-.14.2a46.54,46.54,0,0,0-9.85-2,.21.21,0,0,1-.22-.21.21.21,0,0,1,.21-.23" style="fill: #263238"/>
    <path d="M313.16,304.1c3.35-.63,7.44-.13,10,2.25.1.09,0,.23-.14.2a45.93,45.93,0,0,0-9.85-2,.23.23,0,0,1-.23-.22.22.22,0,0,1,.22-.23" style="fill: #263238"/>
    <path d="M310.78,305.57c3.35-.64,7.44-.14,10,2.24.1.09,0,.23-.15.2a46.58,46.58,0,0,0-9.84-2,.23.23,0,0,1-.23-.22.22.22,0,0,1,.22-.22" style="fill: #263238"/>
    <path d="M308.34,307c3.35-.64,7.44-.13,10,2.24.09.09,0,.23-.15.2a46.58,46.58,0,0,0-9.84-2,.23.23,0,0,1-.23-.22.22.22,0,0,1,.22-.22" style="fill: #263238"/>
    <path d="M310.89,299.68c2.37,1.83,5.45,2.58,8.22,3.59.28.11.51-.16.52-.42a.08.08,0,0,0,.08-.1v0a17.87,17.87,0,0,0-5.18-7.65c-1.4-1.17-3.85-2-5.16-.16s.13,3.69,1.52,4.76M310,297c-.6-3.67,3.34-1.75,4.34-.85a17.89,17.89,0,0,1,1.78,1.91q1.67,2.11,3.12,4.4c-1.33-.58-2.69-1-4-1.57-1.65-.64-4.91-1.87-5.24-3.89" style="fill: #263238"/>
    <path d="M330.87,297.6c-.82-2.08-3.39-1.91-5-1.13a17.76,17.76,0,0,0-6.92,6.12.08.08,0,0,0,0,.11l0,0a.41.41,0,0,0,.28.52l.13,0c2.93-.29,6.1-.24,8.85-1.43,1.57-.67,3.43-2.26,2.66-4.23m-7.16,4.31c-1.44.18-2.88.28-4.31.52a52.74,52.74,0,0,1,4.12-3.49,19.47,19.47,0,0,1,2.2-1.4c1.19-.63,5.49-1.5,4,1.9-.83,1.88-4.3,2.25-6,2.47" style="fill: #263238"/>
    <path d="M360.41,131.71s-10.66,87.79-10.87,88.9c0,.15-.05,66.83-.05,66.83H316.62s-1-55.81.37-68.84c1.73-16.61,12.63-86.89,12.63-86.89Z" style="fill: #ad6359"/>
    <path d="M387.78,320.47c1.85-.2,47.74-21.14,49-23.05.47-.72-2.19-7.58-5.64-15.78-.74-1.77-1.44-3.64-2.33-5.45-1.11-2.27-2.24-4.53-3.37-6.7-4.84-9.43-9.29-17.16-9.29-17.16l-29.07,13.16,8.39,17.19,3.44,7.05,2.6,5.33s-14,15.88-15.12,18.11-.42,7.49,1.39,7.3" style="fill: #ad6359"/>
    <path d="M387.78,320.47c1.85-.2,47.74-21.14,49-23.05.47-.72-2.19-7.58-5.64-15.78-.74-1.77-1.44-3.64-2.33-5.45-1.11-2.27-2.24-4.53-3.37-6.7-9,4-21.91,9.68-30,13.19l3.44,7.05,2.6,5.33s-14,15.88-15.12,18.11-.39,7.49,1.42,7.3" style="fill: #fff"/>
    <path d="M387.71,320.6c1.85-.2,48-21.26,49.26-23.18.58-.88-3.49-10.89-8-21.34l-30.06,13.61,2.61,5.35s-14.07,16-15.21,18.22-.46,7.53,1.4,7.34" style="fill: #287dc0"/>
    <path d="M387.53,318.45c7.65-3.72,38.85-18,46.69-21.11.07,0,.09,0,0,.05-7.51,3.86-38.82,17.89-46.67,21.18-.13.07-.19,0,0-.12" style="fill: #263238"/>
    <path d="M399.63,293.82c2.79-2,6.72-3.19,10-2.08.13,0,.07.23-.05.24a47.57,47.57,0,0,0-9.8,2.18.23.23,0,0,1-.19-.25.36.36,0,0,1,0-.09" style="fill: #263238"/>
    <path d="M398,296.16c2.78-2,6.72-3.19,10-2.08.13,0,.06.22-.05.24a46.38,46.38,0,0,0-9.8,2.22.22.22,0,0,1-.22-.22.24.24,0,0,1,.07-.16" style="fill: #263238"/>
    <path d="M396.45,298.48c2.78-2,6.72-3.19,10-2.09.13,0,.07.23,0,.24a47.12,47.12,0,0,0-9.81,2.23.21.21,0,0,1-.28-.1.2.2,0,0,1,.09-.28" style="fill: #263238"/>
    <path d="M394.85,300.8c2.79-1.95,6.73-3.19,10-2.08.13,0,.07.23-.05.24a47.8,47.8,0,0,0-9.8,2.22.22.22,0,0,1-.22-.22.24.24,0,0,1,.07-.16" style="fill: #263238"/>
    <path d="M394.14,293.06c2.92.69,6,.1,9-.12a.4.4,0,0,0,.34-.47.33.33,0,0,0,0-.13c.05,0,.08-.09,0-.14a17.9,17.9,0,0,0-7.87-4.83c-1.76-.49-4.33-.21-4.77,2s1.64,3.29,3.34,3.69M392.25,291c-2.06-3.1,2.32-3,3.6-2.57a17.48,17.48,0,0,1,2.41,1,52.91,52.91,0,0,1,4.66,2.72c-1.45,0-2.88.16-4.33.23-1.73.09-5.21.32-6.34-1.38" style="fill: #263238"/>
    <path d="M411.48,282.92c-1.6-1.56-3.88-.34-5.05,1.05a17.88,17.88,0,0,0-3.79,8.43.09.09,0,0,0,.1.1c.06.25.33.48.59.33,2.55-1.48,5.46-2.74,7.48-5,1.18-1.25,2.19-3.43.67-4.91m-4.7,6.88c-1.24.76-2.5,1.45-3.71,2.25a51.66,51.66,0,0,1,2.32-4.87,19.51,19.51,0,0,1,1.42-2.19c.83-1.06,4.38-3.63,4.42.09,0,2.08-3,3.82-4.45,4.72" style="fill: #263238"/>
    <path d="M329.62,131.71s2.38,12.68,11.23,19.13c0,0,19.51,65.28,22,72.77,4.37,12.9,31.4,56.59,31.4,56.59L424.15,267s-27-49.45-30.37-54.79c-1.66-2.72-14.33-55.42-14.15-56.78,2.18-16.22-5.52-23.81-5.52-23.81Z" style="fill: #ad6359"/>
    <path d="M329.62,131.71h45.67a34.76,34.76,0,0,1,5.24,23.79s13.14,52.19,14.54,55.56,8.56,14.73,8.56,14.73c-45.74,29.22-87.36,15.37-87.36,15.37s0-13,.66-24.56c.2-3.55,12.69-84.89,12.69-84.89" style="fill: #263238"/>
    <path d="M332.86,140a.41.41,0,1,1-.41-.41.41.41,0,0,1,.41.41m6.78-.41a.41.41,0,1,0,.41.41.41.41,0,0,0-.41-.41m7.19,0a.41.41,0,1,0,.41.41.41.41,0,0,0-.41-.41m7.19,0a.41.41,0,1,0,.41.41.41.41,0,0,0-.41-.41m7.19,0a.41.41,0,1,0,.41.41.41.41,0,0,0-.41-.41m7.19,0a.41.41,0,1,0,.41.41.41.41,0,0,0-.41-.41m7.19,0a.41.41,0,1,0,.41.41.41.41,0,0,0-.41-.41m-46.45-4.74a4.56,4.56,0,0,1-.11.68.39.39,0,0,0,.24-.37.44.44,0,0,0-.13-.31m6.9-.1a.41.41,0,0,0-.4.42.41.41,0,0,0,.42.4.42.42,0,0,0,.4-.41.41.41,0,0,0-.41-.41Zm7.19,0a.41.41,0,0,0-.4.42.41.41,0,0,0,.42.4.42.42,0,0,0,.4-.41.41.41,0,0,0-.41-.41Zm7.19,0a.41.41,0,0,0-.4.42.41.41,0,0,0,.42.4.42.42,0,0,0,.4-.41.41.41,0,0,0-.41-.41Zm7.19,0a.41.41,0,0,0-.4.42.41.41,0,0,0,.42.4.42.42,0,0,0,.4-.41.41.41,0,0,0-.41-.41Zm7.19,0a.41.41,0,0,0-.4.42.41.41,0,0,0,.42.4.42.42,0,0,0,.4-.41.41.41,0,0,0-.41-.41h0Zm7.19,0a.41.41,0,0,0-.4.42.41.41,0,0,0,.42.4.42.42,0,0,0,.4-.41.41.41,0,0,0-.41-.41Zm-39.54,14.68a.41.41,0,0,0-.41.41h0a.41.41,0,1,0,.42-.42Zm7.19,0a.41.41,0,0,0-.41.41h0a.41.41,0,1,0,.42-.42Zm7.19,0a.41.41,0,0,0-.41.41h0a.41.41,0,1,0,.42-.42Zm7.19,0a.41.41,0,0,0-.41.41h0a.41.41,0,1,0,.42-.42Zm7.19,0a.41.41,0,0,0-.41.41h0a.41.41,0,1,0,.42-.42Zm7.19,0a.41.41,0,0,0-.41.41h0a.41.41,0,1,0,.42-.42Zm7.19,0a.41.41,0,0,0-.41.41h0a.41.41,0,1,0,.42-.42Zm-46.73-4.84a.42.42,0,1,0,.41.43h0a.42.42,0,0,0-.41-.42m7.18,0a.42.42,0,1,0,.42.42.42.42,0,0,0-.42-.42m7.19,0a.42.42,0,1,0,.42.42.42.42,0,0,0-.42-.42m7.19,0a.42.42,0,1,0,.42.42.42.42,0,0,0-.42-.42m7.19,0a.42.42,0,1,0,.42.42.42.42,0,0,0-.42-.42m7.19,0a.42.42,0,1,0,.42.42.42.42,0,0,0-.42-.42h0Zm7.19,0a.42.42,0,1,0,.42.42.42.42,0,0,0-.42-.42m7.19,0a.42.42,0,1,0,.42.42.42.42,0,0,0-.42-.42M325.4,159.32l-.12.79a.41.41,0,0,0,.39-.41.4.4,0,0,0-.27-.38m7.05,0a.41.41,0,1,0,.41.41.41.41,0,0,0-.41-.41h0Zm7.19,0a.41.41,0,1,0,.41.41.41.41,0,0,0-.41-.41h0Zm7.19,0a.41.41,0,1,0,.41.41.41.41,0,0,0-.41-.41h0Zm7.19,0a.41.41,0,1,0,.41.41.41.41,0,0,0-.41-.41h0Zm7.19,0a.41.41,0,1,0,.41.41.41.41,0,0,0-.41-.41h0Zm7.19,0a.41.41,0,1,0,.41.41.41.41,0,0,0-.41-.41h0Zm7.19,0a.41.41,0,1,0,.41.41.41.41,0,0,0-.41-.41h0Zm-46.73-4.84a.41.41,0,1,0,.41.41.41.41,0,0,0-.41-.41h0Zm7.18,0a.41.41,0,0,0-.4.42.41.41,0,0,0,.42.4.42.42,0,0,0,.4-.41.41.41,0,0,0-.38-.44h0Zm7.19,0a.41.41,0,0,0-.4.42.41.41,0,0,0,.42.4.42.42,0,0,0,.4-.41.41.41,0,0,0-.38-.44h0Zm7.19,0a.41.41,0,0,0-.4.42.41.41,0,0,0,.42.4.42.42,0,0,0,.4-.41.41.41,0,0,0-.38-.44h0Zm7.19,0a.41.41,0,0,0-.4.42.41.41,0,0,0,.42.4.42.42,0,0,0,.4-.41.41.41,0,0,0-.38-.44h0Zm7.19,0a.41.41,0,0,0-.4.42.41.41,0,0,0,.42.4.42.42,0,0,0,.4-.41.41.41,0,0,0-.38-.44h-.06Zm7.19,0a.41.41,0,0,0-.4.42.41.41,0,0,0,.42.4.42.42,0,0,0,.4-.41.41.41,0,0,0-.38-.44h0Zm7.19,0a.41.41,0,0,0-.4.42.41.41,0,0,0,.42.4.42.42,0,0,0,.4-.41.41.41,0,0,0-.38-.44h0Zm-53.92,14.68a.41.41,0,0,0-.41.41h0a.41.41,0,0,0,.82,0,.4.4,0,0,0-.4-.42Zm7.19,0a.41.41,0,0,0-.41.41h0a.41.41,0,0,0,.82,0,.4.4,0,0,0-.4-.42Zm7.19,0a.41.41,0,0,0-.41.41h0a.41.41,0,0,0,.82,0,.4.4,0,0,0-.4-.42Zm7.19,0a.41.41,0,0,0-.41.41h0a.41.41,0,1,0,.82,0,.4.4,0,0,0-.4-.42Zm7.19,0a.41.41,0,0,0-.41.41h0a.41.41,0,1,0,.82,0,.4.4,0,0,0-.4-.42Zm7.19,0a.41.41,0,0,0-.41.41h0a.41.41,0,1,0,.82,0,.4.4,0,0,0-.4-.42Zm7.19,0a.41.41,0,0,0-.41.41h0a.41.41,0,1,0,.82,0,.4.4,0,0,0-.4-.42Zm7.19,0a.41.41,0,0,0-.41.41h0a.41.41,0,1,0,.82,0,.4.4,0,0,0-.4-.42Zm7.19,0a.41.41,0,0,0-.41.41h0a.41.41,0,1,0,.82,0,.4.4,0,0,0-.4-.42Zm-53.92-4.84a.42.42,0,0,0-.42.42.42.42,0,0,0,.48.35.4.4,0,0,0,0-.8h0Zm7.18,0a.39.39,0,1,0,.07.77.4.4,0,0,0,0-.8h0Zm7.19,0a.39.39,0,1,0,.07.77.4.4,0,0,0,0-.8h0Zm7.19,0a.39.39,0,1,0,.07.77.4.4,0,0,0,0-.8h0Zm7.19,0a.39.39,0,1,0,.07.77.4.4,0,0,0,0-.8h0Zm7.19,0a.39.39,0,1,0,.07.77.4.4,0,0,0,0-.8h-.05Zm7.19,0a.39.39,0,1,0,.07.77.4.4,0,0,0,0-.8h0Zm7.19,0a.39.39,0,1,0,.07.77.4.4,0,0,0,0-.8h0ZM325.26,179a.42.42,0,1,0,.41.43v0a.41.41,0,0,0-.38-.44h0Zm7.19,0a.42.42,0,1,0,.41.43v0a.41.41,0,0,0-.38-.44h0Zm7.19,0a.42.42,0,0,0-.43.41.43.43,0,0,0,.41.43.42.42,0,0,0,.43-.41v0a.41.41,0,0,0-.38-.44h0Zm7.19,0a.42.42,0,0,0-.43.41.43.43,0,0,0,.41.43.42.42,0,0,0,.43-.41v0a.41.41,0,0,0-.38-.44h0Zm7.19,0a.42.42,0,0,0-.43.41.43.43,0,0,0,.41.43.42.42,0,0,0,.43-.41v0a.41.41,0,0,0-.38-.44h0Zm7.19,0a.42.42,0,0,0-.43.41.43.43,0,0,0,.41.43.42.42,0,0,0,.43-.41v0a.41.41,0,0,0-.38-.44h0Zm7.19,0a.42.42,0,1,0,.41.43v0a.41.41,0,0,0-.38-.44h0Zm7.19,0a.42.42,0,1,0,.41.43v0a.41.41,0,0,0-.38-.44h0Zm7.19,0a.42.42,0,1,0,.41.43v0a.41.41,0,0,0-.38-.44h0Zm-53.92-4.85a.41.41,0,0,0-.42.4h0a.42.42,0,0,0,.35.48.43.43,0,0,0,.48-.35.29.29,0,0,0,0-.13.41.41,0,0,0-.41-.41m7.18,0a.41.41,0,0,0-.41.41.42.42,0,0,0,.35.48.43.43,0,0,0,.48-.35.29.29,0,0,0,0-.13.41.41,0,0,0-.41-.41h0m7.19,0a.41.41,0,0,0-.41.41.42.42,0,0,0,.35.48.43.43,0,0,0,.48-.35.29.29,0,0,0,0-.13.41.41,0,0,0-.41-.41h0m7.19,0a.41.41,0,0,0-.41.41.42.42,0,0,0,.35.48.43.43,0,0,0,.48-.35.29.29,0,0,0,0-.13.41.41,0,0,0-.41-.41h0m7.19,0a.41.41,0,0,0-.41.41.42.42,0,0,0,.35.48.43.43,0,0,0,.48-.35.29.29,0,0,0,0-.13.41.41,0,0,0-.41-.41h0m7.19,0a.41.41,0,0,0-.41.41.42.42,0,0,0,.35.48.43.43,0,0,0,.48-.35.29.29,0,0,0,0-.13.41.41,0,0,0-.41-.41h0Zm7.19,0a.41.41,0,0,0-.41.41.42.42,0,0,0,.35.48.43.43,0,0,0,.48-.35.29.29,0,0,0,0-.13.41.41,0,0,0-.41-.41h0m7.19,0a.41.41,0,0,0-.41.41.42.42,0,0,0,.35.48.43.43,0,0,0,.48-.35.29.29,0,0,0,0-.13.41.41,0,0,0-.41-.41h0m-53.92,14.69a.41.41,0,1,0,.41.41.41.41,0,0,0-.41-.41h0Zm7.19,0a.41.41,0,1,0,.41.41.41.41,0,0,0-.41-.41h0Zm7.19,0a.41.41,0,1,0,.41.41.41.41,0,0,0-.41-.41h0Zm7.19,0a.41.41,0,1,0,.41.41.41.41,0,0,0-.41-.41h0Zm7.19,0a.41.41,0,1,0,.41.41.41.41,0,0,0-.41-.41h0Zm7.19,0a.41.41,0,1,0,.41.41.41.41,0,0,0-.41-.41h0Zm7.19,0a.41.41,0,1,0,.41.41.41.41,0,0,0-.41-.41h0Zm7.19,0a.41.41,0,1,0,.41.41.41.41,0,0,0-.41-.41h0Zm7.19,0a.41.41,0,1,0,.41.41.41.41,0,0,0-.41-.41h0ZM321.67,184h0l-.12.81h.13a.42.42,0,0,0,.35-.48.42.42,0,0,0-.35-.35Zm7.19,0a.42.42,0,0,0-.42.42.42.42,0,0,0,.48.35.4.4,0,0,0-.05-.79h0Zm7.18,0a.41.41,0,0,0-.41.42.42.42,0,0,0,.48.35.4.4,0,0,0-.05-.79h0Zm7.19,0a.41.41,0,0,0-.41.42.42.42,0,0,0,.48.35.4.4,0,0,0-.05-.79h0Zm7.19,0a.41.41,0,0,0-.41.42.42.42,0,0,0,.48.35.4.4,0,0,0-.05-.79h0Zm7.19,0a.41.41,0,0,0-.41.42.42.42,0,0,0,.48.35.4.4,0,0,0-.05-.79h0Zm7.19,0a.41.41,0,0,0-.41.42.42.42,0,0,0,.48.35.4.4,0,0,0-.05-.79h0Zm7.19,0a.41.41,0,0,0-.41.42.42.42,0,0,0,.48.35A.4.4,0,0,0,372,184h0Zm7.19,0a.41.41,0,0,0-.41.42.42.42,0,0,0,.48.35.4.4,0,0,0-.05-.79h0Zm7.19,0a.41.41,0,0,0-.41.42.42.42,0,0,0,.48.35.4.4,0,0,0-.05-.79h0Zm-61.11,14.69a.42.42,0,1,0,.41.43v0a.41.41,0,0,0-.39-.43h0Zm7.19,0a.42.42,0,1,0,.41.43v0a.41.41,0,0,0-.39-.43h0Zm7.19,0a.42.42,0,0,0-.43.41.43.43,0,0,0,.41.43.42.42,0,0,0,.43-.41v0a.41.41,0,0,0-.39-.43h0Zm7.19,0a.42.42,0,0,0-.43.41.43.43,0,0,0,.41.43.42.42,0,0,0,.43-.41v0a.41.41,0,0,0-.39-.43h0Zm7.19,0a.42.42,0,0,0-.43.41.43.43,0,0,0,.41.43.42.42,0,0,0,.43-.41v0a.41.41,0,0,0-.39-.43h0Zm7.19,0a.42.42,0,0,0-.43.41.43.43,0,0,0,.41.43.42.42,0,0,0,.43-.41v0a.41.41,0,0,0-.39-.43h0Zm7.19,0a.42.42,0,1,0,.41.43v0a.41.41,0,0,0-.39-.43h0Zm7.19,0a.42.42,0,1,0,.41.43v0a.41.41,0,0,0-.39-.43h0Zm7.19,0a.42.42,0,1,0,.41.43v0a.41.41,0,0,0-.39-.43h0Zm7.19,0a.42.42,0,0,0-.13.83H390a.42.42,0,0,0,.35-.48.42.42,0,0,0-.35-.35m-68.3-4.84a.41.41,0,0,0-.42.4h0a.42.42,0,0,0,.83.13.29.29,0,0,0,0-.13.41.41,0,0,0-.39-.43h0Zm7.19,0a.41.41,0,0,0-.42.4h0a.42.42,0,0,0,.83.13.29.29,0,0,0,0-.13.41.41,0,0,0-.39-.43h0Zm7.18,0a.41.41,0,0,0-.41.41.42.42,0,1,0,.83.13.29.29,0,0,0,0-.13.41.41,0,0,0-.39-.43h0Zm7.19,0a.41.41,0,0,0-.41.41.42.42,0,1,0,.83.13.29.29,0,0,0,0-.13.41.41,0,0,0-.39-.43h0Zm7.19,0a.41.41,0,0,0-.41.41.42.42,0,1,0,.83.13.29.29,0,0,0,0-.13.41.41,0,0,0-.39-.43h0Zm7.19,0a.41.41,0,0,0-.41.41.42.42,0,1,0,.83.13.29.29,0,0,0,0-.13.41.41,0,0,0-.39-.43h0Zm7.19,0a.41.41,0,0,0-.41.41.42.42,0,0,0,.83.13.29.29,0,0,0,0-.13.41.41,0,0,0-.39-.43h-.05Zm7.19,0a.41.41,0,0,0-.41.41.42.42,0,0,0,.83.13.29.29,0,0,0,0-.13.41.41,0,0,0-.39-.43h0Zm7.19,0a.41.41,0,0,0-.41.41.42.42,0,0,0,.83.13.29.29,0,0,0,0-.13.41.41,0,0,0-.39-.43h0Zm7.19,0a.41.41,0,0,0-.41.41.42.42,0,0,0,.83.13.29.29,0,0,0,0-.13.41.41,0,0,0-.39-.43h0Zm-68.3,14.68H318q-.06.41-.12.78h.17a.4.4,0,1,0,0-.8Zm7.19,0a.41.41,0,1,0,.41.41.41.41,0,0,0-.41-.41h0Zm7.19,0a.41.41,0,1,0,.41.41.41.41,0,0,0-.41-.41h0Zm7.19,0a.41.41,0,1,0,.41.41.41.41,0,0,0-.41-.41h0Zm7.19,0a.41.41,0,1,0,.41.41.41.41,0,0,0-.41-.41h0Zm7.19,0a.41.41,0,1,0,.41.41.41.41,0,0,0-.41-.41h0Zm7.19,0a.41.41,0,1,0,.41.41.41.41,0,0,0-.41-.41h0Zm7.19,0a.41.41,0,1,0,.41.41.41.41,0,0,0-.41-.41h0Zm7.19,0a.41.41,0,1,0,.41.41.41.41,0,0,0-.41-.41h0Zm7.19,0a.41.41,0,1,0,.41.41.41.41,0,0,0-.41-.41h0Zm7.19,0a.41.41,0,1,0,.41.41.41.41,0,0,0-.41-.41m-68.3-4.85a.42.42,0,0,0-.42.42.42.42,0,0,0,.48.35.39.39,0,0,0-.06-.78Zm7.19,0a.42.42,0,0,0-.42.42.42.42,0,0,0,.48.35.39.39,0,0,0-.06-.78Zm7.18,0a.39.39,0,1,0,.07.77.39.39,0,0,0-.06-.78h0Zm7.19,0a.39.39,0,1,0,.07.77.39.39,0,0,0-.06-.78h0Zm7.19,0a.39.39,0,1,0,.07.77.39.39,0,0,0-.06-.78h0Zm7.19,0a.39.39,0,1,0,.07.77.39.39,0,0,0-.06-.78h0Zm7.19,0a.39.39,0,1,0,.07.77.42.42,0,0,0,.35-.35.42.42,0,0,0-.41-.43h0Zm7.19,0a.39.39,0,1,0,.07.77.39.39,0,0,0-.06-.78h0Zm7.19,0a.39.39,0,1,0,.07.77.39.39,0,0,0-.06-.78h0Zm7.19,0a.39.39,0,1,0,.07.77.39.39,0,0,0-.06-.78h0Zm-68.3,14.69a.42.42,0,0,0,0,.84.43.43,0,0,0,.43-.41h0a.41.41,0,0,0-.39-.43h0Zm7.19,0a.42.42,0,0,0,0,.84.43.43,0,0,0,.43-.41h0a.41.41,0,0,0-.39-.43h0Zm7.19,0a.42.42,0,0,0,0,.84.43.43,0,0,0,.43-.41h0a.41.41,0,0,0-.39-.43h0Zm7.19,0a.42.42,0,0,0,0,.84.43.43,0,0,0,.43-.41h0a.41.41,0,0,0-.39-.43h0Zm7.19,0a.42.42,0,0,0-.43.41.42.42,0,1,0,.84,0h0a.41.41,0,0,0-.39-.43h0Zm7.19,0a.42.42,0,0,0-.43.41.42.42,0,1,0,.84,0h0a.41.41,0,0,0-.39-.43h0Zm7.19,0a.42.42,0,0,0-.43.41.42.42,0,1,0,.84,0h0a.41.41,0,0,0-.39-.43h0Zm7.19,0a.42.42,0,0,0,0,.84.43.43,0,0,0,.43-.41h0a.41.41,0,0,0-.39-.43h0Zm7.19,0a.42.42,0,0,0,0,.84.43.43,0,0,0,.43-.41h0a.41.41,0,0,0-.39-.43h0Zm7.19,0a.42.42,0,0,0,0,.84.43.43,0,0,0,.43-.41h0a.41.41,0,0,0-.39-.43h0Zm7.19,0a.42.42,0,0,0-.48.35.43.43,0,0,0,.35.48.29.29,0,0,0,.13,0,.42.42,0,0,0,.35-.48.42.42,0,0,0-.35-.35m7.19,0a.42.42,0,0,0-.48.35.43.43,0,0,0,.35.48.29.29,0,0,0,.13,0,.42.42,0,0,0,.35-.48.42.42,0,0,0-.35-.35m-75.49-4.84a.42.42,0,0,0-.43.41.42.42,0,1,0,.84,0v0a.42.42,0,0,0-.41-.42Zm7.19,0a.42.42,0,0,0,0,.84.43.43,0,0,0,.43-.41v0a.42.42,0,0,0-.41-.42Zm7.18,0a.42.42,0,1,0,.42.42h0a.42.42,0,0,0-.42-.42Zm7.19,0a.42.42,0,1,0,.42.42h0a.42.42,0,0,0-.42-.42Zm7.19,0a.42.42,0,1,0,.42.42h0a.42.42,0,0,0-.42-.42Zm7.19,0a.42.42,0,1,0,.42.42h0a.42.42,0,0,0-.42-.42Zm7.19,0a.42.42,0,1,0,.42.42h0a.42.42,0,0,0-.42-.42h0Zm7.19,0a.42.42,0,1,0,.42.42h0a.42.42,0,0,0-.42-.42Zm7.19,0a.42.42,0,1,0,.42.42h0a.42.42,0,0,0-.42-.42Zm7.19,0a.42.42,0,1,0,.42.42h0a.42.42,0,0,0-.42-.42Zm7.19,0a.42.42,0,1,0,.42.42h0a.42.42,0,0,0-.42-.42Zm-75.49,14.69a.41.41,0,1,0,.41.41.41.41,0,0,0-.41-.41h0Zm7.19,0a.41.41,0,1,0,.41.41.41.41,0,0,0-.41-.41h0Zm7.19,0a.41.41,0,1,0,.41.41.41.41,0,0,0-.41-.41h0Zm7.19,0a.41.41,0,1,0,.41.41.41.41,0,0,0-.41-.41h0Zm7.19,0a.41.41,0,1,0,.41.41.41.41,0,0,0-.41-.41h0Zm7.19,0a.41.41,0,1,0,.41.41.41.41,0,0,0-.41-.41h0Zm7.19,0a.41.41,0,1,0,.41.41.41.41,0,0,0-.41-.41h0Zm7.19,0a.41.41,0,1,0,.41.41.41.41,0,0,0-.41-.41h0Zm7.19,0a.41.41,0,1,0,.41.41.41.41,0,0,0-.41-.41h0Zm7.19,0a.41.41,0,1,0,.41.41.41.41,0,0,0-.41-.41h0Zm7.19,0a.41.41,0,1,0,.41.41.41.41,0,0,0-.41-.41m7.19,0a.41.41,0,1,0,.41.41.41.41,0,0,0-.41-.41m-75.49-4.84a.41.41,0,1,0,.41.41.4.4,0,0,0-.4-.42h0Zm7.19,0a.41.41,0,1,0,.41.41.4.4,0,0,0-.4-.42h0Zm7.18,0a.41.41,0,0,0,0,.82.42.42,0,0,0,.4-.41.4.4,0,0,0-.4-.42h0Zm7.19,0a.41.41,0,0,0,0,.82.42.42,0,0,0,.4-.41.4.4,0,0,0-.4-.42h0Zm7.19,0a.41.41,0,0,0,0,.82.42.42,0,0,0,.4-.41.4.4,0,0,0-.4-.42h0Zm7.19,0a.41.41,0,0,0-.4.42.41.41,0,0,0,.42.4.42.42,0,0,0,.4-.41.4.4,0,0,0-.4-.42h0Zm7.19,0a.41.41,0,0,0-.4.42.41.41,0,0,0,.42.4.42.42,0,0,0,.4-.41.4.4,0,0,0-.4-.42h0Zm7.19,0a.41.41,0,0,0-.4.42.41.41,0,0,0,.42.4.42.42,0,0,0,.4-.41.4.4,0,0,0-.4-.42h0Zm7.19,0a.41.41,0,0,0-.4.42.41.41,0,0,0,.42.4.42.42,0,0,0,.4-.41.4.4,0,0,0-.4-.42h0Zm7.19,0a.41.41,0,0,0,0,.82.42.42,0,0,0,.4-.41.4.4,0,0,0-.4-.42h0Zm7.19,0a.41.41,0,0,0,0,.82.42.42,0,0,0,.4-.41.4.4,0,0,0-.4-.42h0Zm7.19,0a.41.41,0,1,0,.41.41.41.41,0,0,0-.41-.41m-82.68,14.68a.42.42,0,1,0,.41.43h0a.41.41,0,0,0-.39-.43h0Zm7.19,0a.42.42,0,1,0,.41.43h0a.41.41,0,0,0-.39-.43h0Zm7.19,0a.42.42,0,0,0-.43.41.43.43,0,0,0,.41.43.42.42,0,0,0,.43-.41h0a.41.41,0,0,0-.39-.43h0Zm7.19,0a.42.42,0,0,0-.43.41.43.43,0,0,0,.41.43.42.42,0,0,0,.43-.41h0a.41.41,0,0,0-.39-.43h0Zm7.19,0a.42.42,0,0,0-.43.41.43.43,0,0,0,.41.43.42.42,0,0,0,.43-.41h0a.41.41,0,0,0-.39-.43h0Zm7.19,0a.42.42,0,0,0-.43.41.43.43,0,0,0,.41.43.42.42,0,0,0,.43-.41h0a.41.41,0,0,0-.39-.43h0Zm7.19,0a.42.42,0,0,0-.43.41.43.43,0,0,0,.41.43.42.42,0,0,0,.43-.41h0a.41.41,0,0,0-.39-.43h0Zm7.19,0a.42.42,0,1,0,.41.43h0a.41.41,0,0,0-.39-.43h0Zm7.19,0a.42.42,0,1,0,.41.43h0a.41.41,0,0,0-.39-.43h0Zm-53.92-4.84a.42.42,0,0,0-.43.41.43.43,0,0,0,.41.43.42.42,0,0,0,.43-.41v0a.41.41,0,0,0-.41-.42Zm7.19,0a.42.42,0,0,0-.43.41.43.43,0,0,0,.41.43.42.42,0,0,0,.43-.41v0a.41.41,0,0,0-.41-.42Zm7.18,0a.42.42,0,1,0,.42.42h0a.42.42,0,0,0-.42-.42Zm7.19,0a.42.42,0,1,0,.42.42h0a.42.42,0,0,0-.42-.42Zm7.19,0a.42.42,0,1,0,.42.42h0a.42.42,0,0,0-.42-.42Zm7.19,0a.42.42,0,1,0,.42.42h0a.42.42,0,0,0-.42-.42Zm7.19,0a.42.42,0,1,0,.42.42h0a.42.42,0,0,0-.42-.42h0Zm7.19,0a.42.42,0,1,0,.42.42h0a.42.42,0,0,0-.42-.42Zm7.19,0a.42.42,0,1,0,.42.42h0a.42.42,0,0,0-.42-.42Zm7.19,0a.42.42,0,1,0,.42.42h0a.42.42,0,0,0-.42-.42Zm-57.51,9.84a.42.42,0,0,0-.42.42.38.38,0,0,0,0,.15l.72.09a.41.41,0,0,0,.08-.24.42.42,0,0,0-.38-.43Zm7.18,0a.41.41,0,0,0-.4.42.41.41,0,0,0,.42.4.42.42,0,0,0,.4-.41.41.41,0,0,0-.41-.41Zm7.19,0a.41.41,0,0,0-.4.42.41.41,0,0,0,.42.4.42.42,0,0,0,.4-.41.41.41,0,0,0-.41-.41Zm7.19,0a.41.41,0,1,0,0,.82.42.42,0,0,0,.4-.41.41.41,0,0,0-.41-.41Zm7.19,0a.4.4,0,0,0-.37.25l.69-.1a.4.4,0,0,0-.32-.16Z" style="fill: #fff"/>
    <path d="M327.87,51.21c-7.26,6.21-5.24,15.28-8.27,20.2-1.85,3-7.88,6.19-9.08,9.65-2,5.7,2.85,7.74,1.77,10.84-1.53,4.38-7.4,4-8.45,11.22s6.83,14.8,25.57,16.87,29-4.79,29.7-10.88-5.57-8.11-6-12.66c-.27-2.9,3.58-4.92,3.77-10.27s-5-7.08-5.76-11.62,1.66-15.58-5-21.21-14.67-5.19-18.25-2.14" style="fill: #263238"/>
    <path d="M328.71,51.37a15.44,15.44,0,0,0-4.82,5.55,33.35,33.35,0,0,0-2.68,7.37,20.17,20.17,0,0,1-1.45,4.41,11.11,11.11,0,0,1-2.52,3.1c-2,1.84-4.44,3.23-6.26,5.29s-3.07,4.56-2.38,7.22a29.39,29.39,0,0,0,1.92,4c.56,1.28.79,2.87-.31,3.93-.94.91-2.29,1.32-3.36,2.07A11.84,11.84,0,0,0,304.12,97a9.18,9.18,0,0,0-1.73,7.2C303.5,110,309,113.31,314,115.39c.71.3,1.41.58,2.12.86.11,0,.2-.11.09-.16-5.06-2.27-10.94-4.93-12.89-10.6A8.52,8.52,0,0,1,304.2,98a11,11,0,0,1,2.68-2.81c1-.76,2.2-1.22,3.23-1.93a3.41,3.41,0,0,0,1.59-3.08,8.47,8.47,0,0,0-1.39-3.72,7,7,0,0,1-1.2-3.93,7.72,7.72,0,0,1,1.5-3.74c1.58-2.24,3.92-3.7,6-5.39a12.73,12.73,0,0,0,4.56-6.31c.39-1.34.63-2.71,1-4.06a36.65,36.65,0,0,1,1.12-3.7,17.56,17.56,0,0,1,4-6.53,9.44,9.44,0,0,1,1.55-1.27c0-.07-.06-.17-.13-.13" style="fill: #263238"/>
    <path d="M359.94,104.65a7,7,0,0,0-1.3-2.73c-.65-.82-1.44-1.52-2.16-2.28A5.3,5.3,0,0,1,355,97.11a5.11,5.11,0,0,1,.82-3.38,24.47,24.47,0,0,0,1.68-3.26,11.3,11.3,0,0,0,.71-3.5,12,12,0,0,0-1.88-7c-.64-1-1.36-2-2-3.09a15.09,15.09,0,0,1-1.66-3.63c-.84-2.83-1-5.8-1.71-8.66a44.87,44.87,0,0,0-3.05-8.5c0-.06-.13,0-.09.06a39.22,39.22,0,0,1,2.66,7.68c.59,2.51.82,5.06,1.26,7.6a16.32,16.32,0,0,0,2.58,6.78c1.27,2.06,2.57,4.1,2.92,6.55a11.41,11.41,0,0,1-1.21,7c-1,1.86-2.36,3.92-1.5,6.1.73,1.84,2.49,3,3.66,4.48a7.43,7.43,0,0,1,1.27,5.92c-1,5.25-6.27,7.85-11.19,8.11a.12.12,0,0,0,0,.24c4.28,0,8.93-1.93,10.94-5.94a9.09,9.09,0,0,0,.78-6" style="fill: #263238"/>
    <path d="M343.06,88.28c-1.15,5.71-14,26.34-26.77,35-4.67,3.16-28.23,3.51-34.05,2.63-6.81-1-6.06-19.17-2.12-20.16,4.91-1.23,26.65.19,31.13-1.07,5.44-1.53,16-13.14,25.7-20.09,5-3.61,7-.72,6.11,3.69" style="fill: #ad6359"/>
    <path d="M327.85,119.73l.3,21.74s40.63-2.92,49.63-5.14c0,0-14.4-40-27.08-51.23-.29-.26-.58-.51-.86-.73-.06-.06-.12-.09-.17-.14C343.84,79.65,338,82,334.84,86.38c-1.81,2.53-10.8,17.43-11,23.27-.15,5.15,4,10.08,4,10.08" style="fill: #287dc0"/>
    <path d="M280.47,187.24c-12.92,26.92-3.69,59.25-3.69,59.25L240.16,252l-13.95-93.15s-3.5-3.57-6.68-3.09c-3.66.55-5.86,6.84-12.81,7.88-3.56.53-10.91-1.13-12.12-9.22s5.32-11.83,8.89-12.36c6.94-1,10.89,4.32,14.55,3.77,3.19-.47,5.48-4.91,5.48-4.91l-4.66-30.74,36.6-5.48s4.44,2.29,4.91,5.48c.55,3.66-4.81,7.61-3.77,14.55.53,3.57,4.27,10.1,12.36,8.89s9.75-8.56,9.22-12.12c-1-7-7.33-9.15-7.88-12.81-.47-3.18,3.09-6.68,3.09-6.68l40.52-6.07c2.59,42.67-25.93,75.67-33.44,91.32" style="fill: #287dc0"/>
    <g style="opacity: 0.10000599920749664;isolation: isolate">
      <g style="clip-path: url(#clip-path-3)">
        <path d="M280.47,187.24c-12.92,26.92-3.69,59.25-3.69,59.25L240.16,252l-13.95-93.15s-3.5-3.57-6.68-3.09c-3.66.55-5.86,6.84-12.81,7.88-3.56.53-10.91-1.13-12.12-9.22s5.32-11.83,8.89-12.36c6.94-1,10.89,4.32,14.55,3.77,3.19-.47,5.48-4.91,5.48-4.91l-4.66-30.74,36.6-5.48s4.44,2.29,4.91,5.48c.55,3.66-4.81,7.61-3.77,14.55.53,3.57,4.27,10.1,12.36,8.89s9.75-8.56,9.22-12.12c-1-7-7.33-9.15-7.88-12.81-.47-3.18,3.09-6.68,3.09-6.68l40.52-6.07c2.59,42.67-25.93,75.67-33.44,91.32"/>
      </g>
    </g>
    <path d="M353,92.85c.61,12.3,1,35.75-4.74,42.87-7.49,9.36-27.8,14.42-33.8,15.94-2.62.66-8.05-16.48-6.44-18.87s22.56-6.82,24.25-8.16,8.82-22,11.71-32.1c3.63-12.68,8.61-8.13,9,.32" style="fill: #ad6359"/>
    <path d="M292.37,138.69c-3.31.66-8.21-1.22-8.47,1.28-.23,2.23,3.29,3.19,3.29,3.19s-4.32.2-3.88,2.66,4.47,2.74,4.47,2.74-4,.38-3.36,2.81,4.4,2.9,4.4,2.9-1,.71.17,2.23c1.71,2.17,7.71,2.16,10.83,1.41s14-5.81,15.68-6.62l-4.61-20.13s-6.17-1.23-9.38-1.48-14,1.9-13.65,4.61,7.94,1.08,9.89,1.08,2.28.46,1.4,1.14a39.39,39.39,0,0,1-6.78,2.18" style="fill: #ad6359"/>
    <path d="M287.38,143.16c5,1,7.37.57,12.06-1.23.09,0,.16.1.07.14-4.43,2.18-7.32,3.14-12.19,1.33-.24-.12-.18-.32.06-.24" style="fill: #100e3a"/>
    <path d="M287.62,148.46c5.28.59,7.85.15,12.9-1.37a.06.06,0,0,1,0,.12c-4.83,1.91-7.73,2.8-12.93,1.52-.2,0-.22-.29,0-.27" style="fill: #100e3a"/>
    <path d="M288.92,154.24c5.16.19,8-.17,12.7-2.27.11-.05.2.1.09.16a17.05,17.05,0,0,1-12.78,2.26c-.32,0-.34-.17,0-.15" style="fill: #100e3a"/>
    <path d="M280.34,124.84c1.42-2.17-1.95-2.59-1.95-2.59s5-.56,5.59-3.37-3.53-3.08-3.82-3.11c.26,0,4.85-.66,5.15-3.55s-3.85-2.66-4.12-2.63c.24-.11,3.39-1.6,3.12-3.84-.46-3.86-8.62-.27-11.5-1.53l1.54-4.79c0-.16,0-.33.06-.49L272,98a31.81,31.81,0,0,1-3.53,3.81c-1.54,1.53-3,3-3.38,4.31a2.83,2.83,0,0,0,1,3.24s-2.64.77-2.95,3c-.16,1.17,1.56,2.45,1.56,2.45a3.38,3.38,0,0,0-2.24,2.73c-.13,1.62,1.61,2.66,1.61,2.66s-1.69,1.61-1.28,3.3c.82,3.45,14.52,6,17.55,1.3" style="fill: #ad6359"/>
    <path d="M272.78,103.53l1.6-4.1c0-.16.05-.33.06-.49.57-5.59-4.55-10.65-6.1-6.93-1.18,2.83,1.79,7.11.16,9.84Z" style="fill: #ad6359"/>
    <path d="M264.33,120.48s-.07,0,0,.06a24.1,24.1,0,0,0,14.26,1.75c.15,0,.16-.3,0-.29a49.3,49.3,0,0,1-14.26-1.52" style="fill: #263238"/>
    <path d="M264.63,114.9c-.05,0-.07.07,0,.09a22.6,22.6,0,0,0,15.68.94c.17-.06.28-.3.06-.24-3.59.9-11.39.39-15.74-.79" style="fill: #263238"/>
    <path d="M281.51,109.34c-5.07,1.48-10.1,1.2-15.23.16-.07,0-.08.08,0,.11,2.37,1.19,5.71,1.51,8.33,1.54a14.07,14.07,0,0,0,7-1.63s0-.21-.1-.18" style="fill: #263238"/>
    <path d="M335.69,85.37s-1.61,4.53.33,4.9,6.59-1.7,12.26-7c0,0-5.78-4.64-12.59,2.1" style="fill: #ad6359"/>
    <path d="M344.78,83.5c-.2.81-4.14,6-7.83,5.76-1.2-.08-1.07-6.66-1.07-6.66l-.1-.44-1.42-6.82,8.08-5,1.16-.66s.27,1.9.57,4.26v.33a1.1,1.1,0,0,0,.05.39c0,.35.1.71.14,1.07s.07.54.09.83.06.57.09.85a44.25,44.25,0,0,1,.24,6.09" style="fill: #ad6359"/>
    <path d="M344.13,73.88a14,14,0,0,1-8.35,8.28l-1.42-6.82,8.08-5,1.16-.66s.23,1.84.53,4.2" style="fill: #263238"/>
    <path d="M325.23,64.26c-1.3,12.17,5.84,14.33,8.46,14.61,2.39.25,10.53.81,13.09-11.16s-2.7-16.43-8.12-17.29-12.13,1.67-13.43,13.84" style="fill: #ad6359"/>
    <path d="M327.67,62.46a8.17,8.17,0,0,0,.84-.14,1.36,1.36,0,0,0,.82-.31.45.45,0,0,0,0-.54,1.1,1.1,0,0,0-1.06-.29,1.57,1.57,0,0,0-1,.53.47.47,0,0,0,.06.65.52.52,0,0,0,.34.1" style="fill: #263238"/>
    <path d="M335.64,63.16c-.29,0-.54-.14-.82-.21a1.35,1.35,0,0,1-.8-.37.44.44,0,0,1,0-.53,1.09,1.09,0,0,1,1.08-.21,1.61,1.61,0,0,1,1,.6.45.45,0,0,1-.11.64.48.48,0,0,1-.35.08" style="fill: #263238"/>
    <path d="M333.9,66.16s.06,0,.06.08c-.08.83,0,1.79.71,2.12-.89-.1-1-1.38-.77-2.2" style="fill: #263238"/>
    <path d="M334.69,65.38c1.35,0,1.29,2.67,0,2.69s-1.12-2.67,0-2.69" style="fill: #263238"/>
    <path d="M335.22,65.53c.23.16.45.43.74.47s.58-.24.8-.51a1,1,0,0,1-.76,1.1c-.55.1-.86-.4-1-.92,0-.06.12-.2.22-.14" style="fill: #263238"/>
    <path d="M329.17,65.76a.06.06,0,0,0-.06.07c0,.83-.11,1.79-.87,2.06v0c.93-.12,1.08-1.39.93-2.18" style="fill: #263238"/>
    <path d="M328.44,64.88c-1.34-.12-1.48,2.57-.24,2.68s1.36-2.58.24-2.68" style="fill: #263238"/>
    <path d="M327.87,65c-.22.13-.44.37-.7.38s-.49-.3-.67-.59c0,.51.1,1.05.59,1.18s.8-.31,1-.82c-.06,0-.13-.21-.22-.15" style="fill: #263238"/>
    <path d="M333.9,72.55c-.17.22-.34.51-.63.58a2.39,2.39,0,0,1-.92-.09h0a1.12,1.12,0,0,0,1.11.31.85.85,0,0,0,.55-.82s-.09,0-.11,0" style="fill: #263238"/>
    <path d="M330.46,69.51s-.21,1.24-.23,1.82c0,.06.14.09.33.11a2.79,2.79,0,0,0,2.74-1s0-.11-.08-.08a4.33,4.33,0,0,1-2.58.65c0-.17.44-2.11.35-2.12a4.82,4.82,0,0,0-1.35.26c.37-2.6,1.15-5.11,1.48-7.7a.08.08,0,0,0-.15,0A42.18,42.18,0,0,0,329,69.67c0,.33,1.19-.07,1.43-.16" style="fill: #263238"/>
    <path d="M330.66,71.21a3.48,3.48,0,0,0,1.26,1.18,1.54,1.54,0,0,0,.92.14c.68-.11.76-.73.68-1.26a3.91,3.91,0,0,0-.22-.83,4.44,4.44,0,0,1-2.64.77" style="fill: #263238"/>
    <path d="M331.92,72.39a1.54,1.54,0,0,0,.92.14c.68-.11.76-.73.68-1.26a1.58,1.58,0,0,0-1.6,1.12" style="fill: #ff9abb"/>
    <path d="M345.53,67.76c-2.79-.19-2.42-4.58-2.42-4.58s-3.14-.53-3-5.64A7.72,7.72,0,0,1,334,60.79c-.91.06,2.3-2,2.3-2s-3.89,3-10.54,1.24c-.47-.12.63-7.9,6.11-9.92s10.62.46,13.64,4.06c0,0,3.74,2.09,3.89,5.8s-2.82,7.86-3.9,7.79" style="fill: #263238"/>
    <path d="M334.67,70.79A4,4,0,0,1,331.79,66a4,4,0,1,1,3.86,4.9,4,4,0,0,1-1-.12m-2.37-4.63a3.42,3.42,0,1,0,4.14-2.5,3.39,3.39,0,0,0-.84-.1,3.43,3.43,0,0,0-3.3,2.6" style="fill: #287dc0"/>
    <path d="M326.39,69.85c-1.61-.18-2.73-2.08-2.49-4.25A4.72,4.72,0,0,1,325,63a2.45,2.45,0,0,1,4.19.46,4.67,4.67,0,0,1,.52,2.84c-.22,2-1.58,3.6-3.09,3.61a1.13,1.13,0,0,1-.26,0m-1-6.54a4.18,4.18,0,0,0-1,2.35c-.2,1.88.7,3.52,2,3.67s2.56-1.26,2.77-3.14a4.21,4.21,0,0,0-.46-2.51,2.06,2.06,0,0,0-1.56-1.15h-.2a2.16,2.16,0,0,0-1.52.78Z" style="fill: #287dc0"/>
    <path d="M331.87,66.48l.38-.36c-.54-.57-1.84-1.39-2.91-.48l.34.41c1-.83,2.1.38,2.19.43" style="fill: #287dc0"/>
    <path d="M349.24,69.42l.5-.18c-.09-.23-.9-2.26-2-2.58s-8.18-.41-8.48-.42v.53a80.7,80.7,0,0,1,8.35.4c.83.23,1.42,1.7,1.63,2.25" style="fill: #287dc0"/>
    <path d="M343.9,68.43s2.75-3.76,4.46-2.78-.41,6.49-2.46,7.2a2.07,2.07,0,0,1-2.72-1.08l0-.08Z" style="fill: #ad6359"/>
    <path d="M347.71,67.27a5.24,5.24,0,0,0-2.77,3.22,1.15,1.15,0,0,1,1.58-.38.71.71,0,0,1,.14.1v.08a1.26,1.26,0,0,0-1.41.41,6.18,6.18,0,0,0-.7,1.12c-.06.13-.29.05-.24-.09,0-1.85,1.47-4.37,3.4-4.52Z" style="fill: #263238"/>
    <path d="M90.61,87.52c4.21,4.55,20.5,16.52,30.08,14.5,8.58-1.81,22.8-40.42,24.14-52,.47-4-16.37.81-19.12,3.26-2.37,2.11-11.07,30.22-12.33,30.34-2.13.19-8.12-1.42-17.74-3.8-9.06-2.19-8,4.49-5,7.7" style="fill: #dd6a57"/>
    <path d="M120.88,60.61l23-.67S133,99.64,120.82,102.83c-2.81.73-18.33-2.39-29.61-13.68-3.49-3.49-7.54-12.34,5.77-9.3s15.87,3.25,16.23,3,7.67-22.24,7.67-22.24" style="fill: #287dc0"/>
    <path d="M142,64.35a49.54,49.54,0,0,0-5.45,0c-1.79,0-3.57.1-5.35.17-3.59.14-7.22.19-10.8.56a.07.07,0,0,0,0,.13c3.62.22,7.28.06,10.91,0,1.81-.06,3.63-.15,5.45-.25a46.09,46.09,0,0,0,5.25-.45c.09,0,.06-.1,0-.11" style="fill: #263238"/>
    <path d="M19,273.63l-3,6.2c-2.8,5.75-5.15,10.84-6.12,13.59v.05a8,8,0,0,0-.44,2c1.14,2,46.47,25.68,48.33,26s2.84-5,1.81-7.31S45.21,295,45.21,295l3.1-6.24Z" style="fill: #fff"/>
    <path d="M48.05,296.41c-2.81-2-6.79-3.27-10.16-2.17-.13,0-.07.23,0,.24a47.14,47.14,0,0,1,9.93,2.32.23.23,0,1,0,.23-.39" style="fill: #263238"/>
    <path d="M49.65,298.78c-2.81-2-6.79-3.27-10.16-2.17-.13,0-.07.23,0,.24a47.33,47.33,0,0,1,10,2.31.22.22,0,0,0,.26-.17.23.23,0,0,0-.07-.21" style="fill: #263238"/>
    <path d="M51.25,301.16c-2.81-2-6.79-3.27-10.16-2.17-.13,0-.07.22,0,.24A47.74,47.74,0,0,1,51,301.54a.23.23,0,0,0,.31-.08.22.22,0,0,0-.08-.3" style="fill: #263238"/>
    <path d="M57.78,321.48c-1.87-.29-47.18-24-48.34-26-.45-.75,2.62-7.56,6.56-15.67l.13-.26,29.41,15-.27.49s13.27,16.81,14.3,19.12,0,7.62-1.79,7.32" style="fill: #287dc0"/>
    <path d="M58.16,319.45c-7.54-4.18-38.38-20.29-46.12-23.89-.07,0-.09,0,0,.05,7.39,4.31,38.33,20.21,46.09,24,.13.05.19-.07,0-.16" style="fill: #263238"/>
    <path d="M49,292.5c.35-.17,22.23-44.7,29.21-63.51s15.58-58.89,17.25-67.1c0,0,5.59-18.29,7-33.74l-39.57.76S56.68,145,58.6,167.16c.12,1.37-10.77,47.2-14,53.33-4.92,9.39-28.22,55-28.87,55.31Z" style="fill: #37474f"/>
    <path d="M87.08,140.62c-1.91,9-3.54,18.09-5.28,27.13L76.58,195c-.86,4.48-1.69,9-2.59,13.45a81.34,81.34,0,0,1-3.61,13c-1.6,4.16-3.45,8.22-5.26,12.28s-3.68,8.16-5.57,12.22c-3.79,8.15-11,22.5-15,30.54l-1.49,3a.06.06,0,0,0,0,.08.05.05,0,0,0,.08,0c4.28-8,11.61-22.22,15.61-30.32s7.74-16.2,11.21-24.47a77,77,0,0,0,4.1-12.64c1-4.42,1.76-8.88,2.59-13.33l5.1-27.43q2.56-13.65,5.09-27.31c.21-1.12.41-2.24.6-3.37a.2.2,0,0,0-.39-.09" style="fill: #263238"/>
    <path d="M50.3,285.41c-.93-.59-9.57-5.09-11.51-6.08q-5.77-2.94-11.57-5.81c-2.19-1.08-4.41-2.1-6.65-3.09-.07,0-.13.07-.06.11,3.77,2.16,7.62,4.15,11.49,6.12s17,8.51,18.2,8.95a.11.11,0,0,0,.15-.05.11.11,0,0,0-.05-.15" style="fill: #263238"/>
    <path d="M102.53,128.16c-1.44,15.45-7,33.74-7,33.74-1.17,5.74-5.71,27-10.74,45.78L67.91,128.81c10.62-.21,34.62-.65,34.62-.65" style="fill: #263238"/>
    <path d="M89.55,297.5s.2,6.85.2,6.87c.14,6.39.38,12,.78,14.89a8.77,8.77,0,0,0,.51,2c1.93,1.24,53.07,1.57,54.86,1s.25-5.73-1.73-7.32-21.5-10.48-21.5-10.48l-.1-7Z" style="fill: #fff"/>
    <path d="M125.85,304.45c-3.41-.5-7.54.19-10,2.71-.1.1,0,.23.15.2a48.11,48.11,0,0,1,9.89-2.49.21.21,0,0,0,0-.42" style="fill: #263238"/>
    <path d="M128.36,305.82c-3.42-.49-7.54.2-10,2.72-.1.09,0,.23.15.19a47.52,47.52,0,0,1,9.88-2.48.21.21,0,0,0,.15-.27.2.2,0,0,0-.18-.16" style="fill: #263238"/>
    <path d="M130.86,307.16c-3.41-.49-7.53.2-10,2.72-.09.1,0,.23.16.19a47.52,47.52,0,0,1,9.88-2.48.22.22,0,0,0,.15-.27.22.22,0,0,0-.19-.16" style="fill: #263238"/>
    <path d="M146,322.29c-1.79.59-52.92.27-54.86-1-.75-.47-1.13-7.92-1.34-16.94v-.28l33-.16v.56s19.52,8.88,21.5,10.48,3.53,6.76,1.7,7.34" style="fill: #287dc0"/>
    <path d="M145.38,320.31c-8.61-.27-43.4-.53-51.94-.14-.07,0-.07.05,0,.05,8.54.45,43.32.44,51.94.23.19,0,.19-.14,0-.14" style="fill: #263238"/>
    <path d="M80.67,164s6.72,55.2,6.84,56.5c0,.52-.63,80.85-.63,80.85l37,.31s-1.74-75.63-2.46-83.43c-.09-.91-4.6-58.5-16.08-90.12L63.93,129s.73,18.69,9.5,32a67.46,67.46,0,0,1,7.24,3" style="fill: #37474f"/>
    <path d="M112.61,226.25c-.36-10.22-1-20.44-2-30.62s-2.44-20.1-4.28-30.06a249.33,249.33,0,0,0-7.16-29.67c-.39-1.22-.77-2.44-1.18-3.65a.14.14,0,0,0-.17-.09.15.15,0,0,0-.08.17c2.83,9.75,5.3,19.59,7.22,29.55s3.26,20.14,4.31,30.28,1.75,20.38,2.2,30.59,1.41,55.66,1.58,65.86v3.83c0,.09.14.08.14,0,.08-5.12.29-10.24.36-15.36s-.57-40.57-.94-50.83" style="fill: #263238"/>
    <path d="M86.25,166.48c-2.06-1.07-4.16-2-6.31-2.9s-4.36-1.66-6.5-2.57c-.08,0-.15.08-.07.13,2.11,1,4.19,2.15,6.33,3.13a49.94,49.94,0,0,0,6.47,2.44c.13,0,.21-.17.08-.23" style="fill: #263238"/>
    <path d="M84.11,188.58q-.93-7.82-2-15.6c-.21-1.46-.43-2.93-.66-4.39a35.08,35.08,0,0,0-.77-4.19c0-.07-.13-.05-.13,0a33.55,33.55,0,0,0,.34,4c.15,1.25.29,2.51.44,3.76.3,2.59.58,5.17.89,7.75.62,5.17,1.18,10.35,1.82,15.51.36,2.94.69,5.88,1.17,8.81a.17.17,0,0,0,.34,0c-.22-5.23-.83-10.46-1.44-15.65" style="fill: #263238"/>
    <path d="M122.3,294.39c-1.09-.11-10.83-.26-13-.27H96.37c-2.45,0-4.9.1-7.34.22a.06.06,0,1,0,0,.12h0c4.34.24,8.67.29,13,.33s19,0,20.27-.16a.12.12,0,0,0,.12-.12.12.12,0,0,0-.12-.12" style="fill: #263238"/>
    <path d="M249.54,49c0,8.18-7,10.91-10.61,10.91-7,0-10.14-5.89-13.84-5.89-3.22,0-6.15,4-6.15,4V98.7h-34.1s-4-2.92-4-6.14c0-3.7,5.89-6.81,5.89-13.84,0-3.6-2.73-10.62-10.91-10.62s-10.91,7-10.91,10.62c0,7,5.89,10.14,5.89,13.84,0,3.22-4,6.14-4,6.14h-44q-.36-3.89-.36-8c0-47,42.29-90.7,96.47-90.7V39.89s2.93,4,6.15,4c3.7,0,6.81-5.89,13.84-5.89,3.6.16,10.61,2.86,10.61,11" style="fill: #287dc0"/>
    <g style="opacity: 0.10000599920749664;isolation: isolate">
      <g style="clip-path: url(#clip-path-2)">
        <path d="M249.54,49c0,8.18-7,10.91-10.61,10.91-7,0-10.14-5.89-13.84-5.89-3.22,0-6.15,4-6.15,4V98.7h-34.1s-4-2.92-4-6.14c0-3.7,5.89-6.81,5.89-13.84,0-3.6-2.73-10.62-10.91-10.62s-10.91,7-10.91,10.62c0,7,5.89,10.14,5.89,13.84,0,3.22-4,6.14-4,6.14h-44q-.36-3.89-.36-8c0-47,42.29-90.7,96.47-90.7V39.89s2.93,4,6.15,4c3.7,0,6.81-5.89,13.84-5.89,3.6.16,10.61,2.86,10.61,11"/>
      </g>
    </g>
    <path d="M90.89,87.27c-2.19.48-7.48-2.87-9.86-6-.16-.22-.16-2.76-.3-5.84-.09-1.87-.24-4-.51-5.85-.06-.39,1.36.14,1.36.14l2.54.24,8.37.79a30.78,30.78,0,0,0-.1,7.43,4.05,4.05,0,0,0,.2.76v.13c.48,1.4,1.73,7.46-1.7,8.2" style="fill: #dd6a57"/>
    <path d="M92.59,78.9V79a6.32,6.32,0,0,1-1.21.24c-8,1-10.47-9-10.47-9L84.09,70l8.37.79a30.78,30.78,0,0,0-.1,7.43,3.56,3.56,0,0,0,.23.72" style="fill: #263238"/>
    <path d="M77.69,53.54C76.49,57.82,79,70,82.09,72.71c4.47,3.87,11.64,4.09,14.9-1.25,3.15-5.17-.41-21-3.84-23.45-5.05-3.56-13.68-.78-15.46,5.53" style="fill: #dd6a57"/>
    <path d="M90.52,60.4v.09c.22.81.35,1.77-.32,2.22h0c.84-.3.67-1.55.32-2.31" style="fill: #263238"/>
    <path d="M89.58,59.73c-1.33.22-.79,2.88.45,2.67s.67-2.86-.45-2.67" style="fill: #263238"/>
    <path d="M94.87,59.31s.07,0,.08.06c.14.83.45,1.75,1.25,1.87-.94.11-1.33-1.08-1.33-1.93" style="fill: #263238"/>
    <path d="M95.43,58.3c1.3-.38,1.95,2.26.75,2.6s-1.84-2.29-.75-2.6" style="fill: #263238"/>
    <path d="M88.28,58.73a10,10,0,0,0,1-.58c.36-.22.68-.36.86-.77a.57.57,0,0,0-.23-.66,1.42,1.42,0,0,0-1.43.14,2.09,2.09,0,0,0-1,1.13.61.61,0,0,0,.8.74" style="fill: #263238"/>
    <path d="M96.14,56.93A6.89,6.89,0,0,1,95,56.87a1.72,1.72,0,0,1-1.12-.28.58.58,0,0,1-.11-.69,1.4,1.4,0,0,1,1.33-.54,2.09,2.09,0,0,1,1.41.52.61.61,0,0,1-.4,1" style="fill: #263238"/>
    <path d="M90.85,68.27a1.17,1.17,0,0,0,.79.34,2.37,2.37,0,0,0,.84-.38h0a1.1,1.1,0,0,1-1,.66.9.9,0,0,1-.8-.59.13.13,0,0,1,.12,0" style="fill: #263238"/>
    <path d="M91.2,65.63a2.88,2.88,0,0,0,2.13.86,3.73,3.73,0,0,0,1-.16.6.6,0,0,0,.19-.06l.17-.06a.22.22,0,0,0,.13-.22v-.15c-.12-.64-.38-1.59-.38-1.59.26.07,1.55.36,1.46,0A42.41,42.41,0,0,0,93.07,56c0-.08-.17,0-.14,0,.59,2.63,1.65,5.14,2.29,7.77a5.15,5.15,0,0,0-1.41-.13c-.08,0,.53,1.83.56,2.12a4,4,0,0,1-3.08-.31c-.09.07-.15.13-.09.19" style="fill: #263238"/>
    <path d="M93.91,66.09a3.43,3.43,0,0,1-1.12,1.3,1.59,1.59,0,0,1-.9.25c-.69,0-.83-.64-.82-1.18a4.08,4.08,0,0,1,.14-.85,4.44,4.44,0,0,0,2.7.48" style="fill: #263238"/>
    <path d="M92.78,67.39a1.59,1.59,0,0,1-.9.25c-.69,0-.83-.64-.82-1.18a1.59,1.59,0,0,1,1.72.93" style="fill: #ff9abb"/>
    <path d="M79.91,63.16c2.06-.5,1-5.55,1-5.55s3.08-1.13,3.85-5.76c0,0,4.54,1.84,7.86.61,5.19-1.93,3.81-8.88,1.55-9.94C91,41,86.41,44.84,86.41,44.84s-8-.77-9.42,4.82a4,4,0,0,0-3,4.58c.43,3.8,4.38,9.26,5.92,8.92" style="fill: #263238"/>
    <path d="M80.22,58.32a7.26,7.26,0,0,0,3.62-2.91,5.34,5.34,0,0,0,.39-4.91c0-.08.1-.14.14-.06a6.25,6.25,0,0,1,0,5.25,5,5,0,0,1-4.16,2.78s-.07-.12,0-.15" style="fill: #263238"/>
    <path d="M73.32,52.05c.81-1.53,2.39-2,4-2.25a.07.07,0,1,1,0,.14,4.48,4.48,0,0,0-3.59,2.86,5.58,5.58,0,0,0,.45,4.29,11.33,11.33,0,0,0,5.64,5.85m0,.06a11.27,11.27,0,0,1-6.29-6.38c-.54-1.41-1-3.16-.21-4.57Z" style="fill: #263238"/>
    <path d="M86.2,45.1a5.31,5.31,0,0,1,2.54-2.78A6.36,6.36,0,0,1,93.28,42a3.61,3.61,0,0,1,2.39,2.69,6.3,6.3,0,0,1-.7,4.21h-.06a6.34,6.34,0,0,0,.46-3.79,3.32,3.32,0,0,0-2.43-2.54c-2.37-.59-5.57.14-6.61,2.64,0,0-.07,0-.11,0a.08.08,0,0,1,0-.11" style="fill: #263238"/>
    <path d="M80.54,63.49s-2.94-3.85-4.7-2.79.57,6.73,2.72,7.43a2.15,2.15,0,0,0,2.8-1.21l0-.07Z" style="fill: #dd6a57"/>
    <path d="M76.55,62.31v.06a5.38,5.38,0,0,1,3,3.28,1.18,1.18,0,0,0-1.64-.36.83.83,0,0,0-.15.11v.07a1.34,1.34,0,0,1,1.48.4A6.63,6.63,0,0,1,79.93,67c.08.13.32,0,.26-.1,0-1.93-1.61-4.51-3.64-4.61" style="fill: #263238"/>
    <path d="M57.28,146.22c.12.14,53.2.12,53.69-.43.67-.76-8.4-52.87-17.06-64.3-2.17-2.86-10-5.2-13.45-2.61-6.67,5.05-10.68,15.9-12.93,21.8a172.9,172.9,0,0,0-5.4,19.48c-2.92,12.53-5.29,25.56-4.85,26.06" style="fill: #287dc0"/>
    <path d="M85,88.16c4.51,5.88,24.62,26.69,34.34,25.57,11.78-1.36,25.85-7.21,31.54-11.74,3.19-2.55-10-18-13.17-16-5,3-15.24,6.29-17.29,6.91s-19.18-8-28.62-12.24c-8.52-3.8-9.46,4.1-6.8,7.55" style="fill: #dd6a57"/>
    <path d="M147.64,103.91c9.66-5.3,16.14-15.67,16.84-17.66.61-1.68.91-2.56.91-2.56,1.15-3,.27-4.7.27-4.7s2.35-3.09.72-4.82c-1.82-2-4.77,2.77-8,4.37-7.35,3.67-18.83,6.83-21,7.68Z" style="fill: #dd6a57"/>
    <path d="M153.41,87.8a53.68,53.68,0,0,0,6.25-3.58A55.38,55.38,0,0,0,165.57,79a.06.06,0,0,1,.09,0,.08.08,0,0,1,0,.09A28,28,0,0,1,153.5,88c-.11,0-.2-.14-.09-.19" style="fill: #263238"/>
    <path d="M155,92.55a38.93,38.93,0,0,0,10.35-8.91,25.11,25.11,0,0,1-10.26,9.09c-.1.09-.23-.1-.09-.18" style="fill: #263238"/>
    <path d="M149.27,82.4c-1.15.1-1.2-.5.29-1.9s8.59-5.66,6.89-8-11.62,3.81-13.93,6.33a54.74,54.74,0,0,0-5.16,7.4c2.17-.83,7.63-2.29,11.91-3.83" style="fill: #dd6a57"/>
    <path d="M133.35,87,146,106.94s-19.49,8.87-28.37,7.63S94.33,99.63,87.1,91.35s-6.32-16.79,9.24-9.19,22.82,10.16,23.79,10.14S133.35,87,133.35,87" style="fill: #287dc0"/>
    <path d="M103.06,106.5c-.88-.79-3.9-3.39-4.6-4q-2.14-1.92-4.25-3.88c-2.82-2.64-5.6-5.34-8.59-7.79,1.61,1.89,3.32,3.7,5.11,5.42l-.37-.19c-1-.56-2.1-1.08-3.08-1.74,0,0-.07,0-.08.06a.07.07,0,0,0,0,.06c1,.61,1.92,1.33,2.89,2,.48.31,1,.62,1.44.89l.6.32,1.69,1.56c1.45,1.31,2.92,2.59,4.45,3.81.74.59,4,3,4.75,3.59a.07.07,0,0,0,.1-.1.06.06,0,0,0-.08,0" style="fill: #263238"/>
    <path d="M141.39,108a54,54,0,0,0-2.76-4.7l-2.83-4.53c-1.93-3-3.8-6.15-5.92-9.06a.08.08,0,0,0-.08-.06.09.09,0,0,0-.06.09l0,0c1.63,3.24,3.61,6.33,5.53,9.4,1,1.54,1.95,3.07,2.95,4.59a51.19,51.19,0,0,0,3,4.32.08.08,0,0,0,.14-.09" style="fill: #263238"/>
    <path d="M133.44,86.85c-2,.67-9.79,4-11.78,4.64a4.25,4.25,0,0,1-2.73,0c-1-.3-24-10.12-25.89-11-.08,0-.14.09-.07.12,2,.83,21.36,9.83,23.38,10.65a19.6,19.6,0,0,0,2.78,1,3.89,3.89,0,0,0,2.62-.29c2-.86,9.7-4,11.62-5,0,0,.37.58.54.81s0,0,0-.06a9.09,9.09,0,0,0-.47-.87" style="fill: #263238"/>
    <path d="M146.19,107s-3.38,1.66-5,2.4-3.35,1.4-5.07,2-3.44,1.19-5.21,1.63a33.93,33.93,0,0,1-5.09,1c-.22,0-.43,0-.29-.1a47.78,47.78,0,0,0,5.23-1.47c1.71-.57,3.42-1.17,5.11-1.8l5.08-1.91,5-1.91-.7-1.26s0-.11.06,0c.14.32.88,1.42.88,1.42" style="fill: #263238"/>
    <path d="M127.15,55.5c.36-3.48-.82-8.78.25-11.15a3,3,0,0,1,3-1.82s-1.53-2.44-.2-4.42c.69-1,2.92-.83,2.92-.83a3.55,3.55,0,0,1,.15-3.69c1-1.35,3.11-1,3.11-1s-.2-2.43,1.29-3.47c3-2.1,15.45,5.47,14.58,11.21-.4,2.68-3.34.67-3.34.67s3.52,3.91,2,6.52-5.15-.25-5.15-.25,3.38,3.83,1.56,6.37-5.07-.83-5.07-.83,1.63,3.56-.21,5.19c-3,2.68-5.74-4.66-8.87-5.68l-4.25,3.59Z" style="fill: #dd6a57"/>
    <path d="M127,50.07c-.63,3.26-5.92,4.54-7,7.57-1.41,4.1,4.82,3,8.93-1.68l2.55-4.22Z" style="fill: #dd6a57"/>
    <path d="M136.78,32.66c-.05,0,0-.09,0-.07a25.17,25.17,0,0,1,12.35,8.57c.1.13-.07.35-.2.22a51.74,51.74,0,0,0-12.15-8.72" style="fill: #263238"/>
    <path d="M133.12,37.22c-.05,0,0-.11,0-.09A23.62,23.62,0,0,1,146,47.3c.1.17,0,.42-.11.24-2.11-3.18-8.56-8.22-12.77-10.32" style="fill: #263238"/>
    <path d="M142.43,53.29a32.16,32.16,0,0,0-11.78-10.71c-.06,0,0-.12.06-.1,2.68.71,5.5,2.78,7.57,4.58a14.51,14.51,0,0,1,4.31,6.13c0,.1-.1.2-.16.1" style="fill: #263238"/>
  </g>
</svg>
