<svg id="Layer_1" data-name="Layer 1" xmlns="http://www.w3.org/2000/svg" width="8.79cm" height="20.11cm" viewBox="0 0 249.03 570.12">
  <title>illustration</title>
  <g>
    <path d="M179.94,67c26.26,16.65,73.09,65.65,68.81,78.41-8.58,25.7-43.07,60-52.18,66.64-5.27,3.85-44-31-39-35.82,5.86-5.66,42-36.09,42.2-39.25.2-2.41-18.18-29.28-31.59-52-15.49-26.36-.74-25.94,11.76-18" style="fill: #d3766a"/>
    <path d="M163.16,173s-17.22,9.88-28.16,16.83c-6.11,3.91-16,11.53-19.16,16.45-4.76,7.36-19.93,41.14-11.78,45,7.34,3.5,16.7-27.2,16.7-27.2s-12.19,30.15-2.56,32.72,15.57-33.51,15.57-33.51-11.78,31.24-1.48,32.34c7.81.82,15.05-31.55,15.05-31.55s-10,26.93-2,28.11c8.83,1.31,17.39-28.14,17.39-28.14,20.83-.39,33.66-8,38-18.52.84-2-37.6-32.52-37.6-32.52" style="fill: #d3766a"/>
    <path d="M124.26,213.46c-1.55,3.48-3.15,7-4.39,10.62s-2.36,7.29-3.27,11a66.5,66.5,0,0,0-2.14,14.78c.91-8.84,5.17-21.88,6.4-25.45s2.31-7.29,3.55-10.89Z" style="fill: #263238"/>
    <path d="M137.39,217.72c-1.78,4.54-3.74,9-5.34,13.6s-2.69,9.08-4,13.78c-.1.37.12.3.23,0,1.45-4.64,3.15-8.82,4.67-13.46s2.84-9.31,4.51-13.86c0-.1-.12-.13-.12-.06" style="fill: #263238"/>
    <path d="M149.32,219.33a109,109,0,0,0-6.58,21.5c0,.35.2.23.3-.12,2.06-7.17,3.62-12.81,6.52-21.19.05-.21-.17-.32-.24-.19" style="fill: #263238"/>
    <path d="M159.59,82c5.42.28,10-8.87,11.45-15.35.11-.49-1.37-5.05-2.95-10.62-.94-3.37-1.92-7.22-2.56-10.78l-21.26,9.41a56.57,56.57,0,0,1,4.6,13.23A7.39,7.39,0,0,1,149,69.4a1,1,0,0,0,0,.24c0,2.86,5.35,12.1,10.6,12.39" style="fill: #d3766a"/>
    <path d="M149,69.4v.24a12.7,12.7,0,0,0,2.29-.29c12-2.44,13.14-17.72,13.09-23.56l-20.11,8.9a57,57,0,0,1,4.59,13.23A7.42,7.42,0,0,1,149,69.4" style="fill: #263238"/>
    <path d="M162.37,11c5.64,8.23,9,32.18,4.41,40.07-6.73,11.43-21.88,17.07-32.59,8C123.77,50.33,119.83,20,125.4,12.41c8.18-11.19,28.65-13.62,37-1.46" style="fill: #d3766a"/>
    <path d="M124.08,27.42s1.36,5.61,5.45,6.1c.33,0,20.72,22.6,39.2,14,0,0,8.89-21.24.14-34.89-5.66-8.82-13.18-9.33-13.18-9.33S138-4.2,124.33,7.07s-6.37,21.67-.25,20.35" style="fill: #263238"/>
    <path d="M230.41,454.6s1.81,72.16,1.81,72.21c0,13.35-.3,25-1,31.07a.09.09,0,0,1,0,.1,9.17,9.17,0,0,1-1,4.11v.09c-4,2.67-110.59,5.45-114.35,4.29s-.75-11.94,3.37-15.34,44.4-22.72,44.4-22.72l-1.29-72.13Z" style="fill: #d3766a"/>
    <path d="M115.78,566.52c3.75,1.16,110.35-1.6,114.34-4.29a9.26,9.26,0,0,0,1-4.13V558c.61-5.23.91-14.74,1-25.89-14,1.08-67.82,5.24-69.23,5.51S137.76,546,128.23,546a76.58,76.58,0,0,0-9.22,5.29c-4,3.26-7,14.07-3.23,15.2" style="fill: #263238"/>
    <path d="M163,537.55a12.22,12.22,0,0,0-7-5.76Z" style="fill: #263238"/>
    <path d="M238.38,527.27l-77.14.72s-4.38-125.61-4.71-167.48c-.39-47.84,2.32-191.37,2.32-191.37h57.37s15.78,31.63,6.95,67.23l-2.44,128Z" style="fill: #263238"/>
    <path d="M232.71,513.75c-2-.35-4.12-.34-6.14-.49-2.27-.17-4.55-.34-6.84-.42-4.39-.19-8.78-.27-13.18-.29-8.85,0-17.7,0-26.56.32q-7.58.23-15.15.64a.18.18,0,0,0-.11.22.16.16,0,0,0,.11.1c8.79.32,17.58.46,26.36.63s17.56.33,26.33.16c2.52,0,5.05,0,7.56-.22s5,0,7.54-.35c.2,0,.25-.27.08-.3" style="fill: #37474f"/>
    <path d="M166.85,444.5c-.91-20.76-1.57-41.54-2.14-62.28q-1.68-62.28-.89-124.71c.28-23.33.91-46.65,1.68-70,0-.25-.4-.23-.42,0-2.21,41.75-3.05,83.58-3.1,125.37s.83,83.16,2.88,124.7c1.14,23.31,2.58,46.62,4.76,69.87a.18.18,0,0,0,.22.11.16.16,0,0,0,.1-.11c-1-21.11-2.25-42.06-3.09-63" style="fill: #37474f"/>
    <path d="M145.2,458S147,530.13,147,530.18c0,13.35-.3,25-1,31.07v.1a9.47,9.47,0,0,1-1,4.11v.08c-4,2.68-110.58,5.46-114.34,4.29S29.91,557.9,34,554.5s44.42-22.72,44.42-22.72l-1.18-72.13Z" style="fill: #d3766a"/>
    <path d="M30.57,569.85c3.75,1.16,110.35-1.68,114.34-4.29a9.12,9.12,0,0,0,1-4.12v-.11c.61-5.23.91-14.74,1-25.88-14,1.07-67.81,5.23-69.23,5.5S52.55,549.37,43,549.37a75.87,75.87,0,0,0-9.23,5.28c-4,3.27-7,14.07-3.23,15.2" style="fill: #263238"/>
    <path d="M77.78,540.88a12.21,12.21,0,0,0-7-5.75Z" style="fill: #263238"/>
    <path d="M183.12,243s-31.64,99.75-32.22,118.08c-.48,15.62,1.52,170.3,1.52,170.3l-80.12.47S79,374,80.33,357.69c2.34-30.44,29.5-114,48.59-188.52h85.85s-.74,39-18.52,67.23c.05,0-8,3.69-13.13,6.58" style="fill: #263238"/>
    <path d="M148.16,516.58c-9.26-.27-18.85-.54-28.11-.31s-18.38.37-27.55.91c-5.2.32-10.39.49-15.59,1-.17,0-.15.27,0,.28,9.24.54,18.52.44,27.79.35s18.38-.18,27.56-.6c5.2-.24,10.4-.5,15.58-.86.59-.05.88-.76.32-.77" style="fill: #37474f"/>
    <path d="M130.66,216.13c-2.87,9.55-5.27,19.21-7.81,28.84s-5.15,19.37-7.71,29.08c-4.93,18.76-9.82,37.56-13.47,56.61a340.62,340.62,0,0,0-6.4,58c-.43,19.87,0,39.74.12,59.61s.31,34.22.64,54.18c0,2.49.1,5,.19,7.46a.19.19,0,0,0,.25.13.19.19,0,0,0,.13-.13c.53-19.86.24-39.76.17-59.62s-.32-34-.15-53.87a356.76,356.76,0,0,1,5-58.91c3.37-19.12,8-38,12.94-56.74q4.17-16.07,8.42-32.12c2.8-10.77,5.79-21.55,8.25-32.4a.32.32,0,0,0-.25-.38.3.3,0,0,0-.37.24" style="fill: #37474f"/>
    <path d="M163.31,244.9a69.85,69.85,0,0,0,11.9-1.08,114.34,114.34,0,0,0,11.53-3.19,89.93,89.93,0,0,1,11.3-1.86,39.06,39.06,0,0,0,11.07-3.36c.17,0,.31.17.14.25a69.85,69.85,0,0,1-10.62,4.61c-3.79,1.2-7.76,1.35-11.62,2.31a98.09,98.09,0,0,1-11.87,2.72,43,43,0,0,1-11.88-.2c-.15,0-.1-.2.05-.2" style="fill: #37474f"/>
    <path d="M158.26,324.25c.76-2.95,1.47-5.93,2.27-8.86,1.69-6,3.27-11.91,5.05-17.82,3.57-11.78,6.95-23.57,10.74-35.2,2.14-6.61,4.06-13.33,6.58-19.81a.14.14,0,0,1,.18-.08.15.15,0,0,1,.08.08c-1.27,6.06-3,12-4.67,17.94s-3.36,11.9-5.05,17.83c-3.36,11.78-6.73,23.56-10.48,35.35-1.06,3.36-2.12,6.55-3.27,9.79s-2.05,6.74-3.36,10c0,.18-.31.12-.29,0,.49-3.17,1.45-6.16,2.22-9.19" style="fill: #37474f"/>
    <path d="M129.61,139.83,129,169.14h87.35s-13.47-73.71-37-99.32c-11.79-12.8-23.77-9.93-32.61-1-2.22,2.25-20.89,33.46-23.7,46.91-2.56,11.88,6.63,24.07,6.63,24.07" style="fill: #3aa16c"/>
    <path d="M153,78.14a2.7,2.7,0,1,1-2.69-2.69A2.69,2.69,0,0,1,153,78.14m21.66-2.69a2.69,2.69,0,1,0,2.7,2.69,2.69,2.69,0,0,0-2.7-2.69ZM161.49,61.19a2.73,2.73,0,0,0,2,0,13.22,13.22,0,0,0-2,0M126,114.85a2.71,2.71,0,1,0,2.69,2.73v0a2.71,2.71,0,0,0-2.69-2.71m24.34,0a2.71,2.71,0,1,0,2.69,2.73v0a2.71,2.71,0,0,0-2.69-2.71m24.35,0a2.71,2.71,0,1,0,2.7,2.73v0a2.69,2.69,0,0,0-2.68-2.71Zm24.34,0a2.71,2.71,0,1,0,2.71,2.71,2.72,2.72,0,0,0-2.71-2.71ZM138.15,95.41a2.71,2.71,0,1,0,2.69,2.73v0a2.7,2.7,0,0,0-2.69-2.69m24.35,0a2.71,2.71,0,1,0,2.7,2.73v0a2.71,2.71,0,0,0-2.7-2.69Zm24.34,0a2.71,2.71,0,1,0,2.7,2.73v0a2.7,2.7,0,0,0-2.7-2.69Zm-36.52,58.91a2.71,2.71,0,1,0,2.69,2.73v0a2.71,2.71,0,0,0-2.66-2.76h0Zm24.35,0a2.71,2.71,0,1,0,2.7,2.73v0a2.71,2.71,0,0,0-2.63-2.76h-.07Zm24.34,0a1.92,1.92,0,1,0,.05,0H199Zm-60.86-19.54a2.71,2.71,0,1,0,2.69,2.73v0a2.7,2.7,0,0,0-2.69-2.69m24.35,0a2.71,2.71,0,1,0,2.7,2.73v0a2.71,2.71,0,0,0-2.7-2.69m24.34,0a2.71,2.71,0,1,0,2.7,2.73v0a2.7,2.7,0,0,0-2.7-2.69m21.89,1.68a2.62,2.62,0,0,0,.8,3c-.3-.89-.59-1.87-.86-2.92Z" style="fill: #fff"/>
    <path d="M154.66,64.93c11,.25,8.23,44.65-7.81,46.61s-6.09-46.93,7.81-46.61" style="fill: #d3766a"/>
    <path d="M142,73.34c-19.13,23.18-38.31,53.78-41.29,54.54-1.93.51-19.79.94-30.61-.54-10.1-1.38-13.86,49.47-7,51.17,14.56,3.64,43.52-.15,56.12-8.28,9.18-5.92,29-61.08,35.35-81.59,8.38-27.33-1-29.28-12.56-15.3" style="fill: #d3766a"/>
    <path d="M87.63,138.79s-3.9-3.37-17.5-11.45c-9.4-5.54-36.9-11.61-64.34,6.45-9.83,6.46-6.38,17.66,4.58,11.78a104,104,0,0,1,19.36-8s-5.32,12.27-1.32,18.91A141.7,141.7,0,0,0,40.2,173a28.51,28.51,0,0,0,3.36-1.91s11.79,8.92,22.59,7.12Z" style="fill: #d3766a"/>
    <path d="M61.64,125c-5.62,1.06-17.5,3.48-26.54,8.84-10.1,5.95-27.74,20.19-23.26,27.5,3.26,5.4,10.52.57,10.52.57s-6.1,7.41-2.07,11.63c3.68,3.86,9.05-.2,9.05-.2s-2.91,5,1.33,8.15c5,3.65,10.4-7.69,18.77-8.42,1.8-.23,12.2-48.07,12.2-48.07" style="fill: #d3766a"/>
    <path d="M43.13,143.42a46.54,46.54,0,0,0-20.86,18.29c-.12.21,0,.41.14.24A114.34,114.34,0,0,1,43.13,143.5Z" style="fill: #263238"/>
    <path d="M48.82,153.72c-4.26,2.05-14.82,9.95-19.7,19.49-.12.2,0,.4.14.24A122,122,0,0,1,48.88,153.8s0-.12-.06-.08" style="fill: #263238"/>
    <path d="M146.85,111.54a92.93,92.93,0,0,1,3.37-11,85.86,85.86,0,0,1,4.49-10.5A92.77,92.77,0,0,1,151.34,101a89.23,89.23,0,0,1-4.49,10.51" style="fill: #263238"/>
    <path d="M155.06,94.89a9.14,9.14,0,0,1-1.86,3.94,10.21,10.21,0,0,1-3.37,2.79l2.67-3.37c.44-.53.85-1.11,1.28-1.68s.85-1.09,1.28-1.68" style="fill: #263238"/>
    <path d="M139.07,3.27s13.3-7.36,25.12,0,17.47,25.47,15.45,40.62S190,69.13,191.42,80.43s-6.08,16.51-8.57,22.44c-2.84,6.73,8.57,30.88-20.48,36.47-36.33,7-50.23-15.35-46.51-33.81,1.8-9.06,6.9-15.49,6.73-22.81S117.33,69.57,120,60.28s6.27-8,7.75-22.59S126.25,5.74,139.07,3.27" style="fill: #263238"/>
    <path d="M161.71,2.92a45,45,0,0,1,17.17,20.67A41.31,41.31,0,0,1,182,36.82c.37,5.92-.54,11.49,1.69,17.25,3.53,9.24,10.62,16.93,10.28,27.22a25.41,25.41,0,0,1-4.38,13.46c-3.13,4.65-7.61,8.32-10.23,13.3-.12.2-.44,0-.34-.18,2.19-4.43,5.76-7.8,8.7-11.79a25.83,25.83,0,0,0,5.37-16.17c-.28-9.77-7.25-17.29-10.52-26.19a31.59,31.59,0,0,1-1.44-12.17,44.07,44.07,0,0,0-1.89-14.7A47.43,47.43,0,0,0,161.61,3.07a.09.09,0,0,1,0-.13.08.08,0,0,1,.12,0" style="fill: #263238"/>
    <path d="M115.91,103c.93-4.36,3.2-8.41,4.12-12.69,1.1-5.24-.23-10.45-1.22-15.6-1.43-7.34-1.28-14.29,2-21.2A123.65,123.65,0,0,0,127,40.1a55.43,55.43,0,0,0,2.77-15.79.11.11,0,0,1,.14,0,.12.12,0,0,1,0,0,50.24,50.24,0,0,1-4.87,22.52c-2,4.13-4.44,8-5.58,12.46a37.16,37.16,0,0,0,.1,15.92A62,62,0,0,1,121,86.07a30.4,30.4,0,0,1-2.57,10.69,37.6,37.6,0,0,0,.16,27.72c0,.15-.22.27-.28.1A35.71,35.71,0,0,1,115.91,103" style="fill: #263238"/>
    <path d="M192.33,79.23c-.34-8-5.94-13.46-9.34-20.5-2.58-5.27-4.33-10.9-3.47-16.71h.17c-.44,8.41,3.1,16,7.76,23.07,3.1,4.68,5.65,9.18,5.67,14.82S191,90,187.8,94.65a31,31,0,0,0-5.38,10.1,40.89,40.89,0,0,0-.56,11.79c0,.2-.32.2-.34,0-.52-6-.62-11.79,2.43-17.39,3.72-6.8,8.7-11.8,8.38-19.92" style="fill: #263238"/>
    <path d="M114.51,97.24a52.11,52.11,0,0,1,4.63-7.81,15.93,15.93,0,0,0,2.58-13.56c0-.12.17-.17.2,0,1.48,4.42,1.83,8.09-.79,12.18-3.67,5.69-7.26,10.88-8,17.66-1.33,12.07,5.47,23.31,16.51,29.41.15.08,0,.3-.14.23a30.08,30.08,0,0,1-17.11-22.55,28.93,28.93,0,0,1,2.13-15.56" style="fill: #263238"/>
  </g>
</svg>
