<svg id="Layer_1" data-name="Layer 1" xmlns="http://www.w3.org/2000/svg" xmlns:xlink="http://www.w3.org/1999/xlink" width="6.77cm" height="20cm" viewBox="0 0 191.8 566.89">
  <defs>
    <clipPath id="clip-path">
      <rect x="106.1" y="501.5" width="17.22" height="54.72" style="fill: none"/>
    </clipPath>
    <clipPath id="clip-path-2">
      <rect x="94.63" y="66.94" width="29.69" height="53.27" style="fill: none"/>
    </clipPath>
    <clipPath id="clip-path-3">
      <rect x="121.79" y="0.71" width="30.32" height="31.91" style="fill: none"/>
    </clipPath>
  </defs>
  <title>illustration</title>
  <g>
    <path d="M129.94,407.34l41.9,49.94c8,9.51,14.94,18,18.11,22.7v.08a9,9,0,0,1,1.79,3.53v.11c-1.2,4.31-75.22,70.9-78.63,72.36s-7.84-8-7-12.9,17.77-43.07,17.77-43.07L82.54,449.81Z" style="fill: #eb9481"/>
    <path d="M163.23,447.05l8.61,10.23c8,9.51,14.94,18,18.11,22.7v.08a16.7,16.7,0,0,1,1.78,3.53.2.2,0,0,1,0,.11c-1.19,4.31-75.21,70.9-78.62,72.36s-7.84-8-7-12.9,17.77-43.07,17.77-43.07l-8.82-10.23Z" style="fill: #ebebeb"/>
    <path d="M113.14,556.06c3.37-1.46,77.44-68,78.64-72.36.49-1.65-8.58-13-19.94-26.41l-.36-.42-48.27,42.39.76.8s-17,38.2-17.79,43.07,3.64,14.4,7,12.93" style="fill: #3aa16c"/>
    <polygon points="123.32 499.21 123.32 499.43 123.2 499.3 123.32 499.21" style="fill: #020100"/>
    <g style="opacity: 0.10000599920749664;isolation: isolate">
      <g style="clip-path: url(#clip-path)">
        <path d="M106.2,543.13c.72-4.32,14.1-34.68,17.12-41.63v46.17a122,122,0,0,1-10.18,8.4c-3.32,1.46-7.76-8-6.94-12.94" style="fill: #020100"/>
      </g>
    </g>
    <path d="M111.38,552.44c12.21-11.54,62.54-56.9,75.48-67.38.11-.09.17,0,0,.08-11.86,11.69-62.55,56.64-75.37,67.48-.11.26-.36,0-.11-.18" style="fill: #263238"/>
    <path d="M120.08,503.85c4.09-5.33,10.77-10,17.68-9.86.26,0,.25.39,0,.47a92.44,92.44,0,0,0-17.15,10,.43.43,0,0,1-.56-.21.41.41,0,0,1,0-.4" style="fill: #263238"/>
    <path d="M118.45,509.17c4.09-5.32,10.78-10,17.68-9.85.26,0,.25.38,0,.47a93.24,93.24,0,0,0-17.15,10,.42.42,0,0,1-.55-.23.44.44,0,0,1,0-.37" style="fill: #263238"/>
    <path d="M116.82,514.5c4.09-5.34,10.78-10,17.68-9.85.26,0,.26.37,0,.47a93.32,93.32,0,0,0-17.16,10,.42.42,0,0,1-.54-.26.45.45,0,0,1,0-.34" style="fill: #263238"/>
    <path d="M109.71,346.88c3.59,17.72,64.66,108.3,64.66,108.3l-54.24,49.66s-89-114.55-83.53-153.72c4.7-34.06,55.75-171.07,55.75-171.07H151.2s-45,149.4-41.49,166.83" style="fill: #37474f"/>
    <path d="M115.51,488.48C123.34,481,121,483,129,475.56c3.89-3.63,29.47-27.49,33.69-30.24.09,0,.22.08.15.16-3.13,4-29.09,27.39-33.06,30.95-8.08,7.27-5.84,5.09-14.1,12.28-.06.13-.28-.09-.12-.23" style="fill: #263238"/>
    <path d="M99.6,341c.85-4.44,1.8-8.84,2.74-13.24q2.88-13.51,6.07-26.94,6.38-26.62,13.82-52.94c5-17.61,10.32-35.19,16.43-52.46.76-2.13,1.57-4.26,2.31-6.38,0-.17.31-.09.26,0-5.29,17.24-10.74,34.47-15.66,51.94s-9.52,34.76-13.82,52.24c-2.17,8.79-4.19,17.6-6.15,26.44q-1.45,6.51-2.83,13a90.12,90.12,0,0,0-2.46,13.43,20.35,20.35,0,0,0,3.44,12.09c2.21,3.61,49.2,83.86,50.76,85.31.12.12,0,.29-.19.18-6.43-5.78-53.28-86.58-54.53-90.36A24.42,24.42,0,0,1,99.6,341" style="fill: #263238"/>
    <path d="M123.4,468.72,110.69,530.6c-.15,12.53-.53,23.37-1.25,29a.14.14,0,0,1,0,.09,8.5,8.5,0,0,1-1,3.83v.07c-3.73,2.48-103.32,4-106.82,2.9s-.59-11.15,3.23-14.29,41.7-20.79,41.7-20.79L59.9,469.6Z" style="fill: #eb9481"/>
    <path d="M1.56,566.52c3.48,1.12,103.09-.42,106.82-2.88v-.09a8.5,8.5,0,0,0,1-3.83.2.2,0,0,0,0-.11c.72-5.61,1.08-16.53,1.27-29l2.19-10.77H49L46.5,531.42S8.63,549.08,4.83,552.23s-6.78,13.2-3.27,14.29" style="fill: #ebebeb"/>
    <path d="M1.56,566.52c3.49,1.12,103.07-.42,106.83-2.89,1.44-.91,2-15.44,2.3-33v-.55l-64.24.28v1.08S8.63,549.08,4.83,552.23s-6.76,13.2-3.27,14.29" style="fill: #3aa16c"/>
    <path d="M2.62,562.65c16.79-.67,84.52-1.8,101.16-1.2.15,0,.15.11,0,.11-16.61,1-84.36,1.56-101.16,1.36-.34,0-.36-.27,0-.27" style="fill: #263238"/>
    <path d="M41.09,531.72c6.58-1.33,14.68-.45,19.79,4.19.21.17,0,.45-.26.39a92.45,92.45,0,0,0-19.5-3.75.41.41,0,0,1-.35-.48.43.43,0,0,1,.32-.35" style="fill: #263238"/>
    <path d="M36.36,534.67c6.6-1.33,14.68-.46,19.81,4.18.2.17,0,.46-.29.39a92.67,92.67,0,0,0-19.47-3.74A.43.43,0,0,1,36,535a.42.42,0,0,1,.32-.36" style="fill: #263238"/>
    <path d="M31.64,537.61c6.59-1.33,14.69-.45,19.81,4.19.19.17,0,.45-.28.39a92.5,92.5,0,0,0-19.49-3.76.43.43,0,0,1-.32-.51.46.46,0,0,1,.28-.31" style="fill: #263238"/>
    <path d="M93.66,180.05a240.67,240.67,0,0,1,5.06,29.33c1.23,12.31,2.76,23.21,4.41,24.57s11.15,7.5,14.29,9.4c0,0-29,87.89-36.48,117.19C70.1,403,44.12,530.44,44.12,530.44h69.21s21.06-121.31,30.25-161.75C151.42,334,181.69,230,181.69,230a60.42,60.42,0,0,0-2.44-50s-85.59,0-85.59.05" style="fill: #37474f"/>
    <path d="M50.27,517.07c10.27,0,7.32-.19,17.59-.14,5,0,38,.24,42.71,1.13.09,0,.09.2,0,.22-4.7.75-37.72,0-42.73-.19-10.26-.27-7.32-.31-17.57-.69a.17.17,0,0,1-.17-.16.16.16,0,0,1,.17-.17" style="fill: #263238"/>
    <path d="M98.22,230.5a131.73,131.73,0,0,1,19.1,12.79.24.24,0,0,1,.07.33.25.25,0,0,1-.33.06c-6.47-4.06-13.1-8-19.34-12.41a.46.46,0,0,1-.13-.64.45.45,0,0,1,.63-.13" style="fill: #263238"/>
    <path d="M103.55,182.74c0-.23.48-.22.45,0a231.53,231.53,0,0,0-2.44,23.35c-.24,3.62-.42,23.8,6,23.33,1.07-.08,1.76-1,2.16-2.55a25.81,25.81,0,0,0,.13-6.27c0-4.25,0-8.48.33-12.69a113.74,113.74,0,0,1,3.88-23.32.22.22,0,0,1,.27-.11.2.2,0,0,1,.12.19,216.36,216.36,0,0,0-3.13,32.53c0,5.25,1.36,13.38-4.14,13.35S100.07,217,100,213.31a119.76,119.76,0,0,1,3.6-30.57" style="fill: #263238"/>
    <path d="M107.26,229.91a29.77,29.77,0,0,1,.76,4.3,9.53,9.53,0,0,1,0,3.45.23.23,0,0,1-.44,0,11.51,11.51,0,0,1-.94-3.49c-.27-1.35-.58-2.68-.82-4a.74.74,0,0,1,.61-.84.73.73,0,0,1,.83.61" style="fill: #263238"/>
    <path d="M118.39,497.11c.17-1.65.39-3.31.63-4.95.42-3.14.94-6.27,1.41-9.5q1.42-9.54,3.13-19.05c2.16-12.63,4.7-25.23,7.32-37.78,1.56-7.08,3.22-14.1,5.06-21.09.14-.48.8-.25.72.22-1.11,6.41-2.19,12.83-3.46,19.21s-2.53,12.72-3.75,19.09c-2.41,12.53-4.7,25.22-7.08,37.8-.68,3.56-1.3,7.13-2,10.69q-.51,2.65-1,5.31c-.36,1.77-.91,3.5-1.19,5.27,0,.17-.27.09-.24,0,.24-1.77.27-3.51.46-5.22" style="fill: #263238"/>
    <path d="M73.65,386.91c2.31-11.49,5.41-22.83,8.54-34.11,6.27-22.71,13.7-45.1,21.08-67.47L109.66,266c1.07-3.23,6.27-20.6,6.93-22.26a.15.15,0,0,1,.18-.11.16.16,0,0,1,.1.18c-1.57,5.93-3.56,14.56-5.28,20.37s-3.58,11.55-5.38,17.32c-3.54,11.33-7.13,22.64-10.56,34-6.78,22.45-13.52,44.9-19,67.72-1.56,6.39-3.13,12.78-4.48,19.19s-5.59,22.31-6.94,28.74c0,.17-.33.12-.31,0,1.16-11.71,6.45-32.73,8.77-44.25" style="fill: #263238"/>
    <path d="M116.68,447c3.81-21.94,8.38-43.72,13.43-65.37s10.75-43.39,17-64.86,13.13-42.72,20.56-63.8a264.19,264.19,0,0,0,9.4-30.35c2.28-10.23,3.44-21.31,1-31.64a50.57,50.57,0,0,0-2.36-7.69c0-.17.19-.31.26-.14,8.32,19.4,2.92,40.61-3.41,59.75-3.48,10.48-7.18,20.87-10.61,31.33q-5.26,16.14-10.11,32.45c-6.39,21.53-12.31,43.19-17.62,65s-10,43.77-14.22,65.82-7.69,44.37-11.25,66.6c-.47,2.9-.83,5.82-1.2,8.72,0,.15-.29.15-.27,0,2.68-22,5.64-44,9.37-65.83" style="fill: #263238"/>
    <path d="M50.17,30.58,61.85,78.84c.51,1.43-.22,2.55-1.56,2.55l-24.84-.23A4,4,0,0,1,32,78.57L20.35,30.31c-.52-1.42.22-2.57,1.56-2.55L46.77,28a4,4,0,0,1,3.4,2.59" style="fill: #37474f"/>
    <path d="M47.22,30.53,58.91,78.79c.5,1.41-.22,2.56-1.57,2.54l-24.83-.22a4,4,0,0,1-3.44-2.6L17.37,30.25c-.5-1.41.22-2.55,1.57-2.54l24.83.22a4,4,0,0,1,3.45,2.6" style="fill: #455a64"/>
    <path d="M40.39,32.66a2.12,2.12,0,1,0,2.1-2.13h-.05a2.1,2.1,0,0,0-2,2.13" style="fill: #263238"/>
    <path d="M117.76,91.59c-11,28-37.26,65.17-49.09,66.11-5.64.44-15.67,2.46-23.5-3.54C28.1,141.09,15.4,120.8,11.56,108.91c-1.73-5.34,28.95-22.69,33.06-18.33,8.87,9.4,17.48,22.2,19.11,21.93,6.05-.86,26.36-20.37,42-35.41,19-18.14,16.4,3.34,12,14.49" style="fill: #eb9481"/>
    <path d="M9,73.81C12.14,61.49,14.83,58.81,12,47c-1.9-7.74,2.24-12.27,7.72-6.07C28.65,51.12,28,67.86,26,73.59Z" style="fill: #eb9481"/>
    <path d="M11.62,108.91S5.67,93.24,7.7,79.83c1.41-9.31,6.74-29.21,32.78-39.71,6.27-2.49,16.77-1.66,8.15,6.08C42.5,51.69,37,53.33,34,57.17c0,0,13.32,2.66,15.57,9A122.87,122.87,0,0,1,54.26,83a26.84,26.84,0,0,1-3.14,1.16s1.93,6-2.49,14.4Z" style="fill: #eb9481"/>
    <path d="M10.46,71.16C14.24,68,22.32,61.34,30.83,58.22c9.4-3.46,28.58-7.58,31.06-.58C63.72,62.76,56.54,65,56.54,65s8.28,0,8.9,5c.58,4.54-5.06,5.94-5.06,5.94s5,.83,4.7,5.33C64.74,86.6,54.29,84,49.21,89.13c-1.14,1.16-38.75-18-38.75-18" style="fill: #eb9481"/>
    <path d="M32.82,68.81a40,40,0,0,1,23.5-4c.21,0,.3.2.1.22A98,98,0,0,0,32.8,68.91s0-.07,0-.1" style="fill: #263238"/>
    <path d="M36.6,78.24c3.68-1.72,14.71-4.48,23.75-2.55.2,0,.27.22,0,.22a106.56,106.56,0,0,0-23.82,2.43s0-.08.07-.1" style="fill: #263238"/>
    <path d="M83.56,93.88,87.76,99l.86,1.05,16.7,20.21s15.14-24.72,18.19-38.78C125.35,73,124,68,120.38,67.1a5.72,5.72,0,0,0-.83-.12c-2.38-.2-5.58,1-9.4,3.87-10.8,8-26.59,23-26.59,23" style="fill: #3aa16c"/>
    <path d="M119.22,68.73a13.48,13.48,0,0,0,1.13-1.56,4.77,4.77,0,0,0-.83-.13,12.21,12.21,0,0,0-.3,1.69M87.76,99l.86,1.05a16.71,16.71,0,0,0,1-4.06,14.71,14.71,0,0,0-1.84,3m21.29-6.27a17.8,17.8,0,0,0,1.28,4.7,18.2,18.2,0,0,0,2.46,4.22,17.07,17.07,0,0,0-1.28-4.7,17.81,17.81,0,0,0-2.46-4.16Z" style="fill: #fff"/>
    <path d="M108.58,111.81c-.91-2.13-10.2-14.9-17.94-23a.17.17,0,0,0-.2,0,.2.2,0,0,0,0,.13c.74,1,16.1,21.51,17.87,23.06.15.19.34-.08.28-.23" style="fill: #263238"/>
    <g style="opacity: 0.05000310018658638;isolation: isolate">
      <g style="clip-path: url(#clip-path-2)">
        <path d="M94.63,107.3l10.69,12.91s15.14-24.71,18.19-38.78c2.12-9.7,0-14.84-5-14.47Z"/>
      </g>
    </g>
    <path d="M91.59,183.45c2.15,2.33,92.7,12,93.22,11.34,1.39-1.69-6.94-93.21-44.05-126.73-6.53-5.91-18.08-4.23-23.5-1.19-2.66,1.57-7.32,14.1-11.88,28.94C102,107.09,90.25,182,91.59,183.45" style="fill: #3aa16c"/>
    <path d="M119.22,68.73a15.87,15.87,0,0,0,2.1-3.49,14.89,14.89,0,0,0-1.47.49,13.93,13.93,0,0,0-.63,3m-11,63.87a16.54,16.54,0,0,0,2.41-4.25,17.36,17.36,0,0,0,1.24-4.7,17.39,17.39,0,0,0-2.41,4.23,17.59,17.59,0,0,0-1.24,4.72m42.43-16.08a18.89,18.89,0,0,0,3.64-8.93,17.36,17.36,0,0,0-2.4,4.23,16.54,16.54,0,0,0-1.21,4.74Zm27.75,38.39a13.09,13.09,0,0,0,1-1.42c-.11-.55-.23-1.12-.36-1.68a15.2,15.2,0,0,0-.63,3.14Zm-49.81,29.62A16.89,16.89,0,0,0,131,180.3a17.45,17.45,0,0,0,1.24-4.7,18.65,18.65,0,0,0-3.65,8.94Zm3.89-102.07a16.92,16.92,0,0,0,4.24,2.4,17.43,17.43,0,0,0,4.7,1.23,17.2,17.2,0,0,0-4.24-2.39,16.66,16.66,0,0,0-4.7-1.24m14.4,50.24a18.71,18.71,0,0,0,8.94,3.64,18.85,18.85,0,0,0-9-3.64Zm-51.2,16.82a17.47,17.47,0,0,0,4.71,1.21,17,17,0,0,0-4.24-2.41l-.2-.08c-.11.44-.17.86-.27,1.28m80.61,26.33a17.07,17.07,0,0,0,1.28,4.7,16.6,16.6,0,0,0,2.46,4.21,16.76,16.76,0,0,0-1.3-4.7,17.09,17.09,0,0,0-2.41-4.21ZM109,92.8a17.43,17.43,0,0,0,1.28,4.7,17.85,17.85,0,0,0,2.46,4.22,17.43,17.43,0,0,0-1.28-4.7,18.05,18.05,0,0,0-2.43-4.27Zm17.67,50.14a18.89,18.89,0,0,0,3.76,8.9,19.25,19.25,0,0,0-3.73-8.91Zm22.17,24.9a17.08,17.08,0,0,0,4.71-1.3,16.65,16.65,0,0,0,4.19-2.46,19,19,0,0,0-8.9,3.76m-45.25,2a18.71,18.71,0,0,0,8.9-3.75,17.47,17.47,0,0,0-4.7,1.3,17.77,17.77,0,0,0-4.17,2.43ZM124.17,114a17.43,17.43,0,0,0,4.7-1.28,17.85,17.85,0,0,0,4.22-2.46,16.74,16.74,0,0,0-4.71,1.3A17.79,17.79,0,0,0,124.2,114Z" style="fill: #fff"/>
    <path d="M151.89,78.76c22.69,27.39,41.47,62.36,39,71.66-2.73,10.21-26.9,45.73-43.47,59.74-4.37,3.7-31.34-32.65-26.81-36.79,8.68-8,27.47-30.11,30-33.53,2.13-2.88-6.95-23.75-13.37-47.81-4.94-18.42,3.1-27.18,14.62-13.27" style="fill: #eb9481"/>
    <path d="M75.2,204.49a6.85,6.85,0,0,0,5.74,5.27,10.14,10.14,0,0,0-.19,6.87c1.57,3.89,8.26,3.25,8.26,3.25a12.47,12.47,0,0,0,1,7.3c1.8,3.57,8.71,3.9,8.71,3.9a11,11,0,0,0,4.86,5.88c6.27,3.26,15.5-2.18,21.4-5.58s19.57-18.58,22.47-21.22L125.94,172s-30.88,7.69-37.28,12.67c-5.4,4.2-14.43,14.59-13.46,19.84" style="fill: #eb9481"/>
    <path d="M80.86,209c4.7-5.83,10.78-10,16.66-14.47a.13.13,0,0,1,.15.21c-5.89,4.39-10.86,9.9-16.56,14.51-.16.14-.37-.1-.25-.25" style="fill: #263238"/>
    <path d="M88.85,219.31a20.17,20.17,0,0,1,4-3.13c1.56-1,3-2,4.51-3,3.06-2,6.19-3.82,9.32-5.64.13-.08.28.13.15.22q-4.55,2.9-9,6c-1.56,1-2.94,2.08-4.4,3.13a22.66,22.66,0,0,1-4.26,2.79.26.26,0,0,1-.35-.38" style="fill: #263238"/>
    <path d="M98.85,231a13.7,13.7,0,0,1,3.74-2.66l4.2-2.59c2.81-1.75,5.6-3.49,8.32-5.34.13,0,.29.11.14.2-2.75,1.9-5.5,3.81-8.27,5.68l-4.1,2.72a12.87,12.87,0,0,1-3.94,2.13c-.09,0-.09-.09-.09-.14" style="fill: #263238"/>
    <path d="M141.39,116.77l35.19-6.64s-15-26.4-26.38-36.32-18.34-7-16.49,6.94,7.68,36,7.68,36" style="fill: #3aa16c"/>
    <path d="M133.71,80.77c.08.62.17,1.28.28,1.94a2.1,2.1,0,0,0,.13.89c2.18,13.87,7.27,33.19,7.27,33.19L151,115l1-.19,24.68-4.7s-6.37-11.2-13.94-21.75c-.25-.34-.5-.7-.77-1a86.38,86.38,0,0,0-11.66-13.52c-11.36-9.87-18.35-6.91-16.5,7" style="fill: #3aa16c"/>
    <path d="M157.8,89.75a17.55,17.55,0,0,0,4.7-1.29h.12c-.25-.34-.5-.7-.77-1a16.69,16.69,0,0,0-4,2.34m-23.81-7a2.1,2.1,0,0,0,.13.89,21.35,21.35,0,0,0,2.63,1.29,17.83,17.83,0,0,0,4.7,1.24,16.92,16.92,0,0,0-4.24-2.4,20.4,20.4,0,0,0-3.22-1M151,115l1-.19a20.3,20.3,0,0,0,1.21-2.48,16.57,16.57,0,0,0,1.24-4.7,17.89,17.89,0,0,0-2.4,4.23,20.47,20.47,0,0,0-1,3.14" style="fill: #fff"/>
    <path d="M170.52,102.83c-2.41-.25-18.8,1.82-30.18,4.83a.15.15,0,0,0-.09.18.14.14,0,0,0,.09.08c1.29-.17,27.88-3.88,30.21-4.7.24,0,.14-.31,0-.39" style="fill: #263238"/>
    <path d="M135,95.9c0-.11.12-.14.17,0a32.39,32.39,0,0,1,1.47,3.5c.11.26.21.55.3.81-.47-3-.89-6-1.31-8.94,0-.15.2-.18.21,0,1.9,10.21,3.59,15.12,5.74,25.27l3.13-.35a.2.2,0,0,1,.24.13.18.18,0,0,1-.13.23.11.11,0,0,1-.11,0l-3.4.82a.44.44,0,0,1-.44-.24c-2.38-6.37-2.47-8-3.6-14.75-.41-.93-.81-1.85-1.17-2.79A24.84,24.84,0,0,1,135,95.9" style="fill: #263238"/>
    <path d="M119.89,82.16c5.41,1.9,15.83-5.56,20.37-12,.32-.46.13-5.49.17-11.63,0-3.71.19-7.83.58-11.62.1-.79-24.25,3.22-24.25,3.22a61.08,61.08,0,0,1,.74,14.73,8.43,8.43,0,0,1-.33,1.57,1,1,0,0,0,0,.25c-.91,2.85-2.5,13.66,2.72,15.51" style="fill: #eb9481"/>
    <path d="M139.49,46.81c-1.77,6.27-7.38,21.25-20,20.2a14.08,14.08,0,0,1-2.41-.39.53.53,0,0,1,0-.25,14.13,14.13,0,0,0,.33-1.57,60.58,60.58,0,0,0-.76-14.73s17.63-2.87,22.86-3.26" style="fill: #263238"/>
    <path d="M147.42,36.83a42.77,42.77,0,0,0,0,7.84c.44,2,4.88,4.26,4.88,4.26s-5.19,1.56-6.63,1.25S142,46,142,46s2,6.05,4,6.44c1.28.23-3.14.12-3.14.12a6,6,0,0,1-3.83-1.94c-1.49-1.82,8.36-13.76,8.36-13.76" style="fill: #263238"/>
    <path d="M145.14,17.07c2.57,8.45-1.88,32.81-7.84,38.25-8.7,7.84-22.92,8.62-29.63-1.83-6.49-10.12-.11-41.79,6.58-46.73,9.83-7.27,27.08-2.14,30.89,10.31" style="fill: #eb9481"/>
    <path d="M121.29,32s.11.11.09.17c-.41,1.57-.61,3.54.75,4.4v.1c-1.77-.65-1.5-3.2-.84-4.67" style="fill: #263238"/>
    <path d="M123.1,30.58c2.67.38,1.73,5.67-.73,5.33s-1.51-5.64.73-5.33" style="fill: #263238"/>
    <path d="M112.07,30.39a.15.15,0,0,0-.15.13c-.24,1.64-.79,3.51-2.37,3.79v.09c1.83.07,2.57-2.41,2.52-4" style="fill: #263238"/>
    <path d="M110.91,28.42c-2.61-.66-3.76,4.59-1.33,5.22s3.51-4.66,1.33-5.22" style="fill: #263238"/>
    <path d="M125.6,27.62c-.69-.32-1.27-.71-1.93-1.08a3.64,3.64,0,0,1-1.76-1.48,1.15,1.15,0,0,1,.41-1.33,2.85,2.85,0,0,1,2.85.19,4.18,4.18,0,0,1,2.06,2.18,1.23,1.23,0,0,1-.77,1.55,1.27,1.27,0,0,1-.86,0" style="fill: #263238"/>
    <path d="M108.89,25.33h2.21a3.64,3.64,0,0,0,2.26-.44,1.13,1.13,0,0,0,.28-1.36,2.8,2.8,0,0,0-2.58-1.22,4.11,4.11,0,0,0-2.86.91,1.22,1.22,0,0,0-.07,1.72,1.2,1.2,0,0,0,.76.39" style="fill: #263238"/>
    <path d="M122,47.25c-.33.46-.63,1-1.21,1.21a4.44,4.44,0,0,1-1.85-.11m0,.11a2.28,2.28,0,0,0,2.24.52,1.81,1.81,0,0,0,1-1.68.11.11,0,0,0-.09-.13.1.1,0,0,0-.13.08Z" style="fill: #263238"/>
    <path d="M120.47,42.49a5.64,5.64,0,0,1-4.17,1.83,6.37,6.37,0,0,1-2-.27,1.27,1.27,0,0,1-.38-.11l-.34-.1a.45.45,0,0,1-.27-.44.54.54,0,0,1,0-.18v-.14c.19-1.27.64-3.13.64-3.13-.5.14-3,.78-2.88.14a85,85,0,0,1,5.16-16.56c0-.17.34,0,.29.11-1,5.25-3,10.28-4.12,15.54a10.11,10.11,0,0,1,2.79-.34c.16.09-1,3.66-1,4.24a7.83,7.83,0,0,0,6.11-.78c.22,0,.33.08.2.19" style="fill: #263238"/>
    <path d="M143.74,38.59c-4.37-1.3-6.39-16-6.39-16l-.94,8.06a19.77,19.77,0,0,1-4.88-6.41,14.38,14.38,0,0,1-.25-8s-4.9,5-10.53,6.42c-2.06.52-15.84-1.32-15.82-2.26,0-2.8,4.7-11.2,8.62-13.75a19.77,19.77,0,0,1,19.77-2.15c9,3.59,11.3,9.4,12.54,14s-.52,20.59-2.12,20.12" style="fill: #263238"/>
    <path d="M139.93,37s5.66-7.84,9.2-5.74-.83,13.37-5.06,14.86a4.28,4.28,0,0,1-5.61-2.26l-.06-.15Z" style="fill: #eb9481"/>
    <path d="M147.8,34.42v.12c-3,1.13-4.56,3.83-5.7,6.63a2.36,2.36,0,0,1,3.54-.56s0,.17-.1.15a2.62,2.62,0,0,0-2.9.85,13.21,13.21,0,0,0-1.44,2.32c-.14.25-.61.11-.5-.19v-.08c.05-3.74,3.06-8.94,7.1-9.24" style="fill: #263238"/>
    <path d="M121.79,2.81A34.63,34.63,0,0,1,131.57.09c3.77-.43,15.66.7,18.45,3.13s3.39,13.65,3.44,15.29-.85,11.54-4.49,13.86-3.68-14.5-9.26-20.19-17.92-9.37-17.92-9.37" style="fill: #3aa16c"/>
    <g style="opacity: 0.10000599920749664;isolation: isolate">
      <g style="clip-path: url(#clip-path-3)">
        <path d="M121.79,2.83s12.36,3.68,17.92,9.4,5.64,22.5,9.26,20.17c1.57-1,2.4-2.57,3.14-5.19-.66-4.94-2.52-12.53-6.54-18-3.76-5-10.31-7.63-17.37-8.54a38.82,38.82,0,0,0-6.41,2.12"/>
      </g>
    </g>
    <path d="M147.83,42.35c-.25-4.5-4.61-16.58-9.28-23.51S119.89,7.62,117.93,7.7c-4.78.19-6.42,1.57-7.17,1.18s4.23-4,5.59-4.7,5-2.62,7.07-2.53,14.85,1.57,19.4,7.1,10.89,20.94,9.62,24.84c-.32.92-1.57,1.56-2,2.83a41.59,41.59,0,0,1-1.57,5c-.61,1.21-1,1.35-1,1" style="fill: #3aa16c"/>
    <path d="M137.5,15.71a23.8,23.8,0,0,0,3.14-2.23,16.46,16.46,0,0,0,2.69-2.78h.13A12.84,12.84,0,0,1,141,13.83a10.76,10.76,0,0,1-3.4,2c-.13.14-.2-.08-.1-.14" style="fill: #263238"/>
    <path d="M147.94,37.87a9.84,9.84,0,0,1,.52-.91,7.24,7.24,0,0,0,.44-1.12,10.17,10.17,0,0,1,.53-2.16,9.11,9.11,0,0,1,1.08-1.47,3,3,0,0,0,.92-1.8m.15,0A7.43,7.43,0,0,1,150,33.84a12.47,12.47,0,0,0-.64,2.32A3.6,3.6,0,0,1,148.14,38c-.09,0-.25-.05-.2-.15Z" style="fill: #263238"/>
    <path d="M146.48,33a19.06,19.06,0,0,0,1.29-1.56,12.16,12.16,0,0,0,1-1.67c.3-.56.55-1.14.82-1.72s.75-1.3,1.05-2c0-.09.17,0,.14,0-.31.72-.5,1.57-.78,2.21a15.38,15.38,0,0,1-.9,1.82A10.33,10.33,0,0,1,148,31.64a4.81,4.81,0,0,1-1.47,1.26s-.08.12-.05.09" style="fill: #263238"/>
    <path d="M144.93,28.57a12.78,12.78,0,0,0,2.48-2.71c.67-1,1.28-2,1.88-3.13h.14a16.22,16.22,0,0,1-1.57,3.38,8.28,8.28,0,0,1-1.17,1.4,8.42,8.42,0,0,1-1.57,1.08c-.17.16-.27.05-.19,0" style="fill: #263238"/>
    <path d="M143.22,24.36a4.42,4.42,0,0,0,1.21-1.19,17.61,17.61,0,0,0,1.14-1.57l1.09-1.47a4.48,4.48,0,0,0,.83-1.57h.14a4.47,4.47,0,0,1-.54,1.74A11.83,11.83,0,0,1,146,22a16,16,0,0,1-1.28,1.57,2.93,2.93,0,0,1-1.46,1c-.11,0-.19-.1-.08-.22" style="fill: #263238"/>
    <path d="M142,19c.43-.4.83-.81,1.22-1.23s.77-.9,1.13-1.35.77-.94,1.12-1.44m.12,0a10.29,10.29,0,0,1-.86,1.56,12.64,12.64,0,0,1-1.1,1.43,15,15,0,0,1-1.25,1.27,5,5,0,0,1-1.47,1,.12.12,0,0,1-.14-.07.19.19,0,0,1,0-.08A8.41,8.41,0,0,1,142,19Z" style="fill: #263238"/>
    <path d="M134.12,13.09c.45-.53.89-1.06,1.4-1.56a16.22,16.22,0,0,1,1.56-1.43,19.06,19.06,0,0,1,3.53-2.29s.15,0,0,.11c-2.15,1.79-4.37,3.48-6.51,5.28Z" style="fill: #263238"/>
    <path d="M131.47,9.21A8.75,8.75,0,0,1,133,7.8a19.5,19.5,0,0,1,3.85-2.12m.08.13c-1.17.75-2.36,1.56-3.49,2.3a12,12,0,0,0-1.57,1.29c-.45.45-.91,1-1.39,1.56m-.1,0a5.48,5.48,0,0,1,1.05-1.75Z" style="fill: #263238"/>
    <path d="M127.77,7.39A10,10,0,0,1,129.2,6a11.05,11.05,0,0,1,3.31-1.87c.07,0,.12.1,0,.13a22,22,0,0,0-3.14,2.19c-.48.41-1,.85-1.42,1.27s-.91.92-1.4,1.35h0a10.43,10.43,0,0,1,1.22-1.66" style="fill: #263238"/>
    <path d="M125.11,5.12c.47-.38,1-.74,1.47-1.08a6,6,0,0,1,1.57-.85c.09,0,.13.09,0,.14-.94.71-1.85,1.44-2.77,2.18A14.57,14.57,0,0,0,123.25,8h-.08a5.58,5.58,0,0,1,1.94-2.83" style="fill: #263238"/>
    <path d="M121.76,4.33a9.13,9.13,0,0,1,3-1.78s.13.11,0,.14a11.21,11.21,0,0,0-2.74,2,14.79,14.79,0,0,0-2.19,2.62h-.1a7.57,7.57,0,0,1,2-3" style="fill: #263238"/>
    <path d="M117.31,6.26a4.09,4.09,0,0,1,.4-.67,7.87,7.87,0,0,1,1-1.21,16.44,16.44,0,0,1,2.57-1.83s.16,0,0,.12a13.52,13.52,0,0,0-2.41,2,13.9,13.9,0,0,0-1,1.17l-.4.63a5.14,5.14,0,0,1-.38.64H117a1.92,1.92,0,0,1,.32-.83" style="fill: #263238"/>
    <path d="M114.61,6.46a11.28,11.28,0,0,1,.83-1c.31-.31.62-.6,1-.88s.7-.54,1-.83c0,0,.17,0,0,.11a7.58,7.58,0,0,0-1,.93l-.87.92-.84.93c-.27.33-.56.65-.86,1m-.1,0a6.26,6.26,0,0,1,.8-1.13Z" style="fill: #263238"/>
    <path d="M113.89,72.15c0,4-.27,10.81,3.13,12.78a10,10,0,0,0,6.27,1,26,26,0,0,0,12.46-5.29c1.05-.79,2.08-1.57,3.13-2.46a30.84,30.84,0,0,0,2.86-2.62s.14,0,.09.11c-.86.92-1.68,1.88-2.54,2.8A25.44,25.44,0,0,1,136.61,81a27.3,27.3,0,0,1-6.14,3.93,22.23,22.23,0,0,1-6.86,1.93,10.2,10.2,0,0,1-6.74-1.13c-4.47-3-3.28-11.11-3-13.52-.09-.09,0-.13,0,0" style="fill: #263238"/>
  </g>
</svg>
